<svg id="Layer_1" data-name="Layer 1" xmlns="http://www.w3.org/2000/svg" viewBox="0 0 720 720"><defs><style>.cls-1{fill:#9c9b9b;}.cls-1,.cls-2,.cls-3,.cls-4{fill-rule:evenodd;}.cls-2,.cls-3{fill:#e20613;}.cls-2{stroke:#e20613;stroke-miterlimit:22.93;stroke-width:1.45px;}.cls-4{fill:#fff;}</style></defs><path class="cls-1" d="M49.56,55.42c-25.38,0-40.3,28.05-28.17,49l310.38,537.5c12.83,22.27,44.31,20.81,56.43,0l310.38-537.5c12.63-22-4.15-49-28.27-49Z"/><path class="cls-2" d="M49.56,62c-25.38,0-40.3,28.06-28.17,49L331.77,648.42c12.83,22.27,44.31,20.82,56.43,0L698.58,110.94c12.63-22-4.15-49-28.27-49Z"/><path class="cls-3" d="M49.56,74.27c-16,0-25,17.51-17.61,30.56L342.44,642.31c8.07,14,27.64,12.75,35.2,0L687.92,104.83c8-13.56-2.49-30.56-17.61-30.56Z"/><polygon class="cls-4" points="120.18 135.39 599.69 135.39 359.94 550.68 120.18 135.39"/><polygon class="cls-4" points="120.18 135.39 599.69 135.39 359.94 550.68 120.18 135.39"/></svg>