<svg id="Layer_1" data-name="Layer 1" xmlns="http://www.w3.org/2000/svg" viewBox="0 0 720 720"><defs><style>.cls-1{fill:#fff;}.cls-1,.cls-2{fill-rule:evenodd;}.cls-2{fill:#e20613;}</style></defs><polygon class="cls-1" points="215.89 12.09 504.11 12.09 707.92 215.89 707.92 504.11 504.11 707.91 215.89 707.91 12.08 504.11 12.08 215.89 215.89 12.09"/><polygon class="cls-2" points="227.41 39.9 492.59 39.9 680.08 227.42 680.08 492.58 492.59 680.07 227.41 680.07 39.92 492.58 39.92 227.42 227.41 39.9"/><path class="cls-1" d="M600.3,360.18q0,15.3-12.63,26.94t-32.1,11.66h-23V495h-23V225h46.06a48.4,48.4,0,0,1,31.23,10.87q13.5,10.86,13.5,27.32Z"/><path class="cls-1" d="M460.77,460.65q0,15.68-12.84,27.12t-32.78,11.46q-18.61,0-31.9-10.69T370,460.65V259.73q0-15.3,12.39-27.12t32.8-11.84q18.59,0,32.11,10.69t13.51,28.27Z"/><polygon class="cls-1" points="333.2 244.43 299.52 244.43 299.52 495.03 275.61 495.03 275.61 244.43 242.39 244.43 242.39 224.97 333.2 224.97 333.2 244.43"/><path class="cls-1" d="M210,460.59q0,15-12.84,26.8t-32.33,11.84a49.62,49.62,0,0,1-30.56-9.93q-14.65-11.06-14.63-28.65V430.48h22.6v30.17c0,4.86,2.28,9.1,6.86,12.81A24.4,24.4,0,0,0,164.87,479a23.55,23.55,0,0,0,15.06-5.73q7.09-5.73,7.09-12.61V408l-67.34-96.66V259.73q0-17.19,12.62-28.09t32.57-10.87q19.49,0,32.33,11A35.31,35.31,0,0,1,210,259.73v28.64H187V259.73q0-6.51-6.64-13a21.52,21.52,0,0,0-15.51-6.49q-8,0-15.29,6.29c-4.87,4.22-7.3,8.58-7.3,13.19v44.68L210,400.17Z"/><path class="cls-2" d="M436.85,460.65V259.73q0-6.51-6.64-13c-4.44-4.34-9.45-6.49-15.06-6.49s-10.78,2.15-15.51,6.49-7.09,8.65-7.09,13V460.65q0,7.62,7.32,13A25.44,25.44,0,0,0,415.15,479a24.42,24.42,0,0,0,15.06-5A15.79,15.79,0,0,0,436.85,460.65Z"/><path class="cls-2" d="M576.38,360.18v-97a17.2,17.2,0,0,0-6.86-14,24.42,24.42,0,0,0-15.72-5.52H532.53V378.54h23a21.74,21.74,0,0,0,14.63-5.37A16.57,16.57,0,0,0,576.38,360.18Z"/></svg>