<svg id="Layer_1" data-name="Layer 1" xmlns="http://www.w3.org/2000/svg" viewBox="0 0 720 720"><defs><style>.cls-1,.cls-2{fill:#fff;stroke:#1d1d1b;stroke-miterlimit:10;}.cls-1{stroke-width:0.95px;}.cls-2{stroke-width:0.64px;}.cls-3{fill:#e20613;fill-rule:evenodd;}</style></defs><rect class="cls-1" x="11.56" y="269.93" width="696.88" height="180.14"/><rect class="cls-2" x="11.56" y="269.93" width="330.71" height="180.14"/><polygon class="cls-3" points="11.56 332.39 159.08 269.93 11.56 269.93 11.56 332.39"/><polygon class="cls-3" points="11.56 388.62 285.59 269.93 342.27 269.93 342.27 284.43 11.56 439.05 11.56 388.62"/><polygon class="cls-3" points="85.32 450.07 342.27 332.39 342.27 378.69 176.91 450.07 85.32 450.07"/><rect class="cls-2" x="377.73" y="269.93" width="330.71" height="180.14" transform="translate(1086.17 720) rotate(-180)"/><polygon class="cls-3" points="708.44 332.39 560.92 269.93 708.44 269.93 708.44 332.39"/><polygon class="cls-3" points="708.44 388.62 434.41 269.93 377.73 269.93 377.73 284.43 708.44 439.05 708.44 388.62"/><polygon class="cls-3" points="634.68 450.07 377.73 332.39 377.73 378.69 543.09 450.07 634.68 450.07"/></svg>