<svg id="Layer_1" data-name="Layer 1" xmlns="http://www.w3.org/2000/svg" xmlns:xlink="http://www.w3.org/1999/xlink" viewBox="0 0 720 720"><defs><style>.cls-1{fill:#9c9b9b;}.cls-1,.cls-2,.cls-3,.cls-4,.cls-5{fill-rule:evenodd;}.cls-2,.cls-4{fill:#fff;}.cls-2{stroke:#1d1d1b;stroke-miterlimit:22.93;stroke-width:1.99px;}.cls-3{fill:#e20613;}.cls-5{fill:#1d1d1b;}.cls-6{fill:url(#linear-gradient);}.cls-7{fill:#04613d;}.cls-8{fill:url(#linear-gradient-2);}.cls-9{fill:url(#linear-gradient-3);}.cls-10{fill:url(#linear-gradient-4);}.cls-11{fill:url(#linear-gradient-5);}.cls-12{fill:url(#linear-gradient-6);}.cls-13{fill:url(#linear-gradient-7);}</style><linearGradient id="linear-gradient" x1="41.23" y1="682.63" x2="28.74" y2="704.26" gradientUnits="userSpaceOnUse"><stop offset="0" stop-color="#060806"/><stop offset="0.18" stop-color="#fff"/><stop offset="0.2" stop-color="#d0d0d0"/><stop offset="0.23" stop-color="#a2a3a2"/><stop offset="0.27" stop-color="#7a7a7a"/><stop offset="0.3" stop-color="#585858"/><stop offset="0.34" stop-color="#3c3d3c"/><stop offset="0.38" stop-color="#272827"/><stop offset="0.42" stop-color="#181918"/><stop offset="0.47" stop-color="#0f100f"/><stop offset="0.55" stop-color="#0c0d0c"/></linearGradient><linearGradient id="linear-gradient-2" x1="360" y1="684.53" x2="360" y2="648.39" gradientUnits="userSpaceOnUse"><stop offset="0.67" stop-color="#0c0d0c"/><stop offset="0.77" stop-color="#0e0f0e"/><stop offset="0.8" stop-color="#151615"/><stop offset="0.83" stop-color="#202120"/><stop offset="0.85" stop-color="#313231"/><stop offset="0.87" stop-color="#474847"/><stop offset="0.88" stop-color="#636363"/><stop offset="0.9" stop-color="#838483"/><stop offset="0.91" stop-color="#a9a9a9"/><stop offset="0.92" stop-color="#d2d2d2"/><stop offset="0.93" stop-color="#fff"/><stop offset="0.93" stop-color="#f4f5f5"/><stop offset="0.94" stop-color="#c2c2c2"/><stop offset="0.95" stop-color="#969696"/><stop offset="0.96" stop-color="#727373"/><stop offset="0.97" stop-color="#565757"/><stop offset="0.98" stop-color="#434444"/><stop offset="0.99" stop-color="#373838"/><stop offset="1" stop-color="#333434"/></linearGradient><linearGradient id="linear-gradient-3" x1="691.26" y1="704.01" x2="678.77" y2="682.38" gradientUnits="userSpaceOnUse"><stop offset="0" stop-color="#0c0d0c"/><stop offset="0.31" stop-color="#0e0f0e"/><stop offset="0.43" stop-color="#151615"/><stop offset="0.51" stop-color="#202120"/><stop offset="0.57" stop-color="#313231"/><stop offset="0.63" stop-color="#474847"/><stop offset="0.68" stop-color="#636363"/><stop offset="0.72" stop-color="#838483"/><stop offset="0.76" stop-color="#a9a9a9"/><stop offset="0.8" stop-color="#d2d2d2"/><stop offset="0.83" stop-color="#fff"/><stop offset="0.85" stop-color="#c8c8c8"/><stop offset="0.87" stop-color="#959695"/><stop offset="0.89" stop-color="#696a69"/><stop offset="0.91" stop-color="#454745"/><stop offset="0.94" stop-color="#292b29"/><stop offset="0.96" stop-color="#161816"/><stop offset="0.98" stop-color="#0a0c0a"/><stop offset="1" stop-color="#060806"/></linearGradient><linearGradient id="linear-gradient-4" x1="360.48" y1="680.67" x2="360.48" y2="642.54" gradientUnits="userSpaceOnUse"><stop offset="0" stop-color="#262727"/><stop offset="0.09" stop-color="#282929"/><stop offset="0.13" stop-color="#2f3030"/><stop offset="0.16" stop-color="#3c3d3d"/><stop offset="0.18" stop-color="#4e4f4f"/><stop offset="0.2" stop-color="#666767"/><stop offset="0.22" stop-color="#838484"/><stop offset="0.24" stop-color="#a6a6a6"/><stop offset="0.26" stop-color="#cecece"/><stop offset="0.27" stop-color="#fafafa"/><stop offset="0.27" stop-color="#fff"/><stop offset="0.28" stop-color="#f9f9f9"/><stop offset="0.31" stop-color="#d0d0d0"/><stop offset="0.35" stop-color="#aaa"/><stop offset="0.39" stop-color="#8a8a8a"/><stop offset="0.43" stop-color="#6e6f6f"/><stop offset="0.48" stop-color="#585959"/><stop offset="0.54" stop-color="#474848"/><stop offset="0.61" stop-color="#3c3d3d"/><stop offset="0.72" stop-color="#353636"/><stop offset="1" stop-color="#333434"/></linearGradient><linearGradient id="linear-gradient-5" x1="360.48" y1="680.67" x2="360.48" y2="708.57" xlink:href="#linear-gradient-4"/><linearGradient id="linear-gradient-6" x1="142.1" y1="648.39" x2="142.1" y2="638.43" gradientUnits="userSpaceOnUse"><stop offset="0" stop-color="#404242"/><stop offset="0.07" stop-color="#474949"/><stop offset="0.17" stop-color="#5b5d5d"/><stop offset="0.3" stop-color="#7b7d7d"/><stop offset="0.44" stop-color="#a8a9a9"/><stop offset="0.59" stop-color="#e1e1e1"/><stop offset="0.66" stop-color="#fff"/><stop offset="0.67" stop-color="#f5f6f5"/><stop offset="0.71" stop-color="#c3c3c3"/><stop offset="0.76" stop-color="#979897"/><stop offset="0.81" stop-color="#737574"/><stop offset="0.86" stop-color="#575958"/><stop offset="0.9" stop-color="#444645"/><stop offset="0.95" stop-color="#383a39"/><stop offset="1" stop-color="#343635"/></linearGradient><linearGradient id="linear-gradient-7" x1="576.35" y1="648.39" x2="576.35" y2="638.43" xlink:href="#linear-gradient-6"/></defs><path class="cls-1" d="M679.53,638.43c26.12,0,41.48-28.88,29-50.42L389.05,34.78c-13.2-22.91-45.6-21.42-58.08,0L11.51,588c-13,22.6,4.27,50.42,29.1,50.42Z"/><path class="cls-2" d="M679.53,631.69c26.12,0,41.48-28.88,29-50.42L389.05,28.07c-13.2-22.93-45.6-21.43-58.08,0L11.51,581.27c-13,22.62,4.27,50.42,29.1,50.42Z"/><path class="cls-3" d="M679.53,619c16.42,0,25.69-18,18.12-31.46L378.07,34.36c-8.3-14.42-28.45-13.13-36.23,0L22.48,587.56c-8.2,14,2.57,31.46,18.13,31.46Z"/><polygon class="cls-4" points="606.84 556.11 113.29 556.11 360.06 128.67 606.84 556.11"/><polygon class="cls-4" points="606.84 556.11 113.29 556.11 360.06 128.67 606.84 556.11"/><path class="cls-5" d="M360.06,485.3a29.4,29.4,0,1,1-29.4,29.41,29.42,29.42,0,0,1,29.4-29.41Zm-29.4-253.95,9.12,223.79c.94,22.85,39.63,22.85,40.57,0l9.13-223.79C390.72,200.73,329.42,200.73,330.66,231.35Z"/><path class="cls-6" d="M39,681.34l-1.68-1a2.76,2.76,0,0,0-3.67.84l-10.88,16a2.77,2.77,0,0,0,.87,3.93l10.23,6.11a2.77,2.77,0,0,0,3.91-1.17l8.49-17.55a2.76,2.76,0,0,0-1.11-3.6l-.64-.37-.08.18Z"/><polygon class="cls-7" points="44.43 684.71 44.51 684.53 38.99 681.34 44.43 684.71"/><polygon class="cls-8" points="667.67 648.44 667.67 648.39 667.65 648.39 660.18 648.39 54.29 648.39 54.29 648.64 52.35 648.64 36.95 680.08 38.99 681.34 44.51 684.53 57.88 656.91 58.22 655.46 661.84 655.46 662.12 656.66 675.49 684.28 681.01 681.09 683.04 679.83 667.67 648.44"/><path class="cls-9" d="M681,681.09l1.68-1a2.76,2.76,0,0,1,3.67.84l10.88,16a2.77,2.77,0,0,1-.87,3.93L686.14,707a2.77,2.77,0,0,1-3.91-1.17l-8.49-17.55a2.76,2.76,0,0,1,1.11-3.6l.64-.37.08.18Z"/><polygon class="cls-7" points="675.57 684.46 675.49 684.28 681.01 681.09 675.57 684.46"/><path class="cls-10" d="M344.06,642.54H376.9a.82.82,0,0,1,.82.82v37.32a0,0,0,0,1,0,0H343.25a0,0,0,0,1,0,0V643.35A.82.82,0,0,1,344.06,642.54Z"/><path class="cls-11" d="M339,680.67h42.9a1.07,1.07,0,0,1,1.07,1.07v26.83a0,0,0,0,1,0,0H338a0,0,0,0,1,0,0V681.74A1.07,1.07,0,0,1,339,680.67Z"/><rect class="cls-12" x="114.97" y="638.43" width="54.25" height="9.97"/><rect class="cls-13" x="549.23" y="638.43" width="54.25" height="9.97"/></svg>