<svg id="Layer_1" data-name="Layer 1" xmlns="http://www.w3.org/2000/svg" viewBox="0 0 720 720"><defs><style>.cls-1{fill:#9c9b9b;}.cls-1,.cls-2,.cls-3{fill-rule:evenodd;}.cls-2{fill:#fff;}.cls-3,.cls-4{fill:#1d1d1b;}</style></defs><path class="cls-1" d="M711.24,139.77V239.89c0,4.87-8.27,8.84-18.38,8.84H27.14c-10.09,0-18.36-4-18.36-8.84V139.77c0-4.86,8.27-8.84,18.36-8.84H692.86C703,130.93,711.24,134.91,711.24,139.77Z"/><path class="cls-2" d="M711.24,136.38V236.5c0,4.86-8.27,8.84-18.38,8.84H27.14c-10.09,0-18.36-4-18.36-8.84V136.38c0-4.86,8.27-8.84,18.36-8.84H692.86C703,127.54,711.24,131.52,711.24,136.38Z"/><path class="cls-3" d="M709.53,236.5h0V136.38h3.41V236.5Zm-16.67,9.66,1,0,1,0,1-.06,1-.09,1-.1,1-.12.93-.17.92-.17.88-.19.86-.22.84-.22.82-.26.8-.27.76-.28.7-.32.72-.31.66-.33.62-.36.6-.35.57-.38.53-.4.48-.4.45-.42.4-.43.36-.43.31-.45.27-.46.22-.47.18-.48.12-.47.08-.49,0-.5h-3.41l0,.42-.07.4-.1.41-.14.39-.19.37-.23.39-.27.37-.29.36-.34.36-.36.34-.42.34-.42.32-.46.31-.5.31-.53.3-.55.27-.58.27-.61.25-.63.24-.65.23-.69.2-.69.2-.72.17-.74.16-.76.15-.77.12-.78.11-.81.1-.82.06-.84.06-.84,0h-.85v1.64ZM27.14,244.52H692.86v1.64H27.14v-1.64Zm-20.07-8,0,.5.08.49.12.47.18.48.22.47.27.46.32.45.36.43.41.43.43.42.5.4.51.4.57.37.6.36.62.36.67.33.71.31.73.32.75.28.78.27.82.26.84.22.86.22.89.19.91.17.93.17.95.12,1,.1,1,.09,1,.06,1,0,1,0v-1.64h-.85l-.84,0-.84-.06-.82-.06-.8-.1-.78-.11-.77-.12-.76-.15-.74-.16-.72-.17-.69-.2-.67-.2-.66-.23-.64-.24-.61-.25-.57-.27-.56-.27-.52-.29-.51-.32-.46-.31-.42-.32-.41-.34-.36-.34-.34-.36-.3-.36-.26-.37-.24-.39-.17-.37-.15-.39-.11-.41-.07-.4v-.42Zm3.42-100.12h0V236.5H7.07V136.38Zm16.65-9.66-1,0-1,0-1,.07-1,.09-1,.09-.95.14-.93.15-.91.18-.89.19-.86.22-.84.22-.82.26-.78.27-.75.29-.73.3-.72.32-.66.34-.62.35-.6.36-.57.38-.51.39-.5.41-.43.42-.41.42-.36.44-.32.45-.27.45-.22.47-.18.48-.12.48-.08.49,0,.49h3.42V136l.07-.4.11-.41.15-.39.17-.39.24-.37.26-.38.3-.36.34-.35.36-.35.41-.34.42-.33.46-.31.51-.3.52-.29.56-.28.57-.27.61-.25.64-.25.66-.21.67-.22.69-.19.72-.17.74-.17.76-.14.77-.12.78-.11.8-.09.82-.07.84-.06.84,0h.85v-1.65Zm665.72,1.65H27.14v-1.65H692.86v1.65Zm20.08,8,0-.49-.08-.49-.12-.48-.18-.48-.22-.47-.27-.45-.31-.45-.36-.44-.4-.42-.45-.42-.48-.41-.53-.39-.57-.38-.6-.36-.62-.35-.66-.34-.72-.32-.7-.3-.76-.29-.8-.27-.82-.26-.84-.22-.86-.22-.88-.19-.92-.18-.93-.15-1-.14-1-.09-1-.09-1-.07-1,0-1,0v1.65h.85l.84,0,.84.06.82.07.81.09.78.11.77.12.76.14.74.17.72.17.69.19.69.22.65.21.63.25.61.25.57.27.56.28.53.29.5.3.46.31.42.33.42.34.36.35.34.35.29.36.27.38.23.37.19.39.14.39.1.41.07.4,0,.41Z"/><path class="cls-4" d="M144.36,162.71v46H135V182.26c0-.62,0-1.28.05-2s.09-1.45.17-2.18L123,201.74a4.07,4.07,0,0,1-1.53,1.67,4.21,4.21,0,0,1-2.19.57h-1.46a4.21,4.21,0,0,1-2.19-.57,4.07,4.07,0,0,1-1.53-1.67L101.83,178c.06.76.11,1.5.16,2.23s.06,1.39.06,2v26.46H92.64v-46h8.15c.46,0,.86,0,1.21,0a3.19,3.19,0,0,1,.93.19,2.26,2.26,0,0,1,.75.49,4.14,4.14,0,0,1,.64.93l11.84,23.34c.42.8.83,1.63,1.22,2.49s.76,1.75,1.12,2.65c.36-.92.73-1.83,1.12-2.71s.81-1.73,1.25-2.53l11.81-23.24a3.58,3.58,0,0,1,.65-.93,2.13,2.13,0,0,1,.74-.49,3.19,3.19,0,0,1,.93-.19c.34,0,.75,0,1.21,0Z"/><path class="cls-4" d="M170.19,162.71a32.25,32.25,0,0,1,8.12.88,15.35,15.35,0,0,1,5.46,2.5,9.45,9.45,0,0,1,3.08,3.91,13.28,13.28,0,0,1,1,5.15,10.3,10.3,0,0,1-.44,3,8.79,8.79,0,0,1-1.39,2.68,10.93,10.93,0,0,1-2.43,2.29,15.66,15.66,0,0,1-3.57,1.8,12.68,12.68,0,0,1,6.73,3.57,9.27,9.27,0,0,1,2.18,6.38,13.16,13.16,0,0,1-1.14,5.46,12.56,12.56,0,0,1-3.33,4.4,16,16,0,0,1-5.42,2.94,23.7,23.7,0,0,1-7.35,1.06H153.27v-46Zm-6.25,8v11.36h5.56a18.08,18.08,0,0,0,3.18-.25,6.66,6.66,0,0,0,2.42-.88,4.09,4.09,0,0,0,1.52-1.74,6.6,6.6,0,0,0,.52-2.78,7.93,7.93,0,0,0-.41-2.73,4,4,0,0,0-1.26-1.75,5.4,5.4,0,0,0-2.17-1,14.81,14.81,0,0,0-3.11-.28Zm7.51,30a9.39,9.39,0,0,0,3.46-.53,5.58,5.58,0,0,0,2.1-1.39,4.61,4.61,0,0,0,1-1.93,8.42,8.42,0,0,0,.29-2.18,7.27,7.27,0,0,0-.33-2.27,3.8,3.8,0,0,0-1.14-1.7,5.48,5.48,0,0,0-2.13-1.08,12.56,12.56,0,0,0-3.35-.38h-7.45v11.46Z"/><path class="cls-4" d="M236,208.72h-8.28a3.63,3.63,0,0,1-2.24-.65,4.07,4.07,0,0,1-1.29-1.66l-2.72-8H204l-2.72,8a3.85,3.85,0,0,1-1.24,1.6,3.54,3.54,0,0,1-2.23.71h-8.34l17.81-46h10.93Zm-17-17.59-4.26-12.6c-.32-.8-.65-1.74-1-2.83s-.72-2.25-1.08-3.52c-.31,1.29-.65,2.48-1,3.57s-.69,2-1,2.84l-4.23,12.54Z"/><path class="cls-4" d="M260.25,184.88H276.6v19.41a24.07,24.07,0,0,1-7.53,3.76,29.51,29.51,0,0,1-8.35,1.17,28.66,28.66,0,0,1-10.34-1.78,23.69,23.69,0,0,1-8-4.93,21.48,21.48,0,0,1-5.12-7.45,24.09,24.09,0,0,1-1.8-9.36,25.39,25.39,0,0,1,1.71-9.46,21.25,21.25,0,0,1,4.88-7.44,22.15,22.15,0,0,1,7.67-4.86,27.67,27.67,0,0,1,10.05-1.74,29,29,0,0,1,5.41.48,25.84,25.84,0,0,1,4.65,1.29,21.41,21.41,0,0,1,7.06,4.42l-3.1,4.71a3,3,0,0,1-1.87,1.36,3.34,3.34,0,0,1-2.48-.57c-.84-.51-1.64-.94-2.39-1.31a14.31,14.31,0,0,0-2.29-.9,14.48,14.48,0,0,0-2.46-.51,25.19,25.19,0,0,0-2.9-.16,13.31,13.31,0,0,0-5.4,1.06,11.53,11.53,0,0,0-4.09,3,13.37,13.37,0,0,0-2.61,4.62,18.69,18.69,0,0,0-.91,6,19.16,19.16,0,0,0,1,6.5,13.32,13.32,0,0,0,2.85,4.8,12.23,12.23,0,0,0,4.43,3,15.29,15.29,0,0,0,5.69,1,14.93,14.93,0,0,0,3.49-.38,19.46,19.46,0,0,0,3.05-1v-7h-4.55a2.21,2.21,0,0,1-1.58-.53,1.78,1.78,0,0,1-.56-1.36Z"/><path class="cls-4" d="M324.35,208.72h-8.27a3.64,3.64,0,0,1-2.25-.65,4.07,4.07,0,0,1-1.29-1.66l-2.72-8H292.33l-2.71,8a4,4,0,0,1-1.25,1.6,3.5,3.5,0,0,1-2.23.71h-8.33l17.8-46h10.93Zm-17-17.59-4.26-12.6c-.32-.8-.65-1.74-1-2.83s-.72-2.25-1.08-3.52c-.31,1.29-.65,2.48-1,3.57s-.69,2-1,2.84l-4.23,12.54Z"/><path class="cls-4" d="M356.55,171.17H343.61v37.55H332.94V171.17H320v-8.46h36.56Z"/><path class="cls-4" d="M402.12,162.71v46H391.38V189.26H372.69v19.46H362v-46h10.74v19.23h18.69V162.71Z"/><path class="cls-4" d="M421.76,208.72H411v-46h10.74Z"/><path class="cls-4" d="M482.89,208.72h-9.67a4.11,4.11,0,0,1-3.85-2l-7.64-13.36a3.71,3.71,0,0,0-1.2-1.25,3.75,3.75,0,0,0-1.89-.39h-2.72v17H445.25v-46h15a30.4,30.4,0,0,1,8.5,1,15.88,15.88,0,0,1,5.75,2.85,10.86,10.86,0,0,1,3.24,4.33,15.15,15.15,0,0,1,.41,9.66,13,13,0,0,1-1.77,3.68,13.52,13.52,0,0,1-2.89,3,15.71,15.71,0,0,1-4,2.18,9.38,9.38,0,0,1,3.6,3.25Zm-22.67-24.38a11.2,11.2,0,0,0,3.71-.55,6.82,6.82,0,0,0,2.51-1.53,6,6,0,0,0,1.42-2.3,8.87,8.87,0,0,0,.44-2.82,6,6,0,0,0-2-4.74q-2-1.69-6.11-1.7h-4.3v13.64Z"/><path class="cls-4" d="M497.51,208.72H486.77v-46h10.74Z"/><path class="cls-4" d="M548.16,185.7a24.07,24.07,0,0,1-1.73,9.2,21.43,21.43,0,0,1-4.84,7.29,22.05,22.05,0,0,1-7.53,4.81,26.85,26.85,0,0,1-9.78,1.72H506.41v-46h17.87a26.43,26.43,0,0,1,9.78,1.74,22.18,22.18,0,0,1,7.53,4.8,21.25,21.25,0,0,1,4.84,7.27A24,24,0,0,1,548.16,185.7Zm-10.93,0a20.32,20.32,0,0,0-.88-6.16,13.18,13.18,0,0,0-2.55-4.66,11,11,0,0,0-4-2.93,13.68,13.68,0,0,0-5.47-1h-7.13v29.59h7.13a13.68,13.68,0,0,0,5.47-1,10.86,10.86,0,0,0,4-2.94,13,13,0,0,0,2.55-4.65A20.52,20.52,0,0,0,537.23,185.7Z"/><path class="cls-4" d="M576.57,184.88h16.36v19.41a24.18,24.18,0,0,1-7.53,3.76,29.56,29.56,0,0,1-8.35,1.17,28.66,28.66,0,0,1-10.34-1.78,23.74,23.74,0,0,1-8-4.93,21.59,21.59,0,0,1-5.11-7.45,24.09,24.09,0,0,1-1.8-9.36,25.59,25.59,0,0,1,1.7-9.46,21.53,21.53,0,0,1,4.88-7.44,22.24,22.24,0,0,1,7.67-4.86,27.72,27.72,0,0,1,10.06-1.74,28.85,28.85,0,0,1,5.4.48,25.73,25.73,0,0,1,4.66,1.29,21.41,21.41,0,0,1,7.06,4.42l-3.1,4.71a3,3,0,0,1-1.88,1.36,3.35,3.35,0,0,1-2.48-.57c-.84-.51-1.63-.94-2.38-1.31a14.31,14.31,0,0,0-2.29-.9,14.68,14.68,0,0,0-2.46-.51,25.24,25.24,0,0,0-2.91-.16,13.34,13.34,0,0,0-5.4,1.06,11.61,11.61,0,0,0-4.09,3,13.51,13.51,0,0,0-2.6,4.62,18.69,18.69,0,0,0-.92,6,19.41,19.41,0,0,0,1,6.5,13.48,13.48,0,0,0,2.86,4.8,12.28,12.28,0,0,0,4.42,3,15.38,15.38,0,0,0,5.7,1,15,15,0,0,0,3.49-.38,19.46,19.46,0,0,0,3-1v-7h-4.55a2.21,2.21,0,0,1-1.58-.53,1.79,1.79,0,0,1-.57-1.36Z"/><path class="cls-4" d="M610.83,170.92v10.73h14.46v7.9H610.83v11h18.88v8.21H600.1v-46h29.61v8.21Z"/><path class="cls-1" d="M711.23,312.05V412.17c0,4.86-8.26,8.84-18.37,8.84H27.13C17,421,8.77,417,8.77,412.17V312.05c0-4.86,8.27-8.84,18.36-8.84H692.86C703,303.21,711.23,307.19,711.23,312.05Z"/><path class="cls-2" d="M711.23,308.65V408.77c0,4.86-8.26,8.84-18.37,8.84H27.13c-10.09,0-18.36-4-18.36-8.84V308.65c0-4.86,8.27-8.84,18.36-8.84H692.86C703,299.81,711.23,303.79,711.23,308.65Z"/><path class="cls-3" d="M709.53,408.77h0V308.65h3.4V408.77Zm-16.67,9.66,1,0,1,0,1-.07,1-.08,1-.1,1-.13.93-.16.92-.18.88-.19.87-.21.84-.23.81-.26.8-.27.76-.28.71-.31.71-.31.66-.34.63-.35.59-.36.57-.38.53-.4.48-.4L711,413l.4-.43.36-.43.32-.45.26-.45.23-.48.17-.47.13-.47.08-.5,0-.5h-3.4l0,.42-.07.4-.1.41-.15.39-.19.38-.22.39-.27.36-.29.37-.35.35-.36.35-.41.33-.43.33-.46.31-.5.3-.53.3-.54.27-.59.27-.6.25-.64.25-.65.22-.68.21-.7.19-.71.17-.74.17-.76.15-.78.12-.78.1-.81.1-.81.06-.84.06-.84,0h-.85v1.64ZM27.13,416.79H692.86v1.64H27.13v-1.64Zm-20.06-8,0,.5.08.5.12.47.18.47.23.48.27.45.31.45.37.43.4.43.44.42.49.4.52.4.57.37.59.37.63.35.67.34.7.31.73.31.75.28.79.27.81.26.84.23.87.21.88.19.92.18.93.16.95.13,1,.1,1,.08,1,.07,1,0,1,0v-1.64h-.85l-.84,0-.84-.06-.82-.06-.79-.1-.78-.1-.78-.12-.76-.15-.74-.17-.71-.17-.7-.19-.67-.21-.66-.22-.64-.25-.6-.25-.57-.27-.56-.27-.53-.29-.5-.31-.46-.31-.43-.33-.4-.33-.37-.35-.34-.35-.3-.37-.26-.36-.23-.39-.18-.38-.15-.39-.11-.41-.07-.4v-.42Zm3.41-100.12h0V408.77H7.07V308.65ZM27.13,299l-1,0-1,0-1,.06-1,.09-1,.1-.95.14-.93.15-.92.17-.88.19-.87.22-.84.23-.81.25-.79.27-.75.29-.73.31-.71.31-.66.34-.63.35-.59.36-.57.38-.52.39-.49.41-.44.42-.4.42-.37.44L8,305.8l-.27.45-.23.46-.18.49-.12.47-.08.5,0,.48h3.41v-.41l.07-.4.11-.41.15-.38.18-.39.23-.38.26-.38.3-.35.34-.36.37-.34.4-.35.43-.32.46-.31.5-.31.53-.29.56-.28.57-.27.6-.24.64-.25.66-.22.67-.21.7-.2.71-.17.74-.16.76-.14.78-.13.78-.11.79-.09.82-.07.84-.05.84,0h.85V299Zm665.73,1.65H27.13V299H692.86v1.65Zm20.07,8,0-.48-.08-.5-.13-.47-.17-.49-.23-.46-.26-.45-.32-.46-.36-.44-.4-.42-.45-.42-.48-.41-.53-.39-.57-.38-.59-.36-.63-.35-.66-.34-.71-.31-.71-.31-.76-.29-.8-.27-.81-.25-.84-.23-.87-.22-.88-.19-.92-.17-.93-.15-1-.14-1-.1-1-.09-1-.06-1,0-1,0v1.65h.85l.84,0,.84.05.81.07.81.09.78.11.78.13.76.14.74.16.71.17.7.2.68.21.65.22.64.25.6.24.57.27.56.28.53.29.5.31.46.31.43.32.41.35.36.34.35.36.29.35.27.38.22.38.19.39.15.38.1.41.07.4,0,.41Z"/><path class="cls-4" d="M216.76,335v46h-9.41V354.53c0-.61,0-1.28.05-2s.09-1.44.17-2.18L195.35,374a4,4,0,0,1-1.53,1.67,4.24,4.24,0,0,1-2.2.57h-1.45a4.21,4.21,0,0,1-2.19-.57,3.83,3.83,0,0,1-1.53-1.67L174.23,350.3c.06.75.11,1.5.15,2.22s.07,1.4.07,2V381H165V335h8.14c.47,0,.87,0,1.22,0a3.19,3.19,0,0,1,.93.19,2.22,2.22,0,0,1,.74.49,3.84,3.84,0,0,1,.65.93L188.56,360c.42.8.83,1.63,1.22,2.49s.76,1.75,1.12,2.65c.35-.92.73-1.83,1.12-2.71s.8-1.73,1.24-2.53l11.81-23.24a3.84,3.84,0,0,1,.65-.93,2.17,2.17,0,0,1,.75-.49,3.19,3.19,0,0,1,.93-.19c.34,0,.75,0,1.21,0Z"/><path class="cls-4" d="M270.82,358a24.83,24.83,0,0,1-1.72,9.28,21.94,21.94,0,0,1-12.38,12.44,27.47,27.47,0,0,1-19.56,0,22,22,0,0,1-12.43-12.44,25.92,25.92,0,0,1,0-18.57,22.13,22.13,0,0,1,4.87-7.45,22.46,22.46,0,0,1,7.56-5,27.4,27.4,0,0,1,19.56,0,22.6,22.6,0,0,1,7.53,5,22.18,22.18,0,0,1,4.85,7.45A24.74,24.74,0,0,1,270.82,358Zm-10.93,0a19.88,19.88,0,0,0-.88-6.14,13.18,13.18,0,0,0-2.54-4.63,11,11,0,0,0-4.06-2.9,13.84,13.84,0,0,0-5.46-1,14,14,0,0,0-5.51,1,10.9,10.9,0,0,0-4.08,2.9,13.18,13.18,0,0,0-2.54,4.63,22,22,0,0,0,0,12.31,13,13,0,0,0,2.54,4.63,10.88,10.88,0,0,0,4.08,2.89,14.4,14.4,0,0,0,5.51,1,14.21,14.21,0,0,0,5.46-1,11,11,0,0,0,4.06-2.89,13,13,0,0,0,2.54-4.63A20,20,0,0,0,259.89,358Z"/><path class="cls-4" d="M287.84,381H277.1V335h10.74Z"/><path class="cls-4" d="M350.45,381h-8.27a3.59,3.59,0,0,1-2.24-.65,4,4,0,0,1-1.3-1.66l-2.71-8h-17.5l-2.71,8a4,4,0,0,1-1.25,1.6,3.5,3.5,0,0,1-2.23.71h-8.33l17.81-46h10.92ZM333.5,363.4l-4.27-12.6c-.31-.8-.65-1.74-1-2.82s-.72-2.26-1.07-3.53c-.32,1.29-.65,2.48-1,3.57s-.7,2.05-1,2.84L320.9,363.4Z"/><path class="cls-4" d="M391.5,335l-18.44,46H363.4L345,335h8.58a3.64,3.64,0,0,1,2.25.65,4.09,4.09,0,0,1,1.29,1.66L366,361.92c.42,1.07.83,2.24,1.23,3.52s.77,2.6,1.14,4q.43-2.08,1-4c.37-1.28.76-2.45,1.18-3.52l8.84-24.63a3.88,3.88,0,0,1,1.25-1.6,3.5,3.5,0,0,1,2.23-.71Z"/><path class="cls-4" d="M405.86,343.19v10.74h14.47v7.89H405.86v11h18.89V381H395.13V335h29.62v8.21Z"/><path class="cls-4" d="M471.48,335v46h-5.56a4.67,4.67,0,0,1-2.06-.4,5.05,5.05,0,0,1-1.66-1.37l-21.69-27.44c.08.82.14,1.62.17,2.38s.05,1.49.05,2.17V381h-9.41V335h5.62a7.58,7.58,0,0,1,1.16.07,3.09,3.09,0,0,1,.86.23,3,3,0,0,1,.72.49,8.67,8.67,0,0,1,.79.85l21.89,27.63c-.11-.88-.18-1.74-.23-2.57s-.06-1.62-.06-2.35V335Z"/><path class="cls-4" d="M499.59,372.56a9.83,9.83,0,0,0,3.83-.71,7.76,7.76,0,0,0,2.86-2,8.9,8.9,0,0,0,1.78-3.24,14.12,14.12,0,0,0,.62-4.34V335h10.67v27.25A21.43,21.43,0,0,1,518,370a17.19,17.19,0,0,1-10.16,10.07,24.7,24.7,0,0,1-16.51,0,17.63,17.63,0,0,1-6.22-4,17.14,17.14,0,0,1-3.91-6.09,21.42,21.42,0,0,1-1.36-7.77V335h10.67V362.2a14.12,14.12,0,0,0,.62,4.34,9.16,9.16,0,0,0,1.78,3.26,7.78,7.78,0,0,0,2.86,2.05A9.85,9.85,0,0,0,499.59,372.56Z"/><path class="cls-4" d="M538.42,343.19v10.74h14.47v7.89H538.42v11h18.89V381H527.69V335h29.62v8.21Z"/><path class="cls-1" d="M711.22,484.32V584.44c0,4.86-8.26,8.84-18.37,8.84H27.13c-10.09,0-18.36-4-18.36-8.84V484.32c0-4.86,8.27-8.84,18.36-8.84H692.85C703,475.48,711.22,479.46,711.22,484.32Z"/><path class="cls-2" d="M711.22,480.92V581.05c0,4.86-8.26,8.83-18.37,8.83H27.13c-10.09,0-18.36-4-18.36-8.83V480.92c0-4.86,8.27-8.83,18.36-8.83H692.85C703,472.09,711.22,476.06,711.22,480.92Z"/><path class="cls-3" d="M709.52,581.05h0V480.92h3.41V581.05Zm-16.67,9.65,1,0,1,0,1-.07,1-.08,1-.1,1-.13.93-.16.91-.17.89-.2.86-.21.84-.23.82-.26.79-.27.77-.28.7-.31.72-.31.66-.34.62-.35.6-.36.57-.37.53-.4.47-.4.45-.42.41-.43.36-.43.31-.46.27-.45.22-.47.18-.48.12-.47.08-.5,0-.49h-3.41l0,.42-.07.4-.1.41-.14.38L709,583l-.23.39-.27.37-.29.36-.35.36-.35.34-.42.34-.42.32-.46.31-.51.3-.52.31-.55.26-.58.27-.61.25-.64.25-.64.23-.69.2-.69.2-.72.17-.74.16-.76.15-.77.12-.78.11-.81.09-.82.07-.84,0-.84,0-.85,0v1.63ZM27.13,589.07H692.85v1.63H27.13v-1.63Zm-20.07-8,0,.49.08.5.12.47.18.48.22.47.27.45.31.46.37.43.41.43.43.42.5.4.51.4.57.36.59.37.63.35.67.34.71.31.73.31.75.28.78.27.82.26.84.23.86.21.88.2.92.17.93.16.95.13,1,.1,1,.08,1,.07,1,0,1,0v-1.63l-.85,0-.84,0-.84,0-.82-.07-.8-.09-.78-.11-.77-.12-.76-.15-.74-.16-.72-.17-.69-.2-.68-.2-.66-.23-.63-.25-.61-.25-.57-.27-.56-.26-.53-.3-.5-.31-.46-.31-.42-.32-.41-.34-.37-.34-.33-.36-.3-.36-.26-.37L11,583l-.18-.38-.14-.38-.11-.41-.07-.4v-.42Zm3.42-100.13h0V581.05H7.06V480.92Zm16.65-9.65-1,0-1,0-1,.07-1,.08-1,.1-.95.14-.93.15-.92.17-.88.2-.86.21-.84.23-.82.26-.78.27-.75.29-.73.3-.72.31-.66.35-.63.34-.59.37-.57.38-.51.38-.5.41-.43.42-.41.42-.37.45-.31.45-.27.45-.22.46-.18.49-.12.47-.08.5,0,.48h3.42v-.4l.07-.4.11-.41.14-.39.18-.39.24-.38.26-.37.3-.36.33-.36.37-.34.41-.34.42-.33.46-.31.5-.3.53-.29.56-.28.57-.27.61-.25.63-.25.66-.21.68-.22.69-.19.72-.18.74-.16.76-.14.77-.13.78-.11.8-.08.82-.08.84-.05.84,0h.85v-1.65Zm665.72,1.65H27.13v-1.65H692.85v1.65Zm20.08,8,0-.48-.08-.5-.12-.47-.18-.49-.22-.46-.27-.45-.31-.45-.36-.45-.41-.42-.45-.42-.47-.41-.53-.38-.57-.38-.6-.37-.62-.34-.66-.35-.72-.31-.7-.3-.77-.29-.79-.27-.82-.26-.84-.23-.86-.21-.89-.2-.91-.17-.93-.15-1-.14-1-.1-1-.08-1-.07-1,0-1,0v1.65h.85l.84,0,.84.05.82.08.81.08.78.11.77.13.76.14.74.16.72.18.69.19.69.22.64.21.64.25.61.25.57.27.56.28.52.29.51.3.46.31.42.33.42.34.35.34.35.36.29.36.27.37.23.38.19.39.14.39.1.41.07.4,0,.4Z"/><path class="cls-4" d="M88,525.89h1.71a3.88,3.88,0,0,0,3.41-1.49l10.36-15a4.91,4.91,0,0,1,2-1.65,6.54,6.54,0,0,1,2.64-.46h9.28l-13.64,18.6a9.46,9.46,0,0,1-3.13,2.78,7.44,7.44,0,0,1,2.18,1.23,9.26,9.26,0,0,1,1.83,2l13.9,21.34h-9.54a8.88,8.88,0,0,1-1.57-.12,4,4,0,0,1-1.11-.38,3,3,0,0,1-.82-.62,5.64,5.64,0,0,1-.67-.83l-10.42-16a3.16,3.16,0,0,0-1.43-1.25,6.32,6.32,0,0,0-2.36-.36H88v19.57H77.28v-46H88Z"/><path class="cls-4" d="M132.63,553.26H121.9v-46h10.73Z"/><path class="cls-4" d="M181.7,507.26v46h-5.56a4.82,4.82,0,0,1-2.06-.39,5,5,0,0,1-1.66-1.37l-21.69-27.44c.08.82.14,1.61.17,2.38s0,1.49,0,2.16v24.66h-9.4v-46h5.62a9.35,9.35,0,0,1,1.16.06,2.79,2.79,0,0,1,.86.24,2.71,2.71,0,0,1,.72.49,7.65,7.65,0,0,1,.79.85l21.89,27.63c-.11-.89-.18-1.74-.23-2.58s-.06-1.61-.06-2.35V507.26Z"/><path class="cls-4" d="M232.35,530.25a24.07,24.07,0,0,1-1.72,9.2,21.46,21.46,0,0,1-4.85,7.29,21.69,21.69,0,0,1-7.53,4.8,26.55,26.55,0,0,1-9.77,1.72H190.61v-46h17.87a26.34,26.34,0,0,1,9.77,1.74,22.11,22.11,0,0,1,7.53,4.79,21.41,21.41,0,0,1,4.85,7.28A24,24,0,0,1,232.35,530.25Zm-10.93,0a20,20,0,0,0-.88-6.16,13.24,13.24,0,0,0-2.54-4.66,11.06,11.06,0,0,0-4.06-2.93,13.67,13.67,0,0,0-5.46-1h-7.14v29.59h7.14a13.84,13.84,0,0,0,5.46-1,11.09,11.09,0,0,0,4.06-2.94,13.15,13.15,0,0,0,2.54-4.66A20.1,20.1,0,0,0,221.42,530.25Z"/><path class="cls-4" d="M278.36,553.26h-8.28a3.63,3.63,0,0,1-2.24-.64,4.07,4.07,0,0,1-1.29-1.66l-2.72-8H246.34l-2.72,8a3.8,3.8,0,0,1-1.25,1.6,3.49,3.49,0,0,1-2.22.7h-8.34l17.81-46h10.93Zm-17-17.58-4.26-12.6c-.32-.8-.66-1.74-1-2.83s-.72-2.26-1.08-3.52c-.31,1.29-.65,2.48-1,3.57s-.69,2-1,2.84l-4.23,12.54Z"/><path class="cls-4" d="M319.63,553.26H310a4.09,4.09,0,0,1-3.85-2l-7.64-13.35a3.71,3.71,0,0,0-1.2-1.25,3.75,3.75,0,0,0-1.89-.39h-2.72v17H282v-46h15a30.84,30.84,0,0,1,8.51,1,16,16,0,0,1,5.75,2.86,11,11,0,0,1,3.24,4.33,14.38,14.38,0,0,1,1,5.43,14.61,14.61,0,0,1-.6,4.23,13,13,0,0,1-1.77,3.68,13.48,13.48,0,0,1-2.89,3,15.41,15.41,0,0,1-4,2.18,9.72,9.72,0,0,1,1.95,1.35,9.56,9.56,0,0,1,1.65,1.9ZM297,528.89a11.16,11.16,0,0,0,3.71-.55,6.63,6.63,0,0,0,2.51-1.54,5.88,5.88,0,0,0,1.43-2.29,8.87,8.87,0,0,0,.44-2.82,5.93,5.93,0,0,0-2-4.74c-1.31-1.14-3.35-1.7-6.11-1.7h-4.29v13.64Z"/><path class="cls-4" d="M342.23,544.83a9.74,9.74,0,0,0,3.84-.71,7.74,7.74,0,0,0,2.86-2,9.07,9.07,0,0,0,1.78-3.24,14.17,14.17,0,0,0,.62-4.34V507.26H362v27.25a21.33,21.33,0,0,1-1.37,7.76,17.51,17.51,0,0,1-3.93,6.1,17.72,17.72,0,0,1-6.23,4,24.7,24.7,0,0,1-16.51,0,17.77,17.77,0,0,1-6.22-4,17.35,17.35,0,0,1-3.92-6.1,21.54,21.54,0,0,1-1.35-7.76V507.26h10.67v27.22a14.18,14.18,0,0,0,.61,4.34,9.13,9.13,0,0,0,1.79,3.25,7.67,7.67,0,0,0,2.86,2A9.65,9.65,0,0,0,342.23,544.83Z"/><path class="cls-4" d="M422.06,507.26v46h-9.41V526.8c0-.61,0-1.27.05-2s.09-1.44.17-2.18l-12.22,23.66a4.07,4.07,0,0,1-1.53,1.67,4.21,4.21,0,0,1-2.19.57h-1.46a4.21,4.21,0,0,1-2.19-.57,4,4,0,0,1-1.53-1.67l-12.22-23.72c.06.76.11,1.5.15,2.23s.07,1.39.07,2v26.46h-9.41v-46h8.15c.46,0,.86,0,1.21,0a2.9,2.9,0,0,1,.93.19,2,2,0,0,1,.74.49,3.84,3.84,0,0,1,.65.93l11.84,23.33c.42.81.83,1.64,1.22,2.5s.76,1.75,1.12,2.65c.36-.92.73-1.83,1.12-2.71s.8-1.73,1.25-2.53l11.81-23.24A3.84,3.84,0,0,1,411,508a2.12,2.12,0,0,1,.75-.49,2.9,2.9,0,0,1,.93-.19c.34,0,.75,0,1.21,0Z"/><path class="cls-4" d="M472.23,553.26H464a3.61,3.61,0,0,1-2.24-.64,4.18,4.18,0,0,1-1.3-1.66l-2.71-8h-17.5l-2.71,8a3.88,3.88,0,0,1-1.25,1.6,3.5,3.5,0,0,1-2.23.7h-8.33l17.81-46h10.92Zm-17-17.58L451,523.08c-.31-.8-.65-1.74-1-2.83s-.71-2.26-1.07-3.52c-.32,1.29-.65,2.48-1,3.57s-.7,2-1,2.84l-4.23,12.54Z"/><path class="cls-4" d="M516,544.74v8.52H488.31v-46H499v37.48Z"/><path class="cls-4" d="M562.73,553.26h-8.27a3.59,3.59,0,0,1-2.24-.64,4.09,4.09,0,0,1-1.3-1.66l-2.72-8H530.71L528,551a4,4,0,0,1-1.25,1.6,3.5,3.5,0,0,1-2.23.7h-8.33l17.81-46h10.92Zm-17-17.58-4.26-12.6c-.31-.8-.65-1.74-1-2.83s-.72-2.26-1.07-3.52c-.32,1.29-.66,2.48-1,3.57s-.7,2-1,2.84l-4.23,12.54Z"/><path class="cls-4" d="M606.53,507.26v46H601a4.9,4.9,0,0,1-2.07-.39,5.05,5.05,0,0,1-1.66-1.37l-21.69-27.44c.08.82.14,1.61.17,2.38s0,1.49,0,2.16v24.66h-9.41v-46H572a9.64,9.64,0,0,1,1.17.06,2.72,2.72,0,0,1,.85.24,2.6,2.6,0,0,1,.73.49,8.75,8.75,0,0,1,.79.85l21.88,27.63c-.1-.89-.18-1.74-.22-2.58s-.06-1.61-.06-2.35V507.26Z"/><path class="cls-4" d="M626.16,515.47V526.2h14.47v7.9H626.16v11h18.89v8.2H615.43v-46h29.62v8.21Z"/></svg>