<svg id="Layer_1" data-name="Layer 1" xmlns="http://www.w3.org/2000/svg" viewBox="0 0 720 720"><defs><style>.cls-1{fill:#9c9b9b;}.cls-1,.cls-2,.cls-3,.cls-4{fill-rule:evenodd;}.cls-2{fill:#fff;}.cls-3{fill:#1d1d1b;}.cls-4{fill:#008ad1;}</style></defs><path class="cls-1" d="M360,672.62c170.09,0,308.81-138.73,308.81-308.8S530.09,55,360,55,51.19,193.73,51.19,363.82,189.92,672.62,360,672.62Z"/><path class="cls-2" d="M360,49.15c170.51,0,308.81,138.29,308.81,308.81S530.51,666.77,360,666.77,51.19,528.49,51.19,358,189.47,49.15,360,49.15Z"/><path class="cls-3" d="M670.58,358H667l-.4-15.81-1.19-15.58-2-15.37-2.68-15.11-3.44-14.86-4.13-14.56L648.4,252.4l-5.49-14-6.15-13.59L630,211.62l-7.4-12.86-8-12.46-8.56-12-9.11-11.61-9.66-11.13L577.1,140.87,566.44,130.7,555.29,121l-11.6-9.11-12-8.56-12.45-8L506.33,88,493.09,81.2,479.5,75.05l-13.93-5.49-14.28-4.82-14.55-4.16-14.87-3.41-15.11-2.7-15.36-2-15.6-1.18-15.8-.4V47.38l16,.41L391.74,49l15.55,2,15.29,2.74,15,3.48,14.74,4.17,14.43,4.87,14.1,5.57L494.63,78,508,84.87l13,7.49,12.6,8.07,12.17,8.65,11.74,9.23,11.27,9.76,10.79,10.29,10.28,10.77,9.77,11.3,9.21,11.72,8.66,12.18,8.08,12.59,7.49,13,6.86,13.4,6.22,13.77,5.56,14.09,4.88,14.44,4.19,14.74,3.47,15,2.74,15.3,2,15.53,1.2,15.78.4,16ZM360,668.54l16-.4,15.76-1.2,15.55-2,15.29-2.74,15-3.47,14.74-4.17,14.43-4.89,14.1-5.56,13.76-6.22L508,631.05l13-7.48,12.6-8.07,12.17-8.67,11.74-9.22,11.27-9.77,10.79-10.27,10.28-10.79,9.77-11.29,9.21-11.71,8.66-12.18L625.6,519l7.49-13L640,492.6l6.22-13.76,5.56-14.11,4.88-14.42,4.19-14.75,3.47-15L667,405.25l2-15.55,1.2-15.77.4-16H667l-.4,15.8-1.19,15.6-2,15.36-2.68,15.12-3.44,14.86-4.13,14.56-4.84,14.26-5.49,14-6.15,13.58L630,504.3l-7.4,12.86-8,12.46-8.56,12-9.11,11.6-9.66,11.14L577.1,575.06l-10.66,10.16-11.15,9.66L543.69,604l-12,8.55-12.45,8-12.87,7.39-13.24,6.77-13.59,6.16-13.93,5.5-14.28,4.82-14.55,4.14-14.87,3.43-15.11,2.69-15.36,2-15.6,1.19L360,665v3.55ZM49.42,358l.4,16L51,389.7l2,15.55,2.75,15.29,3.47,15,4.18,14.75,4.88,14.41,5.56,14.12,6.22,13.76L86.91,506l7.48,13,8.08,12.61,8.67,12.18,9.21,11.71,9.77,11.29,10.28,10.79,10.78,10.27,11.28,9.77,11.73,9.22,12.18,8.67,12.6,8.07,13,7.48,13.39,6.86,13.76,6.22,14.11,5.56,14.43,4.89,14.74,4.17,15,3.47,15.3,2.74,15.54,2,15.78,1.2,16,.4V665l-15.8-.38-15.6-1.19-15.35-2-15.12-2.69-14.86-3.43-14.57-4.14-14.27-4.82-13.93-5.5-13.6-6.16-13.24-6.77-12.86-7.39-12.45-8-12-8.55-11.6-9.12-11.14-9.66L142.9,575.06,132.74,564.4l-9.65-11.14L114,541.66l-8.55-12-8-12.46L90,504.3l-6.78-13.25-6.15-13.58-5.49-14-4.83-14.26L62.63,434.7l-3.44-14.86-2.68-15.12-2-15.36-1.19-15.6L53,358ZM360,47.38l-16,.41L328.26,49l-15.54,2-15.3,2.74-15,3.48-14.74,4.17-14.43,4.87-14.11,5.57L225.36,78,212,84.87l-13,7.49-12.6,8.07-12.18,8.65-11.73,9.23-11.28,9.76L140.4,138.36l-10.28,10.77-9.77,11.3-9.21,11.72-8.67,12.18-8.08,12.59-7.48,13-6.86,13.4-6.22,13.77-5.56,14.1-4.88,14.43-4.18,14.74-3.47,15L53,310.68l-2,15.53L49.82,342l-.4,16H53l.4-15.81,1.19-15.58,2-15.37,2.68-15.11,3.44-14.86,4.14-14.56,4.83-14.28,5.49-13.94,6.15-13.59L90,211.62l7.4-12.86,8-12.46,8.55-12,9.13-11.61,9.65-11.13,10.16-10.66,10.66-10.17L164.7,121l11.6-9.11,12-8.56,12.45-8L213.66,88,226.9,81.2l13.6-6.15,13.93-5.49,14.27-4.82,14.57-4.16,14.86-3.41,15.12-2.7,15.35-2,15.6-1.18,15.8-.4Z"/><path class="cls-4" d="M360,655.54c163.9,0,297.58-133.68,297.58-297.58S523.9,60.37,360,60.37,62.42,194.06,62.42,358,196.1,655.54,360,655.54Z"/><path class="cls-2" d="M413,381.14c15.5.23,20.86-6.61,32.81-7.35,17.31-1.08,35.15,14,44.35,29.19s9.18,27.58,3.78,29.2-8.11-7.92-16.81-23.64c-4.3-7.77-7.83-9.37-15-11.22-.13,20.54-.52,38.23,4.22,47.3s29.17,75.7,9.73,75.7c-8.11,0-11.35-23.25-11.35-40s-8.65-26.49-11.9-26.49-16.21,14.6-17.85,30.83S433.88,514.37,423.6,516c-17.67,2.79,6.43-65.19,8.66-72.46,3.6-11.85.81-42.35.55-45.21-8.76,1.74-22.23,3-33.21-1.66-14.63-6.2-28-17.1-24.27-26.73C383.34,349.27,392.7,380.82,413,381.14Z"/><path class="cls-2" d="M442.51,335.94a14.84,14.84,0,1,1-14.84,14.83A14.83,14.83,0,0,1,442.51,335.94Z"/><path class="cls-2" d="M274.94,165.25a28.69,28.69,0,1,1-28.7,28.69A28.7,28.7,0,0,1,274.94,165.25Z"/><path class="cls-2" d="M256.16,285.48s-31.38,16.73-45,49.13-21.95,39.74-31.37,30.32,1-31.35,20.91-62.72,47-61.69,80.51-63.77,67.94,27.17,85.71,56.45,17.78,53.31,7.34,56.45-15.69-15.3-32.51-45.71c-8.3-15-15.14-18.12-29-21.69-.26,39.69-1,73.91,8.13,91.44,9.34,17.83,56.39,146.37,18.83,146.37-15.69,0-22-44.95-22-77.36s-16.73-51.23-23-51.23-31.36,28.24-34.5,59.6-2.1,57.5-22,60.64c-34.17,5.4,12.45-126,16.74-140.11C262.42,349.27,256.16,285.49,256.16,285.48Z"/></svg>