<svg id="Layer_1" data-name="Layer 1" xmlns="http://www.w3.org/2000/svg" viewBox="0 0 720 720"><defs><style>.cls-1{fill:#9c9b9b;}.cls-1,.cls-2,.cls-3,.cls-4{fill-rule:evenodd;}.cls-2{fill:#fff;}.cls-3{fill:#1d1d1b;}.cls-4,.cls-5{fill:#008ad1;}</style></defs><path class="cls-1" d="M360,661c163.77,0,297.35-133.55,297.35-297.33S523.78,66.32,360,66.32,62.66,199.9,62.66,363.67,196.24,661,360,661Z"/><path class="cls-2" d="M360,60.7c164.18,0,297.33,133.15,297.33,297.35S524.19,655.39,360,655.39,62.66,522.23,62.66,358.05,195.81,60.7,360,60.7Z"/><path class="cls-3" d="M659.05,358.05h-3.41l-.38-15.22-1.14-15L652.23,313l-2.58-14.57-3.3-14.29-4-14-4.64-13.75L632.42,243l-5.92-13.09L620,217.13l-7.11-12.38-7.69-12-8.25-11.59L588.13,170l-9.28-10.73L569,149l-10.25-9.79-10.73-9.28-11.17-8.78-11.6-8.25-12-7.7-12.38-7.11-12.73-6.53-13.1-5.92-13.42-5.29L447.91,75.7l-14-4L419.59,68.4,405,65.82l-14.78-1.89-15-1.14L360,62.41V59l15.37.39,15.19,1.15,15,1.9,14.73,2.63,14.45,3.35,14.22,4,13.87,4.7L476.4,82.5l13.25,6,12.89,6.61,12.51,7.19,12.14,7.79,11.73,8.34,11.3,8.87,10.84,9.4,10.39,9.9,9.9,10.39,9.42,10.86,8.87,11.3L608,190.86,615.75,203,623,215.5l6.61,12.9,6,13.25,5.37,13.59,4.7,13.87,4,14.21L653,297.78l2.64,14.73,1.89,15,1.16,15.18.38,15.39ZM360,657.1l15.37-.4,15.19-1.16,15-1.89L420.27,651l14.45-3.34,14.22-4,13.87-4.71,13.59-5.35,13.25-6L502.54,621l12.51-7.22L527.19,606l11.73-8.34,11.3-8.88,10.84-9.4,10.39-9.91,9.9-10.38,9.42-10.85,8.87-11.3L608,525.23l7.77-12.14L623,500.57l6.61-12.9,6-13.24,5.37-13.58,4.7-13.89,4-14.19L653,418.3l2.64-14.73,1.89-15,1.16-15.19.38-15.37h-3.41l-.38,15.21-1.14,15-1.89,14.78-2.58,14.57-3.3,14.31-4,14-4.64,13.73-5.29,13.43L626.5,486.2,620,498.94l-7.11,12.39-7.69,12-8.25,11.59-8.78,11.18-9.28,10.72L569,567.08l-10.25,9.8-10.73,9.27-11.17,8.79-11.6,8.24-12,7.7L500.91,618l-12.73,6.52-13.1,5.93-13.42,5.27-13.75,4.67-14,4-14.29,3.3L405,650.27l-14.78,1.89-15,1.15-15.22.38v3.41ZM61,358.05l.4,15.37,1.15,15.19,1.9,15L67,418.3l3.33,14.47,4,14.19,4.68,13.89,5.37,13.58,6,13.24,6.61,12.9,7.2,12.52L112,525.23,120.36,537l8.89,11.3,9.4,10.85,9.9,10.39,10.39,9.9,10.86,9.4,11.3,8.88L192.81,606,205,613.78,217.46,621l12.9,6.59,13.26,6,13.59,5.35,13.87,4.71,14.2,4L299.75,651l14.72,2.64,15,1.89,15.19,1.16,15.39.4v-3.41l-15.22-.38-15-1.15L315,650.27l-14.56-2.59-14.31-3.3-14-4-13.75-4.67-13.42-5.27-13.1-5.93L219.09,618l-12.38-7.12-12-7.7-11.61-8.24-11.18-8.79-10.71-9.27L151,567.07l-9.79-10.26-9.28-10.72-8.8-11.18-8.23-11.59-7.69-12-7.11-12.39L93.52,486.2,87.6,473.11l-5.31-13.43L77.65,446l-4-14-3.3-14.31-2.59-14.57-1.9-14.78-1.14-15-.38-15.21ZM360,59l-15.39.39-15.19,1.15-15,1.9-14.72,2.63-14.47,3.35-14.2,4-13.87,4.7L243.62,82.5l-13.26,6-12.9,6.61L205,102.29l-12.14,7.79-11.71,8.34-11.3,8.87-10.86,9.4-10.39,9.9L138.65,157l-9.4,10.86-8.89,11.3L112,190.86,104.26,203l-7.2,12.51-6.61,12.9-6,13.25-5.37,13.59-4.68,13.87-4,14.21L67,297.78,64.4,312.51l-1.9,15-1.15,15.18L61,358.05h3.41l.38-15.22,1.14-15L67.78,313l2.59-14.57,3.3-14.29,4-14,4.64-13.75L87.6,243l5.92-13.09,6.54-12.75,7.11-12.38,7.69-12,8.23-11.59,8.8-11.16,9.28-10.73L151,149l10.27-9.79,10.71-9.28,11.18-8.78,11.61-8.25,12-7.7,12.38-7.11,12.75-6.53,13.1-5.92,13.42-5.29,13.75-4.65,14-4,14.31-3.31L315,65.82l14.78-1.89,15-1.14L360,62.41Z"/><path class="cls-4" d="M360,644.57c157.81,0,286.53-128.72,286.53-286.53S517.82,71.5,360,71.5,73.48,200.22,73.48,358,202.2,644.57,360,644.57Z"/><circle class="cls-5" cx="360.01" cy="358.04" r="227.06" transform="translate(-147.73 359.43) rotate(-45)"/><path class="cls-2" d="M233.82,397.61a25.73,25.73,0,1,1-25.77,25.64A25.65,25.65,0,0,1,233.82,397.61Z"/><path class="cls-2" d="M440.08,397.61a25.73,25.73,0,1,1-25.78,25.64A25.64,25.64,0,0,1,440.08,397.61Z"/><path class="cls-2" d="M187.28,417.8h12.26a34.62,34.62,0,0,1,68.36,0H405.77a34.63,34.63,0,0,1,68.38,0L502,396.86H490.71V392h24.86V287H280.5V392H381.09v4.84h-117l1.16-67.93h-48l-29.95,67.93Z"/><path class="cls-4" d="M221.4,336.78h34.82v28.13H211.56l9.84-28.13Zm12.38,77.09a9.48,9.48,0,1,1-9.5,9.43,9.4,9.4,0,0,1,9.5-9.43Zm206.25,0a9.48,9.48,0,1,1-9.48,9.43A9.44,9.44,0,0,1,440,413.87Z"/></svg>