<svg id="Layer_1" data-name="Layer 1" xmlns="http://www.w3.org/2000/svg" viewBox="0 0 720 720"><defs><style>.cls-1{fill:#9c9b9b;}.cls-1,.cls-2,.cls-3,.cls-4{fill-rule:evenodd;}.cls-2{fill:#fff;}.cls-3{fill:#1d1d1b;}.cls-4{fill:#008ad1;}</style></defs><path class="cls-1" d="M360,657.73c162,0,294.12-132.11,294.12-294.1S522,69.52,360,69.52,65.89,201.65,65.89,363.63,198,657.74,360,657.73Z"/><path class="cls-2" d="M360,64C522.4,64,654.11,195.65,654.11,358.07S522.4,652.18,360,652.18,65.89,520.47,65.89,358.07,197.58,64,360,64Z"/><path class="cls-3" d="M655.8,358.07h-3.38L652.05,343l-1.14-14.85-1.86-14.62-2.57-14.41L643.22,285l-4-13.87-4.59-13.6-5.24-13.27-5.86-12.95-6.45-12.61-7-12.24-7.61-11.88-8.14-11.46-8.69-11-9.19-10.61-9.69-10.16-10.15-9.68L546,132.43,535,123.75l-11.47-8.16L511.62,108l-12.26-7-12.6-6.46-12.95-5.85L460.53,83.4l-13.59-4.61-13.87-3.94-14.14-3.28L404.53,69,389.9,67.15,375,66,360,65.65V62.27l15.21.39,15,1.14L405,65.68l14.57,2.6,14.3,3.31,14,4,13.74,4.65,13.44,5.3,13.11,5.91L501,98l12.37,7.12,12,7.7,11.6,8.25,11.18,8.77,10.74,9.3,10.26,9.79,9.8,10.29,9.3,10.73L597,181.1l8.26,11.6,7.67,12,7.14,12.38,6.52,12.76,5.94,13.1,5.29,13.44,4.66,13.72,4,14.06,3.31,14.3L652.39,313l1.88,14.8,1.14,15,.39,15.22ZM360,653.86l15.21-.39,15-1.14L405,650.45l14.57-2.6,14.3-3.31,14-4,13.74-4.66,13.44-5.29,13.11-5.93L501,618.15,513.36,611l12-7.69,11.6-8.25,11.18-8.78L558.88,577l10.26-9.81,9.8-10.27,9.3-10.73L597,535l8.26-11.59,7.67-12L620.09,499l6.52-12.76,5.94-13.09,5.29-13.44L642.5,446l4-14,3.31-14.3,2.61-14.57,1.88-14.81,1.14-15,.39-15.21h-3.38l-.37,15.05L650.91,388l-1.86,14.61L646.48,417l-3.26,14.16-4,13.86-4.59,13.59-5.24,13.28-5.86,12.94-6.45,12.61-7,12.25-7.61,11.86L594.33,533l-8.69,11-9.19,10.61-9.69,10.16-10.15,9.68L546,583.69,535,592.38l-11.47,8.15-11.86,7.62-12.26,7-12.6,6.45-12.95,5.87-13.28,5.21-13.59,4.62-13.87,3.94-14.14,3.26-14.4,2.57L389.9,649,375,650.11l-15.05.38v3.37ZM64.2,358.07l.39,15.21,1.14,15L67.6,403.1l2.61,14.57L73.52,432l4,14,4.65,13.74,5.3,13.44,5.92,13.09L99.91,499,107,511.43l7.69,12L123,535l8.78,11.18,9.3,10.73,9.8,10.27L161.12,577l10.73,9.29L183,595.08l11.6,8.25,12,7.69L219,618.15l12.76,6.53,13.11,5.93,13.44,5.29L272,640.56l14,4,14.31,3.31,14.57,2.6,14.8,1.88,15,1.14,15.21.39v-3.37l-15.05-.38L330.09,649l-14.63-1.87-14.4-2.57-14.14-3.26L273,637.34l-13.59-4.62-13.28-5.21-12.95-5.87-12.61-6.45-12.24-7-11.87-7.62L185,592.38l-11-8.69-10.61-9.18-10.15-9.68-9.69-10.16-9.19-10.61-8.68-11-8.15-11.47-7.62-11.86-7-12.25L96.4,484.82l-5.85-12.94L85.32,458.6,80.72,445l-4-13.86L73.51,417,71,402.58,69.08,388,68,373.12l-.38-15.05ZM360,62.27l-15.21.39-15,1.14L315,65.68l-14.57,2.6-14.31,3.31-14,4-13.73,4.65-13.44,5.3-13.11,5.91L219,98l-12.37,7.12-12,7.7L183,121.05l-11.18,8.77-10.73,9.3-10.27,9.79-9.8,10.29-9.3,10.73L123,181.1l-8.25,11.6-7.69,12-7.12,12.38-6.54,12.76-5.92,13.1-5.3,13.44L77.5,270.1l-4,14.06-3.31,14.3L67.6,313l-1.87,14.8-1.14,15-.39,15.22h3.37L68,343l1.13-14.85L71,313.54l2.56-14.41L76.77,285l4-13.87,4.6-13.6,5.23-13.27L96.4,231.3l6.46-12.61,7-12.24,7.62-11.88,8.15-11.46,8.68-11,9.19-10.61,9.69-10.16,10.15-9.68L174,132.43l11-8.68,11.46-8.16L208.37,108l12.24-7,12.61-6.46,12.95-5.85,13.28-5.23L273,78.79l13.88-3.94,14.14-3.28L315.46,69l14.63-1.88L344.94,66,360,65.65Z"/><path class="cls-4" d="M360,641.47c156.11,0,283.42-127.31,283.42-283.41S516.09,74.64,360,74.64,76.58,202,76.58,358.06,203.9,641.47,360,641.47Z"/><path class="cls-4" d="M360,582.65c123.71,0,224.6-100.88,224.6-224.59S483.7,133.47,360,133.47,135.41,234.35,135.41,358.06,236.29,582.65,360,582.65Z"/><path class="cls-2" d="M279,341.82l32.68-8.52s18.48-29.85,27.71-39.81S372,275,377,275s49.74,44.07,49.74,44.07.72,53.3-7.11,53.3H404l2.14-39.81-15.63-19.19-2.85,63.25,44.77,81S426,474.7,416.1,474.7s-49.74-83.14-49.74-83.14L333,415.72s-10.67,60.41-20.61,61.83A202.59,202.59,0,0,1,288.9,479l18.48-75.33,40.49-39.8-3.52-32.69L321.58,356s-29.84,7.81-38.37,2.12S279,341.82,279,341.82Z"/><path class="cls-2" d="M350.54,226.2a23.14,23.14,0,1,1-23.12,23.13A23.14,23.14,0,0,1,350.54,226.2Z"/></svg>