<svg id="Layer_1" data-name="Layer 1" xmlns="http://www.w3.org/2000/svg" viewBox="0 0 720 720"><defs><style>.cls-1{fill:#9c9b9b;}.cls-1,.cls-2,.cls-3,.cls-4{fill-rule:evenodd;}.cls-2{fill:#fff;}.cls-3{fill:#1d1d1b;}.cls-4{fill:#008ad1;}</style></defs><path class="cls-1" d="M360,672.62c170.09,0,308.81-138.73,308.81-308.8S530.09,55,360,55,51.19,193.73,51.19,363.82,189.92,672.62,360,672.62Z"/><path class="cls-2" d="M360,49.15c170.51,0,308.81,138.29,308.81,308.81S530.51,666.77,360,666.77,51.19,528.49,51.19,358,189.47,49.15,360,49.15Z"/><path class="cls-3" d="M670.58,358H667l-.4-15.81-1.19-15.58-2-15.37-2.68-15.11-3.44-14.86-4.13-14.56L648.4,252.4l-5.49-14-6.15-13.59L630,211.62l-7.4-12.86-8-12.46-8.56-12-9.11-11.61-9.66-11.13L577.1,140.87,566.44,130.7,555.29,121l-11.6-9.11-12-8.56-12.45-8L506.33,88,493.09,81.2,479.5,75.05l-13.93-5.49-14.28-4.82-14.55-4.16-14.87-3.41-15.11-2.7-15.36-2-15.6-1.18-15.8-.4V47.38l16,.41L391.74,49l15.55,2,15.29,2.74,15,3.48,14.74,4.17,14.43,4.87,14.1,5.57L494.63,78,508,84.87l13,7.49,12.6,8.07,12.17,8.65,11.74,9.23,11.27,9.76,10.79,10.29,10.28,10.77,9.77,11.3,9.21,11.72,8.66,12.18,8.08,12.59,7.49,13,6.86,13.4,6.22,13.77,5.56,14.09,4.88,14.44,4.19,14.74,3.47,15,2.74,15.3,2,15.53,1.2,15.78.4,16ZM360,668.54l16-.4,15.76-1.2,15.55-2,15.29-2.74,15-3.47,14.74-4.17,14.43-4.89,14.1-5.56,13.76-6.22L508,631.05l13-7.48,12.6-8.07,12.17-8.67,11.74-9.22,11.27-9.77,10.79-10.27,10.28-10.79,9.77-11.29,9.21-11.71,8.66-12.18L625.6,519l7.49-13L640,492.6l6.22-13.76,5.56-14.11,4.88-14.42,4.19-14.75,3.47-15L667,405.25l2-15.55,1.2-15.77.4-16H667l-.4,15.8-1.19,15.6-2,15.36-2.68,15.12-3.44,14.86-4.13,14.56-4.84,14.26-5.49,14-6.15,13.58L630,504.3l-7.4,12.86-8,12.46-8.56,12-9.11,11.6-9.66,11.14L577.1,575.06l-10.66,10.16-11.15,9.66L543.69,604l-12,8.55-12.45,8-12.87,7.39-13.24,6.77-13.59,6.16-13.93,5.5-14.28,4.82-14.55,4.14-14.87,3.43-15.11,2.69-15.36,2-15.6,1.19L360,665v3.55ZM49.42,358l.4,16L51,389.7l2,15.55,2.75,15.29,3.47,15,4.18,14.75,4.88,14.41,5.56,14.12,6.22,13.76L86.91,506l7.48,13,8.08,12.61,8.67,12.18,9.21,11.71,9.77,11.29,10.28,10.79,10.78,10.27,11.28,9.77,11.73,9.22,12.18,8.67,12.6,8.07,13,7.48,13.39,6.86,13.76,6.22,14.11,5.56,14.43,4.89,14.74,4.17,15,3.47,15.3,2.74,15.54,2,15.78,1.2,16,.4V665l-15.8-.38-15.6-1.19-15.35-2-15.12-2.69-14.86-3.43-14.57-4.14-14.27-4.82-13.93-5.5-13.6-6.16-13.24-6.77-12.86-7.39-12.45-8-12-8.55-11.6-9.12-11.14-9.66L142.9,575.06,132.74,564.4l-9.65-11.14L114,541.66l-8.55-12-8-12.46L90,504.3l-6.78-13.25-6.15-13.58-5.49-14-4.83-14.26L62.63,434.7l-3.44-14.86-2.68-15.12-2-15.36-1.19-15.6L53,358ZM360,47.38l-16,.41L328.26,49l-15.54,2-15.3,2.74-15,3.48-14.74,4.17-14.43,4.87-14.11,5.57L225.36,78,212,84.87l-13,7.49-12.6,8.07-12.18,8.65-11.73,9.23-11.28,9.76L140.4,138.36l-10.28,10.77-9.77,11.3-9.21,11.72-8.67,12.18-8.08,12.59-7.48,13-6.86,13.4-6.22,13.77-5.56,14.1-4.88,14.43-4.18,14.74-3.47,15L53,310.68l-2,15.53L49.82,342l-.4,16H53l.4-15.81,1.19-15.58,2-15.37,2.68-15.11,3.44-14.86,4.14-14.56,4.83-14.28,5.49-13.94,6.15-13.59L90,211.62l7.4-12.86,8-12.46,8.55-12,9.13-11.61,9.65-11.13,10.16-10.66,10.66-10.17L164.7,121l11.6-9.11,12-8.56,12.45-8L213.66,88,226.9,81.2l13.6-6.15,13.93-5.49,14.27-4.82,14.57-4.16,14.86-3.41,15.12-2.7,15.35-2,15.6-1.18,15.8-.4Z"/><path class="cls-4" d="M360,655.54c163.9,0,297.58-133.68,297.58-297.58S523.9,60.37,360,60.37,62.42,194.06,62.42,358,196.1,655.54,360,655.54Z"/><path class="cls-2" d="M263.59,271.78c-5.3,2.12-23.46-16.91-19-11.09-4.6-6.16-25.44-23.83-28.43-27.51-2.26-2.92-3.31-8.81-12.71-2.87a84.77,84.77,0,0,0-12.51,10.46c-21.53,20.63-49,44.44-55.22,52-6,7.75,1.61,9.16.9,12.33-.9,3,9.18,12.87,11.46,13.77,2.3.71,9.86-2.29,9.86-2.29s24.53,1.39,33.74,0c9.12-1.6,27.47,9.16,29.76,32.11s48.86,74.76,48.35,85.69c-1.6,26.82,10.75,60.52,7.59,67.39-3,6.88-12.17,22.24-14.47,24.55H286.5l-1.41-9.19c7.6-5.47,10.05-10.24,6.89-17.65-6.72-15.16,3.7-57.49,19.94-69,13.74-9.88,7.57-2.27,28.19,0S429,441.31,463.43,403c-4.6,24.54,15,26.29,18.33,38.29,2.29,8.46,28.41,55.91,3.9,85.71h24.51l-5.48-16c8.45-6.16,11.47-6.16,8.45-19.07-3.33-13.92.73-38.28,6.19-47.43,5.3-9.36,4.4-3.88-3.54-16.57-15.34-24.54,12.35-85.74,17-97.91,4.58-12.37,9.18-23.82,6.89,6.87-2.31,30.52,2.29,62.81-2.67,73.93-6.16,13.22-6.16,37.73.36,63.13,6-15.34,11.83-48.35,5.3-62.77-2.3-5.31,2.65-82.57,2.29-101.1-.34-24.86-18.54-37.21-34-38.61-30.69-3.18-160.7,10.56-196,1.4C295.14,267.76,273.63,267.24,263.59,271.78Z"/></svg>