<svg id="Layer_1" data-name="Layer 1" xmlns="http://www.w3.org/2000/svg" viewBox="0 0 720 720"><defs><style>.cls-1{fill:#9c9b9b;}.cls-1,.cls-2,.cls-3,.cls-4{fill-rule:evenodd;}.cls-2,.cls-5{fill:#fff;}.cls-3{fill:#1d1d1b;}.cls-4{fill:#008ad1;}</style></defs><path class="cls-1" d="M360,672.62c170.09,0,308.81-138.73,308.81-308.8S530.09,55,360,55,51.2,193.73,51.2,363.82,189.93,672.62,360,672.62Z"/><path class="cls-2" d="M360,49.15c170.54,0,308.82,138.29,308.82,308.81S530.53,666.77,360,666.77,51.19,528.49,51.19,358,189.47,49.15,360,49.15Z"/><path class="cls-3" d="M670.58,358H667l-.4-15.81-1.19-15.58-2-15.37-2.68-15.11-3.44-14.86-4.13-14.56-4.84-14.28-5.49-13.94-6.15-13.59L630,211.62l-7.4-12.86-8-12.46-8.56-12-9.13-11.61-9.65-11.13L577.1,140.87,566.44,130.7,555.3,121l-11.6-9.11-12-8.56-12.45-8L506.34,88,493.1,81.2l-13.59-6.15-13.94-5.49-14.28-4.82-14.56-4.16-14.86-3.41-15.11-2.7-15.36-2-15.61-1.18-15.8-.4V47.38l16,.41L391.74,49l15.54,2,15.3,2.74,15,3.48,14.74,4.17,14.43,4.87,14.1,5.57L494.64,78,508,84.87l13,7.49,12.6,8.07,12.18,8.65,11.74,9.23,11.27,9.76,10.78,10.29,10.28,10.77,9.77,11.3,9.21,11.72,8.67,12.18,8.07,12.59,7.49,13,6.86,13.4,6.22,13.77,5.56,14.1,4.88,14.43,4.19,14.74,3.46,15,2.75,15.3,2,15.53,1.2,15.78.4,16ZM360,668.54l16-.4,15.77-1.2,15.54-2,15.3-2.74,15-3.47,14.74-4.17,14.43-4.89,14.1-5.56,13.77-6.22L508,631.05l13-7.48,12.6-8.07,12.18-8.67,11.74-9.22,11.27-9.77,10.78-10.27,10.28-10.79,9.77-11.29,9.21-11.71,8.67-12.18L625.6,519l7.49-13L640,492.6l6.22-13.76,5.56-14.12,4.88-14.41,4.19-14.75,3.46-15L667,405.25l2-15.55,1.2-15.77.4-16H667l-.4,15.8-1.19,15.6-2,15.36-2.68,15.12-3.44,14.86-4.13,14.56-4.84,14.26-5.49,14-6.15,13.58L630,504.3l-7.4,12.86-8,12.46-8.56,12-9.13,11.6-9.65,11.14L577.1,575.06l-10.66,10.16-11.14,9.66L543.7,604l-12,8.55-12.45,8-12.87,7.39-13.24,6.77-13.59,6.16-13.94,5.5-14.28,4.82-14.56,4.14-14.86,3.43-15.11,2.69-15.36,2-15.61,1.19L360,665v3.55ZM49.42,358l.4,16L51,389.7l2,15.55,2.75,15.29,3.46,15,4.19,14.75,4.88,14.41,5.56,14.12,6.22,13.76L86.91,506l7.48,13,8.08,12.61,8.66,12.18,9.22,11.71,9.77,11.29,10.27,10.79,10.79,10.27,11.27,9.77,11.74,9.22,12.17,8.67,12.6,8.07,13,7.48,13.38,6.86,13.76,6.22,14.12,5.56,14.42,4.89,14.75,4.17,15,3.47L312.72,665l15.54,2,15.76,1.2,16,.4V665l-15.8-.38-15.6-1.19-15.35-2-15.12-2.69-14.86-3.43-14.57-4.14-14.26-4.82-13.94-5.5-13.59-6.16-13.24-6.77-12.87-7.39-12.45-8-12-8.55-11.6-9.12-11.14-9.66-10.67-10.16L132.74,564.4l-9.66-11.14L114,541.66l-8.56-12-8-12.46L90,504.3l-6.78-13.25-6.15-13.58-5.49-14-4.84-14.26L62.63,434.7l-3.44-14.86-2.68-15.12-2-15.36-1.19-15.6L53,358ZM360,47.38l-16,.41L328.26,49l-15.54,2L297.41,53.7l-15,3.48-14.75,4.17-14.42,4.87-14.12,5.57L225.35,78,212,84.87l-13,7.49-12.6,8.07-12.17,8.65-11.74,9.23-11.27,9.76-10.79,10.29-10.27,10.77-9.77,11.3-9.22,11.72-8.66,12.18-8.08,12.59-7.48,13-6.86,13.4-6.22,13.77-5.56,14.1-4.88,14.43L59.2,280.36l-3.46,15L53,310.68l-2,15.53L49.82,342l-.4,16H53l.4-15.81,1.19-15.58,2-15.37,2.68-15.11,3.44-14.86,4.13-14.56,4.84-14.28,5.49-13.94,6.15-13.59L90,211.62l7.39-12.86,8-12.46,8.56-12,9.12-11.61,9.66-11.13,10.15-10.66,10.67-10.17L164.7,121l11.6-9.11,12-8.56,12.45-8L213.66,88,226.9,81.2l13.59-6.15,13.94-5.49,14.26-4.82,14.57-4.16,14.86-3.41,15.12-2.7,15.35-2,15.6-1.18,15.8-.4Z"/><path class="cls-4" d="M360,655.54c163.9,0,297.58-133.68,297.58-297.58S523.9,60.37,360,60.37,62.42,194.06,62.42,358,196.11,655.54,360,655.54Z"/><path class="cls-5" d="M236.2,376.72V328.8c24-1.6,35.14-6.39,39.93-17.57,2.67-5.33,3.73-12.25,3.73-20.77V259.05c0-11.18,0-23.43-2.13-33.55s-6.92-17-16-17c-6.92,0-11.18,3.19-13.31,13.31-2.66,10.65-3.73,27.15-3.73,53.24H188.28c0-21.83.54-51.65,10.12-75.6,9.58-23.43,27.15-41.54,63.36-41.54s54.84,18.64,64.42,38.34,10.12,41,10.12,45.79c0,58-10.12,85.72-27.69,103.29l-.53.54c27.69,21.83,33,62.29,33,107.55,0,1.6,0,5.32-.53,11.18-.53,11.18-3.72,27.69-9.58,44.72-6.39,17-17,32.48-33.55,41.54-8.52,4.79-18.63,6.92-30.88,6.92-36.2,0-54.84-18.11-65-42.07-10.11-23.42-11.18-53.24-11.18-75.07h56.44c0,26.09,1.6,42.59,4.8,52.71,3.19,10.65,8,13.84,14.9,13.84,9.05,0,13.84-6.92,16-16.5s2.12-21.83,2.12-33c0-12.25,0-23.43.54-33.55,0-19.16-3.73-32.47-16-40.46-6.4-3.73-16-6.39-28.23-6.92Z"/><path class="cls-5" d="M525.84,473.09c-.53,16-3.73,30.35-9.59,42.59a73.25,73.25,0,0,1-22.89,28.76c-10.65,8.51-25,13.31-44.19,13.31s-34.08-4.8-44.73-13.31c-10.65-8-17.57-18.11-22.36-28.76-5.86-12.24-9.05-26.62-9.58-42.59V242.54c.53-15.44,3.72-29.81,9.58-42.06,4.79-10.65,11.71-21.3,22.36-29.28s25.56-13.32,44.73-13.32,33.54,5.33,44.19,13.32a74.65,74.65,0,0,1,22.89,29.28c5.86,12.25,9.06,26.62,9.59,42.06Zm-57.5-230.55c0-10.65-2.14-18.1-7.46-24.49-2.66-2.66-6.92-4.26-11.71-4.26-10.12,0-14.91,7.45-17,14.38A40.73,40.73,0,0,0,430,242.54V473.09c0,11.18,2.66,18.63,8,24.49a15.3,15.3,0,0,0,11.19,4.26c10.12,0,14.91-6.39,17-14.38,1.6-3.72,2.14-8.51,2.14-14.37Z"/></svg>