<svg id="Layer_1" data-name="Layer 1" xmlns="http://www.w3.org/2000/svg" viewBox="0 0 720 720"><defs><style>.cls-1{fill:#9c9b9b;}.cls-1,.cls-2,.cls-3,.cls-4{fill-rule:evenodd;}.cls-2{fill:#fff;}.cls-3{fill:#1d1d1b;}.cls-4{fill:#008ad1;}</style></defs><path class="cls-1" d="M360,657.74c162,0,294.12-132.11,294.12-294.1S522,69.53,360,69.53,65.89,201.64,65.89,363.64,198,657.74,360,657.74Z"/><path class="cls-2" d="M360,64c162.39,0,294.1,131.71,294.1,294.11S522.4,652.17,360,652.17,65.89,520.47,65.89,358.06,197.6,64,360,64Z"/><path class="cls-3" d="M655.79,358.06h-3.37L652,343l-1.12-14.86L649,313.53l-2.55-14.39L643.21,285l-3.93-13.88-4.6-13.59-5.23-13.27-5.87-12.94-6.45-12.61-7-12.26-7.63-11.86-8.14-11.47-8.68-11-9.21-10.62-9.67-10.15-10.16-9.68L546,132.43,535,123.75l-11.46-8.17L511.62,108l-12.24-7-12.62-6.46-12.94-5.87-13.29-5.22L447,78.78l-13.88-4-14.16-3.26L404.54,69,389.9,67.15,375.05,66l-15-.38V62.26l15.21.39,15,1.14L405,65.67l14.59,2.6,14.28,3.31,14.05,4,13.74,4.65,13.43,5.3,13.12,5.92L501,98l12.38,7.13,12,7.7,11.6,8.25,11.16,8.77,10.75,9.3,10.27,9.8,9.79,10.27,9.3,10.74L597,181.09l8.25,11.6,7.69,12,7.12,12.38,6.53,12.75,5.92,13.1,5.31,13.45,4.65,13.73,4,14,3.31,14.31L652.38,313l1.9,14.8,1.14,15,.37,15.22ZM360,653.85l15.21-.38,15-1.14L405,650.44l14.59-2.61,14.28-3.31,14.05-4,13.74-4.65,13.43-5.3,13.12-5.92L501,618.13,513.37,611l12-7.69,11.6-8.25,11.16-8.78L558.88,577l10.27-9.8,9.79-10.28,9.3-10.73L597,535l8.25-11.6,7.69-12L620.09,499l6.53-12.75,5.92-13.1,5.31-13.44L642.5,446l4-14,3.31-14.31,2.59-14.57,1.9-14.8,1.14-15,.37-15.21h-3.37L652,373.11,650.92,388,649,402.59,646.49,417l-3.28,14.15L639.28,445l-4.6,13.6-5.23,13.26-5.87,12.94-6.45,12.62-7,12.24-7.63,11.87L594.33,533l-8.68,11-9.21,10.62-9.67,10.14-10.16,9.69L546,583.7,535,592.38l-11.46,8.15-11.87,7.61-12.24,7-12.62,6.45-12.94,5.87-13.27,5.23L447,637.32l-13.88,4-14.16,3.26-14.38,2.55L389.9,649l-14.85,1.13-15,.37v3.38ZM64.21,358.06l.39,15.21,1.14,15,1.88,14.8,2.61,14.57L73.52,432l4,14,4.65,13.74,5.29,13.44,5.92,13.1L99.92,499l7.13,12.39,7.69,12L123,535l8.77,11.18,9.3,10.73,9.79,10.28,10.27,9.8,10.75,9.29L183,595.08l11.59,8.25,12,7.69,12.4,7.11,12.75,6.55,13.1,5.92,13.43,5.3,13.74,4.65,14.05,4,14.3,3.31L315,650.44l14.79,1.89,15,1.14,15.23.38v-3.38L345,650.1,330.1,649l-14.62-1.88-14.4-2.55-14.16-3.26-13.88-4-13.59-4.59-13.27-5.23-12.94-5.87-12.6-6.45-12.26-7-11.87-7.61-11.46-8.15-11-8.68-10.62-9.19-10.16-9.69-9.67-10.14-9.19-10.62-8.68-11-8.16-11.47-7.61-11.87-7-12.24-6.47-12.62-5.85-12.94-5.23-13.26L80.72,445l-3.93-13.87L73.52,417,71,402.59,69.1,388,68,373.11l-.38-15.05ZM360,62.26l-15.23.39-15,1.14L315,65.67l-14.57,2.6-14.3,3.31-14.05,4-13.74,4.65-13.43,5.3-13.1,5.92L219,98l-12.4,7.13-12,7.7L183,121.05l-11.17,8.77-10.75,9.3-10.27,9.8-9.79,10.27-9.3,10.74L123,181.09l-8.25,11.6-7.69,12-7.13,12.38-6.54,12.75-5.92,13.1-5.29,13.45-4.65,13.73-4,14-3.29,14.31L67.62,313l-1.88,14.8-1.14,15-.39,15.22h3.37L68,343l1.14-14.86L71,313.53l2.56-14.39L76.79,285l3.93-13.88,4.62-13.59,5.23-13.27,5.85-12.94,6.47-12.61,7-12.26,7.61-11.86,8.16-11.47,8.68-11,9.19-10.62,9.67-10.15,10.16-9.68L174,132.43l11-8.68,11.46-8.17L208.38,108l12.26-7,12.6-6.46,12.94-5.87,13.29-5.22L273,78.78l13.88-4,14.16-3.26L315.48,69l14.62-1.86L345,66,360,65.64Z"/><path class="cls-4" d="M360,641.48c156.11,0,283.43-127.32,283.43-283.42S516.1,74.65,360,74.65,76.58,202,76.58,358.06,203.9,641.48,360,641.48Z"/><path class="cls-4" d="M360,582.66c123.69,0,224.59-100.9,224.59-224.6S483.7,133.47,360,133.47,135.42,234.36,135.42,358.06,236.3,582.66,360,582.66Z"/><path class="cls-2" d="M231.46,395.46a209.23,209.23,0,0,1-3.23-36.22c-.26-17.31,3.15-30.32,12.6-34.81l-.05,0c-8.78-.81-25.62-2.56-25.62-5.81s-.6-6.72,4.62-10.41c3.91-2.8,18.73-4,21.6-4,3.93,0,4.22,3.24,2.42,10.42l3.78.25C254.2,297.23,264,279.19,272.5,265c2.27-3.92,5.44-6.94,10.13-7.69,21.95-3,49.69-3.48,77.19-3.48,27.71,0,55.35.62,77.42,3.48,4.69.82,7.86,3.85,10.2,7.77,8.48,14.17,18.3,32.22,24.92,49.88l3.86-.25c-1.82-7.18-1.51-10.42,2.4-10.42,2.87,0,17.69,1.21,21.62,4,5.21,3.7,4.6,7.26,4.6,10.43s-16.84,5-25.6,5.81l-.09,0c9.34,4.47,12.75,17.45,12.47,34.73a204.24,204.24,0,0,1-3.21,36.33l0,65.72a4.62,4.62,0,0,1-4.69,4.67H460a4.58,4.58,0,0,1-4.67-4.66V444.14H264.57v17.07a4.61,4.61,0,0,1-4.69,4.68H236.07a4.61,4.61,0,0,1-4.67-4.68Z"/><path class="cls-4" d="M449,282.19c3.71,9.3,8,18.73,11.55,28.1,1.89,4.61,3.71,9.89,5.51,14.58-30.58-2.5-61.24-3.48-91.82-3.78-40.13,0-80.31.68-120.36,3.86,4.78-12.63,9.75-25.62,15-38,2.18-4.61,4.09-10.44,6.64-14.81,26-2.8,52.42-3,78.49-3.25,30,0,60.5,0,90.33,3.25,1.82,3,3.17,6.93,4.62,10Zm-22.28,97.07c2.64-.23,16.71-1,22.2-1.74,4.69-.61,7.26-1.13,8.78-2.12,1.87-1.29,10.95-2,17.58-2.65a32.35,32.35,0,0,0-.52-11.7c-.83-3.94-3.69-3.54-9.08-3.54s-30,1.8-35.12,2.78c-3,.6-5.28,2.26-5.73,4.24-1.2,4.67-2.18,7.25-3.25,12.16-.07.51-.67,3,5.14,2.57Zm-133.63-.08c-2.63-.24-16.69-1-22.2-1.74-4.69-.6-7.26-1.14-8.78-2.1-1.87-1.3-10.93-2-17.58-2.66a32.4,32.4,0,0,1,.52-11.71c.85-3.92,3.69-3.55,9.08-3.55s30,1.82,35.12,2.8c3,.61,5.26,2.26,5.73,4.22,1.22,4.69,2.2,7.25,3.25,12.16.07.54.69,3-5.14,2.58Zm20.74,7.54h92.21c2.68,0,4.88,1.54,4.88,3.37v9.2c0,1.85-2.2,3.37-4.88,3.37H313.85c-2.68,0-4.88-1.52-4.88-3.37v-9.2C309,388.26,311.17,386.72,313.85,386.72Z"/></svg>