<svg id="Layer_1" data-name="Layer 1" xmlns="http://www.w3.org/2000/svg" viewBox="0 0 720 720"><defs><style>.cls-1{fill:#9c9b9b;}.cls-2,.cls-5{fill:#fff;}.cls-3{fill:#1d1d1b;}.cls-3,.cls-4,.cls-5{fill-rule:evenodd;}.cls-4{fill:#008ad1;}</style></defs><ellipse class="cls-1" cx="360" cy="363.65" rx="295.06" ry="295.07" transform="translate(-13.5 713.42) rotate(-88.41)"/><ellipse class="cls-2" cx="360" cy="358.05" rx="295.07" ry="295.06" transform="translate(-9.8 10.13) rotate(-1.59)"/><path class="cls-3" d="M656.77,358.05h-3.39L653,343l-1.13-14.91L650,313.38l-2.55-14.44-3.3-14.19-3.94-13.93-4.61-13.61-5.27-13.34-5.87-13L618,218.24l-7.08-12.3L603.27,194l-8.18-11.51-8.71-11.08-9.22-10.64-9.71-10.19-10.19-9.71-10.65-9.22L535.53,123,524,114.78l-11.89-7.63-12.31-7.06-12.66-6.48-13-5.89-13.31-5.23-13.64-4.62-13.9-4-14.21-3.27-14.44-2.56L390,66.2l-14.91-1.14L360,64.68V61.29l15.26.39,15.06,1.15,14.87,1.88,14.61,2.61,14.35,3.32,14.09,4L462,79.31l13.47,5.32,13.15,5.94,12.79,6.55,12.44,7.15,12,7.72,11.62,8.28,11.21,8.8,10.78,9.33,10.31,9.83,9.82,10.31L589,169.31l8.8,11.2,8.28,11.64,7.73,12L621,216.61l6.55,12.79,5.94,13.15L638.76,256l4.67,13.79,4,14.08,3.31,14.36,2.61,14.62,1.9,14.85,1.15,15.06.38,15.26ZM360,654.81l15.26-.38,15.06-1.15,14.87-1.89,14.61-2.62,14.35-3.32,14.09-4L462,636.8l13.49-5.32,13.15-5.94L501.44,619l12.44-7.13,12-7.72,11.62-8.27L548.75,587l10.78-9.32,10.31-9.83,9.82-10.31L589,546.81l8.8-11.22L606.07,524l7.73-12L621,499.5l6.55-12.8,5.94-13.15,5.32-13.46,4.67-13.8,4-14.08,3.31-14.37,2.61-14.61,1.9-14.84,1.15-15.08.38-15.26h-3.39l-.37,15.1-1.13,14.9L650,402.73l-2.55,14.45-3.3,14.19-3.94,13.92-4.61,13.63-5.27,13.32-5.87,13L618,497.88l-7.08,12.28-7.63,11.91-8.18,11.5-8.71,11.09-9.22,10.65-9.71,10.18-10.19,9.72-10.65,9.22-11.08,8.71L524,601.31,512.13,609,499.82,616l-12.66,6.47-13,5.89-13.31,5.25-13.64,4.61-13.9,4-14.21,3.27L404.68,648,390,649.91l-14.91,1.14-15.09.36v3.4ZM63.23,358.05l.38,15.26,1.15,15.08,1.9,14.84,2.61,14.61,3.31,14.37,4,14.08,4.67,13.8,5.32,13.46L92.5,486.7l6.57,12.8,7.13,12.42,7.73,12,8.28,11.64,8.8,11.22,9.33,10.76,9.82,10.31,10.31,9.83L171.25,587l11.21,8.82,11.62,8.27,12,7.72L218.56,619l12.79,6.57,13.15,5.94L258,636.8l13.77,4.66,14.09,4,14.35,3.32,14.61,2.62,14.87,1.89,15.06,1.15,15.26.38v-3.4l-15.1-.36L330,649.91,315.32,648l-14.44-2.56-14.21-3.27-13.9-4-13.64-4.61-13.31-5.25-13-5.89L220.18,616,207.87,609,196,601.31l-11.51-8.17-11.08-8.71-10.65-9.22-10.19-9.72-9.71-10.18-9.22-10.65-8.7-11.09-8.19-11.5-7.63-11.91L102,497.88l-6.47-12.66-5.87-13-5.27-13.32-4.6-13.63-4-13.92-3.3-14.19L70,402.73l-1.89-14.68L67,373.15l-.37-15.1ZM360,61.29l-15.26.39-15.06,1.15-14.87,1.88L300.2,67.32l-14.35,3.32-14.09,4L258,79.31,244.5,84.63l-13.15,5.94-12.79,6.55-12.44,7.15-12,7.72-11.62,8.28-11.21,8.8-10.78,9.33-10.31,9.83-9.82,10.31L131,169.31l-8.8,11.2-8.28,11.64-7.73,12-7.13,12.41L92.5,229.4l-5.94,13.15L81.24,256l-4.67,13.79-4,14.08-3.31,14.36-2.61,14.62-1.9,14.85-1.15,15.06-.38,15.26h3.39L67,343l1.13-14.91L70,313.38l2.55-14.44,3.3-14.19,4-13.93,4.6-13.61,5.27-13.34,5.87-13L102,218.24l7.08-12.3,7.63-11.9,8.19-11.51,8.7-11.08,9.22-10.64,9.71-10.19,10.19-9.71,10.65-9.22L184.47,123l11.51-8.2,11.89-7.63,12.31-7.06,12.64-6.48,13-5.89,13.31-5.23,13.64-4.62,13.9-4,14.21-3.27,14.44-2.56L330,66.2l14.9-1.14,15.1-.38Z"/><path class="cls-4" d="M360,642.4c156.6,0,284.35-127.73,284.35-284.35S516.6,73.72,360,73.72,75.67,201.45,75.67,358.05,203.4,642.4,360,642.4Z"/><path class="cls-4" d="M360,583.38c124.12,0,225.32-101.22,225.32-225.33S484.12,132.73,360,132.73,134.68,234,134.68,358.05,235.9,583.38,360,583.38Z"/><path class="cls-5" d="M274.73,346.25l-3.12,12.84a46.12,46.12,0,1,0,7.41,3.29l3.35-12.63c4.28,1.47,9.46,2.77,15.25,4.41,18.36,5.16,32.11,26.41,34.43,40.77s12.6,25.29,31,25.29c9.56,0,20.32-3,28.46-5.8l12.57-.1a46.17,46.17,0,1,0,88.58-25.9c4.4-3.35,8.9-9.69,8.6-21.63-.57-23-31.55-20.68-31.55-20.68l-17.19-18.38-39.06-2.51c-3.55-11.43-10.46-29.73-21.16-42.3-15.71-18.44-24.75-23-25.71-23.5a18.27,18.27,0,1,0-15.75,9,15.56,15.56,0,0,0,1.81-.1c2.84,3.1,5.94,9.28,2.37,20.35-4.12,12.83-14.79,25.93-20.45,32.3l-44.92.46s-18.93-4-20.66,10.9C268.16,339.26,270.35,343.35,274.73,346.25Z"/><path class="cls-4" d="M269.16,369.17l-2.48,10.26L250,405.27l4.59,5.76,18.92-28.17,2.69-10.11a35.85,35.85,0,1,1-19.6-5.82A35.5,35.5,0,0,1,269.16,369.17Z"/><path class="cls-4" d="M431.31,371.43l8.54,25.23-7.45,9.19L412.92,404l0-1.23A35.87,35.87,0,0,1,431.31,371.43Z"/><path class="cls-4" d="M440,368c.89,0,1.79-.06,2.71,0,19.6.36,31,9.59,36.83,16.52a35.85,35.85,0,1,1-64.8,29.76l40.58-.32,5.73-6.32-12.6-13.78-9-25.67Z"/></svg>