<svg id="Layer_1" data-name="Layer 1" xmlns="http://www.w3.org/2000/svg" viewBox="0 0 720 720"><defs><style>.cls-1{fill:#9c9b9b;}.cls-1,.cls-3,.cls-4,.cls-6{fill-rule:evenodd;}.cls-2,.cls-6{fill:#fff;}.cls-3{fill:#1d1d1b;}.cls-4,.cls-5{fill:#008ad1;}</style></defs><path class="cls-1" d="M360,660.65c163.59,0,297-133.4,297-297s-133.41-297-297-297S63,200.09,63,363.67,196.43,660.66,360,660.65Z"/><ellipse class="cls-2" cx="360" cy="358.05" rx="297" ry="297" transform="translate(-10.36 10.73) rotate(-1.68)"/><path class="cls-3" d="M658.71,358.05H655.3l-.38-15.2-1.13-15-1.9-14.77-2.57-14.55L646,284.25l-4-14-4.64-13.71-5.3-13.42L626.18,230l-6.51-12.74-7.12-12.36-7.69-12-8.24-11.57-8.76-11.15-9.28-10.71-9.77-10.26-10.26-9.78-10.72-9.27-11.15-8.77-11.59-8.24-12-7.69-12.38-7.11L488,91.87,474.93,86l-13.4-5.28L447.8,76l-14-4-14.3-3.31L405,66.17,390.2,64.28l-15-1.14L360,62.76V59.35l15.35.39,15.17,1.15,15,1.9,14.71,2.63,14.45,3.34,14.18,4,13.86,4.7,13.58,5.35,13.23,6,12.88,6.61,12.51,7.19L527,110.37l11.7,8.33L550,127.56,560.84,137l10.37,9.89,9.89,10.38,9.39,10.84,8.86,11.29,8.33,11.71,7.78,12.12,7.2,12.49,6.59,12.89,6,13.23,5.36,13.56,4.69,13.87,4,14.19,3.33,14.45,2.63,14.71,1.92,14.95,1.15,15.16.38,15.37ZM360,656.75l15.35-.4,15.17-1.15,15-1.9,14.71-2.63,14.45-3.34,14.18-4,13.86-4.71,13.58-5.34,13.23-6,12.88-6.59,12.51-7.21L527,605.72l11.7-8.33L550,588.52l10.85-9.38,10.37-9.9,9.89-10.37L590.49,548l8.86-11.29L607.68,525l7.78-12.12,7.2-12.5,6.59-12.89,6-13.22,5.36-13.56,4.69-13.89,4-14.17,3.33-14.45,2.63-14.71,1.92-14.95,1.15-15.16.38-15.36H655.3l-.38,15.2-1.13,15L651.89,403l-2.57,14.55L646,431.85l-4,14-4.64,13.71L632.09,473l-5.91,13.08-6.51,12.73-7.12,12.37-7.69,12-8.24,11.58-8.76,11.16-9.28,10.71-9.77,10.26-10.26,9.78-10.72,9.27-11.15,8.77-11.59,8.23-12,7.7-12.38,7.11L488,624.21l-13.07,5.93-13.4,5.26-13.73,4.66-14,4-14.3,3.3L405,649.93l-14.77,1.89-15,1.14-15.19.38v3.41ZM61.29,358.05l.38,15.36,1.15,15.16,1.92,14.95,2.63,14.71,3.33,14.45,4,14.17,4.69,13.89,5.36,13.56,6,13.22,6.61,12.89,7.18,12.5L112.32,525l8.33,11.71L129.51,548l9.39,10.84,9.89,10.37,10.37,9.9L170,588.52l11.29,8.87,11.7,8.33,12.12,7.76,12.51,7.21,12.88,6.59,13.23,6,13.58,5.34,13.86,4.71,14.18,4,14.45,3.34,14.71,2.63,15,1.9,15.17,1.15,15.35.4v-3.41L344.8,653l-15-1.14L315,649.93l-14.54-2.59-14.3-3.3-14-4-13.73-4.66-13.4-5.26L232,624.21l-12.72-6.51-12.38-7.11-12-7.7-11.59-8.23-11.15-8.77-10.72-9.27-10.26-9.78-9.77-10.26-9.28-10.71-8.76-11.16-8.24-11.58-7.69-12-7.12-12.37-6.51-12.73L87.91,473l-5.3-13.41L78,445.85l-4-14-3.32-14.3L68.11,403l-1.9-14.76-1.13-15-.38-15.2ZM360,59.35l-15.35.39-15.17,1.15-15,1.9-14.71,2.63-14.45,3.34-14.18,4-13.86,4.7-13.58,5.35-13.23,6-12.88,6.61-12.51,7.19L193,110.37l-11.7,8.33L170,127.56,159.16,137l-10.37,9.89-9.89,10.38-9.39,10.84-8.86,11.29-8.33,11.71-7.78,12.12-7.18,12.49-6.61,12.89-6,13.23-5.36,13.56-4.69,13.87-4,14.19-3.33,14.45-2.63,14.71-1.92,14.95-1.15,15.16-.38,15.37H64.7l.38-15.2,1.13-15,1.9-14.77,2.57-14.55L74,284.25l4-14,4.64-13.71,5.3-13.42L93.82,230l6.51-12.74,7.12-12.36,7.69-12,8.24-11.57,8.76-11.15,9.28-10.71,9.77-10.26,10.26-9.78,10.72-9.27,11.15-8.77,11.59-8.24,12-7.69,12.38-7.11L232,91.87,245.07,86l13.4-5.28L272.2,76l14-4,14.3-3.31L315,66.17l14.77-1.89,15-1.14,15.2-.38Z"/><path class="cls-4" d="M360,644.23c157.63,0,286.21-128.56,286.21-286.19S517.63,71.84,360,71.84,73.81,200.41,73.81,358,202.37,644.23,360,644.23Z"/><circle class="cls-5" cx="360" cy="358.04" r="226.79" transform="translate(-147.73 359.43) rotate(-45)"/><path class="cls-6" d="M333.53,252v13.27c-10.39,0-30.43-3.62-34.56,9.4l-5.26,17.15H412l5-13.28L389,271.9c-4.13-1.12-2.75-6.62.74-6.62h56.48v13.27h-15l-4.88,13.28,19.16,43.07A66.32,66.32,0,1,1,486.67,461c-37.7,12.28-78-11.51-85.64-49.83H377.65l4,7.51,7.5-4.34,4.28,8.22-22,11.77L367.12,426l6.49-3.74-6.19-11.89c-.36,0-.72,0-1.06,0a20.51,20.51,0,0,1-20.5-20.51,23.44,23.44,0,0,1,.13-2.39l-61.05-67.68-5.26,17A66.49,66.49,0,1,1,267.05,333l19.28-62.25C293,248.76,316,252,333.53,252Z"/><path class="cls-4" d="M366.36,369.43a20.36,20.36,0,0,1,14.43,6l26.36-70.28H289.58l48.48,53.8,17.79-9.52,4.26,8.25-6.49,3.76,5,9.55A20.32,20.32,0,0,1,366.36,369.43Z"/><polygon class="cls-4" points="348.49 370.49 345.61 365.06 344.28 365.81 348.49 370.49"/><path class="cls-4" d="M263,345.78,247.51,396c-2.63,8.28,10.4,12,12.65,3.89l15.66-50.21A53.4,53.4,0,1,1,263,345.78Z"/><path class="cls-4" d="M386.49,397.88h13.27a66,66,0,0,1,33.57-57.59l-13.67-30.67Z"/><path class="cls-4" d="M414.66,411.15h54.72c4.38,0,8-5.39,6.14-9.27L451,347.17a53,53,0,1,1,30.18,101.68C454,456.84,420.42,440.08,414.66,411.15Z"/><path class="cls-4" d="M413.05,397.88H459.1l-20.28-45.33A52.48,52.48,0,0,0,413.05,397.88Z"/></svg>