<svg id="Layer_1" data-name="Layer 1" xmlns="http://www.w3.org/2000/svg" viewBox="0 0 720 720"><defs><style>.cls-1{fill:#9c9b9b;}.cls-1,.cls-3,.cls-4,.cls-5{fill-rule:evenodd;}.cls-2,.cls-5{fill:#fff;}.cls-3{fill:#1d1d1b;}.cls-4{fill:#008ad1;}</style></defs><path class="cls-1" d="M360,660.66c163.58,0,297-133.41,297-297s-133.43-297-297-297S63,200.09,63,363.67,196.41,660.67,360,660.66Z"/><ellipse class="cls-2" cx="359.99" cy="358.05" rx="297.01" ry="297" transform="translate(-10.36 10.73) rotate(-1.68)"/><path class="cls-3" d="M658.71,358.05H655.3l-.38-15.2-1.14-15-1.89-14.77-2.57-14.55L646,284.25l-4-14-4.64-13.71-5.29-13.42L626.18,230l-6.52-12.73-7.12-12.37-7.68-12-8.22-11.57-8.79-11.15-9.27-10.72-9.78-10.25-10.26-9.78-10.71-9.28-11.16-8.77-11.59-8.24-12-7.68-12.39-7.11L488,91.86,474.93,86l-13.41-5.29L447.79,76l-14-4-14.3-3.31L405,66.16l-14.77-1.89-15-1.14L360,62.75V59.34l15.37.39,15.15,1.16,15,1.89,14.72,2.63,14.44,3.34,14.18,4,13.87,4.69,13.57,5.35,13.24,6,12.87,6.6,12.52,7.19L527,110.36l11.7,8.33L550,127.56,560.83,137l10.38,9.88,9.88,10.39,9.4,10.84,8.86,11.28,8.33,11.71,7.78,12.12,7.19,12.5,6.6,12.88,6,13.24,5.36,13.56,4.69,13.87,4,14.19,3.35,14.45,2.63,14.71,1.89,14.95,1.16,15.16.38,15.37ZM360,656.76l15.37-.4,15.15-1.15,15-1.9,14.72-2.63,14.44-3.34,14.18-4,13.87-4.7,13.57-5.34,13.24-6,12.87-6.59,12.52-7.21L527,605.73l11.7-8.33L550,588.53l10.85-9.39,10.38-9.9,9.88-10.37,9.4-10.84,8.86-11.28L607.68,525l7.78-12.12,7.19-12.51,6.6-12.88,6-13.23,5.36-13.56,4.69-13.88,4-14.18,3.35-14.45,2.63-14.71,1.89-14.95,1.16-15.16.38-15.36H655.3l-.38,15.2-1.14,15L651.89,403l-2.57,14.55-3.3,14.3-4,14-4.64,13.71L632.1,473l-5.92,13.07-6.52,12.73-7.12,12.38-7.68,12-8.22,11.57-8.79,11.17-9.27,10.7-9.78,10.27-10.26,9.78-10.71,9.26-11.16,8.78-11.59,8.23-12,7.69-12.39,7.11L488,624.22l-13.08,5.93-13.41,5.26-13.73,4.66-14,4-14.3,3.3L405,649.94l-14.77,1.89-15,1.14-15.2.38v3.41ZM61.29,358.05l.38,15.36,1.16,15.16,1.89,14.95,2.63,14.71,3.35,14.45,4,14.18,4.69,13.87,5.34,13.57,6,13.23,6.59,12.88,7.2,12.51L112.3,525l8.33,11.71L129.5,548l9.39,10.84,9.9,10.37,10.38,9.9L170,588.53l11.28,8.87L193,605.73l12.13,7.76,12.5,7.21,12.87,6.59,13.24,6,13.58,5.34,13.88,4.7,14.16,4,14.46,3.34,14.72,2.63,14.94,1.9,15.16,1.15,15.36.4v-3.41L344.81,653l-15-1.14L315,649.94l-14.52-2.59-14.3-3.3-14-4-13.73-4.66-13.41-5.26L232,624.22l-12.74-6.52-12.37-7.11-12-7.69-11.57-8.23-11.17-8.78-10.72-9.26-10.25-9.78-9.78-10.27-9.28-10.7-8.77-11.17-8.24-11.57-7.68-12-7.1-12.38-6.52-12.73L87.9,473l-5.29-13.41L78,445.85l-4-14-3.3-14.3L68.09,403l-1.87-14.76-1.14-15-.4-15.2ZM360,59.34l-15.36.39-15.16,1.16-14.94,1.89-14.72,2.63-14.46,3.34-14.16,4-13.88,4.69-13.58,5.35-13.24,6-12.87,6.6-12.5,7.19L193,110.36l-11.71,8.33L170,127.56,159.17,137l-10.38,9.88-9.9,10.39-9.39,10.84-8.87,11.28-8.33,11.71-7.76,12.12-7.2,12.5-6.59,12.88-6,13.24-5.34,13.57-4.69,13.86-4,14.19-3.35,14.45-2.63,14.71-1.89,14.95-1.16,15.16-.38,15.37h3.39l.4-15.2,1.14-15,1.87-14.77,2.59-14.55L74,284.25l4-14,4.64-13.73,5.29-13.4L93.82,230l6.52-12.73,7.1-12.37,7.68-12,8.24-11.57,8.77-11.15,9.28-10.72,9.78-10.25,10.25-9.78,10.72-9.28,11.17-8.77,11.57-8.24,12-7.68,12.37-7.11L232,91.86,245.05,86l13.41-5.29L272.19,76l14-4,14.3-3.31L315,66.16l14.79-1.89,15-1.14L360,62.75Z"/><path class="cls-4" d="M360,644.24c157.63,0,286.22-128.57,286.22-286.2S517.62,71.83,360,71.83,73.79,200.41,73.79,358,202.36,644.24,360,644.24Z"/><path class="cls-4" d="M360,584.84c124.91,0,226.8-101.88,226.8-226.8S484.92,131.24,360,131.24,133.19,233.12,133.19,358,235.08,584.84,360,584.84Z"/><path class="cls-5" d="M238.45,368.37a25.6,25.6,0,1,1-25.64,25.54A25.54,25.54,0,0,1,238.45,368.37Z"/><path class="cls-5" d="M453.43,368.37a25.6,25.6,0,1,1-25.61,25.54A25.56,25.56,0,0,1,453.43,368.37Z"/><path class="cls-5" d="M179.2,396.24h26.87c0-.77-.06-1.53-.06-2.31a32.37,32.37,0,0,1,64.74,0c0,.78,0,1.55-.08,2.31H421.09c0-.77-.07-1.53-.07-2.31a32.36,32.36,0,0,1,64.72,0c0,.78,0,1.55-.08,2.31h62.07v-47l-13.05-57.56H189.41L179.2,361.1Z"/><path class="cls-4" d="M238.41,382.66A11.33,11.33,0,1,1,227,394,11.28,11.28,0,0,1,238.41,382.66Z"/><path class="cls-4" d="M453.4,382.66A11.33,11.33,0,1,1,442,394,11.29,11.29,0,0,1,453.4,382.66Z"/><polygon class="cls-4" points="189.03 342.4 218.93 342.4 218.93 300.45 195.9 300.4 189.03 342.4"/><polygon class="cls-4" points="226.01 342.4 280.09 342.4 280.09 300.54 226.01 300.46 226.01 342.4"/><polygon class="cls-4" points="287.19 342.4 341.25 342.4 341.25 300.66 287.19 300.56 287.19 342.4"/><polygon class="cls-4" points="348.35 342.4 402.42 342.4 402.42 300.74 348.35 300.66 348.35 342.4"/><polygon class="cls-4" points="409.51 342.4 463.58 342.4 463.58 300.87 409.51 300.76 409.51 342.4"/><polygon class="cls-4" points="470.67 342.4 538.55 342.4 529.59 300.96 470.67 300.87 470.67 342.4"/></svg>