<svg id="Layer_1" data-name="Layer 1" xmlns="http://www.w3.org/2000/svg" viewBox="0 0 720 720"><defs><style>.cls-1{fill:#9c9b9b;}.cls-1,.cls-4{fill-rule:evenodd;}.cls-2{fill:#008ad1;}.cls-3{fill:#fff;}.cls-4{fill:#1d1d1b;}.cls-5,.cls-6,.cls-7{fill:none;stroke:#e20613;stroke-miterlimit:10;}.cls-5{stroke-width:11.33px;}.cls-6{stroke-width:11.53px;}.cls-7{stroke-width:11.31px;}</style></defs><path class="cls-1" d="M360,672.62c170.08,0,308.81-138.73,308.81-308.8S530.08,55,360,55,51.19,193.73,51.19,363.82,189.92,672.62,360,672.62Z"/><path class="cls-2" d="M360,60.38C196.1,60.38,62.42,194.06,62.42,358S196.1,655.54,360,655.54,657.58,521.86,657.58,358,523.9,60.38,360,60.38Z"/><path class="cls-3" d="M227.27,388.83V340.91c24-1.6,35.14-6.39,39.93-17.57,2.67-5.33,3.73-12.25,3.73-20.77V271.16c0-11.18,0-23.43-2.13-33.54s-6.92-17-16-17c-6.93,0-11.19,3.19-13.31,13.31-2.67,10.65-3.73,27.15-3.73,53.24H179.35c0-21.83.53-51.64,10.12-75.6C199.05,188.1,216.62,170,252.83,170s54.84,18.63,64.42,38.33,10.12,41,10.12,45.79c0,58-10.12,85.72-27.69,103.29l-.53.54c27.69,21.83,33,62.29,33,107.55,0,1.6,0,5.32-.53,11.18-.54,11.18-3.73,27.69-9.59,44.73-6.38,17-17,32.48-33.54,41.53-8.52,4.79-18.63,6.92-30.88,6.92-36.2,0-54.84-18.11-65-42.07-10.12-23.42-11.18-53.24-11.18-75.07h56.44c0,26.09,1.6,42.6,4.79,52.71,3.19,10.65,8,13.85,14.91,13.85,9.05,0,13.84-6.93,16-16.51s2.13-21.83,2.13-33c0-12.25,0-23.43.53-33.55,0-19.16-3.72-32.47-16-40.46-6.39-3.73-16-6.39-28.22-6.92Z"/><path class="cls-3" d="M516.91,485.2c-.54,16-3.73,30.35-9.59,42.59a73.25,73.25,0,0,1-22.89,28.76c-10.65,8.52-25,13.31-44.2,13.31s-34.07-4.79-44.72-13.31c-10.65-8-17.57-18.11-22.36-28.76-5.86-12.24-9.06-26.62-9.59-42.59V254.65c.53-15.44,3.73-29.81,9.59-42.06,4.79-10.65,11.71-21.3,22.36-29.28S421.07,170,440.23,170s33.55,5.32,44.2,13.31a74.65,74.65,0,0,1,22.89,29.28c5.86,12.25,9.05,26.62,9.59,42.06ZM459.4,254.65c0-10.65-2.13-18.1-7.45-24.49-2.66-2.66-6.92-4.26-11.72-4.26-10.11,0-14.9,7.46-17,14.38a40.73,40.73,0,0,0-2.13,14.37V485.2c0,11.18,2.66,18.64,8,24.49A15.27,15.27,0,0,0,440.23,514c10.12,0,14.91-6.39,17-14.37,1.6-3.73,2.13-8.52,2.13-14.38Z"/><path class="cls-4" d="M670.59,358h-3.54l-.4-15.81-1.19-15.58-2-15.37-2.69-15.11-3.43-14.86-4.14-14.56-4.83-14.27-5.5-14-6.14-13.59L630,211.62l-7.39-12.86-8-12.46-8.56-12-9.12-11.61-9.65-11.13-10.16-10.66L566.45,130.7,555.3,121l-11.6-9.11-12-8.56-12.45-8L506.34,88,493.1,81.2l-13.59-6.15-13.94-5.49-14.28-4.82-14.55-4.16-14.87-3.41-15.11-2.7-15.37-2L375.8,51.32l-15.8-.4V47.38l16,.41L391.74,49l15.54,2,15.3,2.74,15,3.48,14.75,4.17,14.42,4.87,14.1,5.57L494.64,78,508,84.87l13,7.49,12.6,8.07,12.17,8.65,11.74,9.23,11.27,9.76,10.79,10.29,10.27,10.77,9.78,11.3,9.21,11.72,8.66,12.18,8.07,12.59,7.49,13,6.87,13.4,6.21,13.77,5.57,14.09,4.88,14.44,4.18,14.74,3.47,15,2.74,15.3,2,15.53,1.2,15.78.4,16ZM360,668.54l16-.4,15.77-1.2,15.54-2,15.3-2.74,15-3.47,14.75-4.17,14.42-4.89,14.1-5.56,13.77-6.22L508,631.05l13-7.48,12.6-8.07,12.17-8.67,11.74-9.22,11.27-9.77,10.79-10.27,10.27-10.79,9.78-11.29,9.21-11.71,8.66-12.18L625.6,519l7.49-13L640,492.6l6.21-13.76,5.57-14.11,4.88-14.42,4.18-14.75,3.47-15L667,405.25l2-15.55,1.2-15.77.4-16h-3.54l-.4,15.8-1.19,15.6-2,15.36-2.69,15.12-3.43,14.86-4.14,14.56-4.83,14.26-5.5,14-6.14,13.58L630,504.3l-7.39,12.86-8,12.46-8.56,12-9.12,11.6-9.65,11.14-10.16,10.66-10.66,10.16-11.15,9.66L543.7,604l-12,8.55-12.45,8-12.87,7.39-13.24,6.77-13.59,6.16-13.94,5.5-14.28,4.82-14.55,4.14-14.87,3.43-15.11,2.69-15.37,2-15.59,1.19L360,665v3.55ZM49.41,358l.4,16L51,389.7l2,15.55,2.75,15.29,3.46,15,4.19,14.75,4.88,14.42,5.57,14.11L80,492.6,86.9,506l7.48,13,8.09,12.61,8.66,12.18,9.21,11.71,9.77,11.29,10.28,10.79,10.79,10.27,11.27,9.77,11.74,9.22,12.17,8.67,12.6,8.07,13,7.48,13.38,6.86,13.76,6.22,14.11,5.56,14.42,4.89,14.75,4.17,15,3.47,15.3,2.74,15.54,2,15.77,1.2,16,.4V665l-15.81-.38-15.59-1.19-15.36-2-15.11-2.69-14.87-3.43-14.56-4.14-14.27-4.82-13.94-5.5-13.58-6.16-13.25-6.77-12.87-7.39-12.45-8-12-8.55-11.6-9.12-11.15-9.66-10.66-10.16L132.73,564.4l-9.65-11.14L114,541.66l-8.56-12-8-12.46L90,504.3l-6.78-13.25-6.14-13.58-5.5-14-4.84-14.26L62.62,434.7l-3.44-14.86L56.5,404.72l-2-15.36-1.19-15.6L53,358ZM360,47.38l-16,.41L328.26,49l-15.54,2-15.3,2.74-15,3.48-14.75,4.17-14.42,4.87-14.11,5.57L225.36,78,212,84.87l-13,7.49-12.6,8.07-12.17,8.65-11.74,9.23-11.27,9.76-10.79,10.29-10.28,10.77-9.77,11.3-9.21,11.72-8.66,12.18-8.09,12.59-7.48,13L80,223.32l-6.21,13.77-5.57,14.09-4.88,14.44-4.19,14.74-3.46,15L53,310.68l-2,15.53L49.81,342l-.4,16H53l.4-15.81,1.19-15.58,2-15.37,2.68-15.11,3.44-14.86,4.13-14.56,4.84-14.27,5.5-14,6.14-13.59L90,211.62l7.4-12.86,8-12.46,8.56-12,9.12-11.61,9.65-11.13,10.16-10.66,10.66-10.17L164.7,121l11.6-9.11,12-8.56,12.45-8L213.66,88l13.25-6.79,13.58-6.15,13.94-5.49,14.27-4.82,14.56-4.16,14.87-3.41,15.11-2.7,15.36-2,15.59-1.18,15.81-.4Z"/><line class="cls-5" x1="113.68" y1="535.83" x2="537.88" y2="111.63"/><line class="cls-6" x1="129.81" y1="561.04" x2="566.45" y2="130.7"/><line class="cls-7" x1="160.75" y1="581.15" x2="583.2" y2="158.7"/><path class="cls-3" d="M360,49.15C189.47,49.15,51.18,187.43,51.18,358S189.47,666.77,360,666.77,668.82,528.49,668.82,358,530.51,49.15,360,49.15Zm0,606.39C196.1,655.54,62.42,521.86,62.42,358S196.1,60.38,360,60.38,657.58,194.05,657.58,358,523.9,655.54,360,655.54Z"/></svg>