<svg id="Layer_1" data-name="Layer 1" xmlns="http://www.w3.org/2000/svg" viewBox="0 0 720 720"><defs><style>.cls-1{fill:#9c9b9b;}.cls-1,.cls-2,.cls-3,.cls-4{fill-rule:evenodd;}.cls-2{fill:#fff;}.cls-3{fill:#1d1d1b;}.cls-4{fill:#008ad1;}</style></defs><path class="cls-1" d="M360,672.61c-170.1,0-308.81-138.72-308.81-308.8S189.91,55,360,55,668.8,193.73,668.8,363.81,530.09,672.61,360,672.61Z"/><path class="cls-2" d="M360,49.16C189.48,49.16,51.2,187.44,51.2,358S189.48,666.77,360,666.77,668.8,528.48,668.8,358,530.54,49.16,360,49.16Z"/><path class="cls-3" d="M49.42,358l.42-16L51,326.23l2-15.55,2.73-15.29,3.47-15,4.17-14.74,4.9-14.43,5.56-14.1,6.22-13.77,6.85-13.4,7.5-13,8-12.6,8.68-12.18,9.22-11.72,9.76-11.28,10.28-10.79,10.79-10.28,11.28-9.77,11.73-9.21,12.17-8.67L199,92.35l13-7.47L225.37,78l13.76-6.22,14.12-5.56,14.41-4.89,14.74-4.17,15-3.48L312.72,51l15.55-2L344,47.79l16-.4v3.54l-15.81.39-15.59,1.19-15.36,2-15.12,2.7L283.27,60.6,268.7,64.74l-14.25,4.82-13.94,5.5L226.9,81.21,213.66,88l-12.86,7.4-12.46,8-12,8.55-11.6,9.12-11.14,9.65L142.9,140.87l-10.16,10.66-9.67,11.12L114,174.26l-8.55,12.05-8,12.45L90,211.63l-6.77,13.24-6.16,13.59-5.5,13.94-4.82,14.27-4.14,14.56L59.19,296.1l-2.68,15.11-2,15.36-1.18,15.58L53,358ZM360,668.52V665l-15.81-.4-15.59-1.18-15.36-2-15.12-2.7-14.86-3.43-14.57-4.14-14.25-4.82-13.94-5.49-13.61-6.16-13.24-6.78-12.86-7.39-12.46-8-12-8.57-11.6-9.11-11.14-9.64L142.9,575,132.74,564.4l-9.67-11.15L114,541.66l-8.55-12-8-12.46L90,504.31l-6.77-13.24-6.16-13.61-5.5-13.94-4.82-14.27-4.14-14.57-3.44-14.84-2.68-15.12-2-15.36-1.18-15.6L53,358H49.42l.42,16L51,389.71l2,15.54,2.73,15.3,3.47,15,4.17,14.76,4.9,14.41,5.56,14.11,6.22,13.76L86.91,506l7.5,13,8,12.6,8.68,12.18,9.22,11.73,9.76,11.26,10.28,10.79,10.79,10.28,11.28,9.77,11.73,9.22,12.17,8.65,12.6,8.09L212,631l13.39,6.86,13.76,6.22,14.12,5.56,14.41,4.89,14.74,4.18,15,3.47,15.3,2.73,15.55,2L344,668.13l16,.39ZM670.58,358H667l-.39,15.8-1.18,15.6-2,15.36-2.7,15.12-3.42,14.84-4.16,14.57-4.82,14.27-5.5,13.94-6.14,13.61L630,504.31l-7.38,12.85-8,12.46-8.57,12-9.11,11.59-9.65,11.15L577.1,575l-10.65,10.19-11.14,9.64L543.71,604l-12.05,8.57-12.44,8-12.88,7.39-13.22,6.78-13.61,6.16-13.94,5.49-14.27,4.82-14.57,4.14-14.84,3.43-15.12,2.7-15.36,2-15.59,1.18L360,665v3.53l16-.39,15.77-1.22,15.55-2,15.29-2.73,15-3.47,14.72-4.18,14.43-4.89,14.12-5.56,13.76-6.22L508,631l13-7.48,12.6-8.09,12.19-8.65,11.73-9.22,11.26-9.77,10.79-10.28,10.3-10.79,9.76-11.26,9.22-11.73,8.66-12.18,8.07-12.6,7.48-13L640,492.6l6.2-13.76,5.57-14.11,4.89-14.41,4.17-14.76,3.49-15,2.73-15.3,2-15.54,1.2-15.77.4-16ZM360,50.93l15.81.39,15.59,1.19,15.36,2,15.12,2.7,14.84,3.43,14.57,4.14,14.27,4.82,13.94,5.5,13.61,6.15L506.34,88l12.88,7.4,12.44,8,12.05,8.55,11.6,9.12,11.14,9.65,10.65,10.17,10.18,10.66,9.65,11.12L606,174.26l8.57,12.05,8,12.45L630,211.63l6.79,13.24,6.14,13.59,5.5,13.94,4.82,14.27,4.16,14.56,3.42,14.87,2.7,15.11,2,15.36,1.18,15.58L667,358h3.55l-.4-16L669,326.23l-2-15.55-2.73-15.29-3.49-15-4.17-14.74-4.89-14.43-5.57-14.1L640,223.32l-6.87-13.4-7.48-13-8.07-12.6-8.66-12.18-9.22-11.72-9.76-11.28-10.3-10.79-10.79-10.28-11.26-9.77-11.73-9.21-12.19-8.67L521,92.35l-13-7.47L494.65,78,480.89,71.8l-14.12-5.56-14.43-4.89-14.72-4.17-15-3.48L407.3,51l-15.55-2L376,47.79l-16-.4Z"/><path class="cls-4" d="M360,655.54C196.11,655.54,62.44,521.86,62.44,358S196.11,60.38,360,60.38,657.58,194.06,657.58,358,523.91,655.54,360,655.54Z"/><polygon class="cls-2" points="416.61 466.03 221.92 496.04 251.95 301.34 302.52 351.93 466.34 188.12 529.85 251.64 366.05 415.44 416.61 466.03"/></svg>