<svg id="Layer_1" data-name="Layer 1" xmlns="http://www.w3.org/2000/svg" viewBox="0 0 720 720"><defs><style>.cls-1{fill:#9c9b9b;}.cls-1,.cls-3,.cls-4,.cls-5{fill-rule:evenodd;}.cls-2,.cls-5{fill:#fff;}.cls-3{fill:#1d1d1b;}.cls-4{fill:#008ad1;}</style></defs><path class="cls-1" d="M360,672.61c170.08,0,308.81-138.72,308.81-308.8S530.07,55,360,55,51.2,193.73,51.2,363.81,189.91,672.61,360,672.61Z"/><ellipse class="cls-2" cx="359.99" cy="357.96" rx="308.81" ry="308.8" transform="translate(-10.17 10.53) rotate(-1.65)"/><path class="cls-3" d="M670.58,358H667l-.39-15.81-1.18-15.58-2-15.36-2.68-15.11-3.42-14.87-4.16-14.56-4.82-14.26-5.5-13.95-6.16-13.59L630,211.63l-7.4-12.87-8-12.45L606,174.26l-9.13-11.61-9.65-11.12L577.1,140.87,566.43,130.7l-11.14-9.65-11.6-9.12-12.05-8.55-12.44-8L506.32,88,493.1,81.21l-13.61-6.15-13.94-5.5-14.27-4.82L436.73,60.6l-14.86-3.43-15.12-2.7-15.36-2L375.8,51.32,360,50.93V47.39l16,.4L391.73,49l15.55,2,15.3,2.73,15,3.48,14.74,4.17,14.41,4.89,14.12,5.56L494.63,78,508,84.88l13,7.47,12.6,8.08,12.17,8.67,11.73,9.21,11.28,9.77,10.79,10.28,10.28,10.79,9.76,11.28,9.22,11.72,8.66,12.18,8.09,12.6,7.48,13,6.85,13.4,6.22,13.77,5.57,14.09,4.89,14.44,4.17,14.74,3.49,15L667,310.68l2,15.55,1.2,15.77.4,16ZM360,668.52l16-.39,15.75-1.22,15.55-2,15.3-2.73,15-3.47,14.74-4.18,14.41-4.89,14.12-5.56,13.76-6.22L508,631l13-7.48,12.6-8.09,12.17-8.65,11.73-9.22,11.28-9.77,10.79-10.28,10.28-10.79,9.76-11.26,9.22-11.73,8.66-12.18,8.09-12.6,7.48-13,6.85-13.39,6.22-13.76,5.57-14.1,4.89-14.42,4.17-14.76,3.49-15,2.73-15.3,2-15.54,1.2-15.77.4-16H667l-.39,15.8-1.18,15.6-2,15.36-2.68,15.12-3.42,14.84-4.16,14.57-4.82,14.27-5.5,13.94-6.16,13.61L630,504.31l-7.4,12.85-8,12.46-8.55,12-9.13,11.59-9.65,11.15L577.1,575l-10.67,10.19-11.14,9.64L543.69,604l-12.05,8.57-12.44,8-12.88,7.39-13.22,6.78-13.61,6.16-13.94,5.49-14.27,4.82-14.55,4.14-14.86,3.43-15.12,2.7-15.36,2-15.59,1.18L360,665v3.53ZM49.42,358l.4,16L51,389.71l2,15.54,2.73,15.3,3.49,15,4.17,14.76,4.89,14.41,5.55,14.11,6.24,13.76L86.91,506l7.48,13,8.07,12.6,8.66,12.18,9.22,11.73,9.76,11.26,10.3,10.79,10.79,10.28,11.26,9.77,11.73,9.22,12.17,8.65L199,623.56,212,631l13.39,6.86,13.76,6.22,14.12,5.56,14.43,4.89,14.72,4.18,15,3.47,15.3,2.73,15.53,2L344,668.13l16,.39V665l-15.79-.4-15.59-1.18-15.38-2-15.1-2.7-14.86-3.43-14.57-4.14-14.27-4.82-13.94-5.49-13.59-6.16-13.24-6.78-12.86-7.39-12.46-8-12-8.57-11.62-9.11-11.14-9.64L142.9,575,132.72,564.4l-9.65-11.15L114,541.66l-8.56-12-8-12.46L90,504.31l-6.77-13.24-6.16-13.61-5.5-13.94-4.82-14.27-4.16-14.57-3.42-14.84-2.7-15.12-2-15.36-1.18-15.6L53,358ZM360,47.39l-16,.4L328.25,49l-15.53,2-15.3,2.73-15,3.48-14.72,4.17-14.43,4.89L239.11,71.8,225.35,78,212,84.88l-13,7.47-12.62,8.08-12.17,8.67-11.73,9.21-11.26,9.77L140.4,138.36l-10.3,10.79-9.76,11.28-9.22,11.72-8.66,12.18-8.07,12.6-7.48,13-6.85,13.4-6.24,13.77-5.55,14.1-4.89,14.43-4.17,14.74-3.49,15L53,310.68l-2,15.55L49.82,342l-.4,16H53l.41-15.81,1.18-15.58,2-15.36,2.7-15.11,3.42-14.87,4.16-14.56,4.82-14.27,5.5-13.94,6.16-13.59L90,211.63l7.38-12.87,8-12.45L114,174.26l9.11-11.61,9.65-11.12,10.18-10.66,10.65-10.17,11.14-9.65,11.62-9.12,12-8.55,12.46-8L213.66,88l13.24-6.77,13.59-6.15,13.94-5.5,14.27-4.82,14.57-4.14,14.86-3.43,15.1-2.7,15.38-2,15.59-1.19L360,50.93Z"/><path class="cls-4" d="M360,655.54c163.9,0,297.59-133.68,297.59-297.58S523.89,60.38,360,60.38,62.42,194.06,62.42,358,196.09,655.54,360,655.54Z"/><path class="cls-5" d="M418.78,370.05,568.67,260.22,418.78,150.38v63.81H372.55v.17a162.35,162.35,0,0,0-162.4,162.38H210v0h.16V553.22h89.48V376.76h.2v0h-.2a73.66,73.66,0,0,1,72.92-72.88V304h46.23Z"/></svg>