<svg id="Layer_1" data-name="Layer 1" xmlns="http://www.w3.org/2000/svg" viewBox="0 0 720 720"><defs><style>.cls-1{fill:#9c9b9b;}.cls-1,.cls-3,.cls-4,.cls-5{fill-rule:evenodd;}.cls-2,.cls-5{fill:#fff;}.cls-3{fill:#1d1d1b;}.cls-4{fill:#008ad1;}</style></defs><path class="cls-1" d="M360,672.61c-170.08,0-308.81-138.72-308.81-308.8S189.92,55,360,55,668.81,193.73,668.81,363.81,530.1,672.61,360,672.61Z"/><ellipse class="cls-2" cx="360" cy="357.96" rx="308.81" ry="308.8" transform="translate(-9.13 9.43) rotate(-1.48)"/><path class="cls-3" d="M49.41,358l.42-16L51,326.23l2-15.55,2.73-15.29,3.49-15,4.17-14.74,4.89-14.43,5.57-14.1,6.22-13.77,6.85-13.4,7.48-13,8.07-12.6,8.66-12.18,9.22-11.72,9.76-11.28,10.3-10.79,10.79-10.28,11.26-9.77,11.73-9.21,12.17-8.67L199,92.35l13-7.47L225.36,78l13.76-6.22,14.12-5.56,14.43-4.89,14.72-4.17,15-3.48L312.73,51l15.53-2L344,47.79l16-.4v3.54l-15.79.39-15.59,1.19-15.38,2-15.1,2.7L283.28,60.6l-14.57,4.14-14.27,4.82-13.94,5.5-13.59,6.15L213.67,88l-12.86,7.4-12.46,8-12,8.55-11.62,9.12-11.14,9.65-10.65,10.17-10.18,10.66-9.65,11.12L114,174.26l-8.57,12.05-8,12.45L90,211.63l-6.77,13.24L77.1,238.46,71.6,252.4l-4.82,14.27-4.16,14.56L59.2,296.1l-2.7,15.11-2,15.36-1.18,15.58L53,358ZM360,668.52V665l-15.79-.4-15.59-1.18-15.38-2-15.1-2.7-14.86-3.43-14.57-4.14-14.27-4.82-13.94-5.49-13.59-6.16-13.24-6.78-12.86-7.39-12.46-8-12-8.57-11.62-9.11-11.14-9.64L142.91,575,132.73,564.4l-9.65-11.15L114,541.66l-8.57-12-8-12.46L90,504.31l-6.77-13.24L77.1,477.46l-5.5-13.94-4.82-14.27-4.16-14.57L59.2,419.84l-2.7-15.12-2-15.36-1.18-15.6L53,358H49.41l.42,16L51,389.71l2,15.54,2.73,15.3,3.49,15,4.17,14.76,4.89,14.41,5.57,14.11,6.22,13.76L86.92,506l7.48,13,8.07,12.6,8.66,12.18,9.22,11.73,9.76,11.26,10.3,10.79,10.79,10.28,11.26,9.77,11.73,9.22,12.17,8.65L199,623.56,212,631l13.39,6.86,13.76,6.22,14.12,5.56,14.43,4.89,14.72,4.18,15,3.47,15.3,2.73,15.53,2L344,668.13l16,.39ZM670.59,358H667l-.39,15.8-1.18,15.6-2,15.36-2.7,15.12-3.42,14.84-4.14,14.57-4.82,14.27-5.51,13.94-6.15,13.61L630,504.31l-7.4,12.85-8,12.46-8.57,12-9.11,11.59-9.65,11.15L577.11,575l-10.67,10.19-11.14,9.64L543.7,604l-12.05,8.57-12.44,8-12.88,7.39-13.22,6.78-13.61,6.16-13.94,5.49-14.27,4.82-14.55,4.14-14.86,3.43-15.12,2.7-15.36,2-15.59,1.18L360,665v3.53l16-.39,15.75-1.22,15.55-2,15.29-2.73,15-3.47,14.74-4.18,14.41-4.89,14.12-5.56,13.76-6.22L508,631l13-7.48,12.6-8.09,12.17-8.65,11.73-9.22,11.28-9.77,10.77-10.28,10.3-10.79,9.76-11.26,9.22-11.73,8.66-12.18L625.6,519l7.5-13L640,492.6l6.22-13.76,5.56-14.11,4.9-14.41,4.17-14.76,3.47-15,2.73-15.3,2-15.54,1.22-15.77.4-16ZM360,50.93l15.81.39,15.59,1.19,15.36,2,15.12,2.7,14.86,3.43,14.55,4.14,14.27,4.82,13.94,5.5,13.61,6.15L506.33,88l12.88,7.4,12.44,8,12.05,8.55,11.6,9.12,11.14,9.65,10.67,10.17,10.16,10.66,9.65,11.12L606,174.26l8.57,12.05,8,12.45,7.4,12.87,6.77,13.24,6.15,13.59,5.51,13.94,4.82,14.27,4.14,14.56,3.42,14.87,2.7,15.11,2,15.36,1.18,15.58L667,358h3.55l-.4-16L669,326.23l-2-15.55-2.73-15.29-3.47-15-4.17-14.74-4.9-14.43-5.56-14.1L640,223.32l-6.85-13.4-7.5-13-8.07-12.6-8.66-12.18-9.22-11.72-9.76-11.28-10.3-10.79-10.77-10.28-11.28-9.77-11.73-9.21-12.17-8.67L521,92.35l-13-7.47L494.64,78,480.88,71.8l-14.12-5.56-14.41-4.89-14.74-4.17-15-3.48L407.29,51l-15.55-2L376,47.79l-16-.4Z"/><path class="cls-4" d="M360,655.54C196.1,655.54,62.43,521.86,62.43,358S196.1,60.38,360,60.38,657.59,194.06,657.59,358,523.9,655.54,360,655.54Z"/><polygon class="cls-5" points="323.64 474.41 164.74 357.96 323.64 241.51 323.64 313.06 555.28 313.06 555.28 402.87 323.64 402.87 323.64 474.41"/></svg>