<svg id="Layer_1" data-name="Layer 1" xmlns="http://www.w3.org/2000/svg" viewBox="0 0 720 720"><defs><style>.cls-1{fill:#9c9b9b;}.cls-1,.cls-2,.cls-3,.cls-4{fill-rule:evenodd;}.cls-2{fill:#fff;}.cls-3{fill:#1d1d1b;}.cls-4{fill:#008ad1;}</style></defs><path class="cls-1" d="M360,672.61c170.08,0,308.79-138.72,308.79-308.8S530.07,55,360,55,51.18,193.73,51.18,363.81,189.89,672.61,360,672.61Z"/><path class="cls-2" d="M360,49.16C530.5,49.16,668.8,187.44,668.8,358S530.5,666.77,360,666.77,51.2,528.48,51.2,358,189.48,49.16,360,49.16Z"/><path class="cls-3" d="M670.58,358H667l-.39-15.81-1.2-15.58-2-15.36-2.7-15.11-3.42-14.87-4.14-14.56-4.84-14.26-5.5-13.95-6.14-13.59L630,211.63l-7.38-12.87-8-12.45L606,174.26l-9.11-11.61-9.65-11.12-10.18-10.66L566.43,130.7l-11.14-9.65-11.6-9.12-12.05-8.55-12.46-8L506.32,88l-13.24-6.77-13.59-6.15-13.94-5.5-14.27-4.82L436.71,60.6l-14.84-3.43-15.12-2.7-15.36-2L375.8,51.32,360,50.93V47.39l16,.4L391.73,49l15.55,2,15.29,2.73,15,3.48,14.76,4.17,14.41,4.89,14.12,5.56L494.63,78,508,84.88l13,7.47,12.6,8.08,12.19,8.67,11.73,9.21,11.26,9.77,10.79,10.28,10.3,10.79,9.76,11.28,9.22,11.72,8.66,12.18,8.07,12.6,7.48,13,6.87,13.4,6.2,13.77,5.57,14.09,4.89,14.44,4.19,14.74,3.47,15L667,310.68l2,15.55,1.2,15.77.42,16ZM360,668.52l16-.39,15.75-1.22,15.55-2,15.29-2.73,15-3.47,14.76-4.18,14.41-4.89,14.12-5.56,13.76-6.22L508,631l13-7.48,12.6-8.09,12.19-8.65,11.73-9.22,11.26-9.77,10.79-10.28,10.3-10.79,9.76-11.26,9.22-11.73,8.66-12.18,8.07-12.6,7.48-13,6.87-13.39,6.2-13.76,5.57-14.1,4.89-14.42,4.19-14.76,3.47-15,2.73-15.3,2-15.54,1.2-15.77.42-16H667l-.39,15.8-1.2,15.6-2,15.36-2.7,15.12-3.42,14.84-4.14,14.57-4.84,14.27-5.5,13.94-6.14,13.61L630,504.31l-7.38,12.85-8,12.46-8.56,12-9.11,11.59-9.65,11.15L577.08,575l-10.65,10.19-11.14,9.64L543.69,604l-12.05,8.57-12.46,8-12.86,7.39-13.24,6.78-13.59,6.16-13.94,5.49-14.27,4.82-14.57,4.14-14.84,3.43-15.12,2.7-15.36,2-15.59,1.18L360,665v3.53ZM49.42,358l.4,16L51,389.71l2,15.54,2.71,15.3,3.49,15,4.17,14.76,4.88,14.41,5.58,14.11,6.22,13.76L86.91,506l7.48,13,8.07,12.6,8.66,12.18,9.24,11.73,9.76,11.26,10.28,10.79,10.79,10.28,11.28,9.77,11.71,9.22,12.19,8.65,12.6,8.09L212,631l13.39,6.86,13.78,6.22,14.09,5.56,14.44,4.89,14.74,4.18,15,3.47L312.72,665l15.53,2L344,668.13l16,.39V665l-15.79-.4-15.59-1.18-15.38-2-15.1-2.7-14.86-3.43-14.57-4.14-14.27-4.82-13.94-5.49-13.59-6.16-13.24-6.78-12.86-7.39-12.46-8-12-8.57-11.62-9.11-11.12-9.64L142.9,575,132.74,564.4l-9.67-11.15L114,541.66l-8.55-12-8-12.46L90,504.31l-6.77-13.24-6.17-13.61-5.49-13.94-4.82-14.27-4.14-14.57-3.44-14.84-2.68-15.12-2-15.36-1.18-15.6L53,358ZM360,47.39l-16,.4L328.25,49l-15.53,2L297.4,53.7l-15,3.48-14.74,4.17-14.44,4.89L239.13,71.8,225.35,78,212,84.88l-13,7.47-12.6,8.08-12.19,8.67-11.71,9.21-11.28,9.77L140.4,138.36l-10.28,10.79-9.76,11.28-9.24,11.72-8.66,12.18-8.07,12.6-7.48,13-6.85,13.4-6.22,13.77-5.58,14.1-4.88,14.43-4.17,14.74-3.49,15L53,310.68l-2,15.55L49.82,342l-.4,16H53l.39-15.81,1.18-15.58,2-15.36,2.68-15.11,3.44-14.87,4.14-14.56,4.82-14.27,5.49-13.94,6.17-13.59L90,211.63l7.4-12.87,8-12.45L114,174.26l9.11-11.61,9.67-11.12,10.16-10.66,10.67-10.17,11.12-9.65,11.62-9.12,12-8.55,12.46-8L213.66,88l13.24-6.77,13.59-6.15,13.94-5.5,14.27-4.82,14.57-4.14,14.86-3.43,15.1-2.7,15.38-2,15.59-1.19L360,50.93Z"/><path class="cls-4" d="M360,655.54c163.9,0,297.57-133.68,297.57-297.58S523.89,60.38,360,60.38,62.42,194.06,62.42,358,196.07,655.54,360,655.54Z"/><path class="cls-2" d="M255.94,291V580.67h87.12V530.78c7.38-36.36,18.41-60.91,90.48-56.3v56.36L578.85,424.36,433.54,317.87v66.85c-38.39-2-67.6,2.68-90.48,12V291h64.83L295,137,182.14,291Z"/></svg>