<svg id="Layer_1" data-name="Layer 1" xmlns="http://www.w3.org/2000/svg" viewBox="0 0 720 720"><defs><style>.cls-1{fill:#fff;}.cls-1,.cls-2,.cls-3,.cls-4{fill-rule:evenodd;}.cls-2{fill:#1d1d1b;}.cls-3{fill:#e20613;}.cls-4{fill:#008ad1;}</style></defs><path class="cls-1" d="M140.15,27.89H579.87c6.37,0,11.57,6.78,11.57,15.07V677c0,8.28-5.2,15.07-11.57,15.07H140.15c-6.38,0-11.59-6.79-11.59-15.07V43C128.56,34.67,133.77,27.89,140.15,27.89Z"/><path class="cls-2" d="M579.87,29.8H140.15V26H579.87v3.8Zm13,13.16v-.87l0-.86-.09-.85-.11-.82-.15-.82-.18-.81-.21-.79-.22-.77-.26-.75-.3-.73-.31-.72-.34-.68-.37-.66L590,32.2l-.42-.63-.44-.59-.46-.56-.45-.53-.51-.52-.51-.47-.53-.44-.54-.41-.57-.38-.58-.33-.59-.31-.6-.27-.62-.22-.64-.2-.63-.14-.66-.11-.67-.06-.66,0v3.8h.53l.5.06.5.07.5.13.49.14.47.18.48.2.45.25.45.25.42.3.43.31.41.34.4.37.37.39.39.42.34.44.33.45.33.47.29.51.28.51.27.52.25.57.22.57.21.58.18.59.14.62.15.61.12.64.07.66.08.64,0,.67V43ZM590,677h0V43h2.95V677Zm-10.09,17,.66,0,.67-.06.66-.12.63-.14.64-.19.62-.23.6-.29.59-.28.58-.34.57-.38.55-.41.52-.44.51-.48.51-.52.45-.52.46-.56.44-.59.42-.63.38-.64.35-.65.34-.69.31-.73.3-.72.26-.74.22-.78.21-.79.19-.8.14-.82.11-.84.09-.84,0-.86V677H590v.69l0,.66-.08.65-.07.65-.12.62-.15.63-.14.62-.18.6-.21.58-.22.57-.25.54-.27.54-.29.52-.28.51-.33.46-.33.46-.34.43-.39.43-.37.39-.4.36-.41.35-.43.32-.42.29-.46.26-.44.24-.48.2-.47.18-.49.15-.5.12-.5.07-.5.06h-.53V694Zm-439.72-3.81H579.87V694H140.15v-3.81ZM127.09,677v.86l.06.86.08.84.11.84.15.82.18.8.21.79.23.78.27.75.28.71.32.73.33.69.37.66.38.64.41.62.43.58.47.57.46.52.5.52.52.48.51.44.55.41.58.38.57.34.59.28.61.29.62.23.63.19.64.14.66.12.66.06.67,0v-3.81h-.53l-.51-.06-.5-.07-.5-.12-.49-.15-.47-.18-.47-.2-.44-.24-.46-.26-.43-.29-.43-.32-.41-.35-.4-.36-.38-.39-.37-.43-.34-.42-.34-.47-.32-.48-.3-.49-.28-.52-.26-.54-.26-.54-.22-.58-.2-.57-.18-.6-.16-.62-.14-.63-.11-.64-.09-.63-.08-.65,0-.66V677ZM130,43h0V677h-2.95V43Zm10.11-17-.67,0-.66.06-.66.11-.64.14-.63.2-.62.22-.61.27-.59.31-.57.33-.58.38-.53.41-.53.44-.52.47-.5.52-.46.53-.47.56-.43.59-.41.61-.38.65-.37.66-.33.68-.32.72-.28.72-.27.76-.23.77-.21.79-.18.81-.15.81-.11.83-.08.85-.06.86V43H130v-.69l0-.67.08-.64.09-.65.11-.65.14-.61.16-.62.18-.59.2-.58.22-.57.26-.57.26-.52.28-.51.3-.5.32-.48.34-.46.34-.43.37-.42.38-.39.4-.37.41-.34.43-.31.43-.3.44-.25.46-.25.47-.2.47-.18.49-.14.5-.13.5-.07.51-.06h.53Z"/><polygon class="cls-2" points="449.25 660.27 513.35 660.27 513.35 637.29 477.03 637.29 477.03 613.17 510.89 613.17 510.89 588.99 477.03 588.99 477.03 567.32 513.35 567.32 513.35 545.54 449.25 545.54 449.25 660.27"/><polygon class="cls-2" points="364.77 660.27 391.41 660.27 387.75 596.32 409.55 660.27 437.33 660.27 437.33 545.54 410.75 545.54 414.28 611.96 392.56 545.54 364.77 545.54 364.77 660.27"/><path class="cls-2" d="M280.28,625.31q0,16.4,8.54,26.91c5.7,7,14.94,10.52,27.78,10.52,9,0,16.45-1.48,22.2-4.5a27.62,27.62,0,0,0,12.52-12.9q3.94-8.36,3.95-20V574.54q0-17.25-11-24.36t-26.56-7.1a57.61,57.61,0,0,0-14.7,1.78,35.25,35.25,0,0,0-11.89,5.47,25.44,25.44,0,0,0-7.92,9.72,32.59,32.59,0,0,0-2.94,14.49Z"/><polygon class="cls-2" points="206.67 660.27 273.1 660.27 273.1 637.29 238.13 637.29 271.82 567.32 271.82 545.54 209.15 545.54 209.15 568.53 241.64 568.53 206.67 638.49 206.67 660.27"/><path class="cls-1" d="M308.08,573.34A9.35,9.35,0,0,1,311,566a10.06,10.06,0,0,1,13.59,0,9.46,9.46,0,0,1,2.82,7.33v57.94a9.62,9.62,0,0,1-2.82,7.33,9.75,9.75,0,0,1-6.81,2.64,9.86,9.86,0,0,1-6.76-2.64,9.48,9.48,0,0,1-2.92-7.33Z"/><path class="cls-1" d="M364.77,85c109.7,0,198.68,89,198.68,198.66s-89,198.68-198.68,198.68S166.1,393.4,166.1,283.69,255.08,85,364.77,85Z"/><path class="cls-2" d="M564.59,283.69h-2.28l-.26-10.17-.76-10L560,253.61l-1.73-9.72-2.21-9.56L553.43,225l-3.11-9.17-3.54-9-3.95-8.74-4.36-8.52-4.76-8.27-5.14-8-5.51-7.74-5.87-7.47-6.2-7.16L504.45,144l-6.86-6.54-7.17-6.21L483,125.41l-7.76-5.5-8-5.14L458.92,110l-8.53-4.36-8.74-4-9-3.53-9.19-3.11-9.36-2.67-9.56-2.2-9.73-1.73L385,87.18l-10.05-.76-10.16-.25V83.89l10.27.26,10.15.77,10,1.27L405,88l9.66,2.24,9.49,2.68L433.46,96l9.08,3.58,8.85,4L460,108l8.37,4.81,8.1,5.2,7.83,5.56,7.55,5.94,7.26,6.28,6.94,6.62,6.61,6.93,6.28,7.26,5.93,7.55,5.57,7.83,5.21,8.11,4.81,8.36,4.41,8.61,4,8.86,3.58,9.07,3.15,9.29,2.68,9.48,2.23,9.67,1.76,9.84,1.28,10,.77,10.15.26,10.27ZM364.77,483.51l10.27-.26,10.15-.78,10-1.27,9.84-1.76,9.66-2.23,9.49-2.69,9.27-3.14,9.08-3.58,8.85-4,8.62-4.41,8.37-4.82,8.1-5.19,7.83-5.57,7.55-5.94,7.26-6.28,6.94-6.61,6.61-6.94,6.28-7.26,5.93-7.54,5.57-7.83,5.21-8.12,4.81-8.36,4.41-8.62,4-8.85,3.58-9.07,3.15-9.28,2.68-9.49,2.23-9.66,1.76-9.84,1.28-10,.77-10.15.26-10.28h-2.28l-.26,10.17-.76,10L560,313.78l-1.73,9.72-2.21,9.57-2.66,9.36-3.11,9.18-3.54,9-3.95,8.74-4.36,8.52-4.76,8.27-5.14,8-5.51,7.75-5.87,7.46-6.2,7.17-6.54,6.85-6.86,6.54-7.17,6.22L483,442l-7.76,5.51-8,5.14-8.28,4.75-8.53,4.36-8.74,4-9,3.53-9.19,3.1L414.14,475l-9.56,2.2-9.73,1.73L385,480.21l-10.05.76-10.16.25v2.29ZM165,283.69l.25,10.28.78,10.15,1.28,10L169,324l2.23,9.66,2.68,9.49,3.14,9.28,3.59,9.07,4,8.85,4.42,8.62,4.8,8.36,5.2,8.12,5.58,7.83,5.93,7.54,6.28,7.26,6.61,6.94,6.94,6.61,7.26,6.28,7.55,5.94,7.82,5.57,8.11,5.19,8.37,4.82,8.61,4.41,8.86,4,9.08,3.58,9.27,3.14,9.49,2.69,9.66,2.23,9.84,1.76,10,1.27,10.14.78,10.27.26v-2.29L354.6,481l-10-.76-9.88-1.27L325,477.21,315.4,475,306,472.34l-9.18-3.1-9-3.53-8.75-4-8.51-4.36-8.28-4.75-8-5.14L246.59,442l-7.46-5.86L232,429.9l-6.86-6.54-6.54-6.85-6.2-7.17-5.87-7.46L201,394.13l-5.14-8-4.76-8.27-4.36-8.52-3.95-8.74-3.55-9-3.1-9.18-2.66-9.36-2.22-9.57-1.72-9.72-1.27-9.88-.76-10-.25-10.17ZM364.77,83.89l-10.27.26-10.14.77-10,1.27L324.51,88l-9.66,2.24-9.49,2.68L296.09,96,287,99.59l-8.86,4L269.54,108l-8.37,4.81-8.11,5.2-7.82,5.56-7.55,5.94-7.26,6.28-6.94,6.62-6.61,6.93-6.28,7.26-5.93,7.55L199.09,172l-5.2,8.11-4.8,8.36-4.42,8.61-4,8.86L177.08,215l-3.14,9.29-2.68,9.48L169,243.44l-1.76,9.84-1.28,10-.78,10.15L165,283.69h2.28l.25-10.17.76-10,1.27-9.89,1.72-9.72,2.22-9.56,2.66-9.37,3.1-9.17,3.55-9,3.95-8.74,4.36-8.52,4.76-8.27,5.14-8,5.51-7.74,5.87-7.47,6.2-7.16L225.1,144l6.86-6.54,7.17-6.21,7.46-5.87,7.75-5.5,8-5.14,8.28-4.76,8.51-4.36,8.75-4,9-3.53L306,95.05l9.36-2.67,9.57-2.2,9.72-1.73,9.88-1.27,10-.76,10.17-.25Z"/><path class="cls-3" d="M364.77,475.14c105.44,0,191.46-86,191.46-191.45s-86-191.44-191.46-191.44-191.44,86-191.44,191.44S259.33,475.14,364.77,475.14Z"/><path class="cls-4" d="M454.8,405.8A151.71,151.71,0,0,1,242.66,193.67Z"/><path class="cls-4" d="M364.77,132A151.7,151.7,0,0,1,486.88,373.72L274.75,161.59A151,151,0,0,1,364.77,132Z"/></svg>