<svg id="Layer_1" data-name="Layer 1" xmlns="http://www.w3.org/2000/svg" viewBox="0 0 720 720"><defs><style>.cls-1{fill:#fff;}.cls-1,.cls-2,.cls-3{fill-rule:evenodd;}.cls-2{fill:#e20613;}.cls-3{fill:#1d1d1b;}</style></defs><path class="cls-1" d="M360,27.52C543.57,27.52,692.48,176.4,692.48,360S543.57,692.48,360,692.48,27.52,543.58,27.52,360,176.4,27.52,360,27.52Z"/><path class="cls-2" d="M360,680.37c176.46,0,320.39-143.92,320.39-320.38S536.46,39.6,360,39.6,39.61,183.53,39.61,360,183.53,680.37,360,680.37Z"/><path class="cls-1" d="M360,613.88c139.85,0,253.89-114,253.89-253.89S499.85,106.1,360,106.1,106.11,220.15,106.11,360,220.16,613.88,360,613.88Z"/><path class="cls-3" d="M244.89,405.84h-35l-42-34.63H106.37q.31,7.65,1.08,15.15h54.42l23.66,19.48H110.24a251.69,251.69,0,0,0,12,43.42h27.54c0,.66-.07,1.32-.07,2a26.74,26.74,0,0,0,53.47,0c0-.67,0-1.33-.06-2h41.74Z"/><path class="cls-3" d="M475.08,405.84h35.05l42-34.63h61.47c-.22,5.1-.58,10.15-1.11,15.15h-54.4l-23.66,19.48h75.29a251.69,251.69,0,0,1-12,43.42H570.18c0,.66.07,1.32.07,2a26.74,26.74,0,0,1-53.47,0,18.81,18.81,0,0,1,.07-2H475.08Z"/><path class="cls-3" d="M258.61,288.3V261.11h82.23v21.25q-10.14,12.24-20.51,34.69a237.8,237.8,0,0,0-16.06,48.24c-3.83,17.14-5.69,32.69-5.69,46.7H275.42a240.22,240.22,0,0,1,10.82-65,235,235,0,0,1,27.05-58.67Z"/><path class="cls-3" d="M447.22,310.67h10.54v7.2a20.64,20.64,0,0,1,6.22-6.3,13.57,13.57,0,0,1,7.32-2.1,12.45,12.45,0,0,1,7.22,2.1,14.77,14.77,0,0,1,5,6.3,21.51,21.51,0,0,1,6.19-6.3,13,13,0,0,1,7.05-2.1,13.54,13.54,0,0,1,7.62,2.13,13.33,13.33,0,0,1,4.88,6q1.67,3.92,1.67,12.08v33.76h-11.5V333.3c0-5.28-.46-8.77-1.38-10.52a4.92,4.92,0,0,0-4.68-2.61,7.07,7.07,0,0,0-6.17,3.66q-2.32,3.66-2.32,14.28v25.37h-11.5v-29c0-5.73-.32-9.43-.94-11.07a4.88,4.88,0,0,0-5-3.29,7.3,7.3,0,0,0-4.67,1.69,9.23,9.23,0,0,0-3.07,4.95c-.64,2.17-.94,5.85-.94,11v25.66h-11.5Z"/><path class="cls-3" d="M396.77,258.36c12.13,0,22,5.8,29.51,17.39s11.27,31.84,11.27,60.81-3.73,49.06-11.27,60.64S409,414.59,396.87,414.59s-22.05-5.73-29.55-17.21-11.26-31.88-11.26-61.16q0-43.11,11.26-60.47T396.77,258.36Z"/><path class="cls-1" d="M396.77,282.7q-7.09,0-11.33,9.38t-4.24,44.48c0,23.34,1.43,38.16,4.24,44.37s6.6,9.36,11.33,9.36,8.58-3.14,11.36-9.4,4.18-21.05,4.18-44.33-1.39-38.21-4.18-44.48S401.55,282.7,396.77,282.7Z"/></svg>