<svg id="Layer_1" data-name="Layer 1" xmlns="http://www.w3.org/2000/svg" viewBox="0 0 720 720"><defs><style>.cls-1{fill:#fff;}.cls-1,.cls-2{fill-rule:evenodd;}.cls-2{fill:#1d1d1b;}.cls-3{fill:none;stroke:#1d1d1b;stroke-miterlimit:10;stroke-width:9.05px;}</style></defs><path class="cls-1" d="M360,43.5C534.76,43.5,676.5,185.23,676.5,360S534.76,676.5,360,676.5,43.5,534.77,43.5,360,185.22,43.5,360,43.5Z"/><path class="cls-2" d="M678.31,360h-3.63l-.4-16.2-1.22-16-2-15.75-2.77-15.48-3.51-15.24-4.24-14.92-4.95-14.63L650,237.51l-6.3-13.92L636.7,210l-7.58-13.18-8.19-12.76-8.77-12.34-9.35-11.9-9.89-11.41L582.5,137.5l-10.92-10.42-11.42-9.9-11.89-9.34-12.35-8.77-12.76-8.19L510,83.3l-13.57-7L482.47,70l-14.28-5.62-14.63-5-14.92-4.26-15.23-3.5L407.92,49l-15.74-2-16-1.21-16.2-.4V41.69l16.37.41,16.16,1.23,15.94,2,15.68,2.8,15.38,3.56L454.64,56l14.78,5,14.46,5.72L498,73.07l13.73,7L525,87.78,538,96.05l12.48,8.87,12,9.46,11.56,10,11,10.55,10.55,11,10,11.57,9.45,12L623.94,182,632.21,195l7.68,13.32,7,13.73,6.38,14.11,5.7,14.46,5,14.78,4.27,15.11,3.57,15.4,2.8,15.68,2,15.92,1.23,16.17.41,16.36ZM360,678.31l16.37-.41,16.16-1.23,15.94-2,15.68-2.8,15.38-3.57L454.64,664l14.78-5,14.46-5.7L498,646.92l13.73-7L525,632.22,538,624l12.48-8.88,12-9.46,11.56-10,11-10.54L595.61,574l10-11.57,9.45-12L623.94,538,632.21,525l7.68-13.33,7-13.72,6.38-14.11,5.7-14.46,5-14.77,4.27-15.12,3.57-15.39,2.8-15.68,2-15.93,1.23-16.16.41-16.38h-3.63l-.4,16.2-1.22,16-2,15.74-2.77,15.49-3.51,15.24-4.24,14.92-4.95,14.62L650,482.48l-6.3,13.92L636.7,510l-7.58,13.18-8.19,12.77-8.77,12.34-9.35,11.89-9.89,11.42L582.5,582.5l-10.92,10.41-11.42,9.91-11.89,9.34-12.35,8.77-12.76,8.19L510,636.7l-13.57,6.94L482.47,650l-14.28,5.63-14.63,4.95-14.92,4.24-15.23,3.52L407.92,671l-15.74,2-16,1.22-16.2.39v3.64ZM41.69,360l.41,16.38,1.23,16.16,2,15.93,2.8,15.68,3.56,15.39L56,454.65l5,14.77,5.7,14.46L73.07,498l7,13.72L87.77,525,96.05,538l8.88,12.48,9.44,12,10,11.57,10.55,11.05,11,10.54,11.55,10,12,9.46L182,624,195,632.22l13.32,7.67,13.73,7,14.1,6.37,14.47,5.7,14.77,5,15.11,4.27,15.4,3.57,15.68,2.8,15.93,2,16.16,1.23,16.37.41v-3.64l-16.2-.39-16-1.22-15.74-2-15.49-2.75-15.23-3.52-14.93-4.24-14.63-4.95L237.51,650l-13.94-6.31L210,636.7l-13.17-7.58-12.77-8.19-12.34-8.77-11.89-9.34-11.42-9.91L137.49,582.5l-10.42-10.92-9.89-11.42-9.34-11.89-8.78-12.34-8.19-12.77L83.29,510l-7-13.58L70,482.48l-5.62-14.29-5-14.62-4.25-14.92L51.7,423.41,49,407.92l-2-15.74-1.21-16-.4-16.2ZM360,41.69l-16.37.41-16.16,1.23-15.93,2-15.68,2.8-15.4,3.56L265.34,56l-14.77,5L236.1,66.71,222,73.07l-13.73,7L195,87.78,182,96.05l-12.48,8.87-12,9.46-11.55,10-11,10.55-10.55,11-10,11.57-9.44,12L96.05,182,87.77,195l-7.66,13.32-7,13.73L66.7,236.11,61,250.57l-5,14.78-4.29,15.11-3.56,15.4-2.8,15.68-2,15.92L42.1,343.63,41.69,360h3.63l.4-16.2,1.21-16,2-15.75,2.75-15.48,3.51-15.24,4.25-14.92,5-14.63L70,237.51l6.3-13.92,7-13.58,7.58-13.18,8.19-12.76,8.78-12.34,9.34-11.9,9.89-11.41,10.42-10.92,10.92-10.42,11.42-9.9,11.89-9.34,12.34-8.77,12.77-8.19L210,83.3l13.57-7L237.51,70l14.28-5.62,14.63-5,14.93-4.26,15.23-3.5L312.07,49l15.74-2,16-1.21,16.2-.4Z"/><line class="cls-3" x1="102.35" y1="541.73" x2="542.21" y2="102.84"/><line class="cls-3" x1="126.91" y1="573.42" x2="579.13" y2="130.07"/><line class="cls-3" x1="160.86" y1="605.37" x2="605.37" y2="160.88"/></svg>