<svg id="Layer_1" data-name="Layer 1" xmlns="http://www.w3.org/2000/svg" viewBox="0 0 720 720"><defs><style>.cls-1{fill:#fff;}.cls-1,.cls-2,.cls-3{fill-rule:evenodd;}.cls-2,.cls-4{fill:#e20613;}.cls-3{fill:#1d1d1b;}</style></defs><path class="cls-1" d="M360,27.52c183.6,0,332.48,148.88,332.48,332.48S543.59,692.48,360,692.48,27.53,543.58,27.53,360,176.39,27.52,360,27.52Z"/><path class="cls-2" d="M360,680.37c176.46,0,320.38-143.92,320.38-320.38S536.45,39.6,360,39.6,39.61,183.53,39.61,360,183.53,680.37,360,680.37Z"/><path class="cls-1" d="M360,613.88c139.85,0,253.91-114,253.91-253.89S499.84,106.1,360,106.1,106.1,220.15,106.1,360,220.16,613.88,360,613.88Z"/><path class="cls-3" d="M429.75,369.72a65.34,65.34,0,1,1-65.44,65.17A65.17,65.17,0,0,1,429.75,369.72Z"/><path class="cls-3" d="M255,398.86a50.77,50.77,0,1,1-50.83,50.64A50.64,50.64,0,0,1,255,398.86Z"/><path class="cls-3" d="M540,403H523.92c-.13-48.22-31-81.52-75.41-89.73V302.37c0-4.62-3.48-17.3-7.87-19.26a18,18,0,1,0-14.5,3.17c-6.25,4.94-11.13,17.23-11.13,24v.92H407.4c-13.18,0-27.53,6.48-38.23,16.29-10.73-9.81-25.06-16.28-38.28-16.28H277.73V272.8h-8.08V225.1H256.06v47.7H248v42.25c-19.4,7.75-36.48,26.28-36.48,45.64v36.9A67.66,67.66,0,0,1,321,435.18h29.1l0-.33a79.52,79.52,0,0,1,157.17-17H540Z"/><path class="cls-1" d="M429.66,399.86A35.2,35.2,0,1,1,394.43,435a35.1,35.1,0,0,1,35.23-35.11ZM254.92,420.5a29.13,29.13,0,1,1-29.17,29.05A29.06,29.06,0,0,1,254.92,420.5Z"/><path class="cls-3" d="M429.64,414a21,21,0,1,1-21.09,21,21,21,0,0,1,21.09-21ZM254.9,434.5a15.13,15.13,0,1,1-15.18,15.11A15.09,15.09,0,0,1,254.9,434.5Z"/><path class="cls-4" d="M149.75,213.52l358.17,360A258.17,258.17,0,0,0,562.14,519L204,159A258.12,258.12,0,0,0,149.75,213.52Z"/></svg>