<svg id="Layer_1" data-name="Layer 1" xmlns="http://www.w3.org/2000/svg" viewBox="0 0 720 720"><defs><style>.cls-1{fill:#fff;}.cls-1,.cls-2,.cls-3{fill-rule:evenodd;}.cls-2{fill:#e20613;}.cls-3,.cls-4{fill:#1d1d1b;}</style></defs><path class="cls-1" d="M360,27.52C543.59,27.52,692.48,176.4,692.48,360S543.59,692.48,360,692.48,27.52,543.58,27.52,360,176.41,27.52,360,27.52Z"/><path class="cls-2" d="M360,680.37c176.46,0,320.39-143.92,320.39-320.38S536.46,39.6,360,39.6,39.61,183.53,39.61,360,183.54,680.37,360,680.37Z"/><path class="cls-1" d="M360,613.88c139.86,0,253.91-114,253.91-253.89S499.86,106.1,360,106.1,106.12,220.15,106.12,360,220.16,613.88,360,613.88Z"/><path class="cls-3" d="M210.76,375.52h0A18.57,18.57,0,0,1,229.31,394v45.51h10V394a18.57,18.57,0,0,1,18.52-18.5h0A18.57,18.57,0,0,1,276.41,394v45.51H323c7.44-9.51,21.26-15.88,37.05-15.88s29.57,6.37,37,15.88H443.6V394a18.57,18.57,0,0,1,18.53-18.5h0A18.57,18.57,0,0,1,480.64,394v45.51H490.7V394a18.57,18.57,0,0,1,18.53-18.5h0A18.57,18.57,0,0,1,527.74,394v45.54a16.2,16.2,0,0,1,15.09,16.11h0a16.19,16.19,0,0,1-15.09,16.09v45.56a18.57,18.57,0,0,1-18.51,18.53h0a18.57,18.57,0,0,1-18.53-18.53V471.81H480.64v45.52a18.57,18.57,0,0,1-18.51,18.53h0a18.57,18.57,0,0,1-18.53-18.53V471.81H397c-7.45,9.49-21.2,15.89-37,15.89s-29.58-6.4-37-15.89H276.41v45.52a18.58,18.58,0,0,1-18.54,18.53h0a18.58,18.58,0,0,1-18.52-18.53V471.81h-10v45.52a18.58,18.58,0,0,1-18.55,18.53h0a18.57,18.57,0,0,1-18.5-18.53V471.77a16.18,16.18,0,0,1-15.08-16.09h0a16.2,16.2,0,0,1,15.08-16.11V394A18.56,18.56,0,0,1,210.76,375.52Z"/><polygon class="cls-3" points="342.6 322.26 377.4 322.26 377.4 373.79 397.08 373.79 360 403.79 322.93 373.79 342.6 373.79 342.6 322.26"/><path class="cls-1" d="M341.67,219.94c0-4.77-.52-8-1.6-9.84a5.52,5.52,0,0,0-5.13-2.63,5.59,5.59,0,0,0-5.13,2.54c-1.07,1.7-1.62,5-1.62,9.93v24.38q0,8.93,1.55,11.67a5.37,5.37,0,0,0,5.1,2.75,7,7,0,0,0,4.5-2.1c1.56-1.43,2.33-5.24,2.33-11.48Z"/><path class="cls-4" d="M354.72,272.85v37.49H231.38V295.55c58.38-48.93,80.5-70.2,80.5-84.51,0-10.3-8-19.17-18.2-19.17-13.57,0-25.57,11.26-25.57,25.09l-33.19-11c0-27.85,26.11-52.65,58.84-52.65s59.14,25.84,59.14,56.08c0,25.18-21.66,49.41-46.93,63.43Z"/><path class="cls-4" d="M485,194.73H448.16V310.34H407.25V194.73H370.32V156.58H485Z"/></svg>