<svg id="Layer_1" data-name="Layer 1" xmlns="http://www.w3.org/2000/svg" viewBox="0 0 720 720"><defs><style>.cls-1{fill:#fff;}.cls-1,.cls-2,.cls-3{fill-rule:evenodd;}.cls-2,.cls-4{fill:#e20613;}.cls-3{fill:#1d1d1b;}</style></defs><path class="cls-1" d="M360,27.52c183.6,0,332.49,148.88,332.49,332.48S543.59,692.48,360,692.48,27.52,543.58,27.52,360,176.39,27.52,360,27.52Z"/><path class="cls-2" d="M360,680.37c176.47,0,320.4-143.92,320.4-320.38S536.45,39.6,360,39.6,39.6,183.53,39.6,360,183.53,680.37,360,680.37Z"/><path class="cls-1" d="M360,613.88c139.85,0,253.9-114,253.9-253.89S499.84,106.1,360,106.1,106.11,220.15,106.11,360,220.15,613.88,360,613.88Z"/><path class="cls-3" d="M268.38,341.63,305.33,332s20.89-33.74,31.33-45,36.95-20.9,42.58-20.9,56.23,49.82,56.23,49.82.81,60.25-8,60.25H409.76l2.42-45-17.67-21.69L391.29,381l50.61,91.59s-7.24,19.27-18.48,19.27-56.23-94-56.23-94l-37.76,27.31s-12.06,68.29-23.3,69.89-26.5,1.61-26.5,1.61l20.89-85.15,45.77-45-4-36.95-25.74,28.12s-33.73,8.83-43.37,2.41S268.38,341.63,268.38,341.63Z"/><path class="cls-3" d="M349.31,210.93a26.16,26.16,0,1,1-26.15,26.14A26.16,26.16,0,0,1,349.31,210.93Z"/><rect class="cls-4" x="319.89" y="89.54" width="64.71" height="539.89" transform="translate(-151.02 354.36) rotate(-45)"/></svg>