<svg id="Layer_1" data-name="Layer 1" xmlns="http://www.w3.org/2000/svg" viewBox="0 0 720 720"><defs><style>.cls-1,.cls-3{fill:#fff;}.cls-1,.cls-2,.cls-4{fill-rule:evenodd;}.cls-2,.cls-5{fill:#e20613;}.cls-4{fill:#1d1d1b;}</style></defs><path class="cls-1" d="M360,27.52C543.59,27.52,692.47,176.4,692.47,360S543.59,692.48,360,692.48,27.53,543.58,27.53,360,176.41,27.52,360,27.52Z"/><path class="cls-2" d="M360,680.37c176.46,0,320.38-143.92,320.38-320.38S536.47,39.6,360,39.6,39.63,183.53,39.63,360,183.55,680.37,360,680.37Z"/><circle class="cls-3" cx="360.01" cy="359.99" r="253.89" transform="translate(-149.11 360) rotate(-45)"/><path class="cls-4" d="M218.91,404.24A28.77,28.77,0,1,1,190.1,432.9,28.66,28.66,0,0,1,218.91,404.24Z"/><path class="cls-4" d="M449.54,404.24a28.77,28.77,0,1,1-28.82,28.66A28.66,28.66,0,0,1,449.54,404.24Z"/><path class="cls-4" d="M166.87,426.81h13.71a38.71,38.71,0,0,1,76.44,0H411.18a38.72,38.72,0,0,1,76.45,0l31.18-23.41H506.16V398H534V280.6H271.11V398H383.58v5.42H252.76l1.29-76H200.36l-33.49,76Z"/><path class="cls-1" d="M205,336.22H244v31.45H194l11-31.45Zm13.84,86.19A10.6,10.6,0,1,1,208.25,433a10.53,10.53,0,0,1,10.61-10.55Zm230.62,0A10.6,10.6,0,1,1,438.88,433,10.56,10.56,0,0,1,449.48,422.41Z"/><path class="cls-5" d="M137.67,224.21l356,363.06a258.42,258.42,0,0,0,53.89-55l-356-363A258.6,258.6,0,0,0,137.67,224.21Z"/></svg>