<svg id="Layer_1" data-name="Layer 1" xmlns="http://www.w3.org/2000/svg" viewBox="0 0 720 720"><defs><style>.cls-1{fill:#fff;}.cls-1,.cls-2,.cls-3{fill-rule:evenodd;}.cls-2{fill:#e20613;}.cls-3{fill:#1d1d1b;}</style></defs><path class="cls-1" d="M360,27.52C543.6,27.52,692.48,176.4,692.48,360S543.6,692.48,360,692.48,27.52,543.58,27.52,360,176.4,27.52,360,27.52Z"/><path class="cls-2" d="M360,680.37c176.46,0,320.39-143.92,320.39-320.38S536.46,39.6,360,39.6,39.61,183.53,39.61,360,183.54,680.37,360,680.37Z"/><path class="cls-1" d="M360,613.88c139.85,0,253.91-114,253.91-253.89S499.85,106.1,360,106.1,106.12,220.15,106.12,360,220.16,613.88,360,613.88Z"/><path class="cls-3" d="M602.54,284.7a254.93,254.93,0,0,1,0,150.57L527.27,360Z"/><path class="cls-3" d="M117.46,284.7,192.75,360l-75.29,75.28a255.61,255.61,0,0,1,0-150.58Z"/><path class="cls-3" d="M439.84,233.08l-.41,7a18,18,0,0,1,6.28-6.29,16.28,16.28,0,0,1,8.26-2.1q9.09,0,14.26,8.39a20.32,20.32,0,0,1,6.45-6.29,15.46,15.46,0,0,1,7.93-2.1,15.68,15.68,0,0,1,9.54,2.79,12.49,12.49,0,0,1,4.84,6.85c.7,2.71,1.07,7.11,1.07,13.19v52.75H476.12V258.94c0-6.34-.2-10.28-.64-11.8a2.85,2.85,0,0,0-3-2.26,3,3,0,0,0-3.1,2.25c-.47,1.48-.7,5.43-.7,11.81v48.38H446.76V260.15c0-7.28-.16-11.63-.54-13.07a2.65,2.65,0,0,0-2.91-2.2,3.45,3.45,0,0,0-2.59,1.15,4.49,4.49,0,0,0-1.18,2.81c-.08,1.11-.11,3.42-.11,7v51.47H417.51V233.08Z"/><path class="cls-3" d="M385.52,446v48.12H230.58V453.88q68.88-112.49,81.84-139.29t13-41.75c0-7.67-1.3-13.39-3.93-17.11S314.88,250,309.51,250s-9.27,2.15-11.9,6.31-3.93,12.49-3.93,24.91v26.83h-63.1v-10.3c0-15.74.82-28.23,2.44-37.33s5.65-18.08,12-26.94A60.6,60.6,0,0,1,270,213.42q15.36-6.75,36.76-6.78,42,0,63.52,20.83c14.39,13.92,21.52,31.44,21.52,52.69q0,24.29-12.07,51.26T308.31,446Z"/></svg>