<svg id="Layer_1" data-name="Layer 1" xmlns="http://www.w3.org/2000/svg" viewBox="0 0 720 720"><defs><style>.cls-1{fill:#fff;}.cls-1,.cls-2,.cls-3{fill-rule:evenodd;}.cls-2{fill:#e20613;}.cls-3{fill:#1d1d1b;}</style></defs><path class="cls-1" d="M360,27.53c183.6,0,332.48,148.89,332.48,332.47S543.59,692.47,360,692.47,27.53,543.6,27.53,360,176.39,27.53,360,27.53Z"/><path class="cls-2" d="M360,680.39c176.46,0,320.38-143.92,320.38-320.39S536.45,39.62,360,39.62,39.61,183.54,39.61,360,183.53,680.39,360,680.39Z"/><path class="cls-1" d="M510.65,564.34A252.6,252.6,0,0,1,360,613.91C219.78,613.91,106.1,500.2,106.1,360a252.81,252.81,0,0,1,49.56-150.66Z"/><path class="cls-1" d="M360,106.11c140.19,0,253.91,113.7,253.91,253.89a252.57,252.57,0,0,1-49.58,150.67l-355-355A252.85,252.85,0,0,1,360,106.11Z"/><path class="cls-3" d="M275.84,222.14a95.64,95.64,0,0,1-.64-11.76c-.14-9.86,1.81-17.28,7.17-19.85h0c-5-.47-14.59-1.46-14.59-3.32s-.34-3.83,2.63-5.93c2.23-1.6,10.66-2.27,12.3-2.27,2.24,0,2.41,1.84,1.37,5.92l2.17.15c3.77-10,9.37-20.33,14.2-28.42a8,8,0,0,1,5.76-4.38c12.53-1.7,28.32-2,44-2s31.56.33,44.13,2a8.36,8.36,0,0,1,5.8,4.43c4.84,8,10.45,18.35,14.21,28.41l2.18-.14c-1-4.09-.85-5.93,1.4-5.93,1.61,0,10,.68,12.31,2.26,3,2.11,2.61,4.14,2.61,5.95s-9.6,2.85-14.6,3.32h-.05c5.32,2.54,7.27,10,7.12,19.8a118.08,118.08,0,0,1-1.82,20.7v37.45a2.62,2.62,0,0,1-2.67,2.66H407.26a2.62,2.62,0,0,1-2.67-2.66v-9.79H312.42Z"/><path class="cls-1" d="M401,166.48c2.12,5.3,4.58,10.67,6.6,16,1.08,2.62,2.09,5.63,3.13,8.31-17.44-1.43-34.91-2-52.33-2.16-22.85,0-45.74.39-68.57,2.2,2.71-7.22,5.55-14.59,8.56-21.66,1.28-2.63,2.33-5.93,3.8-8.44,14.79-1.59,29.86-1.67,44.72-1.84,17.08,0,34.47,0,51.47,1.84a53.51,53.51,0,0,1,2.62,5.74Zm-12.69,55.3c1.5-.13,9.51-.56,12.67-1,2.65-.34,4.12-.64,5-1.21,1.1-.73,6.26-1.11,10.05-1.49a18.23,18.23,0,0,0-.3-6.69c-.48-2.23-2.12-2-5.15-2s-17.1,1-20,1.6c-1.72.34-3,1.3-3.26,2.41-.68,2.67-1.25,4.13-1.85,6.94,0,.29-.4,1.7,2.91,1.45Zm-76.12-.06c-1.52-.1-9.52-.55-12.65-1-2.67-.34-4.16-.65-5-1.22-1.08-.72-6.23-1.1-10-1.48a18.87,18.87,0,0,1,.27-6.69c.49-2.23,2.14-2,5.18-2s17.1,1,20,1.6c1.73.35,3,1.29,3.28,2.4.7,2.67,1.25,4.14,1.85,6.92,0,.32.4,1.74-2.91,1.48v0ZM324,226.05h52.56c1.53,0,2.76.87,2.76,1.92v5.23c0,1.06-1.23,1.92-2.76,1.92H324c-1.53,0-2.78-.86-2.78-1.92V228C321.2,226.92,322.45,226.05,324,226.05Z"/><path class="cls-3" d="M571.63,394.56a17.74,17.74,0,1,1-22.4,0H530V389l-13.85-.61,7,22.45.38,15.93-7.25,1.11,2.16-17s-6.48-7.6-8-9.78-15.17-13-15.17-13L497.49,404l-12.65,14.48,1.8,8.71-6.4-.62L479,425.38v-6.9l10.15-15.21V389.5s-6.89-4-8.69-4-19.52,4-19.52,4l.36,17,.36,1.5-8-8-2.48-9.8-3,4.29-6.43-6.39,2.57-4.06L432,363.42s-3.93,4.91-7,7.94l-7.54-7.56,5.85-21.38h6.52c5.05,0,27.83,20.27,27.83,20.27s23.15-6.88,39.43-4.34c13.25,2.06,16.43,17.11,17.17,22.61L530,378.33v-10.2h3.9c1-3.26,2.62-7.39,4.79-7.61,3.6-.35,11.21-.72,11.21-.72l5.42-12s-8.69-4-14.09-5.79-5.45-6.52-5.45-6.52l22.43.36a37.86,37.86,0,0,1,5-4.13,8.68,8.68,0,1,1,7.17.74c1.9,5.84,3.34,19.39,4,26.86C588,348,598,332.4,612.12,330a260.82,260.82,0,0,1,1.78,30,252.46,252.46,0,0,1-2.37,34.57Z"/><path class="cls-3" d="M318,446.16l2,8.34a30.06,30.06,0,1,1-4.81,2.14l-2.19-8.2c-2.8,1-6.17,1.79-9.92,2.85-11.93,3.36-20.9,17.18-22.38,26.52s-8.2,16.46-20.14,16.46c-6.21,0-13.2-1.93-18.52-3.77l-8.14-.08a30,30,0,1,1-57.64-16.84c-2.83-2.17-5.78-6.32-5.57-14.05.38-15,20.5-13.47,20.5-13.47l11.21-11.94,25.37-1.63c2.33-7.45,6.8-19.35,13.78-27.51,10.2-12,16.09-15,16.72-15.3a11.87,11.87,0,1,1,10.22,5.84c-.4,0-.76,0-1.17,0-1.84,2-3.85,6-1.52,13.22,2.67,8.34,9.6,16.87,13.27,21l29.23.32s12.31-2.63,13.44,7.09C322.32,441.59,320.9,444.26,318,446.16Z"/><path class="cls-1" d="M218.82,501.59A23.27,23.27,0,0,0,227,490.37l-8.16-.07v11.29Zm-4.09,2.47v-13.8l4.09,0v11.3a24.52,24.52,0,0,1-4.09,2.46Zm0-20.11V466.89l1.48-4.36a23.47,23.47,0,0,1,2.61,1.71v20.35l-3.3.32-.79-1Zm4.09.64,9.37-.85v-.81a23.3,23.3,0,0,0-9.37-18.69v20.35Zm102.85-23.53,1.63,6.67,10.81,16.8-3,3.73L318.83,470l-1.76-6.6a23.26,23.26,0,1,0,4.6-2.32Zm-106.94,5.83V484l-4.07-5,4.07-12.05Zm0,23.37-14.12-.13L196.88,486l8.19-9,5.85-16.69-.36-.08c-.56,0-1.15,0-1.76,0-12.77.22-20.16,6.23-24,10.73a23.34,23.34,0,0,0,29.89,33.06Z"/></svg>