<svg id="Layer_1" data-name="Layer 1" xmlns="http://www.w3.org/2000/svg" viewBox="0 0 720 720"><defs><style>.cls-1,.cls-3{fill:#fff;}.cls-1,.cls-2,.cls-4{fill-rule:evenodd;}.cls-2{fill:#e20613;}.cls-4{fill:#1d1d1b;}</style></defs><path class="cls-1" d="M360,27.52C543.59,27.52,692.47,176.4,692.47,360S543.59,692.48,360,692.48,27.53,543.58,27.53,360,176.41,27.52,360,27.52Z"/><path class="cls-2" d="M360,680.37c176.48,0,320.4-143.92,320.4-320.38S536.47,39.6,360,39.6,39.61,183.53,39.61,360,183.53,680.37,360,680.37Z"/><circle class="cls-3" cx="360.01" cy="359.99" r="253.89" transform="translate(-149.11 360) rotate(-45)"/><polygon class="cls-4" points="280.5 438.51 280.5 467.95 220.47 467.95 220.47 484.6 180.22 453.23 220.47 421.87 220.47 438.51 280.5 438.51"/><path class="cls-4" d="M376,432.51h9.84v6.72a19.36,19.36,0,0,1,5.76-5.9,12.87,12.87,0,0,1,6.85-1.94,11.67,11.67,0,0,1,6.74,1.94,13.82,13.82,0,0,1,4.66,5.9,20.13,20.13,0,0,1,5.79-5.9,12.14,12.14,0,0,1,6.55-1.94,12.57,12.57,0,0,1,7.12,2,12.4,12.4,0,0,1,4.56,5.64q1.56,3.64,1.57,11.26v31.5H424.7V453.62c0-4.94-.42-8.19-1.29-9.82a4.54,4.54,0,0,0-4.35-2.44,6.61,6.61,0,0,0-5.76,3.42c-1.47,2.26-2.19,6.71-2.19,13.35v23.63h-10.7v-27c0-5.35-.3-8.81-.89-10.34a4.55,4.55,0,0,0-4.68-3.07,6.8,6.8,0,0,0-4.35,1.58,8.69,8.69,0,0,0-2.9,4.62,42.45,42.45,0,0,0-.87,10.26v23.94H376Z"/><path class="cls-4" d="M315.22,481.76H304.56V432.64a36.56,36.56,0,0,1-13.82,9.89V430.68a29.62,29.62,0,0,0,9.24-6.45,25.77,25.77,0,0,0,6.64-10.75h8.6Z"/><polygon class="cls-4" points="452.28 438.51 452.28 467.95 512.33 467.95 512.33 484.6 552.54 453.23 512.33 421.87 512.33 438.51 452.28 438.51"/><path class="cls-4" d="M180.9,367.68h13.38a37.78,37.78,0,0,1,74.59,0H419.32a37.78,37.78,0,0,1,74.59,0l30.39-22.83H512V334.23H539.1V225H282.62v109.2H392.38v10.62H264.71L266,270.73H213.59L180.9,344.85Z"/><path class="cls-4" d="M456.73,345.66a28.07,28.07,0,1,1-28.13,28A28,28,0,0,1,456.73,345.66Z"/><path class="cls-4" d="M231.69,345.66a28.07,28.07,0,1,1-28.13,28A28,28,0,0,1,231.69,345.66Z"/><path class="cls-1" d="M223.08,279.33h33V310H212.34l10.74-30.65Zm8.57,84.06A10.34,10.34,0,1,1,221.3,373.7a10.31,10.31,0,0,1,10.35-10.31Zm225,0a10.34,10.34,0,1,1-10.35,10.31A10.29,10.29,0,0,1,456.67,363.39Z"/><path class="cls-4" d="M355.06,420.86c-3.31-5.1-7.67-7.66-13-7.66s-9.66,2.56-13,7.66-5,14-5,26.66q0,19.35,5,27t13,7.59c5.33,0,9.67-2.55,13-7.66s4.95-14,4.95-26.74S358.38,426,355.06,420.86Zm-8,46.34c-1.22,2.76-2.9,4.15-5,4.15s-3.75-1.39-5-4.13-1.87-9.26-1.87-19.56.63-16.83,1.87-19.59,2.91-4.14,5-4.14,3.79,1.38,5,4.14,1.84,9.28,1.84,19.59S348.28,464.44,347.05,467.2Z"/></svg>