<svg id="Layer_1" data-name="Layer 1" xmlns="http://www.w3.org/2000/svg" viewBox="0 0 720 720"><defs><style>.cls-1{fill:#fff;}.cls-2{fill:#e20613;}.cls-2,.cls-3{fill-rule:evenodd;}.cls-3{fill:#1d1d1b;}</style></defs><circle class="cls-1" cx="360" cy="360" r="332.47" transform="translate(-149.12 360) rotate(-45)"/><path class="cls-2" d="M360,680.37C536.47,680.37,680.4,536.45,680.4,360S536.47,39.6,360,39.6,39.62,183.53,39.62,360,183.55,680.37,360,680.37Z"/><circle class="cls-1" cx="360.01" cy="359.99" r="253.89" transform="translate(-149.11 360) rotate(-45)"/><path class="cls-3" d="M214.51,439.93l50.84-6.3c1.26,14.05,5.62,25.25,13,33.33s15.46,12.13,24.37,12.13q15.6,0,26.94-15.52,11.33-15.66,11.3-47.92c0-20.3-3.75-35.39-11.14-45S312.81,356,301.33,356c-14.56,0-27.71,7.95-39.33,23.72l-41.29-7.35,26-168.62H381.39v58.09h-96l-8.14,55.1c11.48-7,23.07-10.44,34.94-10.44q31.35,0,53.27,24.77,27.56,31.59,27.58,83.39a139.77,139.77,0,0,1-23.54,78.42Q346,528.84,302.24,528.84q-35.42,0-59.14-23.13T214.51,439.93Z"/><polygon class="cls-3" points="444.11 303.25 444.11 220.56 410.71 220.56 410.71 203.72 500.02 203.72 500.02 220.56 466.74 220.56 466.74 303.25 444.11 303.25"/></svg>