<svg id="Layer_1" data-name="Layer 1" xmlns="http://www.w3.org/2000/svg" viewBox="0 0 720 720"><defs><style>.cls-1,.cls-3{fill:#fff;}.cls-1,.cls-2,.cls-4{fill-rule:evenodd;}.cls-2,.cls-5{fill:#e20613;}.cls-4{fill:#1d1d1b;}</style></defs><path class="cls-1" d="M360,27.53c183.58,0,332.46,148.89,332.46,332.47S543.59,692.47,360,692.47,27.53,543.6,27.53,360,176.41,27.53,360,27.53Z"/><path class="cls-2" d="M360,680.39c176.48,0,320.4-143.92,320.4-320.39S536.47,39.62,360,39.62,39.61,183.54,39.61,360,183.53,680.39,360,680.39Z"/><path class="cls-3" d="M106.12,354.47c0-.75.09-1.49.09-2.24,0,.76-.11,1.49-.11,2.25,0,137.65,109.6,249.44,246.26,253.52C215.73,603.93,106.12,492.1,106.12,354.47Z"/><path class="cls-3" d="M147.24,216.18c1.67-2.56,3.4-5.08,5.16-7.58C150.64,211.1,148.91,213.61,147.24,216.18Z"/><path class="cls-3" d="M135.75,235.53c1.33-2.52,2.81-4.94,4.23-7.4C138.56,230.59,137.09,233,135.75,235.53Z"/><path class="cls-3" d="M124.48,260c.72-1.81,1.36-3.67,2.13-5.46C125.84,256.29,125.2,258.14,124.48,260Z"/><path class="cls-3" d="M116,284.8c.81-2.83,1.56-5.68,2.46-8.47C117.58,279.12,116.83,282,116,284.8Z"/><path class="cls-3" d="M110.58,307.75q.86-4.56,1.86-9.05C111.77,301.7,111.15,304.71,110.58,307.75Z"/><path class="cls-3" d="M107.28,331c.26-2.84.69-5.64,1-8.46C108,325.36,107.55,328.15,107.28,331Z"/><path class="cls-3" d="M595.41,449.32c-.66,1.63-1.21,3.3-1.9,4.9C594.2,452.61,594.75,451,595.41,449.32Z"/><path class="cls-3" d="M609.37,401.5c-.53,2.85-1.12,5.68-1.75,8.49C608.25,407.18,608.84,404.35,609.37,401.5Z"/><path class="cls-3" d="M612.7,378.22c-.24,2.56-.62,5.08-.94,7.62C612.08,383.3,612.46,380.78,612.7,378.22Z"/><path class="cls-3" d="M584.26,473.42c-1.36,2.55-2.86,5-4.29,7.5C581.4,478.42,582.9,476,584.26,473.42Z"/><path class="cls-3" d="M613.9,354.48h0v0Z"/><path class="cls-3" d="M610.91,317.51a255.43,255.43,0,0,1,2.49,27.15A255.43,255.43,0,0,0,610.91,317.51Z"/><path class="cls-3" d="M567.51,500.48c1.81-2.56,3.58-5.14,5.29-7.77C571.09,495.34,569.32,497.92,567.51,500.48Z"/><path class="cls-3" d="M603.9,424.49c-.77,2.68-1.49,5.38-2.34,8C602.41,429.87,603.13,427.17,603.9,424.49Z"/><path class="cls-3" d="M118.48,276.33c1.8-5.55,3.84-11,6-16.37C122.32,265.34,120.28,270.78,118.48,276.33Z"/><path class="cls-3" d="M126.61,254.5c2.77-6.48,5.85-12.79,9.14-19C132.46,241.71,129.39,248,126.61,254.5Z"/><path class="cls-3" d="M108.32,322.54c.63-5,1.35-9.91,2.26-14.79C109.67,312.63,109,317.56,108.32,322.54Z"/><path class="cls-3" d="M112.44,298.7c1.06-4.69,2.27-9.32,3.58-13.9C114.71,289.39,113.5,294,112.44,298.7Z"/><path class="cls-3" d="M106.21,352.23c.06-7.15.43-14.23,1.07-21.23C106.64,338,106.27,345.08,106.21,352.23Z"/><path class="cls-3" d="M140,228.13c2.33-4,4.72-8,7.26-11.95C144.7,220.08,142.31,224.08,140,228.13Z"/><path class="cls-3" d="M155.66,203.81c-1.15,1.55-2.15,3.21-3.26,4.79,1.1-1.57,2.3-3.06,3.44-4.61Z"/><path class="cls-3" d="M152.4,208.6c-1.76,2.5-3.49,5-5.16,7.58-2.54,3.9-4.93,7.9-7.26,11.95-1.42,2.46-2.9,4.88-4.23,7.4-3.29,6.18-6.37,12.49-9.14,19-.77,1.79-1.41,3.65-2.13,5.46-2.16,5.37-4.2,10.82-6,16.37-.9,2.79-1.65,5.64-2.46,8.47-1.31,4.58-2.52,9.21-3.58,13.9q-1,4.49-1.86,9.05c-.91,4.88-1.63,9.81-2.26,14.79-.35,2.82-.78,5.62-1,8.46-.64,7-1,14.08-1.07,21.23,0,.75-.09,1.49-.09,2.24,0,137.63,109.61,249.46,246.24,253.53,2.56.08,5.06.38,7.63.38H360c8,0,15.9-.47,23.71-1.2,2.54-.23,5-.61,7.54-.92,5.31-.66,10.58-1.43,15.79-2.41,2.81-.53,5.59-1.11,8.37-1.73,4.95-1.1,9.83-2.38,14.67-3.77,2.62-.75,5.27-1.45,7.85-2.29,5.79-1.86,11.45-4,17-6.23,1.48-.6,3-1.1,4.49-1.73,6.63-2.83,13.08-6,19.41-9.35,2.6-1.38,5.11-2.91,7.66-4.38,3.89-2.25,7.74-4.55,11.5-7,2.75-1.78,5.45-3.64,8.13-5.53,1.45-1,2.84-2.13,4.27-3.19L155.84,204C154.7,205.54,153.5,207,152.4,208.6Z"/><path class="cls-3" d="M564.34,505.15c1.12-1.51,2.09-3.13,3.17-4.67-1.07,1.53-2.24,3-3.35,4.49Z"/><path class="cls-3" d="M580,480.92c-2.3,4-4.66,7.94-7.17,11.79C575.31,488.86,577.67,484.91,580,480.92Z"/><path class="cls-3" d="M593.51,454.22c-2.81,6.56-5.92,12.94-9.25,19.2C587.59,467.17,590.7,460.78,593.51,454.22Z"/><path class="cls-3" d="M607.58,298.8c1.38,6.14,2.4,12.4,3.33,18.71C610,311.2,609,305,607.58,298.8Z"/><path class="cls-3" d="M607.62,410c-1.09,4.9-2.35,9.72-3.72,14.5C605.27,419.71,606.53,414.89,607.62,410Z"/><path class="cls-3" d="M611.76,385.84c-.65,5.27-1.42,10.5-2.39,15.66C610.35,396.33,611.11,391.11,611.76,385.84Z"/><path class="cls-3" d="M601.56,432.51c-1.84,5.71-3.93,11.3-6.15,16.81C597.63,443.81,599.72,438.22,601.56,432.51Z"/><path class="cls-3" d="M613.9,354.53c0,8-.47,15.88-1.2,23.69C613.43,370.41,613.89,362.53,613.9,354.53Z"/><path class="cls-3" d="M613.9,354.47c0-3.31-.37-6.53-.5-9.81.13,3.29.5,6.5.5,9.82Z"/><path class="cls-3" d="M580,480.92c1.43-2.49,2.93-4.95,4.29-7.5,3.33-6.26,6.44-12.64,9.25-19.2.69-1.6,1.24-3.27,1.9-4.9,2.22-5.51,4.31-11.1,6.15-16.81.85-2.64,1.57-5.34,2.34-8,1.37-4.78,2.63-9.6,3.72-14.5.63-2.81,1.22-5.64,1.75-8.49,1-5.16,1.74-10.39,2.39-15.66.32-2.54.7-5.06.94-7.62.73-7.81,1.19-15.69,1.2-23.69v0c0-3.32-.37-6.53-.5-9.82a255.43,255.43,0,0,0-2.49-27.15c-.93-6.31-1.95-12.57-3.33-18.71C582.17,185.41,481.05,100.59,360,100.58c-8,0-15.95.48-23.8,1.21-2.47.23-4.89.6-7.34.9-5.41.66-10.77,1.45-16.07,2.45q-4,.77-8.07,1.66c-5.12,1.14-10.18,2.46-15.19,3.91-2.44.7-4.91,1.35-7.32,2.13q-9.46,3-18.61,6.81c-.9.37-1.85.66-2.75,1-6.87,2.91-13.54,6.18-20.09,9.67-2.17,1.16-4.26,2.44-6.39,3.66-4.4,2.52-8.75,5.12-13,7.89-2.35,1.53-4.66,3.12-7,4.73-1.67,1.17-3.26,2.45-4.9,3.67L564.16,505c1.11-1.51,2.28-3,3.35-4.49,1.81-2.56,3.58-5.14,5.29-7.77C575.31,488.86,577.67,484.91,580,480.92Z"/><path class="cls-4" d="M214.69,402.28A236.57,236.57,0,0,1,211,361.33c-.29-19.56,3.56-34.27,14.25-39.35l-.07,0c-9.92-.92-28.95-2.89-28.95-6.57s-.68-7.6,5.21-11.76c4.43-3.17,21.18-4.54,24.42-4.54,4.45,0,4.77,3.67,2.74,11.78l4.28.28c7.48-19.9,18.56-40.3,28.17-56.38,2.56-4.44,6.14-7.85,11.44-8.7,24.82-3.34,56.17-3.93,87.27-3.93,31.33,0,62.57.7,87.52,3.93,5.3.93,8.88,4.35,11.53,8.78,9.58,16,20.69,36.43,28.17,56.39l4.37-.28c-2.06-8.12-1.72-11.78,2.71-11.78,3.24,0,20,1.36,24.44,4.52,5.89,4.19,5.19,8.2,5.19,11.79s-19,5.62-28.93,6.57l-.11,0c10.56,5.05,14.42,19.73,14.1,39.26a230.75,230.75,0,0,1-3.63,41.07l0,74.3a5.21,5.21,0,0,1-5.3,5.27H473a5.18,5.18,0,0,1-5.28-5.26V457.31H252.12v19.3a5.22,5.22,0,0,1-5.3,5.29H219.9a5.21,5.21,0,0,1-5.27-5.29Z"/><path class="cls-1" d="M460.63,274.23c4.2,10.51,9.05,21.17,13.06,31.77,2.14,5.21,4.19,11.18,6.23,16.48-34.57-2.83-69.23-3.93-103.8-4.27-45.36,0-90.78.76-136.06,4.36,5.41-14.28,11-29,17-42.95,2.46-5.21,4.62-11.79,7.5-16.74,29.4-3.16,59.27-3.34,88.73-3.67,33.92,0,68.4,0,102.12,3.67,2.06,3.4,3.59,7.84,5.22,11.35ZM435.45,384c3-.25,18.88-1.12,25.1-2,5.29-.69,8.2-1.28,9.91-2.39,2.13-1.47,12.38-2.23,19.89-3a36.73,36.73,0,0,0-.6-13.23c-.93-4.45-4.17-4-10.26-4s-33.89,2-39.7,3.15c-3.41.68-6,2.56-6.48,4.79-1.36,5.28-2.46,8.19-3.67,13.75-.08.58-.76,3.4,5.81,2.9Zm-151.07-.08c-3-.28-18.86-1.11-25.09-2-5.3-.68-8.21-1.29-9.92-2.38-2.12-1.47-12.36-2.25-19.89-3a36.81,36.81,0,0,1,.6-13.24c.95-4.43,4.17-4,10.26-4s33.89,2.05,39.7,3.16c3.41.69,5.95,2.56,6.48,4.78,1.38,5.3,2.48,8.19,3.67,13.74.08.61.78,3.43-5.81,2.92Zm23.44,8.52H412.07c3,0,5.51,1.74,5.51,3.81v10.4c0,2.09-2.48,3.81-5.51,3.81H307.82c-3,0-5.51-1.72-5.51-3.81v-10.4C302.31,394.14,304.79,392.4,307.82,392.4Z"/><path class="cls-5" d="M155.84,204,510.48,558.65A254.85,254.85,0,0,0,564.16,505L209.52,150.32A254.8,254.8,0,0,0,155.84,204Z"/></svg>