<svg id="Layer_1" data-name="Layer 1" xmlns="http://www.w3.org/2000/svg" viewBox="0 0 720 720"><defs><style>.cls-1{fill:#fff;}.cls-1,.cls-2,.cls-3{fill-rule:evenodd;}.cls-2{fill:#e20613;}.cls-3{fill:#1d1d1b;}</style></defs><path class="cls-1" d="M360,27.52C543.59,27.52,692.49,176.4,692.49,360S543.59,692.48,360,692.48,27.51,543.58,27.51,360,176.4,27.52,360,27.52Z"/><path class="cls-2" d="M360,680.37c176.46,0,320.39-143.92,320.39-320.38S536.46,39.6,360,39.6,39.61,183.53,39.61,360,183.53,680.37,360,680.37Z"/><path class="cls-1" d="M360,613.88c139.84,0,253.88-114,253.88-253.89S499.84,106.1,360,106.1,106.11,220.15,106.11,360,220.16,613.88,360,613.88Z"/><path class="cls-3" d="M435.28,602.52a255.22,255.22,0,0,1-150.56,0L360,527.25Z"/><path class="cls-3" d="M435.28,117.45,360,192.74l-75.28-75.29a255.33,255.33,0,0,1,150.56,0Z"/><path class="cls-3" d="M350.93,354.77q15.39,5.25,23,17.08t7.55,55.44q0,32.43-7.38,50.33T348.6,504.78q-18.17,9.36-46.54,9.33c-21.49,0-38.32-3.6-50.6-10.82s-20.33-16.05-24.16-26.54-5.78-28.64-5.78-54.47v-21.5h67.77v44.16c0,11.76.73,19.21,2.11,22.41s4.53,4.77,9.35,4.77c5.21,0,8.7-2,10.37-6s2.5-14.55,2.5-31.56v-18.8c0-10.42-1.13-18.05-3.48-22.79a17.47,17.47,0,0,0-10.42-9.53c-4.58-1.48-13.48-2.4-26.71-2.57V341.38c16.11,0,26.08-.65,29.91-1.84a13.09,13.09,0,0,0,8.2-8.07c1.72-4.13,2.5-10.6,2.5-19.48V296.9c0-9.5-1-15.8-2.91-18.78s-5-4.59-9.16-4.59c-4.7,0-7.88,1.61-9.63,4.8s-2.63,10-2.63,20.41v22.35H221.52V297.87q0-38.89,17.76-52.59t56.59-13.67q48.5,0,65.79,18.95C373.18,263.22,379,280.74,379,303.27c0,15.25-2.05,26.24-6.25,33S361.31,349.21,350.93,354.77Z"/><path class="cls-3" d="M448.9,232.93l-.4,7.06a18.41,18.41,0,0,1,6.28-6.29,16.19,16.19,0,0,1,8.27-2.09q9.06,0,14.27,8.38a20.15,20.15,0,0,1,6.42-6.29,15.43,15.43,0,0,1,7.95-2.09,15.63,15.63,0,0,1,9.54,2.79,12.35,12.35,0,0,1,4.83,6.85c.7,2.7,1.06,7.1,1.06,13.16v52.76H485.2V258.78q0-9.51-.65-11.77a2.84,2.84,0,0,0-3-2.27,3,3,0,0,0-3.1,2.25c-.45,1.47-.69,5.43-.69,11.79v48.39H455.82V260c0-7.3-.16-11.63-.53-13.08a2.67,2.67,0,0,0-2.91-2.19,3.35,3.35,0,0,0-2.6,1.16,4.34,4.34,0,0,0-1.16,2.79c-.07,1.1-.12,3.44-.12,7v51.47H426.57V232.93Z"/></svg>