<svg id="Layer_1" data-name="Layer 1" xmlns="http://www.w3.org/2000/svg" viewBox="0 0 720 720"><defs><style>.cls-1,.cls-4{fill:#fff;}.cls-2,.cls-5{fill:#e20613;}.cls-2,.cls-3,.cls-4{fill-rule:evenodd;}.cls-3{fill:#1d1d1b;}</style></defs><ellipse class="cls-1" cx="360" cy="360" rx="332.48" ry="332.48" transform="translate(-10.42 10.73) rotate(-1.68)"/><path class="cls-2" d="M360,680.37c176.46,0,320.4-143.92,320.4-320.38S536.46,39.6,360,39.6,39.62,183.53,39.62,360,183.54,680.37,360,680.37Z"/><circle class="cls-1" cx="360" cy="359.99" r="253.89" transform="translate(-149.11 360) rotate(-45)"/><path class="cls-3" d="M330.37,241.29v14.86c-11.64,0-34.06-4.06-38.69,10.52l-5.89,19.2H418.25L423.86,271l-31.41-7.45c-4.62-1.25-3.07-7.41.83-7.41h63.23V271H439.7l-5.47,14.86,21.45,48.22A74.24,74.24,0,1,1,501.8,475.22c-42.2,13.75-87.33-12.88-95.87-55.77H379.76l4.42,8.4,8.4-4.85,4.79,9.2-24.65,13.17L368,436.11l7.27-4.18-6.93-13.31c-.4,0-.81,0-1.19,0a23,23,0,0,1-22.95-23c0-.9.06-1.8.14-2.67L276,317.26l-5.89,19.07A74.46,74.46,0,1,1,256,332l21.57-69.68C284.94,237.66,310.74,241.29,330.37,241.29Z"/><path class="cls-4" d="M367.12,372.74a22.77,22.77,0,0,1,16.15,6.67l29.51-78.68H281.17L335.43,361l19.93-10.66,4.77,9.24-7.27,4.21,5.55,10.69A22.73,22.73,0,0,1,367.12,372.74Z"/><polygon class="cls-4" points="347.11 373.93 343.89 367.84 342.41 368.69 347.11 373.93"/><path class="cls-4" d="M251.45,346.27l-17.38,56.21c-2.94,9.26,11.64,13.46,14.16,4.34l17.53-56.2a59.8,59.8,0,1,1-14.31-4.35Z"/><path class="cls-4" d="M389.65,404.59h14.86a73.91,73.91,0,0,1,37.58-64.47l-15.3-34.34Z"/><path class="cls-4" d="M421.19,419.45h61.26c4.9,0,9-6,6.87-10.38l-27.47-61.25a59.37,59.37,0,1,1,33.79,113.83C465.22,470.59,427.64,451.83,421.19,419.45Z"/><path class="cls-4" d="M419.39,404.59h51.55l-22.7-50.75A58.75,58.75,0,0,0,419.39,404.59Z"/><path class="cls-5" d="M151,209.79l358.18,360a258.17,258.17,0,0,0,54.21-54.5l-358.17-360A258.41,258.41,0,0,0,151,209.79Z"/></svg>