<svg id="Layer_1" data-name="Layer 1" xmlns="http://www.w3.org/2000/svg" viewBox="0 0 720 720"><defs><style>.cls-1,.cls-3{fill:#fff;}.cls-2,.cls-5{fill:#e20613;}.cls-2,.cls-3,.cls-4{fill-rule:evenodd;}.cls-4{fill:#1d1d1b;}</style></defs><ellipse class="cls-1" cx="360" cy="360" rx="332.48" ry="332.47" transform="translate(-9.85 10.13) rotate(-1.59)"/><path class="cls-2" d="M360,680.39c176.46,0,320.4-143.92,320.4-320.39S536.46,39.62,360,39.62,39.62,183.54,39.62,360,183.54,680.39,360,680.39Z"/><path class="cls-3" d="M360,613.9c139.85,0,253.89-114.06,253.89-253.9S499.85,106.11,360,106.11,106.11,220.17,106.11,360,220.17,613.9,360,613.9Z"/><path class="cls-4" d="M263.92,346.7l-3.52,14.46a52,52,0,1,0,8.35,3.71l3.77-14.23c4.83,1.66,10.66,3.13,17.19,5,20.69,5.82,36.19,29.76,38.79,45.95S342.7,430,363.39,430c10.77,0,22.89-3.32,32.07-6.53l14.16-.11a52,52,0,1,0,99.81-29.18c5-3.78,10-10.93,9.69-24.38-.64-25.89-35.55-23.3-35.55-23.3L464.2,325.83l-44-2.83c-4-12.87-11.79-33.5-23.85-47.66-17.7-20.78-27.89-26-29-26.48A20.58,20.58,0,1,0,349.63,259a17.2,17.2,0,0,0,2-.11c3.2,3.49,6.7,10.45,2.67,22.93-4.64,14.45-16.66,29.22-23,36.39l-50.62.52s-21.32-4.54-23.27,12.28C256.52,338.82,259,343.43,263.92,346.7Z"/><path class="cls-3" d="M257.64,372.53l-2.8,11.56L236.09,413.2l5.17,6.49L262.58,388l3-11.4A40.39,40.39,0,1,1,243.53,370,39.89,39.89,0,0,1,257.64,372.53Z"/><path class="cls-3" d="M440.36,375.07,450,403.5l-8.4,10.36-22-2.07,0-1.39A40.43,40.43,0,0,1,440.36,375.07Z"/><path class="cls-3" d="M450.17,371.19c1-.05,2-.07,3.05-.05,22.09.4,34.95,10.81,41.5,18.62a40.4,40.4,0,1,1-73,33.53l45.72-.36,6.47-7.12-14.2-15.53-10.16-28.93Z"/><path class="cls-5" d="M137.66,222.31l358.17,360a258.17,258.17,0,0,0,54.22-54.49l-358.18-360A258.12,258.12,0,0,0,137.66,222.31Z"/></svg>