<svg id="Layer_1" data-name="Layer 1" xmlns="http://www.w3.org/2000/svg" viewBox="0 0 720 720"><defs><style>.cls-1,.cls-4{fill:#fff;}.cls-2,.cls-5{fill:#e20613;}.cls-2,.cls-3,.cls-4{fill-rule:evenodd;}.cls-3{fill:#1d1d1b;}</style></defs><ellipse class="cls-1" cx="360" cy="360" rx="332.48" ry="332.49" transform="translate(-9.34 710.41) rotate(-88.49)"/><path class="cls-2" d="M360,680.37c176.46,0,320.38-143.92,320.38-320.38S536.46,39.6,360,39.6,39.6,183.53,39.6,360,183.54,680.37,360,680.37Z"/><circle class="cls-1" cx="360" cy="359.99" r="253.89" transform="translate(-149.11 360) rotate(-45)"/><path class="cls-3" d="M460.94,214.33c13.1,0,23.69,11.74,23.69,26.2a28.1,28.1,0,0,1-1.18,8.16c18.84,16.14,70.9,62.09,73.32,78.27,3,19.75,1,82,1,82l40.57,38.76a257.43,257.43,0,0,1-10.79,25c-13.2-10.68-41.78-34.41-48.54-45-8.92-13.82-6.93-39.51-6.93-39.51l-26.68,31.61,6.93,87.91-50.39,1L482.68,487s-4.93-71.12-4.93-79,34.57-53.34,34.57-53.34l-11.87-9.89L454,373.39l-6.91-1.91-49.39,28H380v70H363.16v-70H288.55a58.77,58.77,0,1,1-79,0H109.18a258,258,0,0,1-3-35H449.81c10.83-9.81,31.18-29,31.88-35.55,1-8.9-14.82-29.64-9.88-43.47s-1-15.8-1-15.8l-2.5-4.28a21.52,21.52,0,0,1-7.37,1.31c-13.1,0-23.7-11.72-23.7-26.16S447.84,214.34,460.94,214.33Z"/><path class="cls-4" d="M265,481.49l2.16,3.76c-.7.31-1.44.6-2.16.88v-4.64Zm0-21.75V448.45h29.67a45.9,45.9,0,0,1-18.1,31.35L265,459.74Zm0-22.15v-11.3l11.57-20.07a45.81,45.81,0,0,1,18.1,31.37Zm0-33.06v-4.61c.72.27,1.46.54,2.16.85Zm-2.19,82.33v-9.14l2.19,3.77v4.64c-.72.26-1.46.5-2.19.73v0ZM265,399.92v4.61l-2.19,3.78v-8.83h1l1.19.43Zm0,26.37v11.3h-2.19V430l2.19-3.75Zm0,22.16v11.29L262.81,456v-7.53ZM262.81,456h0v-7.53h0V456Zm0-18.38h0v0Zm0-29.27h0v-8.83h0Zm0-8.84v8.84l-2.16,3.75V399.48Zm0,30.58v7.53h-2.16v-3.77l2.16-3.76Zm0,18.39V456l-2.16-3.76v-3.76Zm0,29.25v9.16c-.72.22-1.44.44-2.16.64V474Zm-2.16-78.22v12.59l-11.59,20.09-11.58-20.07V399.48Zm0,34.34v3.77h-2.18l2.18-3.77Zm0,14.63v3.76l-2.18-3.76Zm0,25.51V487.5a46.69,46.69,0,0,1-23.17,0V474l11.58-20.06L260.65,474Zm-23.17-21.74v-3.77h2.17l-2.17,3.77Zm0-14.63v-3.78l2.17,3.78Zm0-38.11v12.61l-2.18-3.76v-8.85Zm0,34.33v3.78H235.3V430l2.18,3.77Zm0,14.64v3.77L235.3,456v-7.55Zm0,25.51V487.5c-.74-.2-1.46-.42-2.18-.64v-9.14l2.18-3.76Zm-4.36,12.17c.72.25,1.46.5,2.18.73v-9.14l-2.18,3.78v4.63Zm0-26.36L235.3,456v-7.55h-2.18v11.32Zm0-22.18h2.18V430l-2.18-3.78v11.33Zm0-33,2.18,3.78v-8.85h-1l-1.21.43Zm0-4.63v4.63l-2.18-3.76c.74-.31,1.44-.59,2.18-.87Zm0,26.34v11.33H203.44a45.92,45.92,0,0,1,18.1-31.35l11.58,20Zm0,22.19v11.32l-11.58,20a45.94,45.94,0,0,1-18.1-31.35Zm0,33.05v4.63c-.74-.28-1.44-.58-2.16-.89Z"/><path class="cls-5" d="M146.05,213.52l358.17,360A257.89,257.89,0,0,0,558.43,519L200.26,159A258.12,258.12,0,0,0,146.05,213.52Z"/></svg>