<svg id="Layer_1" data-name="Layer 1" xmlns="http://www.w3.org/2000/svg" viewBox="0 0 720 720"><defs><style>.cls-1,.cls-3{fill:#fff;}.cls-2{fill:#e20613;}.cls-2,.cls-3,.cls-4{fill-rule:evenodd;}.cls-4{fill:#1d1d1b;}</style></defs><ellipse class="cls-1" cx="360" cy="360" rx="332.48" ry="332.47" transform="translate(-9.85 10.13) rotate(-1.59)"/><path class="cls-2" d="M360,680.39c176.46,0,320.4-143.92,320.4-320.39S536.46,39.62,360,39.62,39.62,183.54,39.62,360,183.54,680.39,360,680.39Z"/><path class="cls-3" d="M510.66,564.34A252.57,252.57,0,0,1,360,613.91C219.81,613.91,106.13,500.2,106.13,360a252.79,252.79,0,0,1,49.54-150.66Z"/><path class="cls-3" d="M360,106.11c140.21,0,253.91,113.7,253.91,253.89a252.82,252.82,0,0,1-49.56,150.67l-355-355A252.7,252.7,0,0,1,360,106.11Z"/><path class="cls-4" d="M339.48,267.12a143.83,143.83,0,0,1-2.2-24.77c-.19-11.84,2.16-20.72,8.6-23.8l0,0c-6-.56-17.51-1.74-17.51-4s-.4-4.59,3.16-7.15c2.69-1.89,12.8-2.72,14.77-2.72,2.68,0,2.89,2.23,1.66,7.14l2.56.16c4.54-12,11.26-24.38,17.07-34.1,1.54-2.68,3.71-4.74,6.91-5.27,15-2,34-2.37,52.8-2.37s37.85.42,52.92,2.37c3.2.58,5.39,2.64,7,5.32,5.8,9.69,12.52,22,17,34.1l2.63-.17c-1.23-4.91-1-7.12,1.67-7.12,1.95,0,12.08.82,14.75,2.74,3.57,2.54,3.16,4.94,3.16,7.12s-11.51,3.41-17.51,4h-.06c6.38,3.05,8.71,11.94,8.54,23.75a141.61,141.61,0,0,1-2.2,24.84l0,44.93a3.15,3.15,0,0,1-3.2,3.2H495.74a3.13,3.13,0,0,1-3.2-3.2V300.41H362.12v8l-22.66-22.66Z"/><path class="cls-3" d="M488.24,189.67c2.54,6.33,5.49,12.8,7.9,19.21,1.3,3.14,2.55,6.77,3.78,10-20.9-1.72-41.89-2.38-62.81-2.59-27.43,0-54.9.47-82.28,2.65,3.26-8.64,6.68-17.52,10.28-26,1.5-3.18,2.77-7.14,4.56-10.13,17.76-1.92,35.84-2,53.64-2.23,20.52,0,41.38,0,61.79,2.23,1.23,2.07,2.14,4.76,3.14,6.87ZM473,256c1.78-.14,11.4-.67,15.18-1.2,3.2-.39,4.93-.76,6-1.43,1.3-.89,7.49-1.34,12-1.81a21.43,21.43,0,0,0-.36-8c-.55-2.69-2.54-2.43-6.19-2.43s-20.52,1.24-24,1.91c-2.08.41-3.63,1.56-3.92,2.89-.83,3.22-1.51,5-2.23,8.32-.06.35-.47,2.07,3.52,1.75Zm-91.38,0c-1.8-.16-11.4-.67-15.18-1.19-3.2-.4-4.95-.77-6-1.44-1.3-.88-7.51-1.35-12-1.81a21.23,21.23,0,0,1,.38-8c.55-2.68,2.52-2.43,6.17-2.43s20.51,1.24,24,1.92c2.06.39,3.61,1.54,3.92,2.88.83,3.2,1.49,5,2.23,8.32,0,.34.47,2.07-3.52,1.75Zm14.18,5.16h63.06c1.82,0,3.33,1.05,3.33,2.32v6.27c0,1.27-1.51,2.33-3.33,2.33H395.82c-1.84,0-3.33-1.05-3.33-2.31v-6.29C392.49,262.19,394,261.14,395.82,261.14Z"/><path class="cls-4" d="M318.07,446.16l2,8.34a30,30,0,1,1-4.83,2.14l-2.17-8.2c-2.82,1-6.16,1.79-9.94,2.85-11.93,3.36-20.88,17.18-22.38,26.52s-8.2,16.46-20.14,16.46c-6.19,0-13.2-1.93-18.5-3.77l-8.16-.08a30,30,0,0,1-59.12-7.49,29.41,29.41,0,0,1,1.51-9.35c-2.86-2.17-5.79-6.32-5.6-14.05.36-15,20.52-13.47,20.52-13.47l11.19-11.94,25.37-1.63c2.33-7.45,6.83-19.35,13.78-27.51,10.2-12,16.09-15,16.72-15.3a11.88,11.88,0,1,1,10.24,5.84c-.4,0-.8,0-1.19,0-1.84,2-3.85,6-1.52,13.22,2.67,8.34,9.6,16.87,13.29,21l29.21.32s12.31-2.63,13.44,7.09C322.33,441.59,320.91,444.26,318.07,446.16Z"/><path class="cls-3" d="M219.23,502.26A23.25,23.25,0,0,0,227.39,491l-8.16-.06v11.29Zm-4.07,2.46V490.93l4.07,0v11.3a23.64,23.64,0,0,1-4.07,2.45Zm0-20.08V467.55l1.47-4.36a24.37,24.37,0,0,1,2.6,1.72v20.35l-3.33.32-.74-.94Zm4.07.62,9.35-.85,0-.82a23.28,23.28,0,0,0-9.37-18.68v20.35Zm102.85-23.53,1.61,6.67,10.81,16.79-3,3.74-12.31-18.29-1.76-6.59a23.32,23.32,0,1,0,12.76-3.78A23.09,23.09,0,0,0,322.08,461.73Zm-106.92,5.82v17.09l-4.09-5,4.09-12.06Zm0,23.38L201,490.8l-3.71-4.09,8.21-9,5.83-16.68L211,461c-.58,0-1.17,0-1.76,0-12.76.22-20.18,6.23-24,10.73A23,23,0,0,0,182,483.59a23.36,23.36,0,0,0,33.19,21.13Z"/></svg>