<svg id="Layer_1" data-name="Layer 1" xmlns="http://www.w3.org/2000/svg" viewBox="0 0 720 720"><defs><style>.cls-1,.cls-3{fill:#fff;}.cls-2,.cls-5{fill:#e20613;}.cls-2,.cls-3,.cls-4{fill-rule:evenodd;}.cls-4{fill:#1d1d1b;}</style></defs><ellipse class="cls-1" cx="360" cy="360" rx="332.48" ry="332.49" transform="translate(-6.36 713.53) rotate(-88.98)"/><path class="cls-2" d="M360,680.38c176.47,0,320.39-143.92,320.39-320.38S536.47,39.61,360,39.61,39.62,183.53,39.62,360,183.54,680.38,360,680.38Z"/><path class="cls-3" d="M360,613.88c139.84,0,253.9-114,253.9-253.88S499.84,106.1,360,106.1,106.11,220.15,106.11,360,220.17,613.88,360,613.88Z"/><path class="cls-4" d="M143.75,444.74h41.7l-20.26-39.39,17.29-27.44-20.26-34s-11.9,14.91-16.09,16.7S134.82,357,134.82,357l13.1-47.74h10.74c8.34,0,45.86,33.4,45.86,33.4s38.13-11.33,64.93-7.15c21.82,3.4,27.06,28.18,28.25,37.26l26-4.34v-16.8h6.38c1.61-5.4,4.34-12.17,7.91-12.55,5.94-.57,18.47-1.19,18.47-1.19l8.93-19.69s-14.31-6.55-23.24-9.55-8.92-10.73-8.92-10.73l36.92.59a64.46,64.46,0,0,1,8.19-6.8A14.31,14.31,0,1,1,390.18,293c3.12,9.59,5.48,31.94,6.6,44.22,25-20.95,66.83-50.74,100.23-48.8,22.55,1.3,39.32,14.66,51,29.2l12.13-14.28,7.73,3.56-13.42,19.49a144.29,144.29,0,0,1,13.39,25.29h17.31V395.2H553.62a29.24,29.24,0,0,1-6.84,49.54h16.35v10.15H143.75Z"/><polygon class="cls-3" points="196.05 444.74 208.22 444.74 193.79 388.04 178.3 410.13 195.58 434 196.05 444.74"/><path class="cls-3" d="M217.79,444.74h21.88V434.59l16.68-25.06V386.86S245,380.29,242,380.29s-32.16,6.57-32.16,6.57l.59,28Z"/><path class="cls-3" d="M251.29,444.74h50.42l2.88-22.68S293.87,409.53,291.48,406s-25-21.48-25-21.48L270,410.72l-20.83,23.87Z"/><path class="cls-3" d="M312.86,444.74h49.29a29.26,29.26,0,0,1-6.86-49.54H323.67v-9.11l-22.84-1,11.51,37Z"/><path class="cls-3" d="M516.72,395.2H392.19a29.25,29.25,0,0,1-6.84,49.54H523.58a29.27,29.27,0,0,1-6.86-49.54Z"/><path class="cls-5" d="M143.77,215.49l358.17,360A258.17,258.17,0,0,0,556.16,521L198,161A257.93,257.93,0,0,0,143.77,215.49Z"/></svg>