<svg id="Layer_1" data-name="Layer 1" xmlns="http://www.w3.org/2000/svg" viewBox="0 0 720 720"><defs><style>.cls-1{fill:#fff;}.cls-1,.cls-2,.cls-3{fill-rule:evenodd;}.cls-2{fill:#e20613;}.cls-3{fill:#1d1d1b;}</style></defs><path class="cls-1" d="M360,27.53c183.58,0,332.46,148.89,332.46,332.47S543.59,692.47,360,692.47,27.53,543.6,27.53,360,176.41,27.53,360,27.53Z"/><path class="cls-2" d="M360,680.39c176.46,0,320.38-143.92,320.38-320.39S536.47,39.62,360,39.62,39.63,183.54,39.63,360,183.55,680.39,360,680.39Z"/><path class="cls-1" d="M510.69,564.34A252.79,252.79,0,0,1,360,613.91C219.82,613.91,106.12,500.2,106.12,360a252.79,252.79,0,0,1,49.54-150.66Z"/><path class="cls-1" d="M360,106.11C500.2,106.11,613.9,219.81,613.9,360a252.68,252.68,0,0,1-49.56,150.67l-355-355A252.75,252.75,0,0,1,360,106.11Z"/><path class="cls-3" d="M193.34,258.38l11.39,0,84.53,84.49-95.92.11-30.71-43.37,30.71-41.27Zm118.87.12,35.72,0c58,0,105.49,47.5,105.51,105.5l0,35.75L312.21,258.5ZM453.59,507.25l0,23.86L411.2,500.38,369,531.11l.1-108.36Z"/></svg>