<svg id="Layer_1" data-name="Layer 1" xmlns="http://www.w3.org/2000/svg" viewBox="0 0 720 720"><defs><style>.cls-1{fill:#fff;}.cls-1,.cls-2,.cls-3{fill-rule:evenodd;}.cls-2{fill:#e20613;}.cls-3{fill:#008ad1;}</style></defs><path class="cls-1" d="M360,27.52C543.59,27.52,692.47,176.4,692.47,360S543.59,692.48,360,692.48,27.53,543.6,27.53,360,176.41,27.52,360,27.52Z"/><path class="cls-2" d="M360,680.39c176.48,0,320.4-143.93,320.4-320.4S536.47,39.6,360,39.6,39.61,183.53,39.61,360,183.53,680.39,360,680.39Z"/><path class="cls-3" d="M155.66,510.66a253.86,253.86,0,0,1,0-301.32L306.32,360Z"/><path class="cls-3" d="M510.67,564.34a253.85,253.85,0,0,1-301.34,0L360,413.69Z"/><path class="cls-3" d="M564.34,209.34a253.78,253.78,0,0,1,0,301.32L413.68,360Z"/><path class="cls-3" d="M360,106.11a252.7,252.7,0,0,1,150.66,49.54L360,306.33,209.33,155.65A252.74,252.74,0,0,1,360,106.11Z"/></svg>