<svg id="Layer_1" data-name="Layer 1" xmlns="http://www.w3.org/2000/svg" viewBox="0 0 720 720"><defs><style>.cls-1{fill:#fff;}.cls-1,.cls-2,.cls-3{fill-rule:evenodd;}.cls-2{fill:#e20613;}.cls-3{fill:#008ad1;}</style></defs><path class="cls-1" d="M360,27.52C543.58,27.52,692.49,176.4,692.49,360S543.58,692.48,360,692.48,27.51,543.6,27.51,360,176.42,27.52,360,27.52Z"/><path class="cls-2" d="M360,680.39c176.46,0,320.4-143.93,320.4-320.4S536.46,39.6,360,39.6,39.62,183.53,39.62,360,183.54,680.39,360,680.39Z"/><path class="cls-3" d="M510.66,564.34A252.69,252.69,0,0,1,360,613.89c-140.19,0-253.89-113.69-253.89-253.9a252.81,252.81,0,0,1,49.54-150.65Z"/><path class="cls-3" d="M360,106.11c140.19,0,253.89,113.69,253.89,253.88a252.73,252.73,0,0,1-49.54,150.67l-355-355A252.7,252.7,0,0,1,360,106.11Z"/></svg>