<svg id="Layer_1" data-name="Layer 1" xmlns="http://www.w3.org/2000/svg" viewBox="0 0 720 720"><defs><style>.cls-1{fill:#fff;}.cls-1,.cls-2,.cls-3{fill-rule:evenodd;}.cls-2{fill:#e20613;}.cls-3{fill:#1d1d1b;}</style></defs><path class="cls-1" d="M360,27.53c183.58,0,332.48,148.89,332.48,332.47S543.57,692.47,360,692.47,27.53,543.6,27.53,360,176.41,27.53,360,27.53Z"/><path class="cls-2" d="M360,680.39c176.46,0,320.38-143.92,320.38-320.39S536.45,39.62,360,39.62,39.61,183.54,39.61,360,183.51,680.39,360,680.39Z"/><path class="cls-1" d="M510.65,564.34A252.71,252.71,0,0,1,360,613.91C219.8,613.91,106.1,500.2,106.1,360a252.79,252.79,0,0,1,49.54-150.66Z"/><path class="cls-1" d="M360,106.11c140.19,0,253.89,113.7,253.89,253.89a252.8,252.8,0,0,1-49.54,150.67l-355-355A252.76,252.76,0,0,1,360,106.11Z"/><path class="cls-3" d="M273.32,327a104.6,104.6,0,0,0-6.76,37l-.17,167.07,42.41-30.73L351,531.11l-.12-126.54Z"/><path class="cls-3" d="M526.66,258.38l-154.61.16a104.39,104.39,0,0,0-48.12,11.73l72.6,72.61,130.13.14,30.71-43.37Z"/></svg>