<svg id="Layer_1" data-name="Layer 1" xmlns="http://www.w3.org/2000/svg" viewBox="0 0 720 720"><defs><style>.cls-1{fill:#fff;}.cls-1,.cls-2,.cls-3{fill-rule:evenodd;}.cls-2{fill:#e20613;}.cls-3{fill:#1d1d1b;}</style></defs><path class="cls-1" d="M360,27.52C176.4,27.52,27.52,176.41,27.52,360S176.4,692.48,360,692.48,692.48,543.59,692.48,360,543.6,27.52,360,27.52Z"/><path class="cls-2" d="M360,680.38C183.54,680.38,39.61,536.46,39.61,360S183.54,39.61,360,39.61,680.39,183.53,680.39,360,536.46,680.38,360,680.38Z"/><path class="cls-1" d="M209.33,564.33A252.63,252.63,0,0,0,360,613.89c140.2,0,253.87-113.69,253.87-253.89a252.77,252.77,0,0,0-49.53-150.67Z"/><path class="cls-1" d="M360,106.11C219.8,106.11,106.09,219.8,106.09,360a252.66,252.66,0,0,0,49.57,150.66l355-355A252.61,252.61,0,0,0,360,106.11Z"/><path class="cls-3" d="M432.51,506.23V337.06L426,343.6V500.41l6.54,5.82Zm-28-240.35a71.29,71.29,0,0,0-50.2-20.66h0a71.87,71.87,0,0,0-71.64,71.61V535.51l-70.21-53.38V317.71c0-74.13,60.64-134.76,134.77-134.76h14.18a133.52,133.52,0,0,1,71.08,20.44v34.5Zm34.53,246.19V330.52l-6.55,6.54V506.23l6.55,5.84Zm-6.55-308.68c2.22,1.39,4.41,2.83,6.55,4.34v23.62l-6.55,6.54v-34.5Zm63.7,297-30.9,35.1-26.25-23.44V330.52l51.47-51.46a134.28,134.28,0,0,1,5.68,38.65v182.7ZM439.06,231.35l13.1-13.09a138.41,138.41,0,0,0-13.1-10.53Z"/></svg>