<svg id="Layer_1" data-name="Layer 1" xmlns="http://www.w3.org/2000/svg" viewBox="0 0 720 720"><defs><style>.cls-1{fill:#fff;}.cls-1,.cls-2,.cls-3{fill-rule:evenodd;}.cls-2{fill:#e20613;}.cls-3{fill:#1d1d1b;}</style></defs><path class="cls-1" d="M360,27.52C176.4,27.52,27.52,176.41,27.52,360S176.4,692.48,360,692.48,692.48,543.59,692.48,360,543.6,27.52,360,27.52Z"/><path class="cls-2" d="M360,680.38c-176.47,0-320.4-143.92-320.4-320.38S183.54,39.61,360,39.61,680.4,183.53,680.4,360,536.47,680.38,360,680.38Z"/><path class="cls-1" d="M360,613.88c-139.85,0-253.89-114-253.89-253.88S220.15,106.1,360,106.1,613.88,220.15,613.88,360,499.84,613.88,360,613.88Z"/><polygon class="cls-2" points="559.46 246.45 379.7 246.45 379.7 444.46 388.54 444.46 388.54 473.55 403.92 473.55 403.92 444.46 409.82 444.46 409.82 473.55 425.23 473.55 425.23 444.46 513.92 444.46 513.92 473.55 529.31 473.55 529.31 444.46 535.2 444.46 535.2 473.55 550.61 473.55 550.61 444.46 559.46 444.46 559.46 246.45"/><path class="cls-3" d="M167.81,399.17,187.72,360H313.15l19.91,39.21h8.39c0,45.09,0,14.43,0,59.5H326.3v14.88H292.37V458.67H208.49v14.88H174.58V458.67H159.43v-59.5Z"/><path class="cls-1" d="M341.45,426.7v-7.86H322.16v7.86Zm0,12.28v-7.84H322.16V439Zm-60.2,0V418.84H219.63V439Zm-102.52,0v-7.84h-19.3V439Zm0-12.28v-7.86h-19.3v7.86Zm5.55-27.53,14.83-29.26H301.75l14.86,29.26Z"/></svg>