<svg id="Layer_1" data-name="Layer 1" xmlns="http://www.w3.org/2000/svg" viewBox="0 0 720 720"><defs><style>.cls-1{fill:#fff;}.cls-1,.cls-2,.cls-3{fill-rule:evenodd;}.cls-2{fill:#e20613;}.cls-3{fill:#1d1d1b;}</style></defs><path class="cls-1" d="M360,27.52c183.59,0,332.48,148.89,332.48,332.48S543.59,692.48,360,692.48,27.52,543.59,27.52,360,176.41,27.52,360,27.52Z"/><path class="cls-2" d="M360,680.38c176.46,0,320.39-143.92,320.39-320.38S536.46,39.61,360,39.61,39.61,183.53,39.61,360,183.54,680.38,360,680.38Z"/><path class="cls-1" d="M360,613.88c139.86,0,253.91-114,253.91-253.88S499.86,106.1,360,106.1,106.12,220.15,106.12,360,220.16,613.88,360,613.88Z"/><path class="cls-2" d="M552.2,342.42,532.3,303.2H406.86l-19.92,39.23h-8.37v59.49h15.16V416.8h33.9V401.92h83.89V416.8h33.89V401.92h15.15v-59.5Z"/><path class="cls-3" d="M333.05,342.42l-19.9-39.22H187.72l-19.9,39.23h-8.4c0,45.07,0,14.41,0,59.49h15.15V416.8h33.9V401.92h83.89V416.8h33.91V401.92h15.14v-59.5Z"/><path class="cls-1" d="M378.57,369.94h19.28V362.1H378.57v7.84Zm0,12.29h19.28v-7.85H378.57v7.85Zm60.19,0h61.63V362.1H438.76v20.13Zm102.54,0h19.27v-7.85H541.3v7.85Zm0-12.29h19.27V362.1H541.3v7.84ZM403.4,342.43l14.85-29.26H520.89l14.84,29.25Z"/><path class="cls-1" d="M159.42,369.94H178.7V362.1H159.45l0,7.84Zm0,12.29H178.7v-7.85H159.45l0,7.85Zm60.22,0h61.61V362.1H219.64v20.13Zm102.51,0h19.28v-7.85H322.15v7.85Zm0-12.29h19.28V362.1H322.15v7.84ZM184.26,342.43l14.85-29.26H301.75l14.84,29.25Z"/></svg>