<svg id="Layer_1" data-name="Layer 1" xmlns="http://www.w3.org/2000/svg" viewBox="0 0 720 720"><defs><style>.cls-1{fill:#fff;}.cls-1,.cls-2,.cls-3{fill-rule:evenodd;}.cls-2{fill:#e20613;}.cls-3{fill:#1d1d1b;}</style></defs><path class="cls-1" d="M360,27.52C176.41,27.52,27.51,176.43,27.51,360S176.41,692.48,360,692.48,692.49,543.59,692.49,360,543.59,27.52,360,27.52Z"/><path class="cls-2" d="M360,680.39C183.53,680.39,39.61,536.47,39.61,360S183.53,39.61,360,39.61,680.38,183.53,680.38,360,536.46,680.39,360,680.39Z"/><path class="cls-1" d="M360,595.76c-129.86,0-235.75-105.9-235.75-235.77S230.14,124.24,360,124.24,595.76,230.14,595.76,360,489.85,595.76,360,595.76Z"/><polygon class="cls-2" points="274.64 222.28 332.43 335.38 296.25 324.87 296.25 511.92 252.97 511.92 252.97 324.87 216.81 335.38 274.64 222.28"/><polygon class="cls-3" points="440.16 511.92 497.94 398.82 461.77 409.34 461.77 222.28 418.48 222.28 418.48 409.34 382.32 398.82 440.16 511.92"/></svg>