<svg id="Layer_1" data-name="Layer 1" xmlns="http://www.w3.org/2000/svg" viewBox="0 0 720 720"><defs><style>.cls-1,.cls-3{fill:#fff;}.cls-2{fill:#e20613;}.cls-2,.cls-3,.cls-4{fill-rule:evenodd;}.cls-4{fill:#1d1d1b;}</style></defs><ellipse class="cls-1" cx="360" cy="360" rx="332.48" ry="332.49" transform="translate(-6.46 713.42) rotate(-88.96)"/><path class="cls-2" d="M360,680.37c176.47,0,320.39-143.92,320.39-320.38S536.47,39.6,360,39.6,39.62,183.53,39.62,360,183.54,680.37,360,680.37Z"/><path class="cls-3" d="M510.66,564.33A252.71,252.71,0,0,1,360,613.88c-140.2,0-253.88-113.7-253.88-253.88a252.78,252.78,0,0,1,49.54-150.67L333.12,386.79Z"/><path class="cls-3" d="M360,106.1c140.2,0,253.89,113.71,253.89,253.9a252.62,252.62,0,0,1-49.55,150.66L386.89,333.19,209.33,155.65A252.68,252.68,0,0,1,360,106.1Z"/><path class="cls-4" d="M322,375.66H197.48a39.77,39.77,0,0,0-39.68,39.67v.37c-7.7-13.52-12.72-35.86-12.72-61.15s5-47.63,12.72-61.16v.41h0a39.76,39.76,0,0,0,39.68,39.68H279.8Z"/><path class="cls-4" d="M437.68,384A13.25,13.25,0,0,0,442,374.2h0a13.32,13.32,0,0,0-13.28-13.29H414.6l-24.78-24.78h42.51a38.2,38.2,0,0,1,38.07,38h23.54a37.44,37.44,0,1,1,0,20.84H464.17a38.6,38.6,0,0,1-7.28,8.23Z"/><path class="cls-4" d="M269.52,387.08h63.89L347.36,401h-75.6a9.68,9.68,0,0,0-9.64,9.66h0a9.68,9.68,0,0,0,9.64,9.66h94.9l13.95,13.94H269.52a23.63,23.63,0,0,1-23.61-23.6h0A23.63,23.63,0,0,1,269.52,387.08Z"/></svg>