<svg id="Layer_1" data-name="Layer 1" xmlns="http://www.w3.org/2000/svg" viewBox="0 0 720 720"><defs><style>.cls-1,.cls-3{fill:#fff;}.cls-2{fill:#e20613;}.cls-2,.cls-3{fill-rule:evenodd;}.cls-4{fill:#1d1d1b;}</style></defs><circle class="cls-1" cx="360" cy="360" r="332.47" transform="translate(-149.12 360) rotate(-45)"/><path class="cls-2" d="M360,680.37c176.45,0,320.37-143.92,320.37-320.38S536.45,39.6,360,39.6,39.62,183.53,39.62,360,183.54,680.37,360,680.37Z"/><path class="cls-3" d="M360,613.88c139.86,0,253.88-114,253.88-253.89S499.86,106.1,360,106.1,106.11,220.15,106.11,360,220.17,613.88,360,613.88Z"/><path class="cls-4" d="M204.18,402.63l74.4-176.86h42.1V402.63h26.95V445H320.68V505.1h-42.1V445h-74.4Zm74.4,0V315.39l-34.77,87.24Z"/><path class="cls-4" d="M515.81,441.61q0,27.86-19.6,47.23t-47,19.38q-27.84,0-47.33-19.5t-19.49-47.11V289.25q0-27.84,19.6-47.33t47.22-19.49q27.85,0,47.23,19.6t19.38,47.22ZM472.15,288.36a24.34,24.34,0,0,0-24.28-24.28,23,23,0,0,0-17,7.13,23.56,23.56,0,0,0-7,17.15V440.94a23.57,23.57,0,0,0,7,17.16,23,23,0,0,0,17,7.12,24.33,24.33,0,0,0,24.28-24.28Z"/></svg>