<svg id="Layer_1" data-name="Layer 1" xmlns="http://www.w3.org/2000/svg" viewBox="0 0 720 720"><defs><style>.cls-1{fill:#fff;}.cls-1,.cls-2,.cls-3{fill-rule:evenodd;}.cls-2{fill:#e20613;}.cls-3,.cls-4{fill:#1d1d1b;}</style></defs><path class="cls-1" d="M360,43.51c174.75,0,316.5,141.72,316.5,316.49S534.75,676.49,360,676.49,43.5,534.77,43.5,360,185.23,43.51,360,43.51Z"/><path class="cls-2" d="M360,665c168,0,305-137,305-305S528,55,360,55,55,192,55,360,192,665,360,665Z"/><path class="cls-1" d="M360,601.68c133.13,0,241.69-108.57,241.69-241.68S493.13,118.31,360,118.31,118.31,226.87,118.31,360,226.88,601.68,360,601.68Z"/><path class="cls-3" d="M187.52,350.19h345a21.36,21.36,0,0,1,21.29,21.31h0a21.34,21.34,0,0,1-21.29,21.29h-345a21.32,21.32,0,0,1-21.29-21.28h0A21.36,21.36,0,0,1,187.52,350.19Z"/><path class="cls-4" d="M277.57,317.91v-2.59l10.54-1.14v2.69c0,5.28,2.7,8.48,7,8.48s7-2.69,7-6.93c0-4.55-1.87-7.86-10-15.61-10.87-10.24-14-15.82-14-23.78,0-10.76,6.21-17.8,16.65-17.8s16.66,7,16.66,17.9V281l-10.56,1.14v-2.06c0-5.59-2.16-8.48-6-8.48s-6,2.37-6,6.92,2.27,7.86,10,15.62c10.55,10.55,14,15.82,14,23.79,0,10.33-7.23,17.77-17.69,17.77S277.57,328.24,277.57,317.91Z"/><path class="cls-4" d="M318.37,262.27h34.95v10.34h-12v62.05h-11V272.61h-12Z"/><path class="cls-4" d="M360.83,318.21v-39.5c0-10.44,7-17.48,17.59-17.48s17.57,7,17.57,17.48v39.5c0,10.45-7,17.47-17.57,17.47S360.83,328.66,360.83,318.21Zm24.2,0v-39.5c0-4.55-2.58-7.13-6.61-7.13s-6.62,2.58-6.62,7.13v39.5c0,4.55,2.58,7.14,6.62,7.14S385,322.76,385,318.21Z"/><path class="cls-4" d="M407,262.27h17.17c10.44,0,17.17,6.83,17.17,17.27V288c0,10.44-6.73,17.27-17.17,17.27H418v29.37H407ZM423.66,295c4.24,0,6.72-2.49,6.72-6.72v-8.9c0-4.24-2.48-6.72-6.72-6.72H418V295Z"/><path class="cls-4" d="M193.75,463.16V423c0-10.13,6.93-17.17,17.17-17.17s17.16,7,17.16,17.17v8.48H217.33V423c0-4.23-2.58-6.82-6.31-6.82s-6.3,2.59-6.3,6.82v40.13c0,4.23,2.58,6.83,6.3,6.83s6.31-2.6,6.31-6.83V452.81h10.75v10.35c0,10.14-6.93,17.16-17.16,17.16S193.75,473.3,193.75,463.16Z"/><path class="cls-4" d="M238.08,479.29V406.9h11v30.51h13V406.9h11v72.39h-11V447.75H249v31.54Z"/><path class="cls-4" d="M285,406.9h11v72.39H285Z"/><path class="cls-4" d="M307.92,406.9h10.95V469h19.54v10.34H307.92Z"/><path class="cls-4" d="M346.86,406.9H364c10.44,0,17.16,6.83,17.16,17.27V462c0,10.45-6.72,17.27-17.16,17.27H346.86ZM363.5,469c4.24,0,6.72-2.48,6.72-6.72V424c0-4.24-2.48-6.72-6.72-6.72h-5.69V469Z"/><path class="cls-4" d="M416.71,479.29l-8-29.89h-5.69v29.89h-11V406.9h17.17c10.44,0,17.17,6.83,17.17,17.27v8c0,6.72-2.8,11.9-7.56,14.79l9.21,32.37Zm-13.65-40.23h5.69c4.24,0,6.72-2.48,6.72-6.73V424c0-4.24-2.48-6.72-6.72-6.72h-5.69Z"/><path class="cls-4" d="M437.05,406.9h31.13v10.34H448v20.17h16v10.34H448V469h20.17v10.34H437.05Z"/><path class="cls-4" d="M477.33,406.9h12.1l14,48.6V406.9h10.75v72.39H502.57L488.08,433v46.33H477.33Z"/></svg>