<svg id="Layer_1" data-name="Layer 1" xmlns="http://www.w3.org/2000/svg" viewBox="0 0 720 720"><defs><style>.cls-1{fill:#fff;}.cls-1,.cls-2,.cls-3{fill-rule:evenodd;}.cls-2{fill:#e20613;}.cls-3{fill:#1d1d1b;}</style></defs><path class="cls-1" d="M360,43.51c174.75,0,316.5,141.72,316.5,316.49S534.75,676.49,360,676.49,43.5,534.77,43.5,360,185.23,43.51,360,43.51Z"/><path class="cls-2" d="M360,665c168,0,305-137,305-305S528,55,360,55,55,192,55,360,192,665,360,665Z"/><path class="cls-1" d="M360,601.68c133.13,0,241.69-108.57,241.69-241.68S493.13,118.31,360,118.31,118.31,226.87,118.31,360,226.88,601.68,360,601.68Z"/><path class="cls-3" d="M187.52,338.79h345c11.72,0,21.29,14.73,21.29,32.72h0c0,18-9.57,32.69-21.29,32.69l-345,0c-11.73,0-21.29-14.68-21.29-32.67h0C166.23,353.52,175.79,338.79,187.52,338.79Z"/></svg>