<svg id="Layer_1" data-name="Layer 1" xmlns="http://www.w3.org/2000/svg" viewBox="0 0 720 720"><defs><style>.cls-1{fill:#9c9b9b;}.cls-1,.cls-2,.cls-3,.cls-4,.cls-5{fill-rule:evenodd;}.cls-2,.cls-3{fill:#e20613;}.cls-2{stroke:#e20613;stroke-miterlimit:22.93;stroke-width:1.95px;}.cls-4{fill:#fff;}.cls-5{fill:#1d1d1b;}</style></defs><path class="cls-1" d="M644,638.65c23.22,0,36.86-25.68,25.76-44.81L385.83,102.11c-11.74-20.37-40.54-19-51.63,0L50.25,593.84C38.69,613.92,54,638.65,76.13,638.65Z"/><path class="cls-2" d="M644,632.67c23.22,0,36.86-25.68,25.76-44.81L385.83,96.13c-11.74-20.37-40.54-19-51.63,0L50.25,587.86C38.69,608,54,632.67,76.13,632.67Z"/><path class="cls-3" d="M644,621.4c14.58,0,22.84-16,16.12-28L376.07,101.72c-7.38-12.79-25.3-11.65-32.21,0L60,593.43c-7.28,12.43,2.28,28,16.12,28Z"/><polygon class="cls-4" points="579.4 565.48 140.72 565.48 360.05 185.58 579.4 565.48"/><polygon class="cls-4" points="579.4 565.48 140.72 565.48 360.05 185.58 579.4 565.48"/><path class="cls-5" d="M360.06,493.34A56.38,56.38,0,1,0,303.68,437,56.5,56.5,0,0,0,360.06,493.34Z"/></svg>