<svg id="Layer_1" data-name="Layer 1" xmlns="http://www.w3.org/2000/svg" viewBox="0 0 720 720"><defs><style>.cls-1{fill:#9c9b9b;}.cls-1,.cls-2,.cls-3,.cls-4,.cls-5{fill-rule:evenodd;}.cls-2,.cls-3{fill:#e20613;}.cls-2{stroke:#e20613;stroke-miterlimit:22.93;stroke-width:1.95px;}.cls-4{fill:#fff;}.cls-5{fill:#1d1d1b;}</style></defs><path class="cls-1" d="M644,638.65c23.22,0,36.83-25.68,25.76-44.8l-284-491.74c-11.74-20.39-40.54-19-51.62,0l-284,491.74c-11.54,20.07,3.8,44.8,25.88,44.8Z"/><path class="cls-2" d="M644,632.67c23.22,0,36.83-25.69,25.76-44.8l-284-491.74c-11.74-20.38-40.54-19-51.62,0l-284,491.74c-11.54,20.06,3.8,44.8,25.88,44.8Z"/><path class="cls-3" d="M644,621.4c14.56,0,22.81-16,16.1-27.95l-284-491.73c-7.4-12.8-25.3-11.67-32.22,0L60,593.45c-7.28,12.4,2.28,27.95,16.12,27.95Z"/><polygon class="cls-4" points="140.71 565.5 579.41 565.5 360.06 185.57 140.71 565.5"/><path class="cls-5" d="M373.16,300.14A19.24,19.24,0,1,1,354,280.82,19.22,19.22,0,0,1,373.16,300.14Z"/><path class="cls-5" d="M382.88,357.6v55.87H344.3V367.31L319.22,405.8c-5,7.84-28.43,12.81-23.35,5l47.49-73.06c7.26-11.16,22.2-14.87,33.34-7.6,11.56,7.5,24,20.33,34.76,29.44a14.62,14.62,0,0,1,5.16,11.06v23.63c0,9.36-16.88,26.24-16.88,16.87V371.78Z"/><path class="cls-5" d="M363.54,428.06,318,512a19.17,19.17,0,0,1-26.13,7.67l51.21-94.42a8.86,8.86,0,0,0,1.18-4.57v-2.44h38.58v2.44a9.94,9.94,0,0,0,1.16,4.57l38.32,70.63a19.3,19.3,0,0,1-7.76,26.15Z"/><polygon class="cls-5" points="480 557.43 448.92 486.79 480.15 486.79 522.35 557.43 480 557.43"/><path class="cls-5" d="M409.44,557.43l-9.2-50.72,12.24,22.52,4.66-2.51A24.56,24.56,0,0,0,427,493.38l-3.56-6.59H428l23.8,70.64Z"/><polygon class="cls-5" points="338.9 557.43 344.38 486.79 375.68 486.79 381.18 557.43 338.9 557.43"/><path class="cls-5" d="M268.27,557.43l23.9-70.64h11.64l-19.1,35.1,4.66,2.54a24.64,24.64,0,0,0,27.83-3l-6.55,36Z"/><polygon class="cls-5" points="197.65 557.43 239.83 486.79 271.23 486.79 240.01 557.43 197.65 557.43"/></svg>