<svg id="Layer_1" data-name="Layer 1" xmlns="http://www.w3.org/2000/svg" viewBox="0 0 720 720"><defs><style>.cls-1{fill:#9c9b9b;}.cls-1,.cls-2,.cls-3,.cls-4,.cls-5{fill-rule:evenodd;}.cls-2,.cls-3{fill:#e20613;}.cls-2{stroke:#e20613;stroke-miterlimit:22.93;stroke-width:1.95px;}.cls-4{fill:#fff;}.cls-5{fill:#1d1d1b;}</style></defs><path class="cls-1" d="M644,638.65c23.23,0,36.87-25.68,25.79-44.8L385.84,102.11c-11.76-20.39-40.56-19-51.64,0L50.26,593.85c-11.57,20.07,3.76,44.8,25.85,44.8Z"/><path class="cls-2" d="M644,632.67c23.23,0,36.87-25.69,25.79-44.8L385.84,96.13c-11.76-20.38-40.56-19-51.64,0L50.26,587.87c-11.57,20.06,3.76,44.8,25.85,44.8Z"/><path class="cls-3" d="M644,621.4c14.61,0,22.84-16,16.12-27.95l-284-491.73c-7.41-12.8-25.32-11.67-32.23,0L60,593.45c-7.29,12.4,2.27,27.95,16.11,27.95Z"/><polygon class="cls-4" points="579.39 565.5 140.72 565.5 360.05 185.57 579.39 565.5"/><path class="cls-5" d="M372.21,315.54a18,18,0,1,1-17.95,18A18,18,0,0,1,372.21,315.54Z"/><path class="cls-5" d="M272.14,507.68a9.62,9.62,0,1,1-9.63,9.61A9.63,9.63,0,0,1,272.14,507.68Z"/><path class="cls-5" d="M253.55,535.89a13.47,13.47,0,1,1-13.48,13.48A13.46,13.46,0,0,1,253.55,535.89Z"/><path class="cls-5" d="M288.17,447.57a24.83,24.83,0,1,1-24.83,24.84A24.84,24.84,0,0,1,288.17,447.57Z"/><path class="cls-5" d="M322.16,379.42a18,18,0,1,1-18,17.94A17.94,17.94,0,0,1,322.16,379.42Z"/><path class="cls-5" d="M402.89,259.75c-4.38,17.08-8.37,34.67-12.12,52.67A28.09,28.09,0,0,1,381.6,360c-11.82,65.45-21.67,135.2-34.52,205.52H579.39Z"/></svg>