<svg id="Layer_1" data-name="Layer 1" xmlns="http://www.w3.org/2000/svg" viewBox="0 0 720 720"><defs><style>.cls-1{fill:#9c9b9b;}.cls-1,.cls-2,.cls-3,.cls-4,.cls-5{fill-rule:evenodd;}.cls-2,.cls-3{fill:#e20613;}.cls-2{stroke:#e20613;stroke-miterlimit:22.93;stroke-width:1.95px;}.cls-4{fill:#fff;}.cls-5{fill:#1d1d1b;}</style></defs><path class="cls-1" d="M644,638.65c23.22,0,36.87-25.67,25.77-44.81L385.83,102.11c-11.75-20.37-40.54-19-51.63,0l-284,491.73c-11.55,20.09,3.8,44.81,25.87,44.81Z"/><path class="cls-2" d="M644,632.66c23.22,0,36.87-25.67,25.77-44.81L385.83,96.14c-11.75-20.38-40.54-19-51.63,0l-284,491.71C38.69,608,54,632.66,76.11,632.66Z"/><path class="cls-3" d="M644,621.4c14.6,0,22.84-16,16.11-28L376.06,101.73c-7.37-12.81-25.28-11.67-32.2,0L60,593.44c-7.29,12.41,2.28,28,16.11,28Z"/><polygon class="cls-4" points="579.4 565.48 140.72 565.48 360.06 185.56 579.4 565.48"/><polygon class="cls-4" points="579.4 565.48 140.72 565.48 360.06 185.56 579.4 565.48"/><path class="cls-5" d="M360.06,502.55a26.13,26.13,0,1,1-26.14,26.13,26.15,26.15,0,0,1,26.14-26.13ZM333.92,276.83,342,475.74c.84,20.31,35.22,20.31,36.05,0l8.12-198.91C387.3,249.61,332.82,249.61,333.92,276.83Z"/></svg>