<svg id="Layer_1" data-name="Layer 1" xmlns="http://www.w3.org/2000/svg" viewBox="0 0 720 720"><defs><style>.cls-1{fill:#9c9b9b;}.cls-1,.cls-2,.cls-3,.cls-4,.cls-5{fill-rule:evenodd;}.cls-2,.cls-3{fill:#e20613;}.cls-2{stroke:#e20613;stroke-miterlimit:22.93;stroke-width:1.95px;}.cls-4{fill:#fff;}.cls-5{fill:#1d1d1b;}</style></defs><path class="cls-1" d="M644,638.65c23.2,0,36.83-25.67,25.74-44.81L385.84,102.11c-11.76-20.37-40.56-19-51.65,0L50.26,593.84c-11.56,20.09,3.79,44.81,25.86,44.81Z"/><path class="cls-2" d="M644,632.66c23.2,0,36.83-25.67,25.74-44.81L385.84,96.14c-11.76-20.38-40.56-19-51.65,0L50.26,587.85C38.7,608,54.05,632.66,76.12,632.66Z"/><path class="cls-3" d="M644,621.4c14.58,0,22.81-16,16.08-28l-284-491.71c-7.39-12.81-25.3-11.67-32.21,0L60,593.44c-7.3,12.41,2.26,28,16.11,28Z"/><polygon class="cls-4" points="140.73 565.48 579.4 565.48 360.07 185.56 140.73 565.48"/><path class="cls-5" d="M495,510.18c-84.75-76.81-169.48-86-254.22,0L186.46,513v30h95.17c0-29.64,35.12-53.68,78.44-53.68s78.43,24,78.43,53.68h95V510.18Z"/></svg>