<svg id="Layer_1" data-name="Layer 1" xmlns="http://www.w3.org/2000/svg" viewBox="0 0 720 720"><defs><style>.cls-1{fill:#9c9b9b;}.cls-1,.cls-2,.cls-3,.cls-4,.cls-5{fill-rule:evenodd;}.cls-2,.cls-3{fill:#e20613;}.cls-2{stroke:#e20613;stroke-miterlimit:22.93;stroke-width:1.94px;}.cls-4{fill:#fff;}.cls-5{fill:#1d1d1b;}</style></defs><path class="cls-1" d="M644,638.65c23.24,0,36.85-25.68,25.8-44.81L385.85,102.11c-11.74-20.37-40.57-19-51.65,0L50.25,593.84C38.7,613.92,54,638.65,76.12,638.65Z"/><path class="cls-2" d="M644,632.67c23.24,0,36.85-25.68,25.8-44.81L385.85,96.13c-11.74-20.37-40.57-19-51.65,0L50.25,587.86C38.7,608,54,632.67,76.12,632.67Z"/><path class="cls-3" d="M644,621.4c14.6,0,22.85-16,16.11-28l-284-491.71c-7.4-12.79-25.32-11.65-32.23,0L60,593.43c-7.3,12.43,2.26,28,16.1,28Z"/><polygon class="cls-4" points="579.4 565.48 140.73 565.48 360.05 185.58 579.4 565.48"/><polygon class="cls-5" points="454.65 397.75 379.15 397.75 379.15 322.93 343.01 291.25 306.88 322.93 306.88 551.3 343.01 519.64 379.15 551.3 379.15 441.58 454.65 441.58 454.65 397.75"/></svg>