<svg id="Layer_1" data-name="Layer 1" xmlns="http://www.w3.org/2000/svg" viewBox="0 0 720 720"><defs><style>.cls-1{fill:#9c9b9b;}.cls-1,.cls-2,.cls-3,.cls-4,.cls-6,.cls-7{fill-rule:evenodd;}.cls-2,.cls-3{fill:#e20613;}.cls-2{stroke:#e20613;stroke-miterlimit:22.93;stroke-width:1.95px;}.cls-4{fill:#fff;}.cls-5{fill:#1d1d1b;}.cls-6{fill:#ffec00;}.cls-7{fill:#1c9b3a;}</style></defs><path class="cls-1" d="M644,638.65c23.22,0,36.86-25.68,25.78-44.8L385.85,102.11c-11.76-20.39-40.56-19-51.64,0l-284,491.74c-11.56,20.07,3.78,44.8,25.86,44.8Z"/><path class="cls-2" d="M644,632.67c23.22,0,36.86-25.69,25.78-44.8L385.85,96.13c-11.76-20.38-40.56-19-51.64,0l-284,491.74c-11.56,20.06,3.78,44.8,25.86,44.8Z"/><path class="cls-3" d="M644,621.4c14.58,0,22.84-16,16.1-27.95l-284-491.73c-7.42-12.8-25.32-11.67-32.24,0L60,593.45c-7.3,12.4,2.26,27.95,16.1,27.95Z"/><polygon class="cls-4" points="140.72 565.5 579.4 565.5 360.05 185.57 140.72 565.5"/><rect class="cls-5" x="313.01" y="246.89" width="93.96" height="309.16" rx="3.62"/><path class="cls-3" d="M360,346.35c22,0,40-18.78,40-41.8S382,262.74,360,262.74s-40,18.79-40,41.81S338,346.35,360,346.35Z"/><path class="cls-6" d="M360,442.76c22,0,40-18.78,40-41.8s-17.95-41.8-40-41.8-40,18.77-40,41.8S338,442.76,360,442.76Z"/><path class="cls-7" d="M360,539.17c22,0,40-18.78,40-41.8s-17.95-41.8-40-41.8-40,18.78-40,41.8S338,539.17,360,539.17Z"/></svg>