<svg id="Layer_1" data-name="Layer 1" xmlns="http://www.w3.org/2000/svg" viewBox="0 0 720 720"><defs><style>.cls-1{fill:#9c9b9b;}.cls-1,.cls-2,.cls-3,.cls-4,.cls-5{fill-rule:evenodd;}.cls-2,.cls-3{fill:#e20613;}.cls-2{stroke:#e20613;stroke-miterlimit:22.93;stroke-width:1.95px;}.cls-4{fill:#fff;}.cls-5{fill:#1d1d1b;}</style></defs><path class="cls-1" d="M644,638.65c23.22,0,36.87-25.68,25.78-44.81l-284-491.73c-11.73-20.37-40.53-19-51.62,0l-284,491.73c-11.55,20.08,3.8,44.81,25.87,44.81Z"/><path class="cls-2" d="M644,632.67c23.22,0,36.87-25.68,25.78-44.81l-284-491.73c-11.73-20.37-40.53-19-51.62,0l-284,491.73C38.69,608,54,632.67,76.11,632.67Z"/><path class="cls-3" d="M644,621.4c14.6,0,22.84-16,16.11-28l-284-491.71c-7.39-12.79-25.29-11.65-32.21,0L60,593.43c-7.3,12.43,2.27,28,16.1,28Z"/><polygon class="cls-4" points="140.72 565.48 579.4 565.48 360.06 185.58 140.72 565.48"/><polygon class="cls-5" points="265.51 397.75 340.99 397.75 340.99 322.93 377.11 291.25 413.23 322.93 413.23 551.3 377.11 519.64 340.99 551.3 340.99 441.58 265.51 441.58 265.51 397.75"/></svg>