<svg id="Layer_1" data-name="Layer 1" xmlns="http://www.w3.org/2000/svg" viewBox="0 0 720 720"><defs><style>.cls-1{fill:#9c9b9b;}.cls-1,.cls-2,.cls-3,.cls-4,.cls-5{fill-rule:evenodd;}.cls-2,.cls-3{fill:#e20613;}.cls-2{stroke:#e20613;stroke-miterlimit:22.93;stroke-width:1.94px;}.cls-4{fill:#fff;}.cls-5{fill:#1d1d1b;}</style></defs><path class="cls-1" d="M644,638.65c23.23,0,36.87-25.68,25.79-44.81L385.84,102.11c-11.76-20.37-40.56-19-51.64,0L50.26,593.84C38.69,613.92,54,638.65,76.11,638.65Z"/><path class="cls-2" d="M644,632.67c23.23,0,36.87-25.68,25.79-44.81L385.84,96.13c-11.76-20.37-40.56-19-51.64,0L50.26,587.86C38.69,608,54,632.67,76.11,632.67Z"/><path class="cls-3" d="M644,621.4c14.61,0,22.84-16,16.12-28l-284-491.71c-7.41-12.79-25.32-11.65-32.23,0L60,593.43c-7.3,12.43,2.26,28,16.1,28Z"/><polygon class="cls-4" points="140.74 565.48 579.39 565.48 360.05 185.58 140.74 565.48"/><polygon class="cls-5" points="248.44 397.75 323.92 397.75 323.92 322.93 360.05 291.25 396.19 322.93 396.19 397.75 471.67 397.75 471.67 441.58 396.19 441.58 396.19 551.3 360.05 519.64 323.92 551.3 323.92 441.58 248.44 441.58 248.44 397.75"/></svg>