<svg id="Layer_1" data-name="Layer 1" xmlns="http://www.w3.org/2000/svg" viewBox="0 0 720 720"><defs><style>.cls-1{fill:#9c9b9b;}.cls-1,.cls-2,.cls-3,.cls-4,.cls-6{fill-rule:evenodd;}.cls-2,.cls-3{fill:#e20613;}.cls-2{stroke:#e20613;stroke-miterlimit:22.93;stroke-width:1.95px;}.cls-4{fill:#fff;}.cls-5,.cls-6{fill:#1d1d1b;}</style></defs><path class="cls-1" d="M644,638.65c23.22,0,36.86-25.68,25.78-44.81l-284-491.73c-11.74-20.37-40.54-19-51.64,0L50.25,593.84C38.69,613.92,54,638.65,76.12,638.65Z"/><path class="cls-2" d="M644,632.67c23.22,0,36.86-25.68,25.78-44.81l-284-491.73c-11.74-20.37-40.54-19-51.64,0L50.25,587.86C38.69,608,54,632.67,76.12,632.67Z"/><path class="cls-3" d="M644,621.4c14.6,0,22.84-16,16.1-28l-284-491.71c-7.42-12.79-25.32-11.65-32.24,0L60,593.43c-7.3,12.43,2.26,28,16.09,28Z"/><polygon class="cls-4" points="579.4 565.48 140.72 565.48 360.05 185.58 579.4 565.48"/><polygon class="cls-4" points="579.4 565.48 140.72 565.48 360.05 185.58 579.4 565.48"/><rect class="cls-5" x="255.38" y="512.68" width="209.27" height="17.44"/><rect class="cls-5" x="255.38" y="407.44" width="209.27" height="17.45"/><polygon class="cls-6" points="275.07 542.1 275.07 396.97 283.98 389.12 292.85 396.97 292.85 542.1 275.07 542.1"/><polygon class="cls-6" points="313.09 542.1 313.09 396.97 321.97 389.12 330.87 396.97 330.87 542.1 313.09 542.1"/><polygon class="cls-6" points="351.11 542.1 351.11 396.97 360.01 389.12 368.89 396.97 368.89 542.1 351.11 542.1"/><polygon class="cls-6" points="389.13 542.1 389.13 396.97 398.03 389.12 406.91 396.97 406.91 542.1 389.13 542.1"/><polygon class="cls-6" points="427.15 542.1 427.15 396.97 436.03 389.12 444.92 396.97 444.92 542.1 427.15 542.1"/></svg>