<svg id="Layer_1" data-name="Layer 1" xmlns="http://www.w3.org/2000/svg" viewBox="0 0 720 720"><defs><style>.cls-1{fill:#9c9b9b;}.cls-1,.cls-2,.cls-3,.cls-4,.cls-5{fill-rule:evenodd;}.cls-2,.cls-3{fill:#e20613;}.cls-2{stroke:#e20613;stroke-miterlimit:22.93;stroke-width:1.95px;}.cls-4{fill:#fff;}.cls-5{fill:#1d1d1b;}</style></defs><path class="cls-1" d="M644,638.65c23.24,0,36.85-25.68,25.8-44.8L385.85,102.11c-11.74-20.39-40.57-19-51.65,0L50.25,593.85c-11.55,20.07,3.78,44.8,25.87,44.8Z"/><path class="cls-2" d="M644,632.67c23.24,0,36.85-25.69,25.8-44.8L385.85,96.13c-11.74-20.38-40.57-19-51.65,0L50.25,587.87c-11.55,20.06,3.78,44.8,25.87,44.8Z"/><path class="cls-3" d="M644,621.4c14.6,0,22.85-16,16.11-27.95l-284-491.73c-7.4-12.8-25.32-11.67-32.23,0L60,593.45c-7.3,12.4,2.26,27.95,16.1,27.95Z"/><polygon class="cls-4" points="140.73 565.5 579.4 565.5 360.05 185.57 140.73 565.5"/><path class="cls-5" d="M566.92,543.9c-20.68-1.33-41.82-1.74-63-1.39v3.38c21.76-.4,43.54,0,64.86,1.32l-1.9-3.31Zm-99.15,21.6v-2.77c12-.68,24.09-1.14,36.19-1.34v3.38q-11.68.22-23.38.73Zm0-5.63v-3.43c12-.68,24.12-1.13,36.19-1.34h0v3.37c-12.1.23-24.19.71-36.19,1.4Zm0-6.3v-3.42c12-.69,24.09-1.14,36.19-1.35h0v3.38c-12.1.22-24.19.69-36.19,1.39Zm0-6.3v-3.41c12-.68,24.09-1.15,36.19-1.36v3.39c-12.1.22-24.19.7-36.19,1.38ZM504,564.77h0c18.16-.34,36.3-.14,54.18.73H579.4l-1.1-1.86C554,561.63,529,561,504,561.39v3.38Zm0-6.3h0c24.34-.45,48.72.09,72.44,1.84L574.52,557c-23.1-1.77-46.82-2.34-70.56-1.93v3.37Zm0-6.29c23.06-.43,46.12,0,68.64,1.57l-1.9-3.29c-21.88-1.55-44.3-2.05-66.74-1.66Zm-36.19-8.32v3.41q-18,1-35.6,2.69-15.57,1.77-30.38,2.67v-3.47c9.94-.57,20.1-1.45,30.56-2.64q17.49-1.65,35.42-2.66Zm0,6.29q-17.91,1-35.42,2.67c-10.46,1.19-20.62,2.07-30.56,2.64v3.46q14.82-.88,30.38-2.65,17.58-1.65,35.6-2.7v-3.42Zm0,6.29v3.43q-18,1-35.6,2.69c-10.38,1.19-20.48,2.07-30.38,2.65v-3.46c9.94-.57,20.1-1.45,30.56-2.64,11.64-1.1,23.48-2,35.42-2.67Zm0,6.29q-17.91,1-35.42,2.67l-.8.1h36.22Zm-66-13.57v3.47a550.36,550.36,0,0,1-96.11-2.86V546a540.23,540.23,0,0,0,96.11,3.21Zm0,6.3c-33,1.91-63.74.56-96.11-3.21v3.82a551.34,551.34,0,0,0,96.11,2.85v-3.46Zm0,6.29v3.46l-5.46.29h-51.8c-12.88-.63-25.74-1.69-38.85-3.15v-3.82a542.11,542.11,0,0,0,96.11,3.22Zm-96.11,3.75h6.09l-6.09-.68Zm0-19.55v3.82l-6.09-.72v-3.84l6.09.74Zm0,6.3v3.82l-6.09-.72v-3.84l6.09.74Zm0,6.28v3.82l-6.09-.71v-3.86l6.09.75Zm0,6.29v.68h-6.09v-1.42l6.09.74Zm-6.09-19.61c-4-.5-8.07-1.05-12.16-1.62v3.88c4.08.56,8.14,1.1,12.16,1.58v-3.84Zm0,6.3h0q-6-.76-12.16-1.63v3.89c4.08.55,8.14,1.09,12.16,1.58v-3.84Zm0,6.27h0q-6-.75-12.16-1.63v3.92c4.08.55,8.14,1.09,12.16,1.57v-3.86Zm0,6.3q-6-.75-12.16-1.62v3h12.16Z"/><path class="cls-5" d="M288.48,384.75l178.43,103-6,33.53-20.88-12.06.14-.24a18.39,18.39,0,0,0-31.86-18.38l-.1.24-88.07-50.83.13-.24a18.38,18.38,0,0,0-31.82-18.39l-.13.25L269,410.5Z"/><polygon class="cls-5" points="345.62 380.44 419.01 422.81 422.21 464.62 413.35 459.5 411.23 429.73 385.31 414.77 372.95 436.19 364.25 431.15 376.59 409.73 351 394.98 326.63 409.46 311.3 400.6 345.62 380.44"/><path class="cls-5" d="M311.68,418a14.58,14.58,0,1,1-20.15,5.21A14.71,14.71,0,0,1,311.68,418Z"/><path class="cls-5" d="M431.55,487.21a14.59,14.59,0,1,1-20.14,5.2A14.74,14.74,0,0,1,431.55,487.21Z"/><polygon class="cls-5" points="215.37 436.71 287.43 436.71 287.43 529.51 287.43 565.5 140.7 565.5 215.37 436.71"/></svg>