<svg id="Layer_1" data-name="Layer 1" xmlns="http://www.w3.org/2000/svg" viewBox="0 0 720 720"><defs><style>.cls-1{fill:#9c9b9b;}.cls-1,.cls-2,.cls-3,.cls-4{fill-rule:evenodd;}.cls-2,.cls-3{fill:#e20613;}.cls-2{stroke:#e20613;stroke-miterlimit:22.93;stroke-width:1.95px;}.cls-4{fill:#fff;}.cls-5{fill:#deeefb;}.cls-6{fill:none;stroke:#1d1d1b;stroke-miterlimit:10;stroke-width:1.59px;}</style></defs><path class="cls-1" d="M644,638.65c23.22,0,36.86-25.68,25.76-44.8L385.83,102.11c-11.74-20.39-40.55-19-51.63,0l-284,491.74c-11.54,20.07,3.79,44.8,25.88,44.8Z"/><path class="cls-2" d="M644,632.67c23.22,0,36.86-25.69,25.76-44.8L385.83,96.13c-11.74-20.38-40.55-19-51.63,0l-284,491.74c-11.54,20.06,3.79,44.8,25.88,44.8Z"/><path class="cls-3" d="M644,621.4c14.58,0,22.83-16,16.11-27.95L376.07,101.72c-7.39-12.8-25.3-11.67-32.21,0L60,593.45c-7.28,12.4,2.29,27.95,16.12,27.95Z"/><polygon class="cls-4" points="140.72 565.5 579.39 565.5 360.06 185.57 140.72 565.5"/><polygon points="478.03 401.11 445.73 401.11 445.73 548.63 275.31 548.63 275.31 401.11 243 401.11 149.33 561.23 571.71 561.23 478.03 401.11"/><rect class="cls-5" x="275.31" y="404.44" width="170.42" height="144.2"/><path class="cls-6" d="M275.17,523.51s17.06,16.61,35,16.61c20.15,0,36-13.22,49.82-13.53,20.48-.47,30.46,12.27,49.34,12.13,20.15-.15,36.39-15.21,36.39-15.21"/><path class="cls-6" d="M275.24,510.16s17.07,16.62,35,16.62c20.15,0,36-13.22,49.82-13.53,20.48-.47,30.46,12.27,49.35,12.13,20.14-.15,36.38-15.22,36.38-15.22"/><path class="cls-6" d="M274.74,496.82s17.06,16.61,35,16.61c20.15,0,36-13.21,49.82-13.53,20.48-.46,30.46,12.27,49.34,12.13,20.15-.15,36.39-15.21,36.39-15.21"/><path class="cls-6" d="M274.81,483.48s17.07,16.61,35,16.61c20.15,0,36-13.22,49.82-13.53,20.48-.47,30.46,12.27,49.35,12.13,20.14-.15,36.38-15.21,36.38-15.21"/><path class="cls-6" d="M275,470.13s17.07,16.62,35,16.62c20.15,0,36-13.22,49.82-13.53,20.48-.47,30.46,12.27,49.34,12.13,20.15-.15,36.39-15.22,36.39-15.22"/><path class="cls-6" d="M275.06,456.79s17.07,16.61,35,16.61c20.15,0,36-13.21,49.82-13.53,20.48-.46,30.46,12.27,49.35,12.13,20.14-.15,36.38-15.21,36.38-15.21"/><path class="cls-6" d="M274.56,443.45s17.07,16.61,35,16.61c20.15,0,36-13.22,49.82-13.53,20.48-.47,30.46,12.27,49.34,12.13,20.15-.15,36.39-15.21,36.39-15.21"/><path class="cls-6" d="M274.63,430.1s17.07,16.61,35,16.61c20.15,0,36-13.21,49.82-13.52,20.48-.47,30.46,12.27,49.35,12.13,20.14-.15,36.38-15.22,36.38-15.22"/></svg>