<svg id="Layer_1" data-name="Layer 1" xmlns="http://www.w3.org/2000/svg" viewBox="0 0 720 720"><defs><style>.cls-1{fill:#9c9b9b;}.cls-1,.cls-2,.cls-3,.cls-4,.cls-6{fill-rule:evenodd;}.cls-2,.cls-3{fill:#e20613;}.cls-2{stroke:#e20613;stroke-miterlimit:22.93;stroke-width:1.95px;}.cls-4{fill:#fff;}.cls-5,.cls-6{fill:#1d1d1b;}</style></defs><path class="cls-1" d="M644,638.65c23.22,0,36.86-25.67,25.77-44.81L385.83,102.11c-11.73-20.37-40.54-19-51.63,0L50.25,593.84C38.69,613.93,54,638.65,76.12,638.65Z"/><path class="cls-2" d="M644,632.66c23.22,0,36.86-25.67,25.77-44.81L385.83,96.14c-11.73-20.38-40.54-19-51.63,0L50.25,587.85C38.69,608,54,632.66,76.12,632.66Z"/><path class="cls-3" d="M644,621.4c14.59,0,22.85-16,16.11-28l-284-491.71c-7.39-12.81-25.3-11.67-32.21,0L60,593.44c-7.28,12.41,2.28,28,16.12,28Z"/><polygon class="cls-4" points="140.73 565.48 579.39 565.48 360.07 185.56 140.73 565.48"/><rect class="cls-5" x="296.7" y="309.98" width="52.29" height="227.13"/><polygon class="cls-6" points="449.48 537.12 449.48 447.39 423.01 380.59 423.01 309.98 370.74 309.98 370.74 390.5 397.39 457.82 397.39 537.12 449.48 537.12"/></svg>