<svg id="Layer_1" data-name="Layer 1" xmlns="http://www.w3.org/2000/svg" viewBox="0 0 720 720"><defs><style>.cls-1{fill:#9c9b9b;}.cls-1,.cls-2,.cls-3,.cls-4,.cls-5{fill-rule:evenodd;}.cls-2,.cls-3{fill:#e20613;}.cls-2{stroke:#e20613;stroke-miterlimit:22.93;stroke-width:1.95px;}.cls-4{fill:#fff;}.cls-5{fill:#1d1d1b;}</style></defs><path class="cls-1" d="M644,638.65c23.2,0,36.84-25.68,25.76-44.8l-284-491.74c-11.74-20.39-40.54-19-51.62,0l-284,491.74c-11.56,20.07,3.79,44.8,25.85,44.8Z"/><path class="cls-2" d="M644,632.67c23.2,0,36.84-25.69,25.76-44.8l-284-491.74c-11.74-20.38-40.54-19-51.62,0l-284,491.74c-11.56,20.06,3.79,44.8,25.85,44.8Z"/><path class="cls-3" d="M644,621.4c14.58,0,22.82-16,16.1-27.95l-284-491.73c-7.4-12.8-25.32-11.67-32.24,0L60,593.45c-7.27,12.4,2.29,27.95,16.1,27.95Z"/><polygon class="cls-4" points="579.39 565.5 140.74 565.5 360.07 185.57 579.39 565.5"/><polygon class="cls-4" points="579.39 565.5 140.74 565.5 360.07 185.57 579.39 565.5"/><path class="cls-5" d="M480.24,471.91H469.7c-.1-31.62-20.34-53.47-49.47-58.85v-7.12c0-3-2.29-11.33-5.14-12.63a11.83,11.83,0,1,0-9.5,2.09c-4.12,3.23-7.32,11.28-7.32,15.73v.64h-5c-8.66,0-18.06,4.26-25.1,10.68-7-6.42-16.42-10.68-25.1-10.68H308.23V386.56h-5.3v-31.3H294v31.3h-5.28v27.7c-12.72,5.08-23.92,17.23-23.92,29.93V468.4A44.37,44.37,0,0,1,336.61,493h19.08v-.21a52.14,52.14,0,0,1,103.05-11.18h21.5Z"/><path class="cls-5" d="M407.93,450.11A42.86,42.86,0,1,1,365,492.85,42.73,42.73,0,0,1,407.93,450.11Z"/><path class="cls-5" d="M293.29,469.23A33.3,33.3,0,1,1,260,502.45,33.22,33.22,0,0,1,293.29,469.23Z"/><path class="cls-4" d="M293.27,483.42a19.11,19.11,0,1,1-19.14,19.06A19.07,19.07,0,0,1,293.27,483.42Z"/><path class="cls-5" d="M293.25,492.61a9.92,9.92,0,1,1-9.94,9.89A9.88,9.88,0,0,1,293.25,492.61Z"/><path class="cls-4" d="M407.88,469.87a23.09,23.09,0,1,1-23.11,23A23,23,0,0,1,407.88,469.87Z"/><path class="cls-5" d="M407.85,479.16A13.81,13.81,0,1,1,394,492.93,13.76,13.76,0,0,1,407.85,479.16Z"/></svg>