<svg id="Layer_1" data-name="Layer 1" xmlns="http://www.w3.org/2000/svg" viewBox="0 0 720 720"><defs><style>.cls-1{fill:#9c9b9b;}.cls-1,.cls-2,.cls-3,.cls-4,.cls-5{fill-rule:evenodd;}.cls-2,.cls-3{fill:#e20613;}.cls-2{stroke:#e20613;stroke-miterlimit:22.93;stroke-width:1.95px;}.cls-4{fill:#fff;}.cls-5{fill:#1d1d1b;}</style></defs><path class="cls-1" d="M644,638.65c23.23,0,36.87-25.67,25.79-44.81L385.84,102.11c-11.76-20.37-40.56-19-51.64,0L50.26,593.84C38.69,613.93,54,638.65,76.11,638.65Z"/><path class="cls-2" d="M644,632.66c23.23,0,36.87-25.67,25.79-44.81L385.84,96.14c-11.76-20.38-40.56-19-51.64,0L50.26,587.85C38.69,608,54,632.66,76.11,632.66Z"/><path class="cls-3" d="M644,621.4c14.61,0,22.84-16,16.12-28l-284-491.71c-7.41-12.81-25.32-11.67-32.23,0L60,593.44c-7.29,12.41,2.27,28,16.11,28Z"/><polygon class="cls-4" points="140.72 565.48 579.39 565.48 360.05 185.56 140.72 565.48"/><polygon class="cls-4" points="579.39 565.48 140.74 565.48 360.05 185.56 579.39 565.48"/><path class="cls-5" d="M343.24,407.92v8.8c-6.87,0-20.14-2.41-22.89,6.21l-3.47,11.37h78.39l3.31-8.8L380,421.12a2.24,2.24,0,0,1,.49-4.4h37.42v8.78H408l-3.24,8.8,12.69,28.54a43.94,43.94,0,1,1,27.3,83.53c-25,8.13-51.68-7.62-56.74-33H369.54a8.6,8.6,0,0,1-6.54-2.9l-51.94-57.58-3.48,11.28a44.12,44.12,0,1,1-8.38-2.56L312,420.35C316.38,405.77,331.64,407.92,343.24,407.92Z"/><path class="cls-4" d="M397,513.36h36.25c2.9,0,5.3-3.57,4.06-6.15L421.07,471a35.13,35.13,0,1,1,20,67.36C423.06,543.62,400.83,532.52,397,513.36Z"/><path class="cls-4" d="M395.93,504.56h30.52l-13.43-30A34.78,34.78,0,0,0,395.93,504.56Z"/><path class="cls-4" d="M378.34,504.56h8.8a43.76,43.76,0,0,1,22.22-38.15l-9-20.33Z"/><path class="cls-4" d="M296.54,470.05l-10.28,33.27c-1.74,5.48,6.88,8,8.38,2.58L305,472.63a35.36,35.36,0,1,1-8.47-2.58Z"/><polygon class="cls-4" points="314.14 443.1 369.12 504.15 392.03 443.1 314.14 443.1"/><path class="cls-5" d="M365,512.89a13.59,13.59,0,1,0-13.59-13.58A13.61,13.61,0,0,0,365,512.89Z"/><polygon class="cls-5" points="343.45 480.24 358.04 472.45 360.86 477.92 356.57 480.39 360.86 488.67 355.42 490.7 351.24 482.81 346.29 485.68 343.45 480.24"/><polygon class="cls-5" points="382.89 520.9 368.31 528.72 365.5 523.24 369.8 520.75 365.5 512.48 370.92 510.44 375.12 518.33 380.07 515.47 382.89 520.9"/><path class="cls-5" d="M374.1,363.16a12.28,12.28,0,1,0-12.29-12.27A12.3,12.3,0,0,0,374.1,363.16Z"/><path class="cls-5" d="M372.31,360.67v3.84c-7,25.48-28.27,40.71-53.23,53.2l5.14,4.29,51.71-29c3.61,8.93,5.76,13.22,2.14,24l-19,21.61-9.77,41.06,11.57-1.74,8.79-34.17,19.64-18.87,25.92-2.45c4.76-28.36-13.55-41.82-36.14-57.92v-5.63Z"/><path class="cls-5" d="M364.28,497.72,377,495.59C398.49,452.23,416.19,317.53,364.28,497.72Z"/></svg>