<svg id="Layer_1" data-name="Layer 1" xmlns="http://www.w3.org/2000/svg" viewBox="0 0 720 720"><defs><style>.cls-1{fill:#9c9b9b;}.cls-1,.cls-2,.cls-3,.cls-4,.cls-5{fill-rule:evenodd;}.cls-2,.cls-3{fill:#e20613;}.cls-2{stroke:#e20613;stroke-miterlimit:22.93;stroke-width:1.95px;}.cls-4{fill:#fff;}.cls-5{fill:#1d1d1b;}</style></defs><path class="cls-1" d="M644,638.65c23.21,0,36.86-25.67,25.77-44.81L385.84,102.11c-11.76-20.37-40.56-19-51.64,0L50.26,593.84C38.69,613.93,54,638.65,76.11,638.65Z"/><path class="cls-2" d="M644,632.66c23.21,0,36.86-25.67,25.77-44.81L385.84,96.14c-11.76-20.38-40.56-19-51.64,0L50.26,587.85C38.69,608,54,632.66,76.11,632.66Z"/><path class="cls-3" d="M644,621.4c14.6,0,22.83-16,16.11-28l-284-491.71c-7.4-12.81-25.31-11.67-32.22,0L60,593.44c-7.29,12.41,2.27,28,16.11,28Z"/><polygon class="cls-4" points="140.72 565.48 579.4 565.48 360.06 185.56 140.72 565.48"/><polygon class="cls-5" points="449.69 537.12 449.69 447.39 423.24 380.59 423.24 309.98 370.94 309.98 370.94 390.5 397.61 457.82 397.61 537.12 449.69 537.12"/><polygon class="cls-5" points="270.44 537.12 270.44 447.39 296.9 380.59 296.9 309.98 349.18 309.98 349.18 390.5 322.52 457.82 322.52 537.12 270.44 537.12"/></svg>