<svg id="Layer_1" data-name="Layer 1" xmlns="http://www.w3.org/2000/svg" viewBox="0 0 720 720"><defs><style>.cls-1{fill:#9c9b9b;}.cls-1,.cls-2,.cls-3,.cls-4,.cls-6{fill-rule:evenodd;}.cls-2,.cls-3{fill:#e20613;}.cls-2{stroke:#e20613;stroke-miterlimit:22.93;stroke-width:1.95px;}.cls-4{fill:#fff;}.cls-5,.cls-6{fill:#1d1d1b;}</style></defs><path class="cls-1" d="M644,638.65c23.21,0,36.85-25.67,25.76-44.81L385.84,102.11c-11.76-20.37-40.56-19-51.63,0l-284,491.73c-11.56,20.09,3.8,44.81,25.85,44.81Z"/><path class="cls-2" d="M644,632.66c23.21,0,36.85-25.67,25.76-44.81L385.84,96.14c-11.76-20.38-40.56-19-51.63,0l-284,491.71c-11.56,20.1,3.8,44.81,25.85,44.81Z"/><path class="cls-3" d="M644,621.4c14.59,0,22.84-16,16.1-28l-284-491.71c-7.38-12.81-25.3-11.67-32.22,0L60,593.44c-7.29,12.41,2.28,28,16.1,28Z"/><polygon class="cls-4" points="579.4 565.48 140.73 565.48 360.07 185.56 579.4 565.48"/><rect class="cls-5" x="371.16" y="309.98" width="52.29" height="227.13"/><polygon class="cls-6" points="270.65 537.12 270.65 447.39 297.11 380.59 297.11 309.98 349.4 309.98 349.4 390.5 322.74 457.82 322.74 537.12 270.65 537.12"/></svg>