<svg id="Layer_1" data-name="Layer 1" xmlns="http://www.w3.org/2000/svg" viewBox="0 0 720 720"><defs><style>.cls-1{fill:#9c9b9b;}.cls-1,.cls-2,.cls-3,.cls-4,.cls-5{fill-rule:evenodd;}.cls-2,.cls-3{fill:#e20613;}.cls-2{stroke:#e20613;stroke-miterlimit:22.93;stroke-width:1.94px;}.cls-4{fill:#fff;}.cls-5{fill:#1d1d1b;}</style></defs><path class="cls-1" d="M644,638.65c23.2,0,36.86-25.68,25.76-44.81L385.83,102.11c-11.75-20.37-40.55-19-51.63,0L50.25,593.84C38.69,613.92,54,638.65,76.09,638.65Z"/><path class="cls-2" d="M644,632.67c23.2,0,36.86-25.68,25.76-44.81L385.83,96.13c-11.75-20.37-40.55-19-51.63,0L50.25,587.86C38.69,608,54,632.67,76.09,632.67Z"/><path class="cls-3" d="M644,621.4c14.58,0,22.82-16,16.1-28l-284-491.71c-7.37-12.79-25.29-11.65-32.21,0L60,593.43c-7.32,12.43,2.26,28,16.08,28Z"/><polygon class="cls-4" points="140.73 565.48 579.4 565.48 360.06 185.58 140.73 565.48"/><path class="cls-5" d="M157.49,536.46,166,521.81h31.53c9.64,0,17.5-5.37,17.5-12v-16c0-6.58-7.86-11.95-17.5-11.95H189l23.39-40.52h31.46V407.81h0a21.73,21.73,0,0,0-4.48-13.19l7-12.18.46.46a35.14,35.14,0,0,1,10.38,24.91h0V443.1A28.66,28.66,0,0,1,276.22,470v38.09a28.62,28.62,0,0,1-14.4,24.8V557.1c0,4.61-3.52,8.4-7.84,8.39H243.52a8.14,8.14,0,0,1-7.84-8.38V536.68H160.91A27.79,27.79,0,0,1,157.49,536.46Z"/><path class="cls-5" d="M404.23,318.47A12.5,12.5,0,1,1,391.75,331,12.51,12.51,0,0,1,404.23,318.47Z"/><path class="cls-5" d="M375.19,352.26a10.47,10.47,0,1,1-10.48,10.46A10.47,10.47,0,0,1,375.19,352.26Z"/><path class="cls-5" d="M293.8,520.48s112.13-157.43,127-148S293.8,520.48,293.8,520.48Z"/><path class="cls-5" d="M438,396.82a10.48,10.48,0,1,1-10.48,10.48A10.49,10.49,0,0,1,438,396.82Z"/><path class="cls-5" d="M301.3,528s109.55-84.52,117.77-74.93S301.3,528,301.3,528Z"/><path class="cls-5" d="M306.3,537.39s123.77-54.92,128.61-42S306.3,537.39,306.3,537.39Z"/><path class="cls-5" d="M308.16,545.52s174.55-25.36,177.49-8S308.16,545.52,308.16,545.52Z"/><path class="cls-5" d="M439.37,454.91a9.14,9.14,0,1,1-9.12,9.15A9.14,9.14,0,0,1,439.37,454.91Z"/><path class="cls-5" d="M473.83,471.16A11.82,11.82,0,1,1,462,483,11.83,11.83,0,0,1,473.83,471.16Z"/><path class="cls-5" d="M495.45,498.17a9.13,9.13,0,1,1-9.12,9.12A9.12,9.12,0,0,1,495.45,498.17Z"/><path class="cls-5" d="M513.69,525.86a11.83,11.83,0,1,1-11.82,11.84A11.83,11.83,0,0,1,513.69,525.86Z"/><path class="cls-4" d="M250.56,499.52a10.13,10.13,0,1,1-10.14,10.12A10.12,10.12,0,0,1,250.56,499.52Z"/><path class="cls-4" d="M243.46,454.23a17.24,17.24,0,1,1-17.24,17.25A17.23,17.23,0,0,1,243.46,454.23Z"/></svg>