<svg id="Layer_1" data-name="Layer 1" xmlns="http://www.w3.org/2000/svg" viewBox="0 0 720 720"><defs><style>.cls-1{fill:#9c9b9b;}.cls-1,.cls-2,.cls-3,.cls-4,.cls-5{fill-rule:evenodd;}.cls-2,.cls-3{fill:#e20613;}.cls-2{stroke:#e20613;stroke-miterlimit:22.93;stroke-width:1.95px;}.cls-4{fill:#fff;}.cls-5{fill:#1d1d1b;}</style></defs><path class="cls-1" d="M76,638.65c-23.22,0-36.86-25.68-25.77-44.8l284-491.74c11.73-20.39,40.54-19,51.63,0l284,491.74c11.56,20.07-3.78,44.8-25.87,44.8Z"/><path class="cls-2" d="M76,632.67c-23.22,0-36.86-25.69-25.77-44.8l284-491.74c11.73-20.38,40.54-19,51.63,0l284,491.74c11.56,20.06-3.78,44.8-25.87,44.8Z"/><path class="cls-3" d="M76,621.4c-14.59,0-22.85-16-16.11-27.95l284-491.73c7.39-12.8,25.3-11.67,32.21,0L660,593.45c7.28,12.4-2.28,27.95-16.12,27.95Z"/><polygon class="cls-4" points="140.61 565.5 579.27 565.5 359.93 185.57 140.61 565.5"/><polygon class="cls-4" points="140.61 565.5 579.26 565.5 359.93 185.57 140.61 565.5"/><path class="cls-5" d="M379.6,338.07l4.18-17c.69-3,2.76-3.43,4.59-1l35.47,47.4c1.84,2.47.9,5.07-2.09,5.79L365,387c-3,.72-4.35-1-3-3.74l7.67-16.47A69,69,0,0,0,317.06,379a69.92,69.92,0,0,0-8.59,7.39l-21.61-21a99.5,99.5,0,0,1,92.74-27.35Z"/><path class="cls-5" d="M432,502l12.65,12.13c2.25,2.09,1.6,4.09-1.46,4.46l-58.79,7c-3,.38-4.83-1.73-4-4.69l16.48-56c.85-3,3-3.3,4.74-.76L412.11,479a69.08,69.08,0,0,0,15.66-51.65,70,70,0,0,0-2.12-11.12l29-8.22A99.51,99.51,0,0,1,432,502Z"/><path class="cls-5" d="M263.8,465.48,247,470.39c-2.95.92-4.37-.68-3.15-3.5l23.29-54.42c1.2-2.83,3.94-3.33,6.06-1.1l40.31,42.28c2.12,2.22,1.35,4.25-1.73,4.5l-18.09,1.6a69,69,0,0,0,36.91,39.37,71.39,71.39,0,0,0,10.69,3.73l-7.37,29.22a99.33,99.33,0,0,1-70.12-66.59Z"/></svg>