<svg id="Layer_1" data-name="Layer 1" xmlns="http://www.w3.org/2000/svg" viewBox="0 0 720 720"><defs><style>.cls-1{fill:#9c9b9b;}.cls-1,.cls-2,.cls-3,.cls-4,.cls-5{fill-rule:evenodd;}.cls-2,.cls-3{fill:#e20613;}.cls-2{stroke:#e20613;stroke-miterlimit:22.93;stroke-width:1.95px;}.cls-4{fill:#fff;}.cls-5{fill:#1d1d1b;}</style></defs><path class="cls-1" d="M644,638.65c23.22,0,36.86-25.68,25.76-44.81L385.83,102.11c-11.74-20.37-40.55-19-51.63,0l-284,491.73C38.7,613.92,54,638.65,76.12,638.65Z"/><path class="cls-2" d="M644,632.67c23.22,0,36.86-25.68,25.76-44.81L385.83,96.13c-11.74-20.37-40.55-19-51.63,0l-284,491.73C38.7,608,54,632.67,76.12,632.67Z"/><path class="cls-3" d="M644,621.4c14.58,0,22.83-16,16.11-28L376.07,101.72c-7.39-12.79-25.3-11.65-32.21,0L60,593.43c-7.28,12.43,2.29,28,16.12,28Z"/><polygon class="cls-4" points="140.72 565.48 579.39 565.48 360.06 185.58 140.72 565.48"/><path class="cls-5" d="M336.56,481.45c-12.68-1.33-25.48-1.51-32.59-14.48l-14.2-25.77c-1.41-2.66,1-6.26,4-5.6l39.14,6.24a31,31,0,0,1-7.57-16.37l-7.86-60.16-26.82-7.67v-8.93l29.75-9a17.65,17.65,0,0,0,10.8-9.2l9.09-18.19a1.61,1.61,0,0,1,2.93,1.05l-3.68,15.26c-.86,4.06,5.39.08,5.68,0,5.39-2.65,10.41-22.47,13.74-20.86,3.21,1.34-5,15.36.56,13.56,6.82-3.61,10.14-7.87,12.31-15.17.38-2,3.51-1.51,3.51.57a25.4,25.4,0,0,1-12.88,20.75l-25.87,14.87,20.75,1.32a20.37,20.37,0,0,1-16.95,8.91l9.37,31.74A40.46,40.46,0,0,0,377,412l69.26,21c6.63,1.9,13.36,6.91,19.14,10.24,6.73,4,4.84,10.8,3.42,16.86-5.41,22.08,11.17,31.36,25.87,41.79l16.48,31.55a10.28,10.28,0,0,0,10.41,5.41l2.47,15.42c-23.68-7.75-27.29-36-50.61-43.76-20.91-7.2-39-14-46.5-38a203.14,203.14,0,0,1-77.51-15.34l-1.43,5.1-42.15-11.45c4.07,8.43,9.38,22.83,22.17,16.58Z"/></svg>