<svg id="Layer_1" data-name="Layer 1" xmlns="http://www.w3.org/2000/svg" viewBox="0 0 720 720"><defs><style>.cls-1{fill:#9c9b9b;}.cls-1,.cls-2,.cls-3,.cls-4,.cls-5{fill-rule:evenodd;}.cls-2,.cls-3{fill:#e20613;}.cls-2{stroke:#e20613;stroke-miterlimit:22.93;stroke-width:1.95px;}.cls-4{fill:#fff;}.cls-5{fill:#1d1d1b;}</style></defs><path class="cls-1" d="M644,638.65c23.22,0,36.86-25.68,25.77-44.81L385.83,102.11c-11.73-20.37-40.54-19-51.63,0L50.25,593.84C38.69,613.92,54,638.65,76.12,638.65Z"/><path class="cls-2" d="M644,632.67c23.22,0,36.86-25.68,25.77-44.81L385.83,96.13c-11.73-20.37-40.54-19-51.63,0L50.25,587.86C38.69,608,54,632.67,76.12,632.67Z"/><path class="cls-3" d="M644,621.4c14.59,0,22.85-16,16.11-28l-284-491.71c-7.39-12.79-25.3-11.65-32.21,0L60,593.43c-7.28,12.43,2.28,28,16.12,28Z"/><polygon class="cls-4" points="140.73 565.48 579.39 565.48 360.07 185.58 140.73 565.48"/><path class="cls-5" d="M231.52,470.85l16.31-17.58L259.32,432l6.24-2.77-.69-6.5a15.3,15.3,0,0,1-15.17-15.57,15.63,15.63,0,0,1,15.44-15.94,15.36,15.36,0,0,1,14.36,10.12l17.3,1.49-8.33,15.29-8.74-5.85a15.23,15.23,0,0,1-5.49,7.55l3.12,8h10.42L319,451.42l18.85-21.15,11-35.8,13.88-7.64-3.61-9.29a15.78,15.78,0,0,1-6.37,1.31c-9.22,0-16.78-7.8-16.78-17.35s7.56-17.35,16.78-17.35,16.8,7.79,16.8,17.35a17.6,17.6,0,0,1-3,9.84L373.2,382h19.43s18.05,19.43,24.31,28.45S424.57,432,424.57,432l16.67-4.85,10.42,15.26-29.87,11.81L425.27,475l38.18.7,14.6,26.4L455.12,490.3l-44.44.69-13.89-23.6-22.2,24.3,24.23,54.83H506.59v19H213.41v-19h31l9.34-6.22-3.38-29.77-5.56-.87,23.51-29.77v-11.8l-5.55-15.29-22.21,20.84Z"/><polygon class="cls-4" points="415.56 434.76 409.31 433.37 390.55 401.42 409.31 416.7 415.56 434.76"/><polygon class="cls-4" points="372.32 546.52 380.14 540.99 352.37 492.38 379.44 449.33 360.68 418.09 345.96 438.11 323.89 468.09 290.56 443.79 285.69 464.6 301.67 486.82 334.31 487.52 334.31 509.05 327.36 499.33 303.6 497.94 262.34 508.97 268.17 546.52 372.32 546.52"/></svg>