<svg id="Layer_1" data-name="Layer 1" xmlns="http://www.w3.org/2000/svg" viewBox="0 0 720 720"><defs><style>.cls-1{fill:#9c9b9b;}.cls-1,.cls-2,.cls-3,.cls-4,.cls-5{fill-rule:evenodd;}.cls-2,.cls-3{fill:#e20613;}.cls-2{stroke:#e20613;stroke-miterlimit:22.93;stroke-width:1.94px;}.cls-4{fill:#fff;}.cls-5{fill:#1d1d1b;}</style></defs><path class="cls-1" d="M644,638.65c23.21,0,36.85-25.67,25.77-44.81l-284-491.73c-11.75-20.37-40.55-19-51.64,0L50.25,593.84C38.69,613.93,54,638.65,76.12,638.65Z"/><path class="cls-2" d="M644,632.66c23.21,0,36.85-25.67,25.77-44.81l-284-491.71c-11.75-20.38-40.55-19-51.64,0L50.25,587.85C38.69,608,54,632.66,76.12,632.66Z"/><path class="cls-3" d="M644,621.4c14.58,0,22.83-16,16.1-28l-284-491.71c-7.38-12.81-25.3-11.67-32.21,0L60,593.44c-7.31,12.41,2.27,28,16.11,28Z"/><polygon class="cls-4" points="579.4 565.48 140.72 565.48 360.06 185.56 579.4 565.48"/><polygon class="cls-4" points="140.72 565.48 579.4 565.48 360.06 185.56 140.72 565.48"/><path class="cls-5" d="M317.62,402.25c-3,1.18-13.1-9.45-10.63-6.2-2.57-3.44-14.21-13.31-15.88-15.37-1.27-1.63-1.86-4.92-7.1-1.6a47.11,47.11,0,0,0-7,5.84c-12,11.53-27.4,24.83-30.85,29.07s.9,5.12.5,6.89,5.13,7.19,6.4,7.69,5.51-1.28,5.51-1.28,13.71.78,18.85,0,15.35,5.12,16.63,17.94,27.29,41.77,27,47.88c-.89,15,6,33.81,4.24,37.65s-6.8,12.42-8.08,13.71h13.2l-.79-5.13c4.25-3.06,5.62-5.72,3.85-9.86-3.75-8.47,2.07-32.12,11.14-38.53,7.68-5.52,4.23-1.27,15.75,0s49.68,6,68.9-15.38c-2.57,13.71,8.37,14.69,10.24,21.39,1.28,4.73,15.87,31.24,2.18,47.88h13.69l-3.06-9c4.72-3.45,6.41-3.45,4.72-10.65-1.86-7.78.41-21.39,3.46-26.5s2.46-2.17-2-9.26c-8.57-13.71,6.9-47.9,9.47-54.7s5.13-13.31,3.85,3.84,1.28,35.09-1.49,41.3c-3.45,7.39-3.45,21.08.2,35.27,3.35-8.57,6.6-27,3-35.07-1.28-3,1.48-46.13,1.28-56.48-.2-13.89-10.36-20.79-19-21.57-17.15-1.78-89.78,5.9-109.49.78C335.25,400,323.23,399.71,317.62,402.25Z"/></svg>