<svg id="Layer_1" data-name="Layer 1" xmlns="http://www.w3.org/2000/svg" viewBox="0 0 720 720"><defs><style>.cls-1{fill:#9c9b9b;}.cls-1,.cls-2,.cls-3,.cls-4,.cls-5{fill-rule:evenodd;}.cls-2,.cls-3{fill:#e20613;}.cls-2{stroke:#e20613;stroke-miterlimit:22.93;stroke-width:1.95px;}.cls-4{fill:#fff;}.cls-5{fill:#1d1d1b;}</style></defs><path class="cls-1" d="M644,638.65c23.22,0,36.86-25.68,25.78-44.8l-284-491.74c-11.74-20.39-40.54-19-51.61,0L50.26,593.85c-11.58,20.07,3.78,44.8,25.86,44.8Z"/><path class="cls-2" d="M644,632.67c23.22,0,36.86-25.69,25.78-44.8l-284-491.74c-11.74-20.38-40.54-19-51.61,0L50.26,587.87c-11.58,20.06,3.78,44.8,25.86,44.8Z"/><path class="cls-3" d="M644,621.4c14.6,0,22.84-16,16.1-27.95l-284-491.73c-7.42-12.8-25.29-11.67-32.21,0L60,593.45c-7.3,12.4,2.26,27.95,16.1,27.95Z"/><polygon class="cls-4" points="140.72 565.5 579.39 565.5 360.06 185.57 140.72 565.5"/><path class="cls-5" d="M382.22,457.43c.62-.58,1.18-1.08,1.6-1.43l-.48-.65a42.32,42.32,0,0,1,9.72-7.74c.62-.39,1.48-.63,1.82-.18l5,6.72c.32.47-.16,1.21-.72,1.7a41.22,41.22,0,0,1-10.2,7.08l-.5-.69c-1.44.93-4.52,2.74-6.4,3.65l-1.3,76.42,0,2.22c0,1.42-1.68,2.76-2.76,3.58l-6.06,4.32-.8-4.41L358,485.37l-11.88-22.16-.11-.15-19.66,14.65c-6,4.5-18.3,11.55-25.62,15.25a6.67,6.67,0,0,0-1.88,3.41L296.79,526a3.61,3.61,0,0,1-1.86,2.75l-5.7,4.26-9.48-28.23-1,.73c-2.24,1.65-2.94,2.41-5.92,3.37L271.49,507l-3-4-1.38-1.85c1.78-2.56,2.7-3,4.92-4.69l1-.72-24.34-17.17,5.72-4.24a3.67,3.67,0,0,1,3.18-1l28.94,6.51a7,7,0,0,0,3.82-.83c5.62-5.95,15.9-15.7,21.94-20.19l19.66-14.64-.12-.15L314,426.29,257.71,395.8l-4-2,5.86-4.57c1.1-.8,2.84-2,4.22-1.62l2.14.6,73.57,20.61c1.43-1.53,4-4,5.32-5.07l-.5-.7a42,42,0,0,1,9.7-7.75c.64-.38,1.5-.63,1.84-.17l5,6.71c.32.47-.16,1.2-.72,1.7a41,41,0,0,1-10.2,7.09l-.46-.64-1.83,1.13,16.63,4.63c1.5.43,4.4,1,6.64-.63l39.76-29.64a169.75,169.75,0,0,1,20.88-13.18c8.3-4.34,19.32-7.79,22.08-4.09s-3.72,13.26-10.26,20a170,170,0,0,1-18.6,16.22L385.06,434c-2.24,1.68-2.52,4.62-2.54,6.18Z"/></svg>