<svg id="Layer_1" data-name="Layer 1" xmlns="http://www.w3.org/2000/svg" viewBox="0 0 720 720"><defs><style>.cls-1{fill:#9c9b9b;}.cls-1,.cls-2,.cls-3,.cls-4,.cls-5{fill-rule:evenodd;}.cls-2,.cls-3{fill:#e20613;}.cls-2{stroke:#e20613;stroke-miterlimit:22.93;stroke-width:1.95px;}.cls-4{fill:#fff;}.cls-5{fill:#1d1d1b;}</style></defs><path class="cls-1" d="M644,638.65c23.21,0,36.86-25.68,25.77-44.81L385.84,102.11c-11.76-20.37-40.56-19-51.64,0L50.26,593.84C38.69,613.92,54,638.65,76.11,638.65Z"/><path class="cls-2" d="M644,632.67c23.21,0,36.86-25.68,25.77-44.81L385.84,96.13c-11.76-20.37-40.56-19-51.64,0L50.26,587.86C38.69,608,54,632.67,76.11,632.67Z"/><path class="cls-3" d="M644,621.4c14.6,0,22.83-16,16.11-28l-284-491.71c-7.4-12.79-25.31-11.65-32.22,0L60,593.43c-7.29,12.43,2.27,28,16.11,28Z"/><polygon class="cls-4" points="579.4 565.48 140.72 565.48 360.05 185.58 579.4 565.48"/><path class="cls-5" d="M358.45,323.15v96.66c-18.42-11.71-41.52-30.52-64.07-30.52-20.57,0-32.81,9.87-32.81,34.29V540.91L287.71,524l26.14,16.89V453.12c18.45,11.74,48.36,30.9,64,30.43s32.83-7.45,32.83-34.19V323.15l-25.25-19.56Z"/></svg>