<svg id="Layer_1" data-name="Layer 1" xmlns="http://www.w3.org/2000/svg" viewBox="0 0 720 720"><defs><style>.cls-1{fill:#9c9b9b;}.cls-1,.cls-2,.cls-3,.cls-4,.cls-5{fill-rule:evenodd;}.cls-2,.cls-3{fill:#e20613;}.cls-2{stroke:#e20613;stroke-miterlimit:22.93;stroke-width:1.95px;}.cls-4{fill:#fff;}.cls-5{fill:#1d1d1b;}</style></defs><path class="cls-1" d="M644,638.65c23.21,0,36.85-25.68,25.76-44.8L385.84,102.11c-11.76-20.39-40.56-19-51.63,0l-284,491.74c-11.56,20.07,3.8,44.8,25.85,44.8Z"/><path class="cls-2" d="M644,632.67c23.21,0,36.85-25.69,25.76-44.8L385.84,96.13c-11.76-20.38-40.56-19-51.63,0l-284,491.74c-11.56,20.06,3.8,44.8,25.85,44.8Z"/><path class="cls-3" d="M644,621.4c14.59,0,22.84-16,16.1-27.95l-284-491.73c-7.38-12.8-25.3-11.67-32.22,0L60,593.45c-7.29,12.4,2.28,27.95,16.1,27.95Z"/><polygon class="cls-4" points="140.73 565.5 579.4 565.5 360.07 185.57 140.73 565.5"/><path class="cls-5" d="M474.46,546.07c0-93-60.67-176.54-147.84-206.34l-37,19.23,20.59,34.44C374,416,418.52,477.57,418.52,546.08l26.78-20.74Z"/></svg>