<svg id="Layer_1" data-name="Layer 1" xmlns="http://www.w3.org/2000/svg" viewBox="0 0 720 720"><defs><style>.cls-1{fill:#9c9b9b;}.cls-1,.cls-2,.cls-3,.cls-4,.cls-5{fill-rule:evenodd;}.cls-2,.cls-3{fill:#e20613;}.cls-2{stroke:#e20613;stroke-miterlimit:22.93;stroke-width:1.95px;}.cls-4{fill:#fff;}.cls-5{fill:#1d1d1b;}</style></defs><path class="cls-1" d="M644,638.65c23.21,0,36.85-25.68,25.76-44.81L385.84,102.11c-11.76-20.37-40.56-19-51.63,0l-284,491.73c-11.56,20.08,3.8,44.81,25.85,44.81Z"/><path class="cls-2" d="M644,632.67c23.21,0,36.85-25.68,25.76-44.81L385.84,96.13c-11.76-20.37-40.56-19-51.63,0l-284,491.73C38.69,608,54.05,632.67,76.1,632.67Z"/><path class="cls-3" d="M644,621.4c14.59,0,22.84-16,16.1-28l-284-491.71c-7.38-12.79-25.3-11.65-32.22,0L60,593.43c-7.29,12.43,2.28,28,16.1,28Z"/><polygon class="cls-4" points="140.73 565.48 579.4 565.48 360.07 185.58 140.73 565.48"/><path class="cls-5" d="M361.67,323.15v96.66c18.43-11.71,41.52-30.52,64.06-30.52,20.57,0,32.82,9.87,32.82,34.29V540.91L432.43,524l-26.14,16.89V453.12c-18.47,11.74-48.38,30.9-64.07,30.43s-32.83-7.45-32.83-34.19V323.15l25.26-19.56Z"/></svg>