<svg id="Layer_1" data-name="Layer 1" xmlns="http://www.w3.org/2000/svg" viewBox="0 0 720 720"><defs><style>.cls-1{fill:#9c9b9b;}.cls-1,.cls-2,.cls-3,.cls-4,.cls-5{fill-rule:evenodd;}.cls-2,.cls-3{fill:#e20613;}.cls-2{stroke:#e20613;stroke-miterlimit:22.93;stroke-width:1.94px;}.cls-4{fill:#fff;}.cls-5{fill:#1d1d1b;}</style></defs><path class="cls-1" d="M644,638.65c23.22,0,36.85-25.68,25.78-44.8L385.84,102.11c-11.76-20.39-40.56-19-51.64,0L50.26,593.85c-11.57,20.07,3.77,44.8,25.85,44.8Z"/><path class="cls-2" d="M644,632.67c23.21,0,36.86-25.69,25.77-44.8L385.84,96.13c-11.75-20.38-40.55-19-51.64,0L50.26,587.87c-11.56,20.06,3.77,44.8,25.86,44.8Z"/><path class="cls-3" d="M644,621.4c14.6,0,22.83-16,16.11-27.95l-284-491.73c-7.4-12.8-25.3-11.67-32.22,0L60,593.45c-7.29,12.4,2.28,27.95,16.11,27.95Z"/><polygon class="cls-4" points="579.41 565.5 140.74 565.5 360.06 185.57 579.41 565.5"/><path class="cls-5" d="M245.67,546.07c0-93,60.67-176.54,147.84-206.34l37,19.23L410,393.4C346.1,416,301.6,477.57,301.6,546.08l-26.78-20.74Z"/></svg>