<svg id="Layer_1" data-name="Layer 1" xmlns="http://www.w3.org/2000/svg" viewBox="0 0 720 720"><defs><style>.cls-1{fill:#9c9b9b;}.cls-1,.cls-2,.cls-3,.cls-4{fill-rule:evenodd;}.cls-2,.cls-3{fill:#e20613;}.cls-2{stroke:#e20613;stroke-miterlimit:22.93;stroke-width:1.95px;}.cls-4{fill:#fff;}.cls-5{fill:#1d1d1b;}</style></defs><path class="cls-1" d="M644,638.65c23.22,0,36.87-25.68,25.78-44.81l-284-491.73c-11.73-20.37-40.53-19-51.62,0l-284,491.73c-11.55,20.08,3.8,44.81,25.87,44.81Z"/><path class="cls-2" d="M644,632.67c23.22,0,36.87-25.68,25.78-44.81l-284-491.73c-11.73-20.37-40.53-19-51.62,0l-284,491.73C38.69,608,54,632.67,76.11,632.67Z"/><path class="cls-3" d="M644,621.4c14.6,0,22.84-16,16.11-28l-284-491.71c-7.39-12.79-25.29-11.65-32.21,0L60,593.43c-7.3,12.43,2.27,28,16.1,28Z"/><polygon class="cls-4" points="140.72 565.48 579.4 565.48 360.06 185.58 140.72 565.48"/><rect class="cls-5" x="294.86" y="447.57" width="157.03" height="46.66" transform="translate(844.27 97.53) rotate(90)"/><rect class="cls-5" x="267.49" y="387.89" width="242.39" height="46.66" transform="translate(372.75 976.84) rotate(-135)"/></svg>