<svg id="Layer_1" data-name="Layer 1" xmlns="http://www.w3.org/2000/svg" viewBox="0 0 720 720"><defs><style>.cls-1{fill:#9c9b9b;}.cls-1,.cls-2,.cls-3,.cls-4,.cls-5{fill-rule:evenodd;}.cls-2,.cls-3{fill:#e20613;}.cls-2{stroke:#e20613;stroke-miterlimit:22.93;stroke-width:1.95px;}.cls-4{fill:#fff;}.cls-5{fill:#1d1d1b;}</style></defs><path class="cls-1" d="M644,638.65c23.2,0,36.86-25.68,25.76-44.8L385.83,102.11c-11.76-20.39-40.56-19-51.63,0L50.25,593.85c-11.56,20.07,3.8,44.8,25.84,44.8Z"/><path class="cls-2" d="M644,632.67c23.2,0,36.86-25.69,25.76-44.8L385.83,96.13c-11.76-20.38-40.56-19-51.63,0L50.25,587.87c-11.56,20.06,3.8,44.8,25.84,44.8Z"/><path class="cls-3" d="M644,621.4c14.58,0,22.82-16,16.1-27.95l-284-491.73c-7.38-12.8-25.29-11.67-32.21,0L60,593.45c-7.3,12.4,2.26,27.95,16.08,27.95Z"/><polygon class="cls-4" points="140.73 565.5 579.4 565.5 360.07 185.57 140.73 565.5"/><path class="cls-5" d="M290.7,456.73s-11.46,15.66,1.38,26.27,31.22,22.56,17,37.78c-11.92,12.71-29.26,28-34.62,32.68H306c9.92-8.88,36.39-32.11,25.62-48.8s-33.22-26.95-33.52-34.56c-.26-6.27,6-10.62,6-10.62Z"/><path class="cls-5" d="M390,482.34s-13,14.94,4,23,41.54,17.45,35.88,28.1c-4.48,8.39-12.1,16.82-15.1,20h34.76c5.66-5.9,17.32-20.67,5.5-32.32-15.1-14.91-52.76-18.8-54.76-27.29-.42-1.79.68-5.57,3.72-7.64Z"/><polygon class="cls-5" points="278.7 427.87 291.36 431.27 288.04 443.69 316.36 451.28 319.7 438.86 389.75 457.65 386.41 470.07 414.75 477.65 418.07 465.23 430.77 468.62 444.07 418.92 435.41 416.6 429.21 379.82 324.44 351.75 300.68 380.49 292 378.16 278.7 427.87"/><polygon class="cls-4" points="421.67 412.93 314.42 384.17 331.48 363.53 417.21 386.51 421.67 412.93"/></svg>