<svg id="Layer_1" data-name="Layer 1" xmlns="http://www.w3.org/2000/svg" viewBox="0 0 720 720"><defs><style>.cls-1{fill:#9c9b9b;}.cls-1,.cls-2,.cls-3,.cls-4,.cls-5{fill-rule:evenodd;}.cls-2,.cls-3{fill:#e20613;}.cls-2{stroke:#e20613;stroke-miterlimit:22.93;stroke-width:1.94px;}.cls-4{fill:#fff;}.cls-5{fill:#1d1d1b;}</style></defs><path class="cls-1" d="M644,638.65c23.21,0,36.85-25.68,25.77-44.8l-284-491.74c-11.75-20.39-40.55-19-51.64,0L50.25,593.85c-11.56,20.07,3.79,44.8,25.87,44.8Z"/><path class="cls-2" d="M644,632.67c23.21,0,36.85-25.69,25.77-44.8l-284-491.74c-11.75-20.38-40.55-19-51.64,0L50.25,587.87c-11.56,20.06,3.79,44.8,25.87,44.8Z"/><path class="cls-3" d="M644,621.4c14.58,0,22.83-16,16.1-27.95l-284-491.73c-7.38-12.8-25.3-11.67-32.21,0L60,593.45c-7.31,12.4,2.27,27.95,16.11,27.95Z"/><polygon class="cls-4" points="140.72 565.5 579.4 565.5 360.06 185.57 140.72 565.5"/><polygon class="cls-5" points="469.73 375.55 140.72 565.5 579.39 565.5 469.73 375.55"/><path class="cls-5" d="M273.17,454.63a14.58,14.58,0,1,1-5.58,20A14.69,14.69,0,0,1,273.17,454.63Z"/><path class="cls-5" d="M233.05,458.36l178.43-103,26,21.95-20.9,12.06-.12-.22a18.39,18.39,0,0,0-31.85,18.37l.15.23-88.05,50.82-.13-.25a18.38,18.38,0,0,0-31.81,18.4l.12.24-19.36,11.18Z"/><polygon class="cls-5" points="257.87 406.73 331.28 364.35 369.08 382.48 360.2 387.59 333.38 374.55 307.48 389.51 319.82 410.92 311.09 415.96 298.75 394.55 273.17 409.33 273.5 437.66 258.18 446.51 257.87 406.73"/><path class="cls-5" d="M393.3,385.69a14.58,14.58,0,1,1-5.57,20A14.73,14.73,0,0,1,393.3,385.69Z"/></svg>