<svg id="Layer_1" data-name="Layer 1" xmlns="http://www.w3.org/2000/svg" viewBox="0 0 720 720"><defs><style>.cls-1{fill:#9c9b9b;}.cls-1,.cls-2,.cls-3,.cls-4,.cls-5{fill-rule:evenodd;}.cls-2,.cls-3{fill:#e20613;}.cls-2{stroke:#e20613;stroke-miterlimit:22.93;stroke-width:1.95px;}.cls-4{fill:#fff;}.cls-5{fill:#1d1d1b;}</style></defs><path class="cls-1" d="M644,638.65c23.22,0,36.87-25.68,25.78-44.8l-284-491.74c-11.73-20.39-40.53-19-51.62,0l-284,491.74c-11.55,20.07,3.8,44.8,25.87,44.8Z"/><path class="cls-2" d="M644,632.67c23.22,0,36.87-25.69,25.78-44.8l-284-491.74c-11.73-20.38-40.53-19-51.62,0l-284,491.74c-11.55,20.06,3.8,44.8,25.87,44.8Z"/><path class="cls-3" d="M644,621.4c14.6,0,22.84-16,16.11-27.95l-284-491.73c-7.39-12.8-25.29-11.67-32.21,0L60,593.45c-7.29,12.4,2.28,27.95,16.11,27.95Z"/><polygon class="cls-4" points="140.72 565.5 579.4 565.5 360.06 185.57 140.72 565.5"/><polygon class="cls-5" points="250.4 375.55 579.4 565.5 140.72 565.5 250.4 375.55"/><path class="cls-5" d="M302,351.52l178.43,103-6,33.53L453.54,476l.13-.23a18.38,18.38,0,0,0-31.82-18.39l-.14.24-88-50.84.14-.21A18.38,18.38,0,0,0,302,388.18l-.14.24-19.35-11.18Z"/><polygon class="cls-5" points="359.13 347.18 432.52 389.57 435.71 431.35 426.85 426.24 424.73 396.5 398.82 381.53 386.46 402.94 377.73 397.87 390.09 376.49 364.52 361.73 340.13 376.18 324.82 367.34 359.13 347.18"/><path class="cls-5" d="M325.17,384.74A14.57,14.57,0,1,1,305,390,14.71,14.71,0,0,1,325.17,384.74Z"/><path class="cls-5" d="M445.05,453.93a14.59,14.59,0,1,1-20.16,5.21A14.75,14.75,0,0,1,445.05,453.93Z"/></svg>