<svg id="Layer_1" data-name="Layer 1" xmlns="http://www.w3.org/2000/svg" viewBox="0 0 720 720"><defs><style>.cls-1{fill:#9c9b9b;}.cls-1,.cls-2,.cls-3,.cls-4{fill-rule:evenodd;}.cls-2,.cls-3{fill:#e20613;}.cls-2{stroke:#e20613;stroke-miterlimit:22.93;stroke-width:1.95px;}.cls-4{fill:#fff;}.cls-5{fill:#1d1d1b;}</style></defs><path class="cls-1" d="M644,638.65c23.2,0,36.83-25.68,25.74-44.8L385.84,102.11c-11.76-20.39-40.56-19-51.65,0L50.26,593.85c-11.56,20.07,3.79,44.8,25.86,44.8Z"/><path class="cls-2" d="M644,632.67c23.2,0,36.83-25.69,25.74-44.8L385.84,96.13c-11.76-20.38-40.56-19-51.65,0L50.26,587.87c-11.56,20.06,3.79,44.8,25.86,44.8Z"/><path class="cls-3" d="M644,621.4c14.59,0,22.82-16,16.09-27.95l-284-491.73c-7.39-12.8-25.3-11.67-32.21,0L60,593.45c-7.29,12.4,2.27,27.95,16.11,27.95Z"/><polygon class="cls-4" points="140.67 565.5 579.33 565.5 360.01 185.57 140.67 565.5"/><rect class="cls-5" x="295.24" y="449.47" width="129.51" height="46.66" transform="translate(832.8 112.8) rotate(90)"/><rect class="cls-5" x="278.52" y="381.29" width="162.96" height="46.66" transform="translate(720 809.25) rotate(180)"/></svg>