<svg id="Layer_1" data-name="Layer 1" xmlns="http://www.w3.org/2000/svg" viewBox="0 0 720 720"><defs><style>.cls-1{fill:#9c9b9b;}.cls-1,.cls-2,.cls-3,.cls-4,.cls-5{fill-rule:evenodd;}.cls-2,.cls-3{fill:#e20613;}.cls-2{stroke:#e20613;stroke-miterlimit:22.93;stroke-width:1.95px;}.cls-4{fill:#fff;}.cls-5{fill:#1d1d1b;}</style></defs><path class="cls-1" d="M76,638.65c-23.2,0-36.83-25.68-25.74-44.8L334.16,102.11c11.76-20.39,40.56-19,51.65,0L669.74,593.85c11.56,20.07-3.79,44.8-25.86,44.8Z"/><path class="cls-2" d="M76,632.67c-23.2,0-36.83-25.69-25.74-44.8L334.16,96.13c11.76-20.38,40.56-19,51.65,0L669.74,587.87c11.56,20.06-3.79,44.8-25.86,44.8Z"/><path class="cls-3" d="M76,621.4c-14.58,0-22.81-16-16.08-27.95l284-491.73c7.39-12.8,25.3-11.67,32.21,0L660,593.45c7.3,12.4-2.26,27.95-16.11,27.95Z"/><polygon class="cls-4" points="579.27 565.5 140.6 565.5 359.93 185.57 579.27 565.5"/><polygon class="cls-5" points="301.96 333.54 342.49 412.88 317.14 405.5 317.14 536.74 286.75 536.74 286.75 405.5 261.38 412.88 301.96 333.54"/><polygon class="cls-5" points="418.09 536.74 458.61 457.37 433.27 464.75 433.27 333.53 402.89 333.53 402.89 464.75 377.52 457.37 418.09 536.74"/></svg>