<svg id="Layer_1" data-name="Layer 1" xmlns="http://www.w3.org/2000/svg" viewBox="0 0 720 720"><defs><style>.cls-1{fill:#9c9b9b;}.cls-1,.cls-2,.cls-3,.cls-4,.cls-5{fill-rule:evenodd;}.cls-2,.cls-3{fill:#e20613;}.cls-2{stroke:#e20613;stroke-miterlimit:22.93;stroke-width:1.95px;}.cls-4{fill:#fff;}.cls-5{fill:#1d1d1b;}</style></defs><path class="cls-1" d="M644,638.65c23.2,0,36.84-25.68,25.76-44.81l-284-491.73c-11.74-20.37-40.54-19-51.62,0l-284,491.73C38.69,613.92,54,638.65,76.1,638.65Z"/><path class="cls-2" d="M644,632.67c23.2,0,36.84-25.68,25.76-44.81l-284-491.73c-11.74-20.37-40.54-19-51.62,0l-284,491.73C38.69,608,54,632.67,76.1,632.67Z"/><path class="cls-3" d="M644,621.4c14.58,0,22.82-16,16.1-28l-284-491.71c-7.4-12.79-25.32-11.65-32.24,0L60,593.43c-7.27,12.43,2.29,28,16.1,28Z"/><polygon class="cls-4" points="579.39 565.48 140.74 565.48 360.07 185.58 579.39 565.48"/><polygon class="cls-4" points="579.39 565.48 140.74 565.48 360.07 185.58 579.39 565.48"/><polygon class="cls-5" points="413.16 434.25 472.58 434.25 472.58 442 442.1 442 442.1 467.84 464.34 467.84 464.34 493.16 429.19 493.16 429.19 476.64 413.16 476.64 413.16 467.84 413.16 442 413.16 434.25"/><path class="cls-5" d="M301,384.65c3-7.28,13-27.39,29.48-27.39,20.16,0,20.16,16.53,29.46,16.53s14.18-13.48,23.36-13.48,21.6,21.74,30.89,21.74,5.69-8.77,16-8.77,17,10.85,17,17.05-7.76,17.57-14.48,17.57-12.39-11.37-17.06-11.37-11.88,11.37-25.31,11.37-16.54-16.54-31.52-16.54-16,16.54-30.48,16.54c-8.5,0-16.8-7.12-22.22-13v40.37H345v-5.17h63v44.45H276.23v.52l-17-20.17,17-20.14v.51h19.12V384.65Z"/><path class="cls-5" d="M232.32,522.11h39.29a10.87,10.87,0,0,1,0-19.65h-13V498h7.24V480.76H425.06V498h53.22v4.51H458.1a10.85,10.85,0,0,1,0,19.65h46.54v6.72H232.32Z"/><path class="cls-4" d="M416.13,502.46a13.42,13.42,0,0,1,0,19.65h32.71a10.87,10.87,0,0,1,0-19.65Z"/><path class="cls-4" d="M370.65,502.46a13.44,13.44,0,0,1,0,19.65h27.14a13.42,13.42,0,0,1,0-19.65Z"/><path class="cls-4" d="M306.85,522.11a13.46,13.46,0,0,1,0-19.65h-26a10.85,10.85,0,0,1,0,19.65Z"/><path class="cls-4" d="M325.19,502.46a13.42,13.42,0,0,1,0,19.65h27.14a13.46,13.46,0,0,1,0-19.65Z"/></svg>