<svg id="Layer_1" data-name="Layer 1" xmlns="http://www.w3.org/2000/svg" viewBox="0 0 720 720"><defs><style>.cls-1{fill:#9c9b9b;}.cls-1,.cls-2,.cls-3,.cls-4,.cls-5{fill-rule:evenodd;}.cls-2,.cls-3{fill:#e20613;}.cls-2{stroke:#e20613;stroke-miterlimit:22.93;stroke-width:1.95px;}.cls-4{fill:#fff;}.cls-5{fill:#1d1d1b;}</style></defs><path class="cls-1" d="M644,638.65c23.22,0,36.86-25.67,25.76-44.81L385.83,102.11c-11.74-20.37-40.55-19-51.63,0l-284,491.73C38.7,613.93,54,638.65,76.12,638.65Z"/><path class="cls-2" d="M644,632.66c23.22,0,36.86-25.67,25.76-44.81L385.83,96.14c-11.74-20.38-40.55-19-51.63,0l-284,491.71C38.7,608,54,632.66,76.12,632.66Z"/><path class="cls-3" d="M644,621.4c14.58,0,22.83-16,16.11-28L376.07,101.73c-7.39-12.81-25.3-11.67-32.21,0L60,593.44c-7.28,12.41,2.29,28,16.12,28Z"/><polygon class="cls-4" points="140.72 565.48 579.39 565.48 360.06 185.56 140.72 565.48"/><path class="cls-5" d="M500.31,547.22V503.66c-40.22,0-35.75-38.62-68.86-38.62-33.35,0-30.69,38.62-73,38.62-42.8,0-38.14-38.62-70.94-38.62s-27.27,38.62-67.82,38.62v43.56Z"/></svg>