<svg id="Layer_1" data-name="Layer 1" xmlns="http://www.w3.org/2000/svg" viewBox="0 0 720 720"><defs><style>.cls-1{fill:#04613d;}.cls-2{fill:none;stroke:#fff;stroke-miterlimit:10;stroke-width:6.19px;}.cls-3,.cls-4{fill:#fff;}.cls-4{font-size:31.11px;font-family:Lato-Bold, Lato;font-weight:700;}.cls-5{letter-spacing:-0.01em;}.cls-6{fill:#ffec00;font-family:Athelas-Bold, Athelas;}.cls-7{letter-spacing:-0.01em;}</style></defs><rect class="cls-1" x="9.06" y="95.56" width="701.89" height="528.88"/><rect class="cls-2" x="22.41" y="110.8" width="675.18" height="498.39"/><path class="cls-3" d="M575.45,382l-11-15.35H453.17a94.64,94.64,0,0,0-77.82-77.82V173.54l-15.35-11-15.35,11V288.79a94.61,94.61,0,0,0-78.75,85.5H83.15l-11,15.35,11,15.35H268.41a94.71,94.71,0,0,0,76.24,70.14V584.22l15.35,11,15.35-11V475.14a93.73,93.73,0,0,0,31.23-11.08l-18.32-18.32a70,70,0,1,1,24.84-18.58l17.47,17.47a94.19,94.19,0,0,0,22.59-47.32H564.47Z"/><text class="cls-4" transform="translate(269.58 151.99)"><tspan class="cls-5">N</tspan><tspan x="23.57" y="0">akuru </tspan><tspan class="cls-6" x="110.24" y="0">A 104</tspan></text><text class="cls-4" transform="translate(495.9 440.21)"><tspan class="cls-7">T</tspan><tspan x="18.39" y="0">hika </tspan><tspan class="cls-6"><tspan x="15.49" y="27.45">(A2)</tspan></tspan></text></svg>