<svg id="Layer_1" data-name="Layer 1" xmlns="http://www.w3.org/2000/svg" viewBox="0 0 720 720"><defs><style>.cls-1{fill:#04613d;}.cls-2{fill:none;stroke:#fff;stroke-miterlimit:10;stroke-width:8.27px;}.cls-3,.cls-4{fill:#fff;}.cls-3{fill-rule:evenodd;}.cls-4{font-size:30.55px;font-family:Lato-Bold, Lato;font-weight:700;}.cls-5{letter-spacing:-0.01em;}.cls-6{letter-spacing:0em;}.cls-7{letter-spacing:0em;}.cls-8{fill:#ffec00;font-family:Athelas-Bold, Athelas;}.cls-9{letter-spacing:0em;}.cls-10{letter-spacing:-0.01em;}</style></defs><rect class="cls-1" x="15.37" y="122.59" width="689.25" height="474.81"/><rect class="cls-2" x="28.49" y="137.39" width="663.02" height="445.21"/><polygon class="cls-3" points="657.38 327.49 377.34 326.23 377.34 219.62 355.6 205.8 332.99 218.37 332.99 425.65 78.48 425.65 63 440.73 78.48 455.8 331.73 455.8 331.73 488.46 377.34 488.46 377.34 354.61 657.38 354.61 669.58 341.48 657.38 327.49"/><text class="cls-4" transform="translate(403.06 398.8)"><tspan class="cls-5">O</tspan><tspan x="24.44" y="0">l </tspan><tspan class="cls-6" x="39.46" y="0">K</tspan><tspan class="cls-7" x="60.35" y="0">alou </tspan><tspan class="cls-8" x="125.66" y="0">C09</tspan></text><text class="cls-4" transform="translate(84.6 488.46)"><tspan class="cls-9">E</tspan><tspan x="17.51" y="0">leme</tspan><tspan class="cls-10" x="83.31" y="0">n</tspan><tspan x="100.33" y="0">taita </tspan><tspan class="cls-8" x="169.25" y="0">D320</tspan></text></svg>