<svg id="Layer_1" data-name="Layer 1" xmlns="http://www.w3.org/2000/svg" viewBox="0 0 720 720"><defs><style>.cls-1{fill:#04613d;}.cls-2{fill:none;stroke:#fff;stroke-miterlimit:10;stroke-width:4.89px;}.cls-3{fill:#fff;}</style></defs><rect class="cls-1" x="28.33" y="162.36" width="663.35" height="395.28"/><rect class="cls-2" x="40.95" y="173.76" width="638.1" height="372.49"/><path class="cls-3" d="M619.1,354.76H478.33a73.6,73.6,0,0,0-72-59h-1.87V224.21h-29v71.57H358.47V224.21h-29v71.57h-1.87a73.6,73.6,0,0,0-72,59H100.9L90.52,369.27l10.38,14.51H255.54a73.6,73.6,0,0,0,72,59h24.85v53h29v-53h21.34V422h-75.2a52.73,52.73,0,1,1,0-105.46h78.71A52.72,52.72,0,0,1,457,383.78H619.1l10.38-14.51Z"/></svg>