<svg id="Layer_1" data-name="Layer 1" xmlns="http://www.w3.org/2000/svg" viewBox="0 0 720 720"><defs><style>.cls-1{fill:#9c9b9b;}.cls-1,.cls-2,.cls-3{fill-rule:evenodd;}.cls-2{fill:#ffec00;}.cls-3{fill:#1d1d1b;}</style></defs><path class="cls-1" d="M702.05,109.2V311.78a18,18,0,0,1-17.89,17.88H35.83A17.93,17.93,0,0,1,18,311.78V109.2A17.92,17.92,0,0,1,35.83,91.32H684.16A17.94,17.94,0,0,1,702.05,109.2Z"/><path class="cls-2" d="M702.05,102.33V304.91a18,18,0,0,1-17.89,17.88H35.83A17.93,17.93,0,0,1,18,304.91V102.33A17.92,17.92,0,0,1,35.83,84.45H684.16A17.94,17.94,0,0,1,702.05,102.33Z"/><path class="cls-3" d="M700.39,304.91h0V102.33h3.31V304.91Zm-16.23,19.54,1-.05,1-.06,1-.13,1-.18.95-.19.92-.26.92-.33.88-.35.86-.39.84-.44.82-.46.8-.52.77-.55.74-.56.7-.64.68-.63.65-.67.61-.72.58-.75.54-.74.53-.8.47-.81.42-.85.41-.87.34-.88.31-.91.26-.92.22-1,.17-1,.12-.95.08-1,0-1h-3.31l0,.85-.07.8-.1.84-.14.78-.19.76-.21.79-.27.74-.28.74-.34.72-.34.7-.41.67-.41.66-.46.63-.48.63-.51.59-.55.55-.55.54-.59.5-.62.51-.64.45-.66.42-.68.39-.69.35-.72.33-.75.3-.74.24-.76.22-.79.19-.79.14-.82.11-.81.06-.84,0v3.32ZM35.83,321.13H684.16v3.32H35.83v-3.32ZM16.3,304.91l0,1,.08,1,.12.95.17,1,.22,1,.26.92.31.91.36.88.39.87.41.85.48.81.53.8.54.74.57.75.62.72.64.67.69.63.71.64.73.56.76.55.8.52.81.46.84.44.88.39.88.35.91.33.93.26.94.19,1,.18,1,.13,1,.06,1,.05v-3.32l-.83,0-.82-.06-.82-.11-.79-.14-.78-.19-.76-.22-.76-.24-.74-.3-.7-.33-.71-.35-.68-.39-.65-.42-.65-.45-.61-.51-.6-.5-.55-.54-.54-.55-.51-.59-.49-.63-.46-.63L22,313.3l-.38-.67-.37-.7-.33-.72-.29-.74-.26-.74-.22-.79-.18-.76-.13-.78-.11-.84-.07-.8,0-.85Zm3.31-202.58h0V304.91H16.3V102.33ZM35.83,82.81v0l-1,0-1,.07-1,.13-1,.18L31,83.4l-.93.29-.91.3-.88.35-.88.39-.84.44-.81.46-.8.52-.76.55-.73.58-.71.61-.69.64-.64.7-.62.69-.57.74-.54.77-.53.78-.48.83-.41.85-.39.85-.36.9-.31.91-.26.92-.22.93-.17,1-.12,1-.08,1,0,1h3.31l0-.83.07-.81.11-.82.13-.79.18-.78.22-.77.26-.76.29-.72.33-.72.37-.72.38-.68.41-.63.46-.65.49-.61.51-.59.55-.57.54-.54.6-.51.61-.5.65-.43.65-.44.68-.39.71-.35.7-.33.74-.28.76-.26.76-.22.78-.18.79-.15.82-.11.82-.06h.83V82.81Zm648.33,3.3H35.83v-3.3H684.16v3.3Zm19.54,16.22,0-1-.08-1-.12-1-.17-1-.22-.93-.26-.92-.31-.91-.34-.9-.41-.85-.42-.85-.47-.83-.53-.78-.54-.77-.58-.74-.61-.69-.64-.7-.69-.64-.7-.61-.74-.58-.77-.55-.8-.52-.82-.46-.84-.44-.86-.39-.88-.35-.92-.3L689,83.4l-.95-.19-1-.18-1-.13-1-.07-1,0v3.3l.84,0,.81.06.82.11.79.15.79.18.76.22.74.26.75.28.72.33.69.35.68.39.66.44.64.43.62.5.59.51.55.54.55.57.51.59.48.61.46.65.41.63.41.7.34.7.34.72.28.72.27.76.21.77.19.78.14.79.1.82.07.81,0,.83Z"/><path class="cls-3" d="M263.73,204.93,184.59,91.1h-106L157.7,204.93,80.36,316.16H186.41l77.32-111.23Zm431.92-54.3V259.25l-39.58,56.91H550l77.32-111.23L548.18,91.1H654.24l41.41,59.53ZM421.24,316.16H315.18l77.34-111.23L313.37,91.1H419.42l79.14,113.83Z"/><path class="cls-1" d="M18,416.75V619.33a18,18,0,0,0,17.89,17.88H684.17A17.93,17.93,0,0,0,702,619.33V416.75a17.93,17.93,0,0,0-17.87-17.88H35.84A18,18,0,0,0,18,416.75Z"/><path class="cls-2" d="M18,409.88V612.46a18,18,0,0,0,17.89,17.88H684.17A17.93,17.93,0,0,0,702,612.46V409.88A17.92,17.92,0,0,0,684.17,392H35.84A17.94,17.94,0,0,0,18,409.88Z"/><path class="cls-3" d="M19.61,612.46H16.3V409.88h3.31V612.46ZM35.84,632v-3.32l-.84,0-.81-.06-.82-.11-.79-.14-.79-.19-.76-.22-.74-.24-.75-.3-.72-.33-.69-.35-.68-.39-.66-.42-.64-.45-.62-.51-.59-.5-.55-.54-.55-.55-.51-.59-.48-.63-.46-.63-.41-.66-.41-.67-.34-.7-.34-.72-.28-.74-.27-.74-.21-.79-.19-.76L19.8,615l-.1-.84-.07-.8,0-.85H16.3l0,1,.08,1,.12.95.17,1,.22,1,.26.92.31.91.34.88.41.87.42.85.47.81.53.8.54.74.58.75.61.72.65.67.68.63.7.64.74.56.77.55.8.52.82.46.84.44.86.39.88.35.92.33.92.26,1,.19,1,.18,1,.13,1,.06,1,0Zm648.33-3.32V632H35.84v-3.32Zm19.53-16.22h-3.31l0,.85-.07.8-.11.84-.13.78-.18.76-.22.79-.26.74-.29.74-.33.72-.37.7-.38.67-.41.66-.46.63-.49.63-.51.59-.54.55-.55.54-.6.5-.61.51-.65.45-.65.42-.68.39-.71.35-.7.33-.74.3-.76.24-.76.22-.78.19-.79.14-.82.11-.82.06-.83,0V632l1,0,1-.06,1-.13,1-.18.94-.19.93-.26.91-.33.88-.35.88-.39.84-.44.81-.46.8-.52.76-.55.73-.56.71-.64.69-.63.64-.67.62-.72.57-.75.54-.74.53-.8.48-.81.41-.85.39-.87.36-.88.31-.91.26-.92.22-1,.17-1,.12-.95.08-1,0-1Zm-3.31-202.58h3.31V612.46h-3.31V409.88Zm-16.22-19.52v3.32H685l.82.06.82.11.79.15.78.18.76.22.76.26.74.28.7.33.71.35.68.39.65.44.65.43.61.5.6.51.54.54.55.57.51.59.49.61.46.65.41.63.38.68.37.72.33.72.29.72.26.76.22.77.18.78.13.79.11.82.07.81,0,.83h3.31l0-1-.08-1-.12-1-.17-1-.22-.93-.26-.92-.31-.91-.36-.9-.39-.85-.41-.85-.48-.83-.53-.78-.54-.77-.57-.74-.62-.69-.64-.7-.69-.64-.71-.61-.73-.58-.76-.55-.8-.52-.81-.46-.84-.44-.88-.39-.88-.35-.91-.3L689,391l-.94-.19-1-.18-1-.13-1-.07-1,0v0Zm-648.33,3.3v-3.3H684.17v3.3ZM19.61,409.88l0-.83.07-.81.1-.82.14-.79.19-.78.21-.77.27-.76.28-.72.34-.72.34-.7.41-.7.41-.63.46-.65.48-.61.51-.59.55-.57.55-.54.59-.51.62-.5.64-.43.66-.44.68-.39.69-.35.72-.33.75-.28.74-.26.76-.22.79-.18.79-.15.82-.11.81-.06.84,0v-3.3l-1,0-1,.07-1,.13-1,.18L31,391l-.92.29-.92.3-.88.35-.86.39-.84.44-.82.46-.8.52-.77.55-.74.58-.7.61-.69.64-.64.7-.61.69-.58.74-.54.77-.53.78-.47.83-.42.85-.41.85-.34.9-.31.91-.26.92-.22.93-.17,1-.12,1-.08,1,0,1Z"/><path class="cls-3" d="M456.27,512.48l77.32,111.23h106L562.3,512.48l79.16-113.83H535.41L456.27,512.48ZM24.35,458.18l41.41-59.53H171.82L92.67,512.48,170,623.71H63.93L24.35,566.8V458.18Zm197.09,54.3,79.14-113.83H406.63L327.48,512.48l77.34,111.23H298.76Z"/></svg>