<svg id="Layer_1" data-name="Layer 1" xmlns="http://www.w3.org/2000/svg" viewBox="0 0 720 720"><defs><style>.cls-1{fill:#9c9b9b;}.cls-1,.cls-2,.cls-3,.cls-4{fill-rule:evenodd;}.cls-2{fill:#008ad1;}.cls-3{fill:#1d1d1b;}.cls-4,.cls-5{fill:#fff;}</style></defs><path class="cls-1" d="M89,689.77V39.64A13.64,13.64,0,0,1,102.57,26H617.43A13.65,13.65,0,0,1,631,39.64V689.77a13.66,13.66,0,0,1-13.55,13.69H102.57A13.65,13.65,0,0,1,89,689.77Z"/><path class="cls-2" d="M89,682.3V32.18a13.64,13.64,0,0,1,13.55-13.69H617.43A13.65,13.65,0,0,1,631,32.18V682.3A13.65,13.65,0,0,1,617.43,696H102.57A13.64,13.64,0,0,1,89,682.3Z"/><path class="cls-3" d="M91,32.18h0V682.3H87.08V32.18Zm11.61-15.64-.79,0-.78.07-.79.11-.75.13L98.7,17l-.73.22-.73.24-.7.29-.69.3-.66.35-.66.39-.61.4-.61.43-.6.49-.56.48-.53.52-.51.54-.5.57-.45.59-.43.61-.42.64-.36.65-.34.66-.32.7-.27.72-.25.72-.2.74-.18.76-.13.74-.11.81-.05.79,0,.79H91v-.62L91,31l.08-.57.09-.59.12-.59.17-.55.18-.54.21-.53.23-.5.26-.52.28-.51.3-.46.34-.48.34-.43.36-.42.38-.41.41-.39.43-.38.43-.34.44-.33.49-.31.48-.28.51-.24.51-.26.52-.22.54-.18.56-.15.54-.13.58-.11.58-.07.57,0h.61V16.54Zm514.86,3.91H102.57V16.54H617.43v3.91Zm15.49,11.73,0-.79,0-.79-.11-.81-.13-.76-.18-.74-.21-.72-.24-.74-.28-.72-.31-.68-.34-.68-.36-.65-.42-.64-.43-.61-.45-.59-.5-.59-.51-.52-.53-.52-.56-.48-.59-.49-.62-.43-.61-.4-.66-.39-.68-.33-.66-.32-.71-.29-.73-.24L621.3,17l-.76-.17-.75-.13-.79-.11-.78-.07-.79,0v3.91H618l.57,0,.58.07.58.11.54.13.57.15.52.2.52.2.53.24.5.26.48.28.49.31.43.33.44.34.42.38.41.39.39.41.37.42.33.43.34.48.29.46.3.51.25.5.23.52.21.53.18.54.15.55.14.59.09.59L629,31l0,.58,0,.62ZM629,682.3h0V32.18h3.88V682.3Zm-11.61,15.59.79,0,.78-.07.79-.08.75-.14.76-.19.73-.2.73-.24.71-.31.66-.3.67-.35.67-.37.62-.42.61-.43.59-.46.54-.5.54-.51.52-.54.5-.57.45-.59.43-.61.42-.63.36-.66.34-.65.31-.73.28-.67.24-.74.21-.74.18-.75.13-.76.11-.79,0-.78,0-.79H629l0,.61,0,.59-.08.57-.09.59-.14.57-.15.54-.18.52-.21.55-.23.53-.25.5-.3.5-.29.46-.33.48-.34.43-.38.42-.38.41-.39.4-.44.37-.44.35-.45.33-.47.3-.47.28-.51.27-.53.24-.52.19-.52.18-.57.17-.54.13-.58.09-.58.09-.57,0h-.61v3.89ZM102.57,694H617.43v3.89H102.57V694ZM87.08,682.3l0,.79.05.78.11.79.13.76.18.75.2.76.25.7.27.69.32.73.34.65.36.66.42.63.44.61.44.59.5.57.51.54.54.51.55.5.6.46.6.43.62.42.66.37.66.35.69.3.7.29.73.26.73.2.76.19.75.14.79.08.78.07.79,0V694H102l-.57,0-.58-.09-.58-.09-.54-.13-.56-.17-.54-.18-.52-.19-.51-.26L97,692.6l-.47-.28-.48-.3-.45-.33-.43-.35-.44-.37-.4-.4-.38-.39-.36-.44-.35-.43-.33-.48-.3-.46-.28-.5-.26-.5-.23-.53-.21-.52-.18-.55-.17-.54-.12-.57-.09-.59L91,683.5l-.06-.59v-.61Z"/><path class="cls-4" d="M98.24,673.41V41a13.27,13.27,0,0,1,13.12-13.32H608.65A13.26,13.26,0,0,1,621.75,41V673.41a13.26,13.26,0,0,1-13.1,13.32H111.36A13.27,13.27,0,0,1,98.24,673.41Z"/><path class="cls-2" d="M107.49,664.55V49.91A12.8,12.8,0,0,1,120.11,37H599.89a12.79,12.79,0,0,1,12.62,12.93V664.55a12.8,12.8,0,0,1-12.62,12.92H120.11A12.81,12.81,0,0,1,107.49,664.55Z"/><rect class="cls-5" x="150.61" y="78.83" width="418.79" height="418.79"/><path class="cls-3" d="M367.52,275.54h4.73V215.25H275.71V179.49h96.54v-16H275.71V127.68l65.93-19.76H444.29v55.54H399.56v16h44.73v35.76H399.56v60.29h4.7a9.92,9.92,0,0,1,9.89,9.89V458.7a9.92,9.92,0,0,1-9.89,9.89H367.52a9.93,9.93,0,0,1-9.88-9.89V285.43A9.93,9.93,0,0,1,367.52,275.54Z"/></svg>