<svg id="Layer_1" data-name="Layer 1" xmlns="http://www.w3.org/2000/svg" viewBox="0 0 720 720"><defs><style>.cls-1{fill:#9c9b9b;}.cls-1,.cls-2,.cls-3,.cls-4{fill-rule:evenodd;}.cls-2,.cls-5{fill:#fff;}.cls-3{fill:#008ad1;}.cls-4{fill:#1d1d1b;}</style></defs><path class="cls-1" d="M705.05,262.12V466.48a18.09,18.09,0,0,1-18,18H33a18.09,18.09,0,0,1-18-18V262.12a18.09,18.09,0,0,1,18-18H687A18.09,18.09,0,0,1,705.05,262.12Z"/><path class="cls-2" d="M705.05,255.2V459.55a18.1,18.1,0,0,1-18,18H33a18.1,18.1,0,0,1-18-18V255.2a18.1,18.1,0,0,1,18-18H687A18.09,18.09,0,0,1,705.05,255.2Z"/><path class="cls-3" d="M692.49,265.61V449.14c0,8.91-7.83,16.2-17.39,16.2H44.89c-9.54,0-17.38-7.29-17.38-16.2V265.61c0-8.92,7.84-16.2,17.38-16.2H675.1C684.66,249.41,692.49,256.69,692.49,265.61Z"/><path class="cls-4" d="M703.38,459.55h0V255.2h3.34V459.55ZM687,479.26l1-.05,1-.06,1-.13,1-.18.94-.2,1-.26.91-.33.9-.35.87-.4.85-.44.83-.46.8-.53.78-.55.75-.57.69-.64.71-.64.64-.68.62-.73.58-.72.56-.77.52-.81.47-.82.44-.86.4-.88.35-.88.31-.92.26-.92.22-1,.18-1,.12-1,.08-1,0-1h-3.34l0,.86-.06.81-.1.84-.14.79-.19.77-.22.79-.27.75-.28.75-.34.72-.35.7L701,468l-.42.66-.45.63-.49.62-.52.62-.54.55-.57.55-.6.5-.62.51-.64.46-.67.42-.68.39-.71.36-.72.33-.75.3-.76.25-.77.22-.79.19-.8.14-.83.11-.83.06-.83,0v3.35ZM33,475.91H687v3.35H33v-3.35ZM13.28,459.55l0,1,.08,1,.12,1,.18,1,.22,1,.26.92.31.92.36.88.4.88.43.86.48.82.51.81.56.75.58.74.62.73.66.68.69.64.71.64.74.57.77.55.8.53.83.46.85.44.86.4.91.35.91.33.93.26,1,.2,1,.18,1,.13,1,.06,1,.05v-3.35l-.84,0-.82-.06-.83-.11-.8-.14-.78-.19-.77-.22-.76-.25-.75-.3-.72-.33-.71-.36-.68-.39-.66-.42-.65-.46-.62-.51-.6-.5-.56-.55-.55-.55-.52-.6-.49-.64-.45-.63L19,468l-.4-.69-.36-.7-.33-.72-.3-.75-.25-.75-.23-.79-.18-.77-.14-.79-.11-.84-.06-.81,0-.86ZM16.63,255.2h0V459.55H13.28V255.2ZM33,235.49l-1,0-1,.06-1,.14-1,.17-1,.2-.93.29-.91.31-.91.35-.86.39-.85.44-.83.46-.8.53-.77.55-.74.6-.71.61-.7.64-.65.71-.62.7-.58.75-.56.77-.51.79-.48.83-.43.86-.4.86-.36.9-.31.93-.26.92-.22,1-.18,1-.12,1-.08,1,0,1h3.35l0-.84.06-.82.11-.83.14-.79.18-.8.23-.77.25-.77.3-.72.33-.73.36-.7.4-.7.42-.66.45-.64.49-.62.52-.59.55-.57.56-.55.6-.51.62-.51.65-.44.66-.44.68-.39.71-.35.72-.33.75-.29.76-.26.77-.22.78-.18.8-.15.83-.11.82-.07H33v-3.36Zm654,3.36H33v-3.36H687v3.36Zm19.72,16.35,0-1-.08-1-.12-1-.18-1-.22-1-.26-.92-.31-.93-.35-.9-.4-.86-.44-.86-.47-.83-.52-.79-.56-.77-.58-.75-.62-.7-.64-.71-.71-.64-.69-.61-.75-.6-.78-.55-.8-.53-.83-.46-.85-.44-.87-.39-.9-.35-.91-.31-1-.29-.94-.2-1-.17-1-.14-1-.06-1,0v3.36h.83l.83.07.83.11.8.15.79.18.77.22.76.26.75.29.72.33.71.35.68.39.67.44.64.44.62.51.6.51.56.55.55.57.52.59.49.62.45.64.42.66.41.7.35.7.34.73.28.72.27.77.22.77.19.8.14.79.1.83.06.82,0,.84Z"/><path class="cls-5" d="M221.87,371.47a28.29,28.29,0,1,0,28.18,28.22A28.24,28.24,0,0,0,221.87,371.47Zm0,40.81a12.52,12.52,0,1,1,12.47-12.55A12.52,12.52,0,0,1,221.83,412.28Z"/><path class="cls-5" d="M459.41,371.47a28.29,28.29,0,1,0,28.2,28.22A28.25,28.25,0,0,0,459.41,371.47Zm-.05,40.81a12.52,12.52,0,1,1,12.49-12.55A12.53,12.53,0,0,1,459.36,412.28Z"/><path class="cls-5" d="M549.18,286.7H167.68l-11.27,76.73v38.83H186.1c0-.86-.07-1.69-.07-2.55a35.77,35.77,0,0,1,71.53,0c0,.86,0,1.7-.08,2.55H423.67c-.06-.86-.08-1.69-.08-2.55a35.76,35.76,0,0,1,71.51,0c0,.86,0,1.7-.09,2.55h68.58v-52ZM200.3,342.77h-33l7.59-46.4,25.44.05Zm67.57,0H208.12V296.43l59.75.09Zm67.58,0H275.72V296.54l59.73.11Zm67.59,0H343.3V296.65l59.74.1Zm67.58,0H410.87v-46l59.75.11Zm7.82,0V296.88l65.11.11,9.9,45.78Z"/></svg>