<svg id="Layer_1" data-name="Layer 1" xmlns="http://www.w3.org/2000/svg" viewBox="0 0 720 720"><defs><style>.cls-1{fill:#9c9b9b;}.cls-1,.cls-2,.cls-3,.cls-4{fill-rule:evenodd;}.cls-2{fill:#008ad1;}.cls-3{fill:#1d1d1b;}.cls-4,.cls-5{fill:#fff;}</style></defs><path class="cls-1" d="M89,689.76V39.65A13.65,13.65,0,0,1,102.59,26H617.45A13.63,13.63,0,0,1,631,39.65V689.76a13.65,13.65,0,0,1-13.54,13.69H102.59A13.67,13.67,0,0,1,89,689.76Z"/><path class="cls-2" d="M89,682.29V32.14A13.64,13.64,0,0,1,102.59,18.5H617.45A13.62,13.62,0,0,1,631,32.14V682.29A13.65,13.65,0,0,1,617.45,696H102.59A13.67,13.67,0,0,1,89,682.29Z"/><path class="cls-3" d="M91,32.14h0V682.29H87.07V32.14Zm11.64-15.59-.79,0-.8.06-.77.11-.76.13-.74.18-.75.19-.72.26-.7.27-.69.32-.66.35-.65.37-.64.42-.61.44-.59.46-.54.48-.55.52-.52.54-.49.57-.45.59-.44.61-.42.64-.37.65-.32.66-.33.7-.26.7-.26.72-.2.76-.18.74-.13.76-.11.79-.06.79,0,.78H91l0-.61,0-.59.06-.57.11-.59.13-.56.18-.55.17-.54.22-.53.22-.52.26-.5.28-.51.31-.46.33-.45.35-.46.35-.44.39-.39.41-.39.42-.38.44-.34.45-.33.46-.29.51-.3.5-.24.5-.24.55-.22.52-.18.55-.15.56-.13.57-.11.57-.09.59,0,.61,0V16.55Zm514.86,3.89H102.59V16.55H617.45v3.89Zm15.48,11.7,0-.78-.06-.79-.11-.79-.13-.74-.16-.76-.22-.76L632,26.8l-.29-.7-.3-.7-.35-.66-.37-.65-.42-.64-.41-.61-.46-.59-.48-.57-.53-.54-.54-.52-.57-.48-.57-.46-.61-.44-.63-.42-.64-.37-.67-.35-.68-.32-.7-.27-.74-.26-.72-.19-.76-.18-.75-.13-.78-.11-.79-.06-.79,0v3.89l.61,0,.57,0,.57.09.59.11.55.13.54.15.55.18.52.22.5.24.51.24.5.3.46.29.46.33.43.34.44.38.39.39.37.39.37.44.35.43.33.48.31.46.26.51.26.5.24.52.22.53.17.54.16.55.13.56.11.59.06.57,0,.59,0,.61Zm-3.88,650.15h0V32.14h3.88V682.29Zm-11.6,15.61.79,0,.79-.07.78-.1.75-.14.76-.17.74-.22.7-.24.72-.28.7-.33.65-.33.64-.39.63-.4.61-.45.59-.46.55-.48.54-.5.53-.57.48-.57.46-.59.41-.61.42-.63.37-.66.35-.65.3-.7.29-.72.23-.7.22-.76.16-.75.13-.76.11-.79.06-.78,0-.79h-3.88l0,.61,0,.59-.06.57-.11.59-.13.57-.16.54-.17.55-.22.52-.24.53-.26.5-.26.5-.31.48-.33.46-.35.43-.37.44-.37.39-.39.4-.44.37-.46.35-.43.33-.46.3-.5.29-.51.26-.5.24-.52.19-.55.2-.54.15-.55.13-.59.11-.57.07-.57,0-.61,0v3.89ZM102.59,694H617.45v3.89H102.59V694ZM87.07,682.29l0,.79.06.78.11.79.13.76.18.75.2.76.26.7.26.72.33.7.32.65.37.66.42.65.44.61.45.57.49.57.52.57.55.5.54.48.59.48.61.43.64.4.65.39.66.33.69.33.7.28.72.24.72.22.77.17.76.14.77.1.8.07.79,0V694l-.61,0-.59,0-.57-.07-.57-.11-.54-.13-.57-.15-.54-.2-.53-.19-.48-.24-.52-.26-.51-.29-.46-.3-.45-.33-.44-.35-.42-.37-.41-.4-.39-.39-.35-.44-.35-.45-.33-.46-.31-.46-.28-.5-.26-.5-.22-.53-.22-.52-.17-.55-.18-.54-.13-.57-.11-.59-.06-.57,0-.59,0-.61Z"/><path class="cls-4" d="M98.27,673.4V41a13.24,13.24,0,0,1,13.08-13.3H608.68A13.26,13.26,0,0,1,621.76,41V673.4a13.25,13.25,0,0,1-13.08,13.32H111.35A13.23,13.23,0,0,1,98.27,673.4Z"/><path class="cls-2" d="M107.48,664.56V49.9A12.83,12.83,0,0,1,120.12,37H599.88A12.81,12.81,0,0,1,612.52,49.9V664.56a12.84,12.84,0,0,1-12.64,12.93H120.12A12.85,12.85,0,0,1,107.48,664.56Z"/><rect class="cls-5" x="150.6" y="78.85" width="418.8" height="418.77"/><path class="cls-3" d="M383.64,430.46a32.32,32.32,0,0,1-13.94,26.59H522.28v33.12H197.74V457.05h21.07V430a22.22,22.22,0,0,1-17.62-21.66V305a22.19,22.19,0,0,1,22.16-22.12H496.67A22.18,22.18,0,0,1,518.81,305V408.32a22.2,22.2,0,0,1-22.14,22.14Z"/><polygon class="cls-3" points="245.6 250.39 272.52 250.39 358.05 118.58 445.71 250.39 474.42 250.39 474.42 266.99 245.6 266.99 245.6 250.39"/><path class="cls-4" d="M333.09,250.39h54.13L360.67,202.6l-27.58,47.79Zm-69,64.41h93.49c4.17,0,7.58,4.24,7.58,9.42v43.84c0,5.19-3.41,9.41-7.58,9.41H264.12c-4.17,0-7.58-4.22-7.58-9.41V324.22c0-5.18,3.41-9.42,7.58-9.42Zm124.54,0h93.49c4.17,0,7.58,4.24,7.58,9.42v43.84c0,5.19-3.41,9.41-7.58,9.41H388.66c-4.17,0-7.58-4.22-7.58-9.41V324.22c0-5.18,3.41-9.42,7.58-9.42Zm-37.34,98.63a17,17,0,1,1-17,17,17,17,0,0,1,17-17Zm-18.38,43.62A32.33,32.33,0,0,1,319,430.46H235.38v26.59Z"/></svg>