<svg id="Layer_1" data-name="Layer 1" xmlns="http://www.w3.org/2000/svg" viewBox="0 0 720 720"><defs><style>.cls-1{fill:#9c9b9b;}.cls-1,.cls-2,.cls-3,.cls-4{fill-rule:evenodd;}.cls-2{fill:#008ad1;}.cls-3{fill:#1d1d1b;}.cls-4,.cls-5{fill:#fff;}</style></defs><path class="cls-1" d="M89,689.77V39.64A13.66,13.66,0,0,1,102.56,26H617.43A13.66,13.66,0,0,1,631,39.64V689.77a13.66,13.66,0,0,1-13.55,13.69H102.56A13.66,13.66,0,0,1,89,689.77Z"/><path class="cls-2" d="M89,682.3V32.18a13.66,13.66,0,0,1,13.55-13.69H617.43A13.66,13.66,0,0,1,631,32.18V682.3A13.65,13.65,0,0,1,617.43,696H102.56A13.65,13.65,0,0,1,89,682.3Z"/><path class="cls-3" d="M91,32.18h0V682.3H87.07V32.18Zm11.6-15.64-.78,0-.79.07-.79.11-.75.13L98.7,17l-.73.22-.72.24-.72.29-.68.32-.67.33-.65.39-.61.4-.63.43-.58.49-.56.48-.54.52-.5.52-.5.59-.46.59-.43.61-.41.64-.36.65-.35.68-.31.68-.28.72-.24.74-.21.72L87.4,29l-.14.76-.11.81-.06.79,0,.79H91v-.62L91,31l.07-.57.11-.59.13-.59.15-.55.19-.54.21-.53.22-.52.27-.5.28-.51.29-.46.34-.48.34-.43.36-.42.4-.41.4-.39.42-.38.44-.34.44-.33.49-.31.48-.28.5-.26.53-.24.51-.2.53-.2.55-.15.56-.13.58-.11.57-.07.58,0h.6V16.54Zm514.87,3.91H102.56V16.54H617.43v3.91Zm15.5,11.73,0-.79-.06-.79-.1-.81-.14-.76-.17-.74-.21-.72-.24-.74-.28-.72-.32-.68-.33-.68-.39-.65-.41-.64-.41-.61-.47-.59-.49-.59-.5-.52-.55-.52-.56-.48-.58-.49-.62-.43-.61-.4-.66-.39-.67-.35-.69-.3-.7-.29-.73-.24L621.3,17l-.76-.17-.76-.13-.77-.11-.8-.07-.78,0v3.91H618l.59,0,.56.07.58.11.55.13.56.15.52.18.52.22.53.26.49.24.49.28.48.31.46.33.43.34.42.38.39.39.41.41.36.42.34.43.32.48.32.46.27.51.28.5.21.52.21.53.19.54.16.57.13.57.1.59L629,31l0,.58v.62ZM629,682.3h0V32.18h3.89V682.3Zm-11.61,15.59.78,0,.8-.07.77-.08.76-.14.76-.19.72-.2.73-.26.7-.29.69-.3.66-.35.67-.37.62-.42.61-.43.58-.46.56-.5.55-.51.51-.54.48-.57.46-.59.42-.61.41-.63.39-.66.33-.65.32-.7.28-.72.24-.72.21-.74.17-.75.14-.76.1-.79.06-.78,0-.79H629v.61l0,.59-.08.57-.1.59-.13.57-.16.54-.19.55-.21.52-.21.53-.28.5-.27.5-.32.46-.32.48-.34.43-.37.42-.39.41-.4.4-.42.37-.43.35-.47.33-.47.3-.48.28-.5.25-.53.26-.52.19-.52.18-.56.17-.55.13-.58.09-.56.09-.59,0h-.61v3.89ZM102.56,694H617.43v3.89H102.56V694ZM87.07,682.3l0,.79.06.78.11.79.14.76.16.75.21.74.24.74.28.67.31.73.35.65.36.66.41.63.43.61.46.59.49.57.52.54.54.51.55.5.58.46.62.43.62.42.66.37.66.35.68.3.72.31.72.24.73.2.75.19.75.14.79.08.79.07.78,0V694H102l-.58,0-.57-.09-.58-.09-.56-.13-.55-.17-.53-.18-.51-.19-.53-.24-.5-.27-.48-.28-.47-.3-.46-.33-.44-.35-.43-.37-.39-.4-.39-.41-.37-.42-.35-.43-.33-.48-.29-.46-.28-.5-.27-.5-.22-.53-.21-.55-.19-.52-.15-.54-.13-.57-.11-.59L91,683.5l0-.59v-.61Z"/><path class="cls-4" d="M98.24,673.41V41a13.26,13.26,0,0,1,13.1-13.32H608.67A13.26,13.26,0,0,1,621.75,41V673.41a13.25,13.25,0,0,1-13.08,13.32H111.34A13.25,13.25,0,0,1,98.24,673.41Z"/><path class="cls-2" d="M107.5,664.55V49.91A12.8,12.8,0,0,1,120.13,37H599.88a12.8,12.8,0,0,1,12.65,12.93V664.55a12.81,12.81,0,0,1-12.65,12.92H120.13A12.81,12.81,0,0,1,107.5,664.55Z"/><rect class="cls-5" x="150.61" y="78.83" width="418.79" height="418.79"/><polygon class="cls-3" points="209.6 389.53 243.24 389.53 352.18 221.64 327.66 193.02 332.58 189.63 356.75 214.6 357.42 213.57 358.09 214.59 387.9 188.51 390.6 192.02 362.46 221.15 474.45 389.53 510.41 389.53 510.41 422.54 209.6 422.54 209.6 389.53"/><polygon class="cls-4" points="323.06 389.53 397.24 389.53 360.87 324.05 323.06 389.53"/></svg>