<svg id="Layer_1" data-name="Layer 1" xmlns="http://www.w3.org/2000/svg" viewBox="0 0 720 720"><defs><style>.cls-1{fill:#9c9b9b;}.cls-1,.cls-2,.cls-3,.cls-4,.cls-6,.cls-7,.cls-8{fill-rule:evenodd;}.cls-2{fill:#008ad1;}.cls-3,.cls-6{fill:#1d1d1b;}.cls-4,.cls-5,.cls-7{fill:#fff;}.cls-6{stroke:#1d1d1b;}.cls-6,.cls-7,.cls-8{stroke-miterlimit:22.93;stroke-width:2.67px;}.cls-7,.cls-8{stroke:#fff;}.cls-8{fill:none;}</style></defs><path class="cls-1" d="M89,689.78V39.67A13.65,13.65,0,0,1,102.56,26H617.44A13.66,13.66,0,0,1,631,39.67V689.78a13.64,13.64,0,0,1-13.54,13.67H102.56A13.64,13.64,0,0,1,89,689.78Z"/><path class="cls-2" d="M89,682.29V32.16A13.64,13.64,0,0,1,102.56,18.5H617.44A13.65,13.65,0,0,1,631,32.16V682.29A13.66,13.66,0,0,1,617.44,696H102.56A13.65,13.65,0,0,1,89,682.29Z"/><path class="cls-3" d="M91,32.16h0V682.29H87.08V32.16Zm11.6-15.61-.79,0-.78.07-.78.09-.77.13-.75.19-.73.22-.73.24-.69.26-.69.33-.66.35-.65.37-.64.42-.6.44-.59.45-.56.51-.54.52-.5.53-.5.56-.44.59-.44.61-.42.66-.36.63-.34.68-.31.7-.28.69-.25.75-.2.74-.18.74-.13.77-.11.78-.05.79,0,.78H91v-.61L91,31l.07-.56.11-.59.13-.57.16-.55.18-.54.21-.55.23-.5.26-.53.28-.48.3-.48.33-.45.35-.44.37-.44.38-.41.4-.4.43-.34.44-.35.45-.35.45-.29.5-.28.5-.26.52-.24.52-.22.54-.18.55-.17.54-.11.58-.11.57-.09.57,0h.62V16.55Zm514.88,3.89v0H102.56V16.55H617.44v3.89Zm15.48,11.72,0-.78,0-.79-.11-.78-.15-.77-.17-.76-.2-.72-.24-.75-.28-.69-.31-.7-.34-.68-.38-.63-.4-.66-.44-.61-.45-.59-.49-.56-.51-.53-.55-.52-.55-.51-.57-.45-.62-.44-.63-.42-.65-.37-.66-.35-.69-.33-.7-.26-.71-.24-.74-.22-.77-.19-.75-.13-.78-.09-.79-.07-.78,0v3.89h.6l.58,0,.58.09.58.11.54.11.54.17.54.18.53.22.51.24.51.26.48.28.46.31.46.3.44.38.42.34.41.4.38.41.37.44.35.44.33.45.29.48.29.48.25.53.24.52.21.53.17.54.18.55.12.57.11.59L629,31l0,.59,0,.61ZM629,682.29h0V32.16h3.88V682.29Zm-11.6,15.61v0l.78,0,.79,0,.78-.1.75-.14.77-.17.74-.24.71-.24.7-.26.69-.33.66-.35.66-.37.62-.42.61-.43.58-.46.55-.5.55-.53.51-.52.49-.57.45-.59.44-.61.4-.63.38-.66.33-.67.32-.68.28-.72.24-.72.2-.74.17-.77.15-.74.11-.81,0-.79,0-.78H629l0,.61,0,.59-.06.57-.11.59-.12.56-.18.55-.17.55-.21.52-.23.52-.26.53-.29.48-.29.48-.33.46-.35.43-.37.44-.38.42-.41.39-.42.37-.44.35-.46.3-.46.33-.48.29-.51.24-.51.24-.53.21-.54.2-.54.15-.54.14-.58.1-.58.07-.58,0h-.6v3.89ZM102.56,694v0H617.44v3.86H102.56V694ZM87.08,682.29l0,.78.05.79.11.81.13.74.18.74.2.77.25.72.28.72.31.68.34.67.36.66.42.63.44.61.44.59.5.57.5.52.54.53.56.5.6.46.59.43.62.42.67.37.66.35.69.33.69.26.73.24.73.24.75.17.77.14.78.1.78,0,.79,0V694h-.62l-.57,0-.57-.07-.58-.1-.54-.14-.55-.15-.54-.2-.52-.21-.52-.24-.5-.24-.49-.29-.46-.3-.48-.33-.41-.35-.43-.37-.4-.39-.38-.42-.37-.44-.35-.43-.33-.46-.3-.48-.28-.48-.26-.53-.23-.52-.21-.52-.18-.55-.16-.55-.13-.56-.11-.59-.07-.57,0-.59v-.61Z"/><path class="cls-4" d="M98.27,673.42V41a13.23,13.23,0,0,1,13.07-13.3H608.67A13.23,13.23,0,0,1,621.74,41V673.42a13.21,13.21,0,0,1-13.07,13.3H111.34A13.21,13.21,0,0,1,98.27,673.42Z"/><path class="cls-2" d="M107.49,664.56V49.89A12.79,12.79,0,0,1,120.12,37H599.89a12.79,12.79,0,0,1,12.62,12.9V664.56a12.83,12.83,0,0,1-12.62,13H120.12A12.83,12.83,0,0,1,107.49,664.56Z"/><rect class="cls-5" x="150.61" y="78.85" width="418.78" height="418.79"/><path class="cls-6" d="M223.33,192.88H496.67A22.21,22.21,0,0,1,518.81,215v103.3a22.22,22.22,0,0,1-22.14,22.16h-113a32.23,32.23,0,0,1-13.94,26.57H522.25v33.12H197.74V367.05h21.07V340a22.25,22.25,0,0,1-17.62-21.68V215A22.2,22.2,0,0,1,223.33,192.88Z"/><path class="cls-7" d="M332.94,367.05A32.24,32.24,0,0,1,319,340.48H235.36v26.57Z"/><path class="cls-4" d="M351.32,323.54a16.93,16.93,0,1,1-16.93,16.94A16.92,16.92,0,0,1,351.32,323.54Z"/><path class="cls-8" d="M351.32,323.54a16.93,16.93,0,1,1-16.93,16.94A16.92,16.92,0,0,1,351.32,323.54Z"/><path class="cls-7" d="M264.09,224.8h93.52c4.17,0,7.56,4.24,7.56,9.41v43.85c0,5.19-3.39,9.41-7.56,9.41H264.09c-4.16,0-7.56-4.22-7.56-9.41V234.21C256.53,229,259.93,224.8,264.09,224.8Z"/><path class="cls-7" d="M388.63,224.8h93.52c4.17,0,7.56,4.24,7.56,9.41v43.85c0,5.19-3.39,9.41-7.56,9.41H388.63c-4.15,0-7.56-4.22-7.56-9.41V234.21C381.07,229,384.48,224.8,388.63,224.8Z"/></svg>