<svg id="Layer_1" data-name="Layer 1" xmlns="http://www.w3.org/2000/svg" viewBox="0 0 720 720"><defs><style>.cls-1{fill:none;stroke:#1d1d1b;stroke-miterlimit:10;stroke-width:1.82px;}.cls-2{fill:#e20613;}</style></defs><rect class="cls-1" x="97.47" y="265.74" width="143.6" height="424.98"/><polygon class="cls-2" points="97.35 668.88 97.35 581.71 241.2 437.87 239.12 522.29 97.35 668.88"/><rect class="cls-1" x="285.95" y="153.9" width="143.6" height="536.81"/><rect class="cls-1" x="478.92" y="29.29" width="143.6" height="661.43"/><polygon class="cls-2" points="285.83 668.88 285.83 581.71 429.68 437.87 427.61 522.29 285.83 668.88"/><polygon class="cls-2" points="285.83 512.71 285.83 425.54 429.68 281.69 427.61 366.11 285.83 512.71"/><polygon class="cls-2" points="478.8 671.82 478.8 584.65 622.65 440.81 620.57 525.23 478.8 671.82"/><polygon class="cls-2" points="478.8 464.29 478.8 377.11 622.65 233.27 620.57 317.69 478.8 464.29"/><polygon class="cls-2" points="478.8 276.53 478.8 189.36 622.65 45.52 620.57 129.94 478.8 276.53"/></svg>