<svg id="Layer_1" data-name="Layer 1" xmlns="http://www.w3.org/2000/svg" viewBox="0 0 720 720"><defs><style>.cls-1{fill:#9c9b9b;}.cls-1,.cls-2,.cls-3{fill-rule:evenodd;}.cls-2{fill:#ffec00;}.cls-3{fill:#1d1d1b;}</style></defs><path class="cls-1" d="M263,18H465.53A17.93,17.93,0,0,1,483.4,35.92V684.08A17.92,17.92,0,0,1,465.53,702H263a17.93,17.93,0,0,1-17.88-17.88V35.92A17.94,17.94,0,0,1,263,18Z"/><path class="cls-2" d="M256.13,18H458.66a17.94,17.94,0,0,1,17.88,17.88V684.08A17.93,17.93,0,0,1,458.66,702H256.13a17.93,17.93,0,0,1-17.88-17.88V35.92A17.94,17.94,0,0,1,256.13,18Z"/><path class="cls-3" d="M458.66,19.69H256.13V16.38H458.66v3.31Zm19.53,16.23,0-1-.07-1L478,33l-.17-1-.2-.95-.26-.92-.33-.92-.35-.88-.39-.86-.43-.84-.46-.82-.53-.8-.54-.77-.57-.74-.63-.7-.63-.67-.68-.66-.72-.61-.74-.58-.74-.54-.8-.53-.81-.46-.85-.43-.87-.4-.88-.35-.91-.31-.92-.26-1-.21-1-.18-.95-.12-1-.07-1,0v3.31l.85,0,.8.06.84.1.78.14.76.19.79.21.74.27L465,21l.72.34.7.35.67.4.66.41.63.46.63.48.59.52.54.54.55.56.5.59.5.62.46.63.41.66.4.68.35.7.32.71.31.75.24.74.22.76.19.79.13.79.11.82.07.81,0,.84Zm-3.31,648.16h0V35.92h3.31V684.08Zm-16.22,19.54,1,0,1-.07.95-.12,1-.18,1-.21.92-.27.91-.3.88-.36.87-.39.85-.42.81-.48.8-.52.74-.54.74-.57.72-.62.68-.65.63-.68.63-.71.57-.73.54-.77.53-.79.46-.82.43-.84.39-.87.35-.88.33-.91.26-.94.2-.93.17-1,.13-1,.07-1,0-1h-3.31l0,.84-.07.82-.11.82-.13.79-.19.78-.22.76-.24.75-.31.74-.32.71-.35.71-.4.68-.41.65-.46.64-.5.61-.5.6-.55.56-.54.53-.59.52-.63.49-.63.45-.66.42-.67.38-.7.36L465,699l-.74.28-.74.26-.79.22-.76.19-.78.13-.84.11-.8.06-.85,0v3.32ZM256.13,700.3H458.66v3.32H256.13V700.3Zm-19.51-16.22h0l0,1,.06,1,.14,1,.17,1,.2.93.28.94.31.91.34.88.4.87.43.84.46.82.53.79.54.77.59.73.61.71.63.68.7.65.7.62.74.57.76.54.78.52.83.48.85.42.85.39.9.36.91.3.92.27.94.21,1,.18,1,.12,1,.07,1,0V700.3l-.83,0-.81-.06-.82-.11-.79-.13-.78-.19-.77-.22-.76-.26-.72-.28-.72-.34-.72-.36-.67-.38-.63-.42-.66-.45-.61-.49-.59-.52-.56-.54-.55-.55-.5-.6-.5-.61-.44-.64-.43-.65-.4-.68-.35-.71-.32-.71-.29-.74-.26-.75-.22-.76-.17-.78-.15-.79-.11-.82-.07-.82v-.84h-3.31Zm3.29-648.16h0V684.08h-3.29V35.92Zm16.22-19.54-1,0-1,.07-1,.12-1,.18-.94.21-.92.26-.91.31-.9.35-.85.4-.85.43-.83.46-.78.53-.76.54-.74.58-.7.61-.7.64-.63.69-.61.7-.59.74L240,25l-.53.8-.46.82-.43.84-.4.86-.34.88-.31.92-.28.92L237,32l-.17,1-.14,1-.06,1,0,1h3.29l0-.84.07-.81.11-.82.15-.79.17-.79.22-.76.26-.74.29-.75.32-.71.35-.7.4-.68.43-.66.44-.63.5-.62.5-.59.55-.56.56-.54.59-.52.61-.48.66-.46.63-.41.69-.4.7-.35.72-.34.72-.28.76-.27.77-.21.78-.19.79-.14.82-.1.81-.06.83,0Z"/><path class="cls-3" d="M358.7,456.24,244.9,535.37v106l113.8-79.14,111.21,77.32v-106L358.7,456.24ZM304.42,24.44H413L469.91,64V170L358.7,92.74,244.9,171.86v-106l59.52-41.4ZM469.91,298.78v106L358.7,327.49,244.9,406.62v-106l113.8-79.13Z"/></svg>