<svg id="Layer_1" data-name="Layer 1" xmlns="http://www.w3.org/2000/svg" viewBox="0 0 720 720"><defs><style>.cls-1{fill:#9c9b9b;}.cls-1,.cls-2,.cls-3,.cls-4{fill-rule:evenodd;}.cls-2{fill:#008ad1;}.cls-3{fill:#1d1d1b;}.cls-4,.cls-5{fill:#fff;}</style></defs><path class="cls-1" d="M89,689.78V39.67A13.66,13.66,0,0,1,102.57,26H617.43A13.67,13.67,0,0,1,631,39.67V689.78a13.65,13.65,0,0,1-13.56,13.67H102.57A13.64,13.64,0,0,1,89,689.78Z"/><path class="cls-2" d="M89,682.29V32.16A13.64,13.64,0,0,1,102.57,18.5H617.43A13.66,13.66,0,0,1,631,32.16V682.29A13.67,13.67,0,0,1,617.43,696H102.57A13.65,13.65,0,0,1,89,682.29Z"/><path class="cls-3" d="M91,32.16h0V682.29H87.07V32.16Zm11.61-15.61-.79,0-.78.07-.79.09-.75.13-.76.19-.73.22-.72.22-.71.28-.67.33-.68.35-.65.37-.63.42-.61.44-.59.45-.55.51-.54.5-.51.55-.5.56-.45.59-.43.61-.4.66-.39.63-.33.68-.31.7-.28.69-.24.75-.21.72-.18.76-.13.77-.11.78-.05.79,0,.78H91v-.61L91,31l.07-.56.1-.59.13-.57.17-.55.17-.54.22-.53.24-.52.25-.53.28-.48.3-.48.33-.45.35-.44.36-.44.38-.39.41-.42.43-.34.44-.35.45-.33.46-.31.49-.28.51-.26.51-.24.52-.2.55-.2.55-.17.54-.11.58-.11.58-.09.58,0h.6V16.55Zm514.86,3.89H102.57V16.55H617.43v3.89Zm15.5,11.72,0-.78-.06-.79-.11-.78-.13-.77-.18-.76-.2-.72-.26-.75-.28-.69-.28-.7-.35-.68-.4-.65-.39-.64-.44-.61-.45-.59-.49-.56-.5-.53-.57-.52-.54-.51-.57-.45-.61-.44-.66-.42-.63-.37-.68-.35-.67-.33-.7-.26-.72-.24-.75-.22-.76-.19-.74-.13-.79-.09-.78-.07-.79,0v3.89H618l.57,0,.57.09.59.11.54.11.55.17.54.18.53.22.5.24.5.26.51.28.46.31.45.3.44.38.44.34.39.4.39.41.37.44.33.44.33.45.33.48.26.48.26.53.24.52.2.53.17.54.18.55.13.57.11.59L629,31l0,.59,0,.61Zm-3.88,650.13h0V32.16h3.88V682.29Zm-11.62,15.63.79,0,.78,0,.79-.1.74-.14.76-.17.75-.24.72-.24.7-.26.67-.33.68-.35.66-.37.63-.42.59-.43.59-.46.54-.5.57-.53.5-.52.49-.57.45-.59.44-.61.39-.63.4-.66.32-.67.31-.68.28-.72.26-.72.2-.74.18-.77.13-.74.11-.81.06-.79,0-.78h-3.88l0,.61,0,.59-.09.57-.08.59-.13.56-.18.55-.17.55-.2.52-.24.52-.26.53-.26.48-.33.48-.33.46-.33.43-.37.44-.39.42-.39.39-.44.37-.44.35-.45.3-.49.33-.48.29-.5.24-.5.24-.53.21-.54.2-.55.15-.54.14-.59.1-.57.07-.57,0h-.61v3.91ZM102.57,694H617.43v3.91H102.57V694Zm-15.5-11.72,0,.78.05.79.1.81.14.74.18.77.21.74.24.72.28.72.32.68.32.67.39.66.4.63.43.61.45.59.5.57.51.54.54.51.55.5.6.46.6.43.62.42.66.37.68.35.67.33.71.28.72.22.73.24.76.17.75.14.79.1.78,0,.79,0V694H102l-.58,0-.58-.07-.58-.1-.54-.14-.55-.15-.55-.2-.52-.21-.51-.24-.51-.24-.48-.29L96.1,692l-.46-.3-.43-.35-.43-.37-.41-.42-.38-.39-.36-.44-.35-.43-.33-.46-.3-.48-.28-.48-.25-.53-.24-.52-.22-.52-.17-.55-.17-.55-.13-.56-.1-.59-.07-.57,0-.59v-.61Z"/><path class="cls-4" d="M98.27,673.42V41a13.24,13.24,0,0,1,13.08-13.3h497.3A13.24,13.24,0,0,1,621.73,41V673.42a13.22,13.22,0,0,1-13.08,13.3H111.35A13.22,13.22,0,0,1,98.27,673.42Z"/><path class="cls-2" d="M107.49,664.56V49.89A12.79,12.79,0,0,1,120.12,37H599.88a12.79,12.79,0,0,1,12.62,12.9V664.56a12.83,12.83,0,0,1-12.62,13H120.12A12.83,12.83,0,0,1,107.49,664.56Z"/><rect class="cls-5" x="150.61" y="78.85" width="418.78" height="418.79"/><path class="cls-3" d="M360,121.66a45.2,45.2,0,0,1,13.83,88.23l0,26.88h36.73v27.64H373.83V367a118.51,118.51,0,0,0,42.53-11.92c2.54-1.27,5.11-2.67,7.75-4.22a126.17,126.17,0,0,0,34.94-30.61l26.2,20.68a159.62,159.62,0,0,1-44.15,38.73c-3.14,1.86-6.48,3.67-10,5.37a150.56,150.56,0,0,1-67,15.77v0h0c-37.14,0-72.63-13.86-100.64-38.38a163.19,163.19,0,0,1-15.4-15.38l.06,0a160.87,160.87,0,0,1-13.39-17.62l12.74-8.36,14.86-10.39,0,0,.26.39a135.3,135.3,0,0,0,10.65,14h.07a127.85,127.85,0,0,0,12.12,12.25A120.42,120.42,0,0,0,346.19,366V264.41H309.44V236.77h36.76V209.89A45.2,45.2,0,0,1,360,121.66Z"/><path class="cls-4" d="M360,149.22a17.64,17.64,0,1,1-17.63,17.64A17.65,17.65,0,0,1,360,149.22Z"/></svg>