<svg id="Layer_1" data-name="Layer 1" xmlns="http://www.w3.org/2000/svg" viewBox="0 0 720 720"><defs><style>.cls-1{fill:#9c9b9b;}.cls-1,.cls-2,.cls-3,.cls-4,.cls-6{fill-rule:evenodd;}.cls-2{fill:#008ad1;}.cls-3{fill:#1d1d1b;}.cls-4,.cls-5{fill:#fff;}.cls-6{fill:#e20613;}</style></defs><path class="cls-1" d="M89,689.77V39.64A13.66,13.66,0,0,1,102.56,26H617.43A13.66,13.66,0,0,1,631,39.64V689.77a13.66,13.66,0,0,1-13.55,13.69H102.56A13.66,13.66,0,0,1,89,689.77Z"/><path class="cls-2" d="M89,682.3V32.18a13.66,13.66,0,0,1,13.55-13.69H617.43A13.66,13.66,0,0,1,631,32.18V682.3A13.65,13.65,0,0,1,617.43,696H102.56A13.65,13.65,0,0,1,89,682.3Z"/><path class="cls-3" d="M91,32.18h0V682.3H87.07V32.18Zm11.61-15.64-.79,0-.78.07-.79.11-.75.13-.76.17-.72.22-.73.24-.71.29-.67.3-.67.35-.67.39-.61.4-.6.43-.58.49-.58.48-.54.52-.5.52-.5.59-.46.59-.43.61-.39.64-.4.65-.32.68-.32.68-.28.72-.24.74-.21.72-.18.74-.14.76-.1.81,0,.79,0,.79H91v-.62L91,31l.07-.57.1-.59.13-.57.17-.57.17-.54.22-.53.23-.52.26-.5.27-.51.31-.46.34-.48.34-.43.36-.42.4-.41.39-.39.42-.38.44-.34.46-.33.47-.31.5-.28.49-.24.52-.26.52-.22.53-.18.56-.15.54-.13.58-.11.58-.07.58,0h.6V16.54Zm514.87,3.91H102.56V16.54H617.43v3.91Zm15.5,11.73,0-.79,0-.79-.1-.81-.14-.76-.18-.74-.21-.72-.23-.74-.29-.72-.32-.68-.32-.68-.4-.65-.39-.64-.42-.61-.46-.59-.51-.59-.5-.52-.54-.52-.57-.48-.59-.49-.59-.43-.62-.4-.67-.39-.65-.35-.69-.3-.71-.29-.72-.24L621.3,17l-.76-.17-.75-.13-.79-.11-.78-.07-.79,0v3.91h.6l.58,0,.58.07.58.11.54.13.56.15.52.18.53.22.52.26.51.24.48.28.46.31.47.33.44.34.42.38.4.39.39.41.36.42.34.43.34.48.31.46.27.51.26.5.24.52.21.53.17.54.17.57.13.57.1.59L629,31l0,.58v.62ZM629,682.3h0V32.18h3.89V682.3Zm-11.61,15.59.79,0,.78-.07.79-.08.75-.14.76-.19.73-.2.72-.26.71-.29.69-.3.65-.35.67-.37.62-.42.59-.43.59-.46.57-.5.53-.51.53-.54.49-.57.44-.59.44-.61.39-.63.4-.66.32-.65.32-.7.29-.72.23-.72.21-.74.18-.75.14-.76.1-.79,0-.78,0-.79H629v.61l0,.59-.07.57-.1.59-.13.57-.17.54-.17.55-.21.52-.24.53-.26.5-.27.5-.31.46-.33.48-.35.43-.37.42-.38.41-.39.4-.43.37-.44.35-.47.33-.46.3-.48.28-.51.25-.52.26-.53.19-.52.18-.56.17-.54.13-.58.09-.58.09-.58,0h-.6v3.89ZM102.56,694H617.43v3.89H102.56V694ZM87.07,682.3l0,.79,0,.78.1.79.14.76.18.75.21.74.24.72.28.72.32.7.32.65.4.66.39.63.44.61.45.59.49.57.52.54.53.51.58.5.58.46.59.43.62.42.67.37.67.35.67.3.71.29.73.26.72.2.76.19.75.14.79.08.78.07.79,0V694H102l-.58,0-.58-.09-.58-.09-.54-.13-.56-.17-.53-.18-.52-.19-.52-.26L97,692.6l-.48-.28-.45-.3-.48-.33-.44-.35-.43-.37-.39-.4-.38-.41-.37-.42-.35-.43-.33-.48-.31-.46-.27-.5-.26-.5-.23-.53-.22-.52-.17-.55-.17-.54-.13-.57-.1-.59L91,683.5l-.05-.59v-.61Z"/><path class="cls-4" d="M98.26,673.41V41a13.25,13.25,0,0,1,13.08-13.32H608.66A13.26,13.26,0,0,1,621.75,41V673.41a13.25,13.25,0,0,1-13.09,13.32H111.34A13.24,13.24,0,0,1,98.26,673.41Z"/><path class="cls-2" d="M107.48,664.55V49.91A12.79,12.79,0,0,1,120.11,37H599.88a12.8,12.8,0,0,1,12.63,12.93V664.55a12.81,12.81,0,0,1-12.63,12.92H120.11A12.8,12.8,0,0,1,107.48,664.55Z"/><rect class="cls-5" x="150.61" y="78.83" width="418.78" height="418.79"/><polygon class="cls-6" points="306.43 124.97 413.57 124.97 413.57 234.66 523.27 234.66 523.27 341.82 413.57 341.82 413.57 451.54 306.43 451.54 306.43 341.82 196.71 341.82 196.71 234.66 306.43 234.66 306.43 124.97"/></svg>