<svg id="Layer_1" data-name="Layer 1" xmlns="http://www.w3.org/2000/svg" viewBox="0 0 720 720"><defs><style>.cls-1{fill:#9c9b9b;}.cls-1,.cls-2,.cls-3{fill-rule:evenodd;}.cls-2{fill:#ffec00;}.cls-3{fill:#1d1d1b;}</style></defs><path class="cls-1" d="M259.89,27.61H460.11a17.72,17.72,0,0,1,17.66,17.66V686a17.72,17.72,0,0,1-17.66,17.66H259.89A17.72,17.72,0,0,1,242.23,686V45.27A17.72,17.72,0,0,1,259.89,27.61Z"/><path class="cls-2" d="M259.89,18H460.11a17.73,17.73,0,0,1,17.66,17.66V676.39A17.71,17.71,0,0,1,460.11,694H259.89a17.71,17.71,0,0,1-17.66-17.64V35.68A17.73,17.73,0,0,1,259.89,18Z"/><path class="cls-3" d="M460.11,19.67H259.89V16.38H460.11v3.29Zm19.29,16,0-1-.08-1-.11-.95-.2-1-.21-.92-.26-.93-.3-.88-.34-.88-.39-.86-.43-.84-.48-.79-.49-.8-.54-.75-.58-.73-.6-.71-.62-.67-.69-.63-.71-.6-.73-.58-.74-.54-.79-.51-.82-.45-.82-.43-.86-.39-.88-.37-.88-.27L464.9,17l-.94-.22L463,16.6l-.95-.11-1-.09-1,0v3.29h.82l.81.07.8.11.8.15.75.17.75.21.75.26.71.28.71.32.71.37.67.36.64.44.63.45.62.47.58.49.56.54.52.56.51.58.48.6.45.65.41.65.39.66.36.69.32.73.28.71.26.73.22.78.17.77.15.78.11.79.06.82v.82Zm-3.29,640.71h0V35.68h3.29V676.39Zm-16,19.29,1,0,1-.07.95-.13.95-.17.94-.21.93-.26.88-.3.88-.35.86-.38.82-.43.82-.48.79-.49.74-.54.73-.58.71-.6.69-.65.62-.66.6-.71.58-.73.54-.76.49-.77.48-.82.43-.82.39-.86.34-.88.3-.9.26-.91.21-.92.2-1,.11-.95.08-1,0-1h-3.29v.81l-.06.82-.11.8-.15.77-.17.78-.22.75-.26.75-.28.71-.32.71-.36.71-.39.67-.41.64-.45.63-.48.6-.51.58-.52.56-.56.54-.58.51-.62.48-.63.45-.64.41-.67.38-.71.37-.71.32-.71.28-.75.24-.75.24-.75.17-.8.13-.8.11-.81.06-.82,0v3.29Zm-200.22-3.29H460.11v3.29H259.89v-3.29Zm-19.29-16,0,1,.08,1,.11.95.19,1,.22.92.26.91.28.9.36.88.39.86.43.82.47.82.5.77.54.76.58.73.6.71.64.66.67.65.69.6.73.58.75.54.8.49.79.48.84.43.86.38.89.35.88.3.92.26.93.21.94.17,1,.13,1,.07,1,0v-3.29l-.82,0-.82-.06-.79-.11-.8-.13-.75-.17-.75-.24-.76-.24-.71-.28-.73-.32-.69-.37-.66-.38-.65-.43-.64-.43-.61-.48-.55-.51-.58-.54-.52-.56-.52-.56-.47-.62-.45-.63-.41-.64-.39-.67-.36-.71-.33-.71-.28-.71-.25-.75-.22-.75-.17-.78-.15-.77L244,678l-.06-.82v-.81Zm3.29-640.71h0V676.39H240.6V35.68Zm16-19.3-1,0-1,.09-1,.11-.94.17-.93.22-.92.28-.88.27-.89.37-.86.39-.84.43-.79.45-.8.51-.75.54-.73.58-.69.6-.67.63-.64.67-.6.73-.58.71-.54.75-.5.8-.47.79-.43.84-.39.86-.36.88-.28.88-.26.93-.22.92-.19,1-.11.95-.08,1,0,1h3.29v-.82L244,34l.11-.79.15-.78.17-.77.22-.78.25-.73.28-.71.33-.73.36-.69.39-.66.41-.65.45-.65.47-.6.52-.58.52-.56.58-.54.55-.49.61-.47.64-.45.65-.44.66-.36.69-.37.73-.32.71-.28.76-.26.75-.21.75-.17.8-.15.79-.11.82-.07h.82Z"/><path class="cls-3" d="M464.47,683.83,248.79,550.18V670c0,9.53,7.53,17.32,16.67,17.32H454.52a16.13,16.13,0,0,0,10-3.44Zm-10-659.06H265.46a16.14,16.14,0,0,0-9.94,3.46L471.19,161.88V42.09c0-9.51-7.51-17.32-16.67-17.32ZM248.79,200.36v173.5l222.4,137.8V338.18Z"/></svg>