<svg id="Layer_1" data-name="Layer 1" xmlns="http://www.w3.org/2000/svg" viewBox="0 0 720 720"><defs><style>.cls-1{fill:#9c9b9b;}.cls-1,.cls-2,.cls-3,.cls-4{fill-rule:evenodd;}.cls-2,.cls-4,.cls-5{fill:#fff;}.cls-2{stroke:#1d1d1b;stroke-miterlimit:500;stroke-width:2.24px;}.cls-3{fill:#008ad1;}</style></defs><path class="cls-1" d="M87.16,679.89a42.16,42.16,0,0,1-42-42V92.2a42.06,42.06,0,0,1,42-42H632.84a42,42,0,0,1,42,42V637.9a42.07,42.07,0,0,1-42,42Z"/><path class="cls-2" d="M87.16,669.79a42.15,42.15,0,0,1-42-42V82.11a42.08,42.08,0,0,1,42-42H632.84a42,42,0,0,1,42,42V627.8a42.06,42.06,0,0,1-42,42Z"/><path class="cls-3" d="M87.08,653.93A26.17,26.17,0,0,1,61,627.8V82.11A26.18,26.18,0,0,1,87.08,55.85H632.77A26.23,26.23,0,0,1,659,82.11V627.8a26.21,26.21,0,0,1-26.27,26.13Z"/><polygon class="cls-4" points="233.63 393.17 233.63 128.72 297.51 128.72 297.51 232.79 422.56 232.79 422.56 128.72 486.35 128.72 486.35 393.17 422.56 393.17 422.56 277.54 297.51 277.54 297.51 393.17 233.63 393.17"/><polygon class="cls-4" points="568.89 586.69 568.89 497.29 583.78 497.29 583.78 571.5 620.91 571.5 620.91 586.69 568.89 586.69"/><polygon class="cls-4" points="560.58 586.69 544.36 586.69 537.9 566.22 508.4 566.22 502.31 586.69 486.45 586.69 515.21 496.55 531.01 496.55 560.58 586.69"/><polygon class="cls-4" points="455.06 586.69 455.06 511.83 433.13 511.83 433.13 496.55 491.84 496.55 491.84 511.83 469.94 511.83 469.94 586.69 455.06 586.69"/><rect class="cls-5" x="409.27" y="496.55" width="14.88" height="90.14"/><path class="cls-4" d="M340.84,586.69V496.55h24c8.93,0,14.78.45,17.53,1.31,4.38,1.38,8,4.36,10.85,8.89s4.28,10.42,4.28,17.6c0,6.53-1.25,12-3.7,16.37a21.13,21.13,0,0,1-9.23,9.28c-3.67,1.8-10,2.7-19.05,2.7h-9.79v34Z"/><path class="cls-4" d="M268.24,557.39l14.57-1.78q2.44,17.31,16.11,17.31c4.5,0,8-1.16,10.62-3.54a11.28,11.28,0,0,0,3.89-8.75,9.6,9.6,0,0,0-1.34-5.22,9.88,9.88,0,0,0-4.14-3.55c-1.84-.92-6.3-2.45-13.4-4.65Q285,544.33,280.6,541a23.42,23.42,0,0,1-7-8.89A27,27,0,0,1,271,520.23,26.46,26.46,0,0,1,274.29,507a22.16,22.16,0,0,1,9.25-8.93,32.29,32.29,0,0,1,14.59-3q13,0,20.33,7.08t7.75,20.23l-14.93.81c-.68-4.85-2.07-8.23-4.25-10.17s-5.28-2.88-9.29-2.88-7.1.84-9.27,2.53a7.57,7.57,0,0,0-3.27,6.26,7.81,7.81,0,0,0,3,6.2c2,1.7,6.5,3.53,13.58,5.55,7.51,2.16,12.93,4.47,16.25,6.85a23.24,23.24,0,0,1,7.66,9.28,32.13,32.13,0,0,1,2.65,13.81q0,11.74-7.23,19.72t-22.59,8Q271.33,588.3,268.24,557.39Z"/><path class="cls-4" d="M188.69,542.17q0-16.08,4.75-26.51t12.45-15.52c5.12-3.4,11.32-5.12,18.63-5.12a31.93,31.93,0,0,1,25.85,12.12q10,12.11,10,34.5,0,22.61-10.56,35.34-9.3,11.26-25.21,11.26t-25.33-11.13Q188.67,564.38,188.69,542.17Z"/><polygon class="cls-4" points="117.16 586.69 117.16 496.55 132.05 496.55 132.05 532.02 161.31 532.02 161.31 496.55 176.26 496.55 176.26 586.69 161.31 586.69 161.31 547.29 132.05 547.29 132.05 586.69 117.16 586.69"/><path class="cls-3" d="M204.05,541.58q0,15.54,5.9,23.31c4,5.18,8.81,7.79,14.64,7.79s10.7-2.59,14.56-7.73,5.78-13,5.78-23.7q0-15.66-5.63-23.18a17.52,17.52,0,0,0-14.71-7.49,17.73,17.73,0,0,0-14.81,7.55Q204.05,525.72,204.05,541.58Z"/><path class="cls-3" d="M355.71,511.83v25.55H364q8.31,0,11.3-1.16a10,10,0,0,0,4.87-4.22,13.73,13.73,0,0,0,1.91-7.47,13.91,13.91,0,0,0-2-7.56,10,10,0,0,0-4.88-4.12c-1.94-.7-6-1-12.24-1Z"/><polygon class="cls-3" points="533.11 551.04 522.96 517.58 512.94 551.04 533.11 551.04"/></svg>