<svg id="Layer_1" data-name="Layer 1" xmlns="http://www.w3.org/2000/svg" viewBox="0 0 720 720"><defs><style>.cls-1{fill:#9c9b9b;}.cls-1,.cls-2,.cls-3,.cls-4{fill-rule:evenodd;}.cls-2{fill:#008ad1;}.cls-3{fill:#1d1d1b;}.cls-4,.cls-5{fill:#fff;}</style></defs><path class="cls-1" d="M89,689.76V39.65A13.62,13.62,0,0,1,102.57,26H617.43A13.63,13.63,0,0,1,631,39.65V689.76a13.66,13.66,0,0,1-13.55,13.69H102.57A13.65,13.65,0,0,1,89,689.76Z"/><path class="cls-2" d="M89,682.29V32.14A13.62,13.62,0,0,1,102.57,18.5H617.43A13.63,13.63,0,0,1,631,32.14V682.29A13.65,13.65,0,0,1,617.43,696H102.57A13.64,13.64,0,0,1,89,682.29Z"/><path class="cls-3" d="M91,32.14h0V682.29H87.08V32.14Zm11.61-15.59-.79,0-.78.06-.79.11-.75.13-.76.18-.73.19-.73.26-.7.27-.69.32-.66.35-.65.37-.62.42-.61.44-.6.46-.55.48-.54.52-.51.54-.5.57-.44.59-.44.61-.42.64-.36.65-.34.66-.32.7-.27.7-.25.72-.2.76-.18.76-.13.74-.11.79-.05.79,0,.78H91v-.61l.06-.59.06-.57.11-.59.12-.56.17-.55.18-.54.21-.53.23-.52.26-.5.28-.51.3-.46.33-.48.35-.43.36-.44.38-.39.4-.39.44-.38.43-.34.44-.33.48-.29.49-.3.51-.24.5-.24.53-.22.54-.18.56-.15.54-.13.58-.11.58-.09.57,0,.61,0V16.55Zm514.86,3.89H102.57V16.55H617.43v3.89Zm15.49,11.7,0-.78,0-.79-.11-.79-.13-.76-.18-.74-.21-.74L632,26.8l-.28-.7-.31-.7-.34-.66-.36-.65-.42-.64-.43-.61-.45-.59-.5-.57-.52-.54-.54-.52-.54-.48-.59-.46-.62-.44-.62-.42-.65-.37-.68-.35-.67-.32-.7-.29-.73-.24-.73-.19-.76-.18-.75-.13-.79-.11-.78-.06-.79,0v3.89l.61,0,.57,0,.58.09.58.11.54.13.57.15.52.2.53.2.52.22.5.26.48.3.49.29.43.33.44.34.44.38.39.39.38.41.38.42.34.43.33.48.29.46.3.51.25.5.23.52.21.53.18.54.15.55.14.56.11.59.06.57,0,.59,0,.61ZM629,682.29h0V32.14h3.88V682.29ZM617.43,697.9l.79,0,.78-.07.79-.1.75-.14.77-.17.72-.22.71-.24.72-.28.7-.33.65-.33.65-.39.62-.4.63-.45.58-.46.54-.48.54-.5.52-.55.5-.59.45-.59.43-.59.42-.65.36-.66.34-.65.31-.7.28-.7.24-.74.21-.74.18-.75.13-.76.11-.79,0-.78,0-.79H629l0,.61,0,.59-.06.57-.11.59-.14.57-.15.54-.18.55-.21.52-.23.53-.25.5-.3.5-.29.46-.33.48-.34.43-.38.44-.38.39-.39.4-.44.37-.44.35-.43.33-.49.3-.48.29-.52.26-.5.24-.51.19-.56.2-.55.15-.54.13-.58.11-.58.07-.57,0-.61,0v3.89ZM102.57,694H617.43v3.89H102.57V694ZM87.08,682.29l0,.79.05.78.11.79.13.76.18.75.2.76.25.7.27.72.32.7.34.65.36.66.42.65.44.59.44.59.5.57.51.57.54.5.55.48.59.48.62.43.62.4.65.39.65.33.7.33.7.28.72.24.74.22.76.17.75.14.79.1.78.07.79,0V694l-.61,0-.57,0-.58-.07-.58-.11-.54-.13-.56-.15-.54-.2-.53-.19-.49-.24-.52-.26-.49-.29-.48-.3-.43-.33-.44-.35-.44-.37-.4-.4-.38-.39-.36-.44-.35-.43-.33-.48-.3-.46-.28-.5-.26-.5-.23-.53-.21-.52-.18-.55-.17-.54-.12-.57-.11-.59-.06-.57L91,682.9v-.61Z"/><path class="cls-4" d="M98.24,673.4V41a13.27,13.27,0,0,1,13.12-13.3H608.65A13.26,13.26,0,0,1,621.75,41V673.4a13.26,13.26,0,0,1-13.1,13.32H111.36A13.27,13.27,0,0,1,98.24,673.4Z"/><path class="cls-2" d="M107.49,664.56V49.9A12.82,12.82,0,0,1,120.11,37H599.89A12.81,12.81,0,0,1,612.51,49.9V664.56a12.84,12.84,0,0,1-12.62,12.93H120.11A12.84,12.84,0,0,1,107.49,664.56Z"/><rect class="cls-5" x="150.61" y="78.85" width="418.79" height="418.77"/><polygon class="cls-3" points="391.62 328.76 525.09 279.67 525.09 382.4 511.25 387.51 511.25 358.63 405.45 397.56 405.45 426.42 391.62 431.51 391.62 328.76"/><polygon class="cls-3" points="187.02 206.71 320.47 157.6 320.47 192.95 313.08 189.06 197.23 230.26 260.27 267.49 371.87 227.38 489.43 285.96 389.41 322.75 385.17 324.3 385.17 328.76 385.17 385.55 200.85 275.55 200.85 304.37 187.02 309.45 187.02 206.71"/><polygon class="cls-3" points="260.95 260.44 363.94 223.43 309.3 196.44 212.2 231.66 260.95 260.44"/></svg>