<svg id="Layer_1" data-name="Layer 1" xmlns="http://www.w3.org/2000/svg" viewBox="0 0 720 720"><defs><style>.cls-1{fill:#04613d;}.cls-2{fill:none;stroke:#1d1d1b;stroke-miterlimit:10;stroke-width:2.77px;}.cls-3,.cls-4{fill:#1d1d1b;}.cls-3{fill-rule:evenodd;}.cls-4{font-size:30.61px;font-family:Lato-Bold, Lato;font-weight:700;}.cls-5{letter-spacing:0em;}.cls-6{letter-spacing:-0.01em;}.cls-7{letter-spacing:0em;}.cls-8{fill:#fed925;font-family:Athelas-Bold, Athelas;}.cls-9{letter-spacing:-0.01em;}.cls-10{letter-spacing:0em;}</style></defs><rect class="cls-1" x="62.39" y="482.67" width="257.29" height="32.73"/><rect class="cls-1" x="386.45" y="482.67" width="257.29" height="32.73"/><rect class="cls-2" x="14.66" y="177.15" width="690.67" height="365.69"/><polygon class="cls-3" points="658 382.01 377.38 382.01 377.38 201.89 355.59 188.04 332.94 200.63 332.94 382.01 77.9 382.01 62.39 396.03 77.9 409.19 331.68 409.19 331.68 516.3 377.38 516.3 377.38 409.19 658 409.19 670.22 396.03 658 382.01"/><text class="cls-4" transform="translate(169.69 452.36)"><tspan class="cls-5">E</tspan><tspan x="17.54" y="0">ldo</tspan><tspan class="cls-6" x="60.11" y="0">r</tspan><tspan class="cls-7" x="71.09" y="0">e</tspan><tspan x="87.28" y="0">t</tspan><tspan x="45.62" y="27.01"> </tspan><tspan class="cls-8"><tspan x="17.19" y="54.03">D342</tspan></tspan></text><text class="cls-4" transform="translate(453.45 452.36)"><tspan class="cls-9">M<tspan class="cls-10" x="28.53" y="0">alaba</tspan></tspan><tspan class="cls-8"><tspan x="17.92" y="54.03">D342</tspan></tspan></text></svg>