<svg id="Layer_1" data-name="Layer 1" xmlns="http://www.w3.org/2000/svg" viewBox="0 0 720 720"><defs><style>.cls-1{fill:#fff;stroke:#1d1d1b;stroke-miterlimit:10;stroke-width:1.09px;}.cls-2{fill:#e20613;}</style></defs><rect class="cls-1" x="18.05" y="79.53" width="683.91" height="560.94"/><path class="cls-2" d="M626.23,118.9H572.1L360,271.68,147.9,118.9H93.77v39l212.1,152.79L93.77,463.46v39H147.9L360,349.67,572.1,502.46h54.13v-39L414.13,310.68l212.1-152.79ZM401.38,301.49l-12.75,9.19,12.75,9.18,199.35,143.6L572.1,484.09,372.75,340.49,360,331.3l-12.75,9.19L147.9,484.09l-28.63-20.63,199.35-143.6,12.75-9.18-12.75-9.19L119.27,157.89l28.63-20.62,199.35,143.6L360,290.05l12.75-9.18L572.1,137.27l28.63,20.62Z"/><path class="cls-2" d="M414.13,409.32l-12.75-9.18-28.63-20.63L360,370.33l-12.75,9.18-28.63,20.63-12.75,9.18L93.77,562.11v39H147.9L360,448.32,572.1,601.1h54.13v-39Zm158,173.41L372.75,439.13,360,430l-12.75,9.18L147.9,582.73l-28.63-20.62,199.35-143.6,12.75-9.19L360,388.7l28.63,20.62,12.75,9.19,199.35,143.6Z"/></svg>