<svg id="Layer_1" data-name="Layer 1" xmlns="http://www.w3.org/2000/svg" viewBox="0 0 720 720"><defs><style>.cls-1{fill:#fff;stroke:#1d1d1b;stroke-miterlimit:10;stroke-width:0.98px;}.cls-2{fill:#e20613;}</style></defs><rect class="cls-1" x="21.25" y="132.79" width="677.5" height="454.42"/><path class="cls-2" d="M623.74,170H570.11L360,321.37,149.89,170H96.26v38.63L306.37,360,96.26,511.35V550h53.63L360,398.63,570.11,550h53.63V511.35L413.63,360,623.74,208.65ZM401,350.9,388.36,360,401,369.1,598.47,511.35l-28.36,20.43L372.63,389.53,360,380.43l-12.63,9.1L149.89,531.78l-28.36-20.43L319,369.1l12.64-9.1L319,350.9,121.53,208.65l28.36-20.43L347.37,330.47l12.63,9.1,12.63-9.1L570.11,188.22l28.36,20.43Z"/></svg>