<svg id="Layer_1" data-name="Layer 1" xmlns="http://www.w3.org/2000/svg" viewBox="0 0 720 720"><defs><style>.cls-1{fill:#9c9b9b;}.cls-1,.cls-2,.cls-3,.cls-4{fill-rule:evenodd;}.cls-2,.cls-5{fill:#fff;}.cls-3{fill:#008ad1;}.cls-4{fill:#1d1d1b;}</style></defs><path class="cls-1" d="M710.27,260.64V468.09a18.38,18.38,0,0,1-18.33,18.31H28.05A18.37,18.37,0,0,1,9.74,468.09V260.64a18.37,18.37,0,0,1,18.31-18.31H691.94A18.38,18.38,0,0,1,710.27,260.64Z"/><path class="cls-2" d="M710.27,253.61V461.05a18.37,18.37,0,0,1-18.33,18.31H28.05A18.36,18.36,0,0,1,9.74,461.05V253.61A18.37,18.37,0,0,1,28.05,235.3H691.94A18.38,18.38,0,0,1,710.27,253.61Z"/><path class="cls-3" d="M697.51,264.18v186.3c0,9-7.94,16.45-17.65,16.45H40.13c-9.69,0-17.64-7.4-17.64-16.45V264.18c0-9.05,8-16.45,17.64-16.45H679.86C689.57,247.73,697.51,255.13,697.51,264.18Z"/><path class="cls-4" d="M708.57,461.05h0V253.61H712V461.05Zm-16.63,20,1,0,1-.07,1-.13,1-.18,1-.2,1-.27.93-.34.91-.35.89-.41.86-.44.83-.47.82-.54.79-.56.76-.58.7-.64.72-.65.66-.69.62-.74.6-.74.56-.78.53-.82.48-.83.45-.87.4-.9.36-.89.31-.94.27-.93.22-1,.18-1,.12-1,.08-1,0-1h-3.39l0,.87-.07.83-.1.85-.15.8-.19.78-.22.81-.27.76-.29.76-.34.73-.36.72-.41.69-.43.67-.46.65-.5.62-.52.63-.55.56-.58.55-.61.52-.63.51-.65.47-.68.42-.69.41-.72.35-.73.34-.76.31-.77.25-.78.22-.81.2-.81.14-.84.11-.84.06-.85,0v3.39ZM28.05,477.67H691.94v3.39H28.05v-3.39ZM8,461.05l0,1,.08,1,.12,1,.18,1,.22,1,.27.93.31.94.37.89.41.9.43.87.49.83.52.82L12,473l.6.76.62.74.67.69.71.65.72.64.75.58.78.56.82.54.83.47.86.44.88.41.92.35.93.34.95.27,1,.2,1,.18,1,.13,1,.07,1,0v-3.39l-.85,0-.84-.06-.84-.11-.81-.14-.8-.2-.78-.22-.77-.25-.76-.31-.73-.34-.72-.35-.69-.41-.67-.42-.66-.47-.64-.51-.6-.52-.57-.55-.56-.56-.52-.61-.5-.64-.46-.65-.43-.67-.4-.69-.37-.72-.33-.73-.3-.76-.26-.76-.23-.81-.18-.78-.15-.8-.11-.85-.07-.83v-.87Zm3.4-207.44h0V461.05H8V253.61Zm16.61-20-1,.05-1,.06-1,.14L24,234l-1,.2-.95.29-.93.31-.92.36-.88.4-.86.45-.83.46-.82.54-.78.56-.75.6-.72.63-.72.64-.66.72-.62.71-.6.76-.56.79-.52.8-.49.85L10,245l-.41.87-.37.92-.31.93-.27.94-.22,1-.18,1-.12,1-.08,1,0,1h3.4v-.85l.07-.83.11-.84.15-.81.18-.8.23-.78.26-.79.3-.73.33-.74.37-.71.4-.72.43-.67.46-.64.5-.63.52-.6.56-.58.57-.56.6-.52.64-.51.66-.45.67-.44.69-.4.72-.36.73-.34.76-.29.77-.26.78-.23.8-.18.81-.15.84-.11.84-.07h.85V233.6ZM691.94,237H28.05V233.6H691.94V237Zm20,16.59,0-1-.08-1-.12-1-.18-1-.22-1-.27-.94-.31-.93-.36-.92L710,245l-.45-.87-.48-.85-.53-.8-.56-.79-.6-.76-.62-.71-.66-.72-.72-.64-.7-.63-.76-.6-.79-.56-.82-.54-.83-.46-.86-.45-.89-.4-.91-.36-.93-.31-1-.29-1-.2-1-.18-1-.14-1-.06-1-.05V237h.85l.84.07.84.11.81.15.81.18.78.23.77.26.76.29.73.34.72.36.69.4.68.44.65.45.63.51.61.52.57.56.56.58.52.6.5.63.46.64.43.67.41.72.36.71.34.74.29.73.27.79.22.78.19.8.15.81.1.84.07.83,0,.85Z"/><path class="cls-5" d="M212.68,320v83.79H202.55a8.76,8.76,0,0,1-3.76-.72,9.2,9.2,0,0,1-3-2.5l-39.5-50c.15,1.49.26,2.94.31,4.34s.09,2.71.09,3.94v44.91H139.53V320h10.24a17.51,17.51,0,0,1,2.12.12,5.57,5.57,0,0,1,1.56.43,5.2,5.2,0,0,1,1.32.89,15.69,15.69,0,0,1,1.44,1.56l39.85,50.31c-.2-1.61-.33-3.17-.41-4.69s-.11-2.93-.11-4.28V320Z"/><path class="cls-5" d="M311.12,361.87a45.15,45.15,0,0,1-3.13,16.9,40.76,40.76,0,0,1-8.83,13.6,40.26,40.26,0,0,1-13.72,9.06,50,50,0,0,1-35.62,0,40,40,0,0,1-22.62-22.66,47.08,47.08,0,0,1,0-33.81,40.07,40.07,0,0,1,8.85-13.57,41,41,0,0,1,13.77-9,47,47,0,0,1,17.83-3.27,46.32,46.32,0,0,1,17.79,3.3,41.15,41.15,0,0,1,13.72,9.06A40.53,40.53,0,0,1,308,345,45.08,45.08,0,0,1,311.12,361.87Zm-19.9,0a36.08,36.08,0,0,0-1.61-11.19,23.55,23.55,0,0,0-4.63-8.42A20,20,0,0,0,277.6,337a25.4,25.4,0,0,0-10-1.84,25.75,25.75,0,0,0-10,1.84,19.92,19.92,0,0,0-7.41,5.29,23.55,23.55,0,0,0-4.63,8.42,39.87,39.87,0,0,0,0,22.43,23.6,23.6,0,0,0,4.63,8.43,19.63,19.63,0,0,0,7.41,5.26,26.13,26.13,0,0,0,10,1.81,25.77,25.77,0,0,0,10-1.81,19.68,19.68,0,0,0,7.38-5.26,23.6,23.6,0,0,0,4.63-8.43A36.19,36.19,0,0,0,291.22,361.87Z"/><path class="cls-5" d="M368.68,335v19.55H395v14.37H368.68v20h34.39v15H349.13V320h53.94v15Z"/><path class="cls-5" d="M486.91,403.79H467.47a4.86,4.86,0,0,1-3.07-.92,6.94,6.94,0,0,1-1.87-2.18l-16.79-29.33a12,12,0,0,1-1,2.18l-15.64,27.15a12.61,12.61,0,0,1-1.9,2.12,4.08,4.08,0,0,1-2.82,1H406.17l27-43.13L407.21,320h19.43a6,6,0,0,1,2.79.5,4.3,4.3,0,0,1,1.59,1.63l16.67,28.24a11.76,11.76,0,0,1,.66-1.44c.25-.46.53-.94.84-1.43l14.6-25.08a6,6,0,0,1,1.7-1.84,4,4,0,0,1,2.21-.58h18.63l-26.27,39.86Z"/><path class="cls-5" d="M513.93,403.79H494.38V320h19.55Z"/><path class="cls-5" d="M590.36,335.42H566.78v68.37H547.34V335.42H523.77V320h66.59Z"/></svg>