<svg id="Layer_1" data-name="Layer 1" xmlns="http://www.w3.org/2000/svg" viewBox="0 0 720 720"><defs><style>.cls-1{fill:#9c9b9b;}.cls-1,.cls-2,.cls-3,.cls-4{fill-rule:evenodd;}.cls-2,.cls-5{fill:#fff;}.cls-3{fill:#008ad1;}.cls-4{fill:#1d1d1b;}</style></defs><path class="cls-1" d="M708.5,261.15V467.54a18.28,18.28,0,0,1-18.23,18.22H29.72A18.28,18.28,0,0,1,11.5,467.54V261.15a18.28,18.28,0,0,1,18.22-18.22H690.27A18.28,18.28,0,0,1,708.5,261.15Z"/><path class="cls-2" d="M708.5,254.15V460.54a18.28,18.28,0,0,1-18.23,18.22H29.72A18.28,18.28,0,0,1,11.5,460.54V254.15a18.28,18.28,0,0,1,18.22-18.22H690.27A18.28,18.28,0,0,1,708.5,254.15Z"/><path class="cls-3" d="M695.81,264.66V450c0,9-7.9,16.36-17.57,16.36H41.74c-9.64,0-17.55-7.36-17.55-16.36V264.66c0-9,7.91-16.36,17.55-16.36h636.5C687.91,248.3,695.81,255.66,695.81,264.66Z"/><path class="cls-4" d="M706.81,460.54h0V254.15h3.38V460.54Zm-16.54,19.91,1,0,1-.07,1-.13,1-.18,1-.2,1-.27.92-.33.91-.36.88-.4.85-.44.84-.47.81-.53.79-.56.75-.58.7-.64.71-.64.66-.69.62-.74.59-.73.56-.78.53-.82.47-.82.45-.87.4-.88.35-.89.32-.94.26-.93.22-1,.18-1,.12-1,.08-1,0-1h-3.38l0,.87-.07.82-.1.85-.15.8-.18.77-.22.8-.27.76-.29.75-.35.74-.35.71-.41.69-.42.66-.46.65-.5.62-.52.62-.55.56-.57.55-.6.51-.64.52-.64.46-.68.42-.69.4-.71.36-.73.33-.76.31-.76.25-.78.22-.8.2-.81.13-.84.11-.83.07-.84,0v3.38ZM29.72,477.07H690.27v3.38H29.72v-3.38ZM9.81,460.54l0,1,.08,1,.12,1,.18,1,.22,1,.26.93.32.94.36.89.4.88.44.87.48.82.52.82.56.76.59.75.62.74.67.69.7.64.72.64.75.58.77.56.81.53.84.47.85.44.88.4.91.36.92.33.95.27,1,.2,1,.18,1,.13,1,.07,1,0v-3.38l-.84,0L28,477l-.83-.11-.81-.13-.79-.2-.78-.22-.76-.25-.76-.31-.73-.33-.71-.36-.69-.4-.67-.42-.65-.46-.64-.52-.6-.51-.56-.55-.56-.56-.52-.6-.5-.64-.46-.65-.42-.66-.4-.69-.36-.71L14.5,467l-.3-.75-.25-.76-.24-.8-.17-.77-.15-.8-.11-.85-.07-.82v-.87ZM13.2,254.15h0V460.54H9.81V254.15Zm16.52-19.91-1,0-1,.07-1,.13-1,.18-1,.2-.95.29-.92.31-.91.36-.88.4-.85.44-.84.47-.81.53-.77.56-.75.6-.72.62-.71.64-.66.72-.62.71-.59.75-.56.78-.52.8-.48.84-.44.87-.4.86-.36.92-.32.93-.26.93-.22,1-.18,1-.12,1-.08,1,0,1H13.2v-.85l.07-.82.11-.84.15-.8.17-.8.24-.78.25-.78.3-.73.34-.73.36-.72.4-.71.42-.66.46-.65.5-.62.52-.6.56-.58.56-.55.6-.51.64-.52.65-.44.67-.44.69-.4.71-.36.73-.33.76-.29.76-.27.78-.22.79-.18.81-.15.83-.11.84-.07h.84v-3.4Zm660.55,3.4H29.72v-3.4H690.27v3.4Zm19.92,16.51,0-1-.08-1-.12-1-.18-1-.22-1-.26-.93-.32-.93-.35-.92-.4-.86-.45-.87-.47-.84-.53-.8-.56-.78-.59-.75-.62-.71-.66-.72-.71-.64-.7-.62-.75-.6-.79-.56-.81-.53-.84-.47-.85-.44-.88-.4-.91-.36-.92-.31-1-.29-1-.2-1-.18-1-.13-1-.07-1,0v3.4h.84l.83.07.84.11.81.15.8.18.78.22.76.27.76.29.73.33.71.36.69.4.68.44.64.44.64.52.6.51.56.55.56.58.52.6.5.62.46.65.42.66.41.71.35.72.35.73.29.73.27.78.22.78.18.8.15.8.1.84.07.82,0,.85Z"/><path class="cls-5" d="M153.2,320.21v83.36H143.13a8.74,8.74,0,0,1-3.75-.72,9.06,9.06,0,0,1-3-2.48l-39.3-49.72c.15,1.48.25,2.92.31,4.32s.09,2.69.09,3.92v44.68h-17V320.21H90.61a17.76,17.76,0,0,1,2.12.11,5.53,5.53,0,0,1,1.54.43,5.2,5.2,0,0,1,1.32.89A15.17,15.17,0,0,1,97,323.18l39.65,50.07c-.19-1.61-.33-3.16-.4-4.67s-.12-2.92-.12-4.26V320.21Z"/><path class="cls-5" d="M251.15,361.86A44.77,44.77,0,0,1,248,378.68a40.58,40.58,0,0,1-8.78,13.53,40.08,40.08,0,0,1-13.65,9,49.65,49.65,0,0,1-35.44,0,39.79,39.79,0,0,1-22.51-22.54,46.9,46.9,0,0,1,0-33.64,39.88,39.88,0,0,1,8.81-13.5,40.69,40.69,0,0,1,13.7-9,46.7,46.7,0,0,1,17.74-3.26,46.08,46.08,0,0,1,17.7,3.29,41,41,0,0,1,13.65,9A40.4,40.4,0,0,1,248,345.1,44.61,44.61,0,0,1,251.15,361.86Zm-19.8,0a36,36,0,0,0-1.6-11.13,23.63,23.63,0,0,0-4.6-8.38,20,20,0,0,0-7.35-5.26,25.36,25.36,0,0,0-9.9-1.83,25.72,25.72,0,0,0-10,1.83,19.82,19.82,0,0,0-7.38,5.26,23.63,23.63,0,0,0-4.6,8.38,39.45,39.45,0,0,0,0,22.31,23.67,23.67,0,0,0,4.6,8.39,19.53,19.53,0,0,0,7.38,5.23,25.9,25.9,0,0,0,10,1.81,25.55,25.55,0,0,0,9.9-1.81,19.66,19.66,0,0,0,7.35-5.23,23.67,23.67,0,0,0,4.6-8.39A36.1,36.1,0,0,0,231.35,361.86Z"/><path class="cls-5" d="M308.42,335.08v19.46h26.21v14.3H308.42v19.85h34.21v14.88H289V320.21h53.66v14.87Z"/><path class="cls-5" d="M427.31,320.21v83.36H417.24a8.71,8.71,0,0,1-3.75-.72,9.06,9.06,0,0,1-3-2.48l-39.31-49.72c.15,1.48.26,2.92.32,4.32s.08,2.69.08,3.92v44.68H354.53V320.21h10.19a17.58,17.58,0,0,1,2.11.11,5.5,5.5,0,0,1,1.55.43,5.15,5.15,0,0,1,1.31.89,15.12,15.12,0,0,1,1.44,1.54l39.65,50.07c-.2-1.61-.33-3.16-.41-4.67s-.11-2.92-.11-4.26V320.21Z"/><path class="cls-5" d="M503.35,335.54H479.89v68H460.55v-68H437.09V320.21h66.26Z"/><path class="cls-5" d="M581.33,403.57H563.82q-4.86,0-7-3.66L543,375.71a5.65,5.65,0,0,0-5.61-3h-4.92v30.84H513.13V320.21h27.12a55.71,55.71,0,0,1,15.42,1.86,28.85,28.85,0,0,1,10.41,5.18,19.67,19.67,0,0,1,5.87,7.83,26.23,26.23,0,0,1,1.82,9.85,26.56,26.56,0,0,1-1.08,7.66,23.63,23.63,0,0,1-3.21,6.67,24.32,24.32,0,0,1-5.23,5.46,28,28,0,0,1-7.18,3.95,17.75,17.75,0,0,1,3.55,2.43,17,17,0,0,1,3,3.46ZM540.25,359.4a19.83,19.83,0,0,0,6.72-1,12.08,12.08,0,0,0,4.55-2.78,10.65,10.65,0,0,0,2.58-4.14,16.06,16.06,0,0,0,.8-5.12,10.76,10.76,0,0,0-3.58-8.59c-2.39-2.06-6.07-3.08-11.07-3.08h-7.78V359.4Z"/><path class="cls-5" d="M623.84,371.87v31.7H604.5v-31.7l-30.21-51.66h17.05a6.2,6.2,0,0,1,4,1.17,9.47,9.47,0,0,1,2.43,3l11.78,24.25c1,1.91,1.89,3.69,2.69,5.36s1.51,3.28,2.12,4.89q.85-2.46,2-4.95t2.61-5.3l11.67-24.25a10.49,10.49,0,0,1,1-1.49,7.19,7.19,0,0,1,1.35-1.35,6.55,6.55,0,0,1,1.77-1,6.23,6.23,0,0,1,2.2-.37h17.17Z"/></svg>