<svg id="Layer_1" data-name="Layer 1" xmlns="http://www.w3.org/2000/svg" viewBox="0 0 720 720"><defs><style>.cls-1{fill:#9c9b9b;}.cls-1,.cls-2,.cls-3{fill-rule:evenodd;}.cls-2,.cls-5{fill:#fff;}.cls-2{stroke:#1d1d1b;stroke-miterlimit:500;stroke-width:2.21px;}.cls-3{fill:#008ad1;}.cls-4{fill:#e20613;}</style></defs><path class="cls-1" d="M91.13,675.23a41.54,41.54,0,0,1-41.38-41.38V96.07A41.46,41.46,0,0,1,91.13,54.7H628.87a41.37,41.37,0,0,1,41.38,41.37V633.85a41.45,41.45,0,0,1-41.38,41.38Z"/><path class="cls-2" d="M91.13,665.28a41.54,41.54,0,0,1-41.38-41.36V86.13A41.44,41.44,0,0,1,91.13,44.77H628.87a41.36,41.36,0,0,1,41.38,41.37V623.92a41.44,41.44,0,0,1-41.38,41.36Z"/><path class="cls-3" d="M91.05,649.65A25.78,25.78,0,0,1,65.3,623.9V86.13A25.8,25.8,0,0,1,91.05,60.28H628.81A25.84,25.84,0,0,1,654.7,86.14V623.9a25.83,25.83,0,0,1-25.89,25.75Z"/><rect class="cls-4" x="156.31" y="148.11" width="407.39" height="88.08"/><rect class="cls-5" x="202.29" y="349.86" width="315.42" height="88.08" transform="translate(753.9 33.9) rotate(90)"/></svg>