<svg id="Layer_1" data-name="Layer 1" xmlns="http://www.w3.org/2000/svg" viewBox="0 0 720 720"><defs><style>.cls-1{fill:#9c9b9b;}.cls-1,.cls-2,.cls-3,.cls-4{fill-rule:evenodd;}.cls-2{fill:#008ad1;}.cls-3{fill:#1d1d1b;}.cls-4{fill:#fff;}.cls-5{fill:#e20613;}</style></defs><path class="cls-1" d="M88.54,690.35V39.11a13.69,13.69,0,0,1,13.58-13.7H617.9a13.67,13.67,0,0,1,13.56,13.7V690.35A13.66,13.66,0,0,1,617.9,704H102.12A13.68,13.68,0,0,1,88.54,690.35Z"/><path class="cls-2" d="M88.54,682.83V31.61A13.69,13.69,0,0,1,102.12,17.9H617.9a13.67,13.67,0,0,1,13.56,13.71V682.83a13.67,13.67,0,0,1-13.56,13.71H102.12A13.7,13.7,0,0,1,88.54,682.83Z"/><path class="cls-3" d="M90.49,31.61h0V682.83H86.6V31.61ZM102.12,16h-.78l-.79.07-.79.1-.74.13-.77.19-.72.22-.72.23-.72.28-.7.32-.66.35-.63.38-.64.41-.61.43-.59.47-.54.49-.55.52-.53.55-.48.56-.46.58-.44.63-.41.64-.37.65-.33.66-.33.69-.26.73L87.3,27l-.2.74-.18.76-.13.76-.11.79-.06.78,0,.81h3.89l0-.63,0-.59.07-.57.11-.58.13-.57L91,28.1l.2-.54.2-.53.24-.51.26-.51.28-.5.29-.48.33-.45.35-.46.37-.42.39-.41.4-.39.43-.37.44-.35.44-.32.48-.3.5-.3.51-.26.52-.23.5-.2.55-.2.55-.16.54-.12.6-.12.56-.07.59,0h.59V16ZM617.9,19.85H102.12V16H617.9v3.89Zm15.5,11.76,0-.81,0-.78-.11-.79-.13-.76-.18-.76L632.7,27l-.24-.72-.28-.73-.31-.69-.35-.66-.37-.66-.39-.62-.44-.62-.46-.6-.48-.56-.52-.55-.55-.52-.55-.49-.59-.47-.61-.43-.64-.41-.63-.38-.68-.35-.68-.32-.72-.28-.72-.23-.72-.22-.77-.19-.76-.13-.77-.1-.78-.07h-.79v3.89h.61l.57,0,.57.07.59.12.52.12.57.16.55.2.5.2.51.23.52.26.5.3.46.3.46.32.44.35.41.37.42.39.37.41.37.42.35.45.33.46.31.49.28.49.26.51.22.53.22.51.18.54.15.57.13.57.11.58.09.57,0,.59v.63Zm-3.89,651.22h0V31.61h3.89V682.83ZM617.9,698.49l.79,0,.78-.07.77-.11.76-.13.77-.16.72-.23.72-.23.72-.29.68-.33.68-.33.63-.38.64-.42.61-.43.59-.48.55-.48.55-.5.52-.56.48-.57.46-.59.42-.61.41-.65.37-.64.35-.67.31-.69.28-.72.24-.72.2-.76.2-.74.13-.76.11-.8,0-.8,0-.79h-3.89v.62l0,.59-.09.58-.11.57-.11.59-.17.55-.18.54-.22.53-.24.54-.24.49-.28.5-.31.48-.33.46-.35.45-.37.43-.37.4-.42.39-.41.38-.44.34-.46.33-.46.3-.5.29-.52.26-.51.24-.5.2-.55.18-.57.16-.52.15-.59.09-.57.08-.57,0h-.61v3.9Zm-515.78-3.9H617.9v3.9H102.12v-3.9ZM86.6,682.83l0,.79.06.8.11.8.13.76.18.74.2.76.26.72.26.7.33.71.33.67.37.64.41.66.44.61.46.58.48.57.53.56.55.5.54.48.59.48.61.43.64.42.63.38.66.33.7.33.72.29.72.23.72.23.77.16.74.13.79.11.79.07.78,0v-3.9h-.59l-.59,0-.56-.08-.6-.09-.54-.15-.55-.16-.55-.18-.5-.2-.52-.24-.51-.26-.5-.29-.48-.3-.44-.33-.44-.34-.43-.38-.4-.39-.39-.4-.37-.43-.35-.46-.33-.46-.29-.47-.28-.5-.26-.49-.24-.52-.2-.55-.2-.54-.15-.55-.13-.59-.11-.57-.07-.58,0-.59,0-.62Z"/><path class="cls-4" d="M97.82,674V40.49a13.25,13.25,0,0,1,13.1-13.33H609.08a13.27,13.27,0,0,1,13.13,13.33V674a13.27,13.27,0,0,1-13.13,13.34H110.92A13.24,13.24,0,0,1,97.82,674Z"/><path class="cls-2" d="M613,207.75V665.08a12.86,12.86,0,0,1-12.66,13H387.59V433.11Z"/><path class="cls-2" d="M332.43,678.05V196.71H273.69V113.38H446.32v83.33H387.59v158.4L613,129.72V49.37a12.83,12.83,0,0,0-12.66-12.94H119.71a12.84,12.84,0,0,0-12.66,12.94V665.08a12.87,12.87,0,0,0,12.66,13Z"/><rect class="cls-5" x="279.63" y="119.31" width="160.73" height="71.46"/></svg>