<svg id="Layer_1" data-name="Layer 1" xmlns="http://www.w3.org/2000/svg" viewBox="0 0 720 720"><defs><style>.cls-1{fill:#9c9b9b;}.cls-1,.cls-2,.cls-3,.cls-4{fill-rule:evenodd;}.cls-2{fill:#fff;}.cls-3{fill:#008ad1;}.cls-4{fill:#1d1d1b;}</style></defs><path class="cls-1" d="M703,295.91V429.72c0,6.5-8.06,11.81-17.94,11.81H35c-9.85,0-17.92-5.31-17.92-11.81V295.91c0-6.5,8.07-11.81,17.92-11.81H685C694.9,284.1,703,289.41,703,295.91Z"/><path class="cls-2" d="M703,291.37V425.18C703,431.68,694.9,437,685,437H35C25.11,437,17,431.68,17,425.18V291.37c0-6.49,8.07-11.81,17.92-11.81H685C694.9,279.56,703,284.88,703,291.37Z"/><path class="cls-3" d="M696.05,298.19V418.37c0,5.83-7.9,10.6-17.58,10.6H41.52C31.86,429,24,424.2,24,418.37V298.19c0-5.83,7.91-10.61,17.57-10.61h637C688.15,287.58,696.05,292.36,696.05,298.19Z"/><path class="cls-4" d="M701.3,425.18h0V291.37h3.33V425.18ZM685,438.09l1,0,1,0,1-.09,1-.11.94-.13.94-.18.91-.21.89-.23.87-.26.84-.29.82-.3.8-.35.78-.36.74-.37.69-.42.7-.42.64-.44.61-.48.58-.47.56-.51.51-.53.47-.54.44-.56.4-.57.35-.58.3-.6.26-.61.22-.63.18-.64.12-.63.07-.66,0-.67H701.3l0,.57-.06.53-.1.55-.15.52-.18.5-.22.52-.26.49-.29.49-.34.47-.34.46-.41.45-.41.43-.45.42-.49.4-.52.41-.53.36-.57.36-.59.33-.63.33-.63.3-.67.28-.68.25-.69.23-.73.22-.74.2-.76.16-.76.15-.79.12-.79.09-.83.07-.81.05H685v2.19ZM35,435.9H685v2.19H35V435.9ZM15.37,425.18l0,.67.07.66.12.63.18.64.22.63.26.61.31.6.36.58.39.57.43.56.48.54.5.53.56.49.58.49.61.48.65.44.69.42.71.42.74.37.76.36.8.35.82.3.84.29.87.26.89.23.91.21.93.18.95.13,1,.11,1,.09,1,0,1,0V435.9h-.83l-.82-.05-.82-.07-.79-.09-.78-.12-.77-.15-.75-.16-.74-.2-.73-.22-.69-.23-.68-.25-.66-.28-.64-.3-.63-.33-.59-.33-.55-.36-.55-.36-.51-.39-.5-.42-.45-.42-.41-.43-.39-.45-.36-.46-.33-.47-.3-.49-.25-.49-.23-.52-.17-.5-.15-.52-.11-.55-.06-.53v-.57Zm3.34-133.81h0V425.18H15.37V291.37ZM35,278.47l-1,0-1,0-1,.09-1,.11-.95.13-.93.19-.91.2-.89.23-.87.26-.84.29-.82.3-.8.35-.76.36-.74.38-.71.41-.7.42-.64.46-.61.46-.58.49-.56.5-.5.52-.48.55-.43.56-.39.56-.36.59-.31.61-.26.6-.22.62-.18.65-.12.63-.07.66,0,.65h3.34v-.54l.06-.54.11-.55.15-.51.17-.52.23-.51.25-.5.3-.48.33-.47.36-.46.39-.46.41-.43.45-.42.5-.41.51-.38.55-.38.55-.36.59-.33.63-.33.64-.29.66-.29.68-.26.69-.23.73-.21.74-.19.75-.17.77-.15.78-.11.79-.1.82-.08.82,0H35v-2.2ZM685,280.67H35v-2.2H685v2.2Zm19.61,10.7,0-.65-.07-.66-.12-.63-.18-.65-.22-.62-.26-.6-.3-.61-.35-.59-.4-.56-.44-.56-.47-.55-.51-.52-.56-.5-.58-.49-.61-.46-.64-.46-.7-.42-.69-.41-.74-.38-.78-.36-.8-.35-.82-.3-.84-.29-.87-.26-.89-.23-.91-.2-.94-.19-.94-.13-1-.11-1-.09-1,0-1,0v2.2h.84l.81,0,.83.08.79.1.79.11.76.15.76.17.74.19.73.21.69.23.68.26.67.29.63.29.63.33.59.33.55.36.55.38.52.38.49.41.45.42.41.43.41.46.34.46.34.47.29.48.26.5.22.51.18.52.15.51.1.55.06.54,0,.54Z"/><polygon class="cls-2" points="549.19 398.43 604.51 357.88 549.19 317.34 549.19 342.25 115.49 342.25 115.49 373.52 549.19 373.52 549.19 398.43"/></svg>