<svg id="Layer_1" data-name="Layer 1" xmlns="http://www.w3.org/2000/svg" viewBox="0 0 720 720"><defs><style>.cls-1{fill:#9c9b9b;}.cls-1,.cls-2,.cls-3,.cls-4{fill-rule:evenodd;}.cls-2{fill:#fff;}.cls-3{fill:#008ad1;}.cls-4{fill:#1d1d1b;}</style></defs><path class="cls-1" d="M19.59,296.39V429.2c0,6.45,8,11.73,17.81,11.73H682.61c9.78,0,17.8-5.28,17.8-11.73V296.39c0-6.45-8-11.73-17.8-11.73H37.4C27.6,284.66,19.59,289.94,19.59,296.39Z"/><path class="cls-2" d="M19.59,291.88V424.7c0,6.45,8,11.72,17.81,11.72H682.61c9.78,0,17.8-5.27,17.8-11.72V291.88c0-6.44-8-11.72-17.8-11.72H37.4C27.6,280.16,19.59,285.44,19.59,291.88Z"/><path class="cls-3" d="M26.45,298.65V417.93c0,5.79,7.85,10.53,17.45,10.53H676.11c9.58,0,17.44-4.74,17.44-10.53V298.65c0-5.79-7.86-10.53-17.44-10.53H43.9C34.3,288.12,26.45,292.86,26.45,298.65Z"/><path class="cls-4" d="M21.24,424.7h-3.3V291.88h3.3V424.7ZM37.4,437.51v-2.17l-.83,0-.81,0-.82-.07-.79-.09-.78-.13-.76-.14-.75-.16-.73-.2-.72-.21-.7-.23-.67-.26-.66-.27-.63-.3-.62-.33-.58-.33L26,432.2l-.53-.35-.51-.4-.49-.4-.44-.42-.42-.43-.4-.44-.34-.46-.34-.47-.28-.48-.26-.49-.22-.52-.18-.5-.15-.51-.09-.55-.07-.52,0-.56h-3.3l0,.66.08.65.12.63.17.63.22.63.26.6.3.6.35.57.39.58.44.55.46.53.51.53.56.5.57.47.61.48.64.44.69.41.69.42.73.37.77.36.8.34.81.3.84.29.85.25.89.23.9.22.94.17.93.13,1,.11,1,.09,1,0,1,0Zm645.21-2.17v2.17H37.4v-2.17Zm19.45-10.64h-3.31v.56l-.07.52-.1.55-.15.51-.17.5-.23.52-.25.49-.29.48-.33.47-.35.46-.39.44-.42.43-.44.42-.49.41-.51.39-.54.35-.56.36-.58.33-.62.33-.64.3-.65.27-.67.26-.7.23-.71.21-.74.2-.75.16-.76.14-.77.13-.79.09-.82.07-.81,0-.83,0v2.17l1,0,1,0,1-.09,1-.11.94-.13.93-.17.9-.22.89-.23.85-.25.84-.29.81-.3.8-.34.75-.36.73-.37.71-.42.68-.41.65-.44.61-.48.57-.48.56-.49.5-.53.47-.53.43-.55.39-.58.36-.57.3-.6.26-.6.22-.63.17-.63L702,426l.08-.65,0-.66Zm-3.31-132.82h3.31V424.7h-3.31V291.88Zm-16.14-12.81v2.19h.83l.81,0,.82.08.79.1.77.11.76.14.75.17.74.19.71.22.7.22.67.26.65.29.64.28.62.33.58.33.56.36.54.37.51.39.49.4.44.41.42.43.39.46.35.45.33.48.29.47.25.5.23.5.17.51.15.52.1.54.07.53v.54h3.31l0-.64-.08-.66-.12-.63-.17-.64-.22-.61-.26-.6-.3-.6-.36-.59-.39-.56-.43-.56-.47-.54-.5-.51-.56-.5-.57-.49-.61-.46-.64-.46-.69-.41L695,282l-.73-.39-.75-.35-.8-.35-.81-.3-.84-.28-.85-.26-.89-.23-.9-.2-.93-.19-.94-.12-1-.12-1-.08-1,0-1,0ZM37.4,281.26v-2.19H682.61v2.19ZM21.24,291.88l0-.54.07-.53.09-.54.15-.52.18-.51.22-.5.26-.5.28-.47.34-.48.34-.45.4-.46L24,286l.44-.41.49-.4.51-.39.54-.37.56-.36.58-.33.62-.33.63-.28.66-.29.67-.26.7-.22.72-.22.73-.19.75-.17.76-.14.78-.11.79-.1.82-.08.81,0h.83v-2.19l-1,0-1,0-1,.08-1,.12-.93.12-.94.19-.9.2-.89.23-.85.26-.84.28-.81.3-.8.35-.77.35L25,282l-.69.4-.69.41-.64.46-.61.46-.57.49-.56.5-.51.51-.46.54-.44.56-.39.56-.35.59-.3.6-.26.6-.22.61-.17.64-.12.63-.08.66,0,.64Z"/><polygon class="cls-2" points="172.22 398.14 117.31 357.9 172.22 317.66 172.22 342.38 602.69 342.38 602.69 373.42 172.22 373.42 172.22 398.14"/></svg>