<svg id="Layer_1" data-name="Layer 1" xmlns="http://www.w3.org/2000/svg" viewBox="0 0 720 720"><defs><style>.cls-1{fill:#9c9b9b;}.cls-1,.cls-2,.cls-3,.cls-4{fill-rule:evenodd;}.cls-2,.cls-5{fill:#fff;}.cls-3{fill:#008ad1;}.cls-4{fill:#1d1d1b;}</style></defs><path class="cls-1" d="M693.78,265.32V463a17.5,17.5,0,0,1-17.46,17.45H43.67A17.5,17.5,0,0,1,26.22,463V265.32a17.5,17.5,0,0,1,17.45-17.45H676.32A17.5,17.5,0,0,1,693.78,265.32Z"/><path class="cls-2" d="M693.78,258.62V456.3a17.5,17.5,0,0,1-17.46,17.45H43.67A17.5,17.5,0,0,1,26.22,456.3V258.62a17.5,17.5,0,0,1,17.45-17.45H676.32A17.5,17.5,0,0,1,693.78,258.62Z"/><path class="cls-3" d="M681.63,268.69V446.23c0,8.62-7.57,15.67-16.82,15.67H55.18c-9.23,0-16.81-7-16.81-15.67V268.69C38.37,260.07,46,253,55.18,253H664.81C674.06,253,681.63,260.07,681.63,268.69Z"/><path class="cls-4" d="M692.17,456.3h0V258.62h3.23V456.3Zm-15.85,19.06,1,0,1-.06,1-.13.93-.17.92-.19.91-.26.89-.32.87-.34.84-.38.82-.43.79-.44.78-.51.76-.54.72-.55.67-.62.68-.61.63-.66.6-.7.56-.71.54-.74.5-.79.46-.79.43-.83.38-.85.34-.85.3-.89.25-.9.21-.93.17-.94.12-.93.08-1,0-1h-3.23l0,.83-.06.78-.1.81-.14.77-.18.74-.21.77-.25.72-.28.73-.33.7-.34.68-.39.66-.41.64-.44.62-.47.59-.5.6-.52.53L687,468l-.57.49-.61.49-.62.45-.65.4-.66.38-.68.34-.7.32-.72.3-.74.24-.74.21-.77.19-.77.13-.8.1-.8.07-.81,0v3.23ZM43.67,472.13H676.32v3.23H43.67v-3.23ZM24.6,456.3l0,1,.08,1,.11.93.17.94.22.93.25.9.3.89.35.85.38.85.42.83.47.79.49.79.54.72.56.73.6.7.64.66.67.61.69.62.71.55.75.54.77.51.8.44.82.43.84.38.87.34.89.32.9.26.93.19.93.17.95.13,1,.06,1,0v-3.23l-.81,0-.8-.07-.8-.1-.77-.13-.76-.19-.74-.21-.74-.24-.72-.3-.7-.32-.69-.34-.65-.38-.64-.4-.63-.45-.61-.49L33,468l-.54-.53-.54-.53-.5-.58-.48-.61-.43-.62-.41-.64-.38-.66-.35-.68-.32-.7-.29-.73-.24-.72-.22-.77-.17-.74-.14-.77-.11-.81-.06-.78v-.83Zm3.25-197.68h0V456.3H24.6V258.62Zm15.82-19.07-1,0-1,.07-.95.12-.93.17-.93.2-.9.27-.89.3-.87.34-.84.38-.82.43-.8.45-.77.51-.75.53-.71.57-.69.6-.68.62-.63.68-.6.68-.56.72-.54.75-.49.76-.47.81-.42.83-.38.83-.35.87-.3.9-.25.89-.22.92-.17,1-.11.94-.08,1,0,1h3.25v-.81l.06-.79.11-.81.14-.76.17-.77.22-.75.24-.74.29-.7.32-.7.35-.69.38-.68.41-.63.43-.62.48-.6L32,248l.54-.55.54-.54.57-.49.61-.49.63-.42.64-.43.65-.38.69-.34.7-.32.72-.28.74-.25.74-.22.76-.17.77-.14.8-.11.8-.06h.81v-3.26Zm632.65,3.26H43.67v-3.26H676.32v3.26Zm19.08,15.81,0-1-.08-1-.12-.94-.17-1-.21-.92-.25-.89-.3-.9-.34-.87-.38-.83-.43-.83-.46-.81-.5-.76-.54-.75-.56-.72-.6-.68-.63-.68-.68-.62-.67-.6-.72-.57-.76-.53-.78-.51-.79-.45-.82-.43-.84-.38-.87-.34-.89-.3-.91-.27-.92-.2-.93-.17-1-.12-1-.07-1,0v3.26h.81l.8.06.8.11.77.14.77.17.74.22.74.25.72.28.7.32.68.34.66.38.65.43.62.42.61.49.57.49.54.54.54.55.5.57.47.6.44.62.41.63.39.68.34.69.33.7.28.7.25.74.21.75.18.77.14.76.1.81.06.79,0,.81Z"/><path class="cls-5" d="M307.85,360.72a71.48,71.48,0,0,1-5,26.85,63.44,63.44,0,0,1-35.8,36,79.41,79.41,0,0,1-56.58,0,63.53,63.53,0,0,1-35.94-36,74.87,74.87,0,0,1,0-53.7,63.79,63.79,0,0,1,14.07-21.55A65.12,65.12,0,0,1,210.49,298a74.6,74.6,0,0,1,28.31-5.2A73.57,73.57,0,0,1,267.07,298a65.22,65.22,0,0,1,21.78,14.39,64.21,64.21,0,0,1,14,21.55A71.23,71.23,0,0,1,307.85,360.72Zm-31.6,0A57.41,57.41,0,0,0,273.69,343a37.63,37.63,0,0,0-7.35-13.37,31.69,31.69,0,0,0-11.74-8.41,40.5,40.5,0,0,0-15.8-2.92,41.06,41.06,0,0,0-15.93,2.92,31.63,31.63,0,0,0-11.79,8.41A37.78,37.78,0,0,0,203.73,343a63.47,63.47,0,0,0,0,35.62A37.88,37.88,0,0,0,211.08,392a31.27,31.27,0,0,0,11.79,8.35,41.44,41.44,0,0,0,15.93,2.88,40.88,40.88,0,0,0,15.8-2.88A31.32,31.32,0,0,0,266.34,392a37.72,37.72,0,0,0,7.35-13.39A57.62,57.62,0,0,0,276.25,360.72Z"/><path class="cls-5" d="M381.55,402.91a28.42,28.42,0,0,0,11.1-2.05,22.54,22.54,0,0,0,8.26-5.89,26.17,26.17,0,0,0,5.16-9.36,40.83,40.83,0,0,0,1.78-12.56V294.23h30.87v78.82a61.54,61.54,0,0,1-4,22.47,50.39,50.39,0,0,1-11.37,17.62,51.34,51.34,0,0,1-18,11.51,71.46,71.46,0,0,1-47.77,0,51.34,51.34,0,0,1-18-11.51,49.72,49.72,0,0,1-11.32-17.62,62.17,62.17,0,0,1-3.93-22.47V294.23h30.87V373A40.83,40.83,0,0,0,357,385.52a26.53,26.53,0,0,0,5.16,9.4,22.21,22.21,0,0,0,8.26,5.94A28.42,28.42,0,0,0,381.55,402.91Z"/><path class="cls-5" d="M558.46,318.71H521V427.3H490.14V318.71H452.7V294.23H558.46Z"/></svg>