<svg id="Layer_1" data-name="Layer 1" xmlns="http://www.w3.org/2000/svg" viewBox="0 0 720 720"><defs><style>.cls-1{fill:#9c9b9b;}.cls-1,.cls-2,.cls-3,.cls-4{fill-rule:evenodd;}.cls-2{fill:#008ad1;}.cls-3{fill:#1d1d1b;}.cls-4{fill:#fff;}</style></defs><path class="cls-1" d="M89,689.78V39.67A13.65,13.65,0,0,1,102.56,26H617.42A13.66,13.66,0,0,1,631,39.67V689.78a13.64,13.64,0,0,1-13.56,13.67H102.56A13.64,13.64,0,0,1,89,689.78Z"/><path class="cls-2" d="M89,682.29V32.19A13.65,13.65,0,0,1,102.56,18.5H617.42A13.65,13.65,0,0,1,631,32.19v650.1A13.64,13.64,0,0,1,617.42,696H102.56A13.64,13.64,0,0,1,89,682.29Z"/><path class="cls-3" d="M91,32.19h0v650.1H87.08V32.19Zm11.6-15.64-.79,0-.78.07-.79.11-.74.13-.77.18-.72.21-.74.24-.7.29-.68.3-.67.35-.66.4-.63.39-.57.44-.59.45-.59.51-.52.52-.53.55-.48.54-.45.59-.44.63-.39.64-.38.63-.34.68-.31.7-.28.72-.24.7-.22.76-.18.74-.13.77-.09.78-.06.79,0,.81H91l0-.64L91,31l.06-.59.11-.59.13-.57.16-.55.17-.54.22-.55.22-.5.28-.5.26-.51.31-.48.33-.45.33-.44L94,24.3l.37-.43.41-.37.42-.37.44-.35.48-.33.45-.31.48-.28.51-.26.5-.24.54-.22.53-.18.55-.15.54-.13.59-.11.57-.06.56-.05.62,0V16.55Zm514.86,3.89H102.56V16.55H617.42v3.89Zm15.5,11.75,0-.81-.06-.79-.09-.78-.16-.77-.17-.74-.2-.74-.24-.75-.28-.69-.31-.7-.34-.68-.38-.63-.41-.66-.42-.61-.48-.59-.48-.56-.5-.53-.55-.52-.54-.51-.59-.45-.61-.44-.63-.39-.66-.4-.65-.32-.68-.33-.72-.29-.72-.24-.74-.21-.75-.18-.76-.13-.77-.11-.8-.07-.79,0v3.89l.61,0,.59.05.57.06.57.11.56.13.55.15.55.2.5.2.52.24.51.26.48.28.48.31.45.33.42.35.43.37.4.37.39.43.39.42.33.44.33.45.3.48.27.51.26.5.24.5.22.55.17.54.15.55.14.57.11.59L629,31l0,.56,0,.64ZM629,682.29h0V32.19h3.88v650.1Zm-11.62,15.63.79,0,.8-.07.77-.08.76-.14.75-.17.74-.22.72-.24.72-.3.68-.31.65-.35.66-.37.63-.41.61-.44.59-.46.54-.48.55-.55.5-.52.51-.57.45-.59.42-.61.41-.63.38-.66.34-.67.31-.68.28-.7.24-.74.2-.74.17-.75.14-.76.11-.79.06-.78,0-.81H629l0,.61,0,.59-.06.59-.11.57-.14.59-.15.54-.17.55-.22.52-.24.53-.26.5-.27.5-.3.46-.33.46-.35.46-.37.41-.39.42-.4.39-.43.37-.42.35-.45.33-.48.3-.48.29-.51.26-.52.24-.5.2-.55.19-.55.15-.56.14-.57.08-.57.09-.59,0h-.61v3.91ZM102.56,694H617.42v3.91H102.56V694ZM87.08,682.29l0,.81.06.78.11.79.11.74.18.77.22.74.24.72.28.72.31.68.34.67.38.66.39.63.44.61.45.59.48.57.53.52.52.55.59.48.59.46.59.44.61.41.66.37.67.35.68.31.7.28.74.26.72.22.77.17.74.14.79.08.78.07.79,0V694h-.62l-.56,0-.57-.09-.59-.08-.54-.14-.55-.15-.53-.19-.52-.2-.52-.26-.51-.24-.48-.29-.48-.3-.45-.33-.44-.35-.42-.37-.41-.39-.37-.42-.37-.41-.35-.46-.33-.46-.31-.46-.26-.5-.28-.5-.22-.53-.22-.52-.17-.55-.16-.54-.13-.57-.11-.59-.06-.59,0-.59,0-.61Z"/><path class="cls-4" d="M98.26,673.42V41a13.21,13.21,0,0,1,13.07-13.3H608.64A13.23,13.23,0,0,1,621.74,41V673.42a13.23,13.23,0,0,1-13.1,13.3H111.33A13.21,13.21,0,0,1,98.26,673.42Z"/><path class="cls-2" d="M107.49,664.58V49.92a12.83,12.83,0,0,1,12.62-13H599.89a12.84,12.84,0,0,1,12.62,13V664.58a12.83,12.83,0,0,1-12.62,12.91H120.11A12.82,12.82,0,0,1,107.49,664.58Z"/><path class="cls-4" d="M263.32,477.77V92.34h81.75c30.95,0,51.2,2,60.58,5.83q21.72,8.58,36.38,37.68t14.65,75q0,35.52-8.47,59.67c-5.66,16.15-12.75,28.82-21.46,38.05s-17.45,15.27-26.38,18.23q-18.24,5.51-52.9,5.55H314.28V477.77Z"/><path class="cls-2" d="M314.28,157.56V266.88h27.86q30.14,0,40.3-6c6.77-4.06,12.06-10.32,15.92-19s5.77-18.56,5.77-29.95q0-21-8.1-34.74c-5.35-9.08-12.23-14.8-20.46-17.08-6.12-1.79-18.34-2.59-36.68-2.59Z"/></svg>