<svg id="Layer_1" data-name="Layer 1" xmlns="http://www.w3.org/2000/svg" viewBox="0 0 720 720"><defs><style>.cls-1{fill:#9c9b9b;}.cls-1,.cls-2,.cls-3,.cls-4,.cls-5{fill-rule:evenodd;}.cls-2,.cls-4{fill:#fff;}.cls-2{stroke:#1d1d1b;stroke-miterlimit:500;stroke-width:2.24px;}.cls-3{fill:#008ad1;}.cls-5{fill:#1d1d1b;}</style></defs><path class="cls-1" d="M87.16,679.88a42.15,42.15,0,0,1-42-42V92.17a42.06,42.06,0,0,1,42-42H632.84a42,42,0,0,1,42,42V637.89a42.06,42.06,0,0,1-42,42Z"/><path class="cls-2" d="M87.16,669.78a42.14,42.14,0,0,1-42-42V82.09a42.05,42.05,0,0,1,42-42H632.84a42,42,0,0,1,42,42V627.81a42.05,42.05,0,0,1-42,42Z"/><path class="cls-3" d="M87.08,653.93A26.17,26.17,0,0,1,61,627.79V82.09A26.18,26.18,0,0,1,87.08,55.86h545.7A26.22,26.22,0,0,1,659.05,82.1V627.79a26.22,26.22,0,0,1-26.27,26.14Z"/><polygon class="cls-4" points="97.58 574.68 622.42 574.68 359.94 120.02 97.58 574.68"/><polygon class="cls-5" points="154.74 552.4 208.07 463.13 247.74 463.13 208.29 552.4 154.74 552.4"/><path class="cls-5" d="M244,552.4l30.19-89.27h14.72l-24.1,44.36,5.87,3.2a31.2,31.2,0,0,0,35.2-3.83l-8.32,45.54Z"/><polygon class="cls-5" points="333.28 552.4 340.2 463.13 379.78 463.13 386.71 552.4 333.28 552.4"/><path class="cls-5" d="M422.44,552.4,410.8,488.31l15.48,28.47,5.87-3.2a31,31,0,0,0,12.48-42.13l-4.49-8.32h5.76L476,552.4Z"/><polygon class="cls-5" points="511.6 552.4 472.37 463.13 511.83 463.13 565.13 552.4 511.6 552.4"/><path class="cls-5" d="M364.43,388.89,306.94,495a24.25,24.25,0,0,1-33.06,9.71l64.73-119.35a11.09,11.09,0,0,0,1.49-5.74v-3.1h48.74v3.1a12.14,12.14,0,0,0,1.51,5.74l48.43,89.27A24.44,24.44,0,0,1,429,507.71Z"/><path class="cls-5" d="M388.84,299.84v70.61H340.1V312.12l-31.65,48.61c-6.43,9.94-36,16.22-29.55,6.3l60-92.36c9.18-14.08,28-18.77,42.12-9.59,14.62,9.48,30.3,25.71,43.94,37.22a18.5,18.5,0,0,1,6.53,14v29.85c0,11.85-21.33,33.16-21.33,21.34v-49.7Z"/><path class="cls-5" d="M376.58,227.22a24.32,24.32,0,1,1-24.21-24.43A24.3,24.3,0,0,1,376.58,227.22Z"/></svg>