<svg id="Layer_1" data-name="Layer 1" xmlns="http://www.w3.org/2000/svg" viewBox="0 0 720 720"><defs><style>.cls-1{fill:#9c9b9b;}.cls-1,.cls-2,.cls-3,.cls-4,.cls-5{fill-rule:evenodd;}.cls-2,.cls-5{fill:#fff;}.cls-2{stroke:#1d1d1b;stroke-miterlimit:500;stroke-width:2.23px;}.cls-3{fill:#008ad1;}.cls-4{fill:#e20613;}</style></defs><path class="cls-1" d="M657.79,51.55H62.21A15.72,15.72,0,0,0,46.54,67.24V662.83a15.7,15.7,0,0,0,15.67,15.65H657.79a15.7,15.7,0,0,0,15.67-15.65V67.24A15.72,15.72,0,0,0,657.79,51.55Z"/><path class="cls-2" d="M657.79,41.52H62.21A15.72,15.72,0,0,0,46.54,57.19V652.78a15.71,15.71,0,0,0,15.67,15.67H657.79a15.7,15.7,0,0,0,15.67-15.67V57.19A15.71,15.71,0,0,0,657.79,41.52Z"/><path class="cls-3" d="M645.89,54.05H74.12a15.09,15.09,0,0,0-15,15.06V640.88a15.07,15.07,0,0,0,15,15H645.89a15.08,15.08,0,0,0,15-15V69.11A15.1,15.1,0,0,0,645.89,54.05Z"/><polygon class="cls-4" points="488.73 580.15 578.56 404.29 522.34 420.64 522.34 129.82 455.04 129.82 455.04 420.64 398.82 404.29 488.73 580.15"/><polygon class="cls-5" points="231.35 129.82 321.18 305.68 264.99 289.33 264.99 580.15 197.66 580.15 197.66 289.33 141.46 305.68 231.35 129.82"/></svg>