<svg id="Layer_1" data-name="Layer 1" xmlns="http://www.w3.org/2000/svg" viewBox="0 0 720 720"><defs><style>.cls-1{fill:#9c9b9b;}.cls-1,.cls-2,.cls-3,.cls-4{fill-rule:evenodd;}.cls-2{fill:#008ad1;}.cls-3{fill:#1d1d1b;}.cls-4,.cls-5{fill:#fff;}</style></defs><path class="cls-1" d="M89,689.76V39.65A13.64,13.64,0,0,1,102.56,26H617.43A13.64,13.64,0,0,1,631,39.65V689.76a13.66,13.66,0,0,1-13.55,13.69H102.56A13.66,13.66,0,0,1,89,689.76Z"/><path class="cls-2" d="M89,682.29V32.14A13.63,13.63,0,0,1,102.56,18.5H617.43A13.63,13.63,0,0,1,631,32.14V682.29A13.66,13.66,0,0,1,617.43,696H102.56A13.66,13.66,0,0,1,89,682.29Z"/><path class="cls-3" d="M91,32.14h0V682.29H87.07V32.14Zm11.6-15.59-.78,0-.79.06-.79.11-.75.13-.75.18-.73.19-.72.24-.71.29-.69.32-.67.35-.64.37-.62.42-.63.44-.58.46-.55.48-.54.52-.52.54-.49.57-.46.59-.43.61-.41.64-.36.65-.35.66-.31.7-.28.7-.24.74-.21.74L87.4,29l-.14.76-.11.79-.06.79,0,.78H91v-.61l0-.59.07-.57.11-.59.13-.56.15-.55.19-.54.21-.53.22-.52.27-.5.28-.51.29-.46.33-.48.35-.43.37-.42.39-.41.39-.39.43-.38.44-.34.44-.33.48-.29.49-.3.5-.26.51-.22.53-.2.53-.2.55-.15.56-.13.58-.11.57-.09.58,0,.6,0V16.55Zm514.87,3.89H102.56V16.55H617.43v3.89Zm15.5,11.7,0-.78-.06-.79-.11-.79-.13-.76-.17-.74-.21-.74L632,26.8l-.28-.7-.31-.7-.34-.66-.39-.67-.41-.62-.42-.61-.46-.59-.48-.57-.51-.54-.55-.52-.56-.48-.58-.46-.62-.44-.63-.42-.64-.37-.67-.35-.69-.32-.7-.27-.73-.26-.72-.19-.76-.18-.76-.13-.77-.11-.8-.06-.78,0v3.89l.61,0,.59,0,.56.09.58.11.55.13.56.15.52.18.54.22.51.24.49.24.5.3.47.29.46.33.43.34.42.38.4.39.39.41.37.42.34.43.32.48.32.49.27.48.26.5.23.52.21.53.19.54.15.55.14.56.1.59.08.57,0,.59v.61ZM629,682.29h0V32.14h3.89V682.29ZM617.43,697.9l.78,0,.8-.07.77-.1.76-.14.76-.17.74-.22.7-.24.71-.28.7-.33.66-.33.64-.39.63-.4.62-.45.58-.46.56-.48.55-.5.51-.55.48-.59.46-.59.42-.59.41-.63.39-.68.33-.65.32-.7.28-.72.24-.72.21-.74.17-.75.13-.76.11-.79.06-.78,0-.79H629v.61l0,.59-.08.57-.1.59-.13.57-.16.54-.19.55-.21.52-.21.53-.28.5-.27.5-.32.46-.32.48-.34.43-.37.44-.39.39-.4.4-.42.37-.45.35-.44.33-.47.3-.5.29-.51.26-.49.24-.54.19-.55.2-.54.15-.54.13-.58.11-.56.07-.59,0-.61,0v3.89ZM102.56,694H617.43v3.89H102.56V694ZM87.07,682.29l0,.79.06.78.11.79.14.76.16.75.21.74.24.74.28.7.31.7.35.65.36.66.41.65.43.59.46.59.49.59.52.55.54.5.55.48.57.46.64.45.62.4.64.39.66.33.7.33.72.28.71.24.73.22.75.17.75.14.79.1.79.07.78,0V694l-.6,0-.58,0-.57-.07-.58-.11-.55-.13-.54-.15-.56-.2-.52-.19-.5-.24-.51-.26-.49-.29-.48-.3-.44-.33-.44-.35-.43-.37-.39-.4-.39-.39-.37-.44-.35-.43-.33-.48-.29-.46-.28-.5-.27-.5-.22-.53-.21-.52-.19-.55-.15-.54-.13-.57-.11-.59-.07-.57,0-.59v-.61Z"/><path class="cls-4" d="M98.24,673.4V41a13.25,13.25,0,0,1,13.1-13.3H608.67A13.26,13.26,0,0,1,621.75,41V673.4a13.25,13.25,0,0,1-13.08,13.32H111.34A13.25,13.25,0,0,1,98.24,673.4Z"/><path class="cls-2" d="M107.5,664.56V49.9A12.82,12.82,0,0,1,120.13,37H599.88A12.82,12.82,0,0,1,612.53,49.9V664.56a12.85,12.85,0,0,1-12.65,12.93H120.13A12.84,12.84,0,0,1,107.5,664.56Z"/><rect class="cls-5" x="150.61" y="78.85" width="418.79" height="418.77"/><polygon class="cls-3" points="195.59 444.8 234.36 444.8 234.36 428.82 221.96 428.82 221.96 412.27 242.64 412.27 250.93 412.27 262.04 412.27 262.04 428.82 250.93 428.82 250.93 444.8 315.27 444.8 315.27 390.81 271.95 390.81 271.95 374.21 323.54 374.21 331.84 374.21 371.93 374.21 371.93 390.81 331.84 390.81 331.84 444.8 391.23 444.8 391.23 428.82 378.81 428.82 378.81 412.27 399.51 412.27 407.79 412.27 418.89 412.27 418.89 428.82 407.79 428.82 407.79 444.8 449.39 444.8 447.68 323.97 353.83 346.27 427.52 279.89 361.16 299.72 423.64 212.66 387.02 225.59 445.87 123.37 507.59 218.74 471.77 210.55 518.38 290.81 476.08 266.66 524.4 352.95 471.77 320.15 469.45 444.8 501.97 444.8 501.97 461.38 195.59 461.38 195.59 444.8"/></svg>