<svg id="Layer_1" data-name="Layer 1" xmlns="http://www.w3.org/2000/svg" viewBox="0 0 720 720"><defs><style>.cls-1{fill:#9c9b9b;}.cls-1,.cls-2,.cls-3,.cls-4{fill-rule:evenodd;}.cls-2{fill:#008ad1;}.cls-3{fill:#1d1d1b;}.cls-4,.cls-5{fill:#fff;}</style></defs><path class="cls-1" d="M89,689.76V39.65A13.65,13.65,0,0,1,102.58,26H617.42A13.67,13.67,0,0,1,631,39.65V689.76a13.67,13.67,0,0,1-13.56,13.69H102.58A13.66,13.66,0,0,1,89,689.76Z"/><path class="cls-2" d="M89,682.29V32.19A13.65,13.65,0,0,1,102.58,18.5H617.42A13.66,13.66,0,0,1,631,32.19v650.1a13.66,13.66,0,0,1-13.56,13.65H102.58A13.65,13.65,0,0,1,89,682.29Z"/><path class="cls-3" d="M91,32.19h0v650.1h-3.9V32.19Zm11.61-15.64-.79,0-.79.07-.78.11-.76.13-.75.17-.73.22-.72.24-.72.29-.67.3-.67.35-.66.39-.61.4-.61.43-.6.48-.55.49-.54.52-.52.54-.49.57-.46.59-.42.61-.41.64-.38.65-.33.68-.31.68-.29.72-.24.74-.2.72L87.4,29l-.14.76-.1.81,0,.79,0,.79H91v-.62L91,31l.07-.56.1-.59.13-.57.17-.57.17-.54.22-.53.24-.52.25-.5.28-.51.3-.46.32-.48.36-.43L94,24.3l.38-.41.41-.39.43-.38.42-.34.46-.33.48-.31.48-.28.51-.24.52-.26.51-.2.54-.2.55-.15.55-.13.58-.11.58-.07.57,0h.61V16.55Zm514.84,3.91H102.58V16.55H617.42v3.91Zm15.51,11.73,0-.79-.06-.79-.11-.81L632.6,29l-.18-.74-.19-.72-.26-.74-.29-.72-.31-.68-.32-.68-.39-.65-.4-.64-.43-.61-.46-.59-.48-.57-.51-.54-.56-.52-.55-.49-.59-.48-.61-.43-.61-.4-.66-.39-.67-.35-.68-.3-.7-.29-.74-.24-.72-.22-.77-.17-.74-.13-.78-.11-.79-.07-.79,0v3.91H618l.57,0,.57.07.59.11.55.13.54.15.55.18.52.22.5.26.51.24.48.28.5.31.44.33.43.34.44.38.39.39.39.41.38.42.32.43.33.48.33.46.26.51.26.5.24.52.2.53.17.54.18.57.13.57.09.59L629,31l0,.59,0,.62ZM629,682.29h0V32.19h3.89v650.1Zm-11.62,15.59.79,0,.79-.07.78-.08.74-.14.77-.19.72-.2.74-.26.7-.29.68-.3.65-.35.68-.37.63-.42.59-.43.59-.46.55-.48.54-.53.53-.54.48-.57.46-.59.43-.61.4-.63.39-.66.32-.65.31-.7.29-.72.26-.72.19-.74.18-.75.13-.76.11-.79.06-.78,0-.79H629l0,.61,0,.59-.08.57-.09.59-.13.57-.18.54-.17.55-.2.52-.24.53-.26.5-.26.5-.33.46-.33.48-.32.44-.38.43-.39.39-.39.4-.44.37-.43.35-.46.33-.48.3-.46.28-.53.25-.5.26-.52.19-.55.18-.54.17-.55.14-.59.08-.57.09-.57,0h-.61v3.89ZM102.58,694H617.42v3.89H102.58V694Zm-15.51-11.7,0,.79,0,.78.1.79.14.76.18.75.2.74.24.72.29.72.31.7.33.65.38.66.41.63.42.61.46.59.49.57.52.54.54.51.55.5.6.46.6.43.62.42.67.37.66.35.67.3.72.31.72.24.73.2.75.19.76.14.78.08.79.07.79,0V694H102l-.57,0-.58-.09-.58-.08-.55-.14-.55-.17-.54-.18-.51-.19-.52-.26-.52-.25-.47-.28-.47-.3-.47-.33-.42-.35-.44-.37-.4-.4-.38-.39-.36-.43-.36-.46-.32-.46-.3-.46-.28-.5-.25-.5-.24-.53-.22-.52-.17-.55-.17-.54-.13-.57-.1-.59-.07-.57,0-.59v-.61Z"/><path class="cls-4" d="M98.27,673.4V41.05a13.24,13.24,0,0,1,13.08-13.32h497.3a13.24,13.24,0,0,1,13.08,13.32V673.4a13.24,13.24,0,0,1-13.08,13.32H111.35A13.24,13.24,0,0,1,98.27,673.4Z"/><path class="cls-2" d="M107.5,664.54V49.91A12.79,12.79,0,0,1,120.13,37H599.87a12.79,12.79,0,0,1,12.62,12.92V664.54a12.81,12.81,0,0,1-12.62,12.93H120.13A12.81,12.81,0,0,1,107.5,664.54Z"/><rect class="cls-5" x="150.62" y="78.84" width="418.77" height="418.78"/><path class="cls-3" d="M284.06,370.16h0v0a17.65,17.65,0,0,1,17.6,17.58h0v.07a17.76,17.76,0,0,1-5.16,12.48h0a17.59,17.59,0,0,1-12.4,5.14v0H284v0a17.5,17.5,0,0,1-12.45-5.18h0a17.47,17.47,0,0,1-5.15-12.4h0v-.07h0A17.58,17.58,0,0,1,284,370.18v0Zm118.72,0h.05v0a17.6,17.6,0,0,1,17.55,17.58h.06v.07h-.06a17.52,17.52,0,0,1-5.13,12.48h0a17.76,17.76,0,0,1-12.45,5.14l0,0h-.09v0a17.69,17.69,0,0,1-17.6-17.58h0v-.07a17.6,17.6,0,0,1,17.58-17.62v0ZM447,192.51,415.6,301.17l-.9,3-3.1,0-2.73,0V356h-8.36V307.92L289.93,356l-3,1.31-2-2.62-37.05-49h-.18l-4.43,0,.24-4.41,3.83-73.66.16-3.26,3.18-.63,199.2-40.35a13.34,13.34,0,1,1,1.9,8.13Z"/><polygon class="cls-4" points="431.86 214.78 405.8 214.78 405.8 237.48 425.29 237.48 431.86 214.78"/><rect class="cls-5" x="376.71" y="214.78" width="20.74" height="22.71"/><rect class="cls-5" x="347.59" y="214.78" width="20.74" height="22.71"/><polygon class="cls-4" points="378.39 206.41 397.45 206.41 397.45 202.55 378.39 206.41"/><polygon class="cls-4" points="405.8 206.41 434.31 206.41 437.78 194.38 405.8 200.85 405.8 206.41"/><polygon class="cls-4" points="422.89 245.87 405.8 245.87 405.8 268.55 416.32 268.55 422.89 245.87"/><rect class="cls-5" x="376.71" y="245.87" width="20.74" height="22.69"/><rect class="cls-5" x="347.59" y="245.87" width="20.74" height="22.69"/><rect class="cls-5" x="318.49" y="245.87" width="20.73" height="22.69"/><rect class="cls-5" x="289.38" y="245.87" width="20.74" height="22.69"/><polygon class="cls-4" points="281.02 245.87 254.75 245.87 253.57 268.55 281.02 268.55 281.02 245.87"/><polygon class="cls-4" points="255.19 237.48 281.02 237.48 281.02 226.15 255.51 231.3 255.19 237.48"/><polygon class="cls-4" points="289.38 237.48 310.12 237.48 310.12 220.23 289.38 224.47 289.38 237.48"/><polygon class="cls-4" points="318.5 237.48 339.22 237.48 339.22 214.36 318.5 218.55 318.5 237.48"/><polygon class="cls-4" points="413.87 276.96 405.8 276.96 405.8 295.89 407.26 295.86 408.61 295.28 413.87 276.96"/><polygon class="cls-4" points="397.45 276.96 376.71 276.96 376.71 296.15 397.45 295.95 397.45 276.96"/><polygon class="cls-4" points="368.33 276.96 347.59 276.96 347.59 296.43 368.33 296.24 368.33 276.96"/><polygon class="cls-4" points="339.22 276.96 318.5 276.96 318.5 296.69 339.22 296.5 339.22 276.96"/><polygon class="cls-4" points="310.12 276.96 289.38 276.96 289.38 296.98 310.12 296.78 310.12 276.96"/><polygon class="cls-4" points="281.02 276.96 253.14 276.96 252.09 297.33 281.02 297.04 281.02 276.96"/><polygon class="cls-4" points="387.65 304.38 258.3 305.6 289.62 347.02 387.65 304.38"/><path class="cls-4" d="M402.83,378.53v0h-.09v0a9.44,9.44,0,0,0-6.53,2.72,9.3,9.3,0,0,0-2.73,6.55h0v.07h0a9.3,9.3,0,0,0,2.71,6.51h0a9.49,9.49,0,0,0,6.53,2.73v0h.09v0a9.37,9.37,0,0,0,6.5-2.71h0a9.34,9.34,0,0,0,2.73-6.57h0v-.07h0a9.3,9.3,0,0,0-9.23-9.23Z"/><path class="cls-4" d="M284.09,378.53v0H284v0a9.43,9.43,0,0,0-6.54,2.72,9.28,9.28,0,0,0-2.71,6.55h0v.07h0a9.33,9.33,0,0,0,2.7,6.51h0a9.51,9.51,0,0,0,6.55,2.73v0h.08v0a9.36,9.36,0,0,0,6.49-2.71h0a9.35,9.35,0,0,0,2.74-6.57h0v-.07h0a9.3,9.3,0,0,0-9.25-9.23Z"/></svg>