<svg id="Layer_1" data-name="Layer 1" xmlns="http://www.w3.org/2000/svg" viewBox="0 0 720 720"><defs><style>.cls-1{fill:#9c9b9b;}.cls-1,.cls-2,.cls-3,.cls-4{fill-rule:evenodd;}.cls-2{fill:#008ad1;}.cls-3{fill:#1d1d1b;}.cls-4,.cls-5{fill:#fff;}</style></defs><path class="cls-1" d="M89,689.78V39.67A13.67,13.67,0,0,1,102.59,26H617.46A13.65,13.65,0,0,1,631,39.67V689.78a13.63,13.63,0,0,1-13.53,13.67H102.59A13.66,13.66,0,0,1,89,689.78Z"/><path class="cls-2" d="M89,682.29V32.19A13.67,13.67,0,0,1,102.59,18.5H617.46A13.64,13.64,0,0,1,631,32.19v650.1A13.63,13.63,0,0,1,617.46,696H102.59A13.66,13.66,0,0,1,89,682.29Z"/><path class="cls-3" d="M91,32.19h0v650.1H87.06V32.19Zm11.64-15.64-.79,0-.8.07-.77.11-.76.13-.75.17-.74.22-.72.24-.7.29-.7.3-.65.35-.68.39-.61.4-.61.43-.59.46-.54.51-.55.52-.53.54-.48.55-.45.59-.44.61-.42.66-.37.63-.32.68-.33.7-.26.72-.27.7-.19.76-.18.74-.13.76-.11.79-.06.79,0,.81H91l0-.64L91,31l.08-.59.09-.6.13-.56.18-.55.17-.54.22-.55.22-.5.26-.5.28-.51.31-.48.33-.46.33-.43L94,24.3l.39-.41.41-.39.42-.38.44-.34.45-.33.48-.31.49-.28.5-.27.5-.23.54-.22.53-.18.55-.15.56-.13.57-.11.57-.07.59,0,.61,0V16.55Zm514.87,3.89H102.59V16.55H617.46v3.89Zm15.48,11.75,0-.81-.06-.79-.09-.79-.15-.76-.16-.74-.21-.76-.24-.7-.29-.72-.3-.7-.35-.68-.37-.63-.4-.64-.43-.63-.48-.59-.46-.55-.53-.54-.52-.52-.59-.51-.57-.46-.59-.43-.63-.4-.65-.39-.68-.35-.68-.3-.7-.29-.74-.24-.72-.22-.76-.17-.75-.13-.78-.11-.79-.07-.78,0v3.89l.61,0,.56,0,.57.07.59.11.55.13.54.15.55.18.52.22.5.23.51.27.48.28.48.31.46.33.43.34.42.38.41.37.37.43.37.42.35.43.33.46.31.48.26.51.26.5.24.5.22.55.17.54.16.55.13.56.11.6L629,31l0,.56,0,.64Zm-3.89,650.1h0V32.19h3.89v650.1Zm-11.59,15.63.78,0,.79-.07.78-.08.75-.13.76-.18.72-.22.74-.26.7-.28.68-.31.68-.35.65-.37.61-.41.61-.44.57-.46.59-.48.52-.55.53-.52.48-.57.46-.59.41-.61.42-.63.37-.66.35-.67.3-.68.29-.72.24-.72.21-.74.16-.77.13-.74.11-.79.06-.78,0-.81h-3.89l0,.61,0,.59-.06.59-.11.59-.13.57-.16.54-.17.55-.22.52-.24.53-.26.5-.26.5-.31.46-.33.46-.35.46-.37.41-.37.42-.41.39-.42.37-.43.35-.46.33-.48.3-.48.29-.51.24-.52.26-.5.2-.55.19-.54.16-.55.13-.59.08-.57.09-.56,0h-.61v3.91ZM102.59,694H617.46v3.91H102.59V694ZM87.06,682.29l0,.81.06.78.11.79.13.77.18.74.19.74.27.72.26.72.33.68.32.67.37.66.42.63.44.61.45.59.48.57.53.55.55.52.54.48.59.46.61.44.61.41.68.37.65.35.68.31.72.28.72.26.74.22.75.18.76.13.77.08.8.07.79,0V694H102l-.59,0-.57-.09-.57-.08-.56-.13-.55-.16-.53-.19-.52-.2-.52-.26-.5-.24-.49-.29-.48-.3-.45-.33-.44-.35-.42-.37-.41-.39-.39-.42-.35-.41-.35-.46-.33-.46-.31-.46-.28-.5-.26-.5-.22-.53-.22-.52-.17-.55-.18-.56-.13-.57-.11-.57-.06-.59,0-.59,0-.61Z"/><path class="cls-4" d="M98.27,673.42V41a13.22,13.22,0,0,1,13.08-13.3H608.68A13.24,13.24,0,0,1,621.76,41V673.42a13.24,13.24,0,0,1-13.08,13.3H111.35A13.22,13.22,0,0,1,98.27,673.42Z"/><path class="cls-2" d="M107.48,664.58V49.92a12.84,12.84,0,0,1,12.64-13H599.88a12.83,12.83,0,0,1,12.64,13V664.58a12.82,12.82,0,0,1-12.64,12.91H120.12A12.84,12.84,0,0,1,107.48,664.58Z"/><rect class="cls-5" x="150.6" y="78.84" width="418.8" height="418.8"/><path class="cls-3" d="M313.33,191.49a32.9,32.9,0,0,1,8.32,6.9c5.89.67,10.48-1.1,16.22-2.45-4,4.32-7.88,7.36-10.24,12.84a32.12,32.12,0,0,1,1.81,10.63c4.2,6.84,9.59,9,15.68,12.82-7.18.24-12.95-.57-20,3.21a31.61,31.61,0,0,1-6.87,8.29c-.7,5.92,1.11,10.51,2.44,16.27-4.32-4-7.4-7.88-12.86-10.26a31.5,31.5,0,0,1-10.61,1.81c-6.81,4.22-9,9.59-12.8,15.72-.21-7.2.57-13-3.23-20a32,32,0,0,1-8.3-6.86c-5.91-.7-10.5,1.1-16.24,2.45,4-4.32,7.88-7.4,10.24-12.86a32.27,32.27,0,0,1-1.81-10.61c-4.21-6.81-9.59-9-15.68-12.8,7.16-.24,12.93.55,20-3.23a31.13,31.13,0,0,1,6.88-8.29c.67-6-1.12-10.51-2.45-16.27,4.3,4.06,7.38,7.86,12.86,10.22a32.68,32.68,0,0,1,10.64-1.79c6.79-4.22,9-9.57,12.77-15.68C310.34,178.71,309.53,184.45,313.33,191.49Z"/><path class="cls-3" d="M436.45,205s-7.79,6.84-7.79,11.73,4.87,11.7,4.87,11.7-10.73,1.47-15.09,8.78a74.06,74.06,0,0,0-6.33,13.19s-4.89-18.06.48-22a15,15,0,0,1,10.72-2.92s-6.33-7.8-2.45-13.19S436.45,205,436.45,205Z"/><path class="cls-3" d="M406.74,287.56s-14.13,3.4-17.06,7.81-4.87,18.06-4.87,18.06-8.29-7.34-19-4.41a41.35,41.35,0,0,0-17.58,10.26s5.88-16.11,14.15-17.58a28.86,28.86,0,0,1,15.59,2s0-9.76,6.33-14.67S406.74,287.56,406.74,287.56Z"/><path class="cls-3" d="M219.4,362.12h0c5.05,0,10.64,2.7,16.64,5.63,5.85,2.82,12.23,5.92,17,5.92h0v0c4.71,0,11.13-3.12,17-6,6.09-2.95,11.68-5.63,16.68-5.63h0c5,0,10.63,2.7,16.66,5.63,5.82,2.82,12.22,5.92,17,5.92h.05v0c4.73,0,11.13-3.12,17-6,6.05-2.95,11.69-5.63,16.67-5.63h0c5.06,0,10.63,2.7,16.66,5.63,5.85,2.82,12.22,5.92,17,5.92h0v0c4.74,0,11.13-3.12,17-6,6.07-2.95,11.66-5.63,16.66-5.63h0c5,0,10.61,2.7,16.66,5.63,5.83,2.82,12.23,5.92,17,5.92h0v0c4.72,0,11.14-3.12,17-6,6.05-2.95,11.66-5.63,16.66-5.63v11.7c-2.38,0-6.79,2.16-11.59,4.48-7,3.38-14.61,7.07-22.08,7.09h0c-7.43,0-15.09-3.71-22.1-7.09-4.8-2.34-9.25-4.48-11.57-4.5v0h0c-2.36,0-6.79,2.16-11.58,4.48-7,3.38-14.6,7.07-22.09,7.09h0c-7.43,0-15.09-3.71-22.1-7.09-4.82-2.34-9.28-4.48-11.59-4.5v0h0c-2.36,0-6.8,2.16-11.6,4.48-7,3.38-14.61,7.07-22.07,7.09h-.05c-7.4,0-15.08-3.71-22.09-7.09-4.81-2.34-9.26-4.48-11.57-4.5v0h0c-2.38,0-6.81,2.16-11.59,4.48-7,3.38-14.61,7.07-22.07,7.09h0c-7.44,0-15.1-3.71-22.11-7.09-4.83-2.34-9.28-4.48-11.58-4.5v0h0Z"/><path class="cls-3" d="M431.47,345.17l23.08-58.51c2.95-.63,7.25-.11,11.68,1.62,7.16,2.81,11.88,7.79,10.57,11.11l-.11.37,0,0,.15-.35c1.31-3.32,8.17-3.71,15.33-.9a22.42,22.42,0,0,1,9.3,6.36c3.93-13.84-12.1-32.51-37.08-43.06l1.29-3.23-4.6-1.79L459.77,260c-25.46-9.32-49.91-6.64-56.48,6.18,2.92-.5,7,0,11.15,1.68,7.14,2.84,11.86,7.81,10.57,11.13l-.11.38,0-.05L425,279c1.29-3.32,8.17-3.75,15.33-.91,4.41,1.74,7.9,4.3,9.6,6.79l-23.12,58.64a19.81,19.81,0,0,0-5.15-.78v0h0c-5,0-10.59,2.7-16.66,5.65-5.88,2.84-12.27,5.94-17,5.94v0h0c-4.81,0-11.18-3.1-17-5.92-6-2.93-11.6-5.63-16.66-5.63v0h0c-5,0-10.62,2.7-16.67,5.65-5.87,2.84-12.27,5.94-17,5.94v0h-.05c-4.78,0-11.18-3.1-17-5.92-6-2.93-11.62-5.63-16.66-5.63v0h0c-5,0-10.59,2.7-16.68,5.65-5.85,2.84-12.27,5.94-17,5.94v0h0c-4.82,0-11.2-3.1-17-5.92-6-2.93-11.59-5.63-16.64-5.63v0h0v11.72h0v0c2.3,0,6.75,2.16,11.58,4.5,7,3.38,14.67,7.11,22.11,7.11h0v0c7.46,0,15.08-3.69,22.07-7.07,4.78-2.34,9.21-4.48,11.59-4.48h0v0c2.31,0,6.76,2.16,11.57,4.5,7,3.38,14.69,7.11,22.09,7.11h.05v0c7.46,0,15.11-3.69,22.07-7.07,4.8-2.34,9.24-4.48,11.6-4.48h0v0c2.31,0,6.77,2.16,11.59,4.5,7,3.38,14.67,7.11,22.1,7.11h0v0c7.49,0,15.11-3.69,22.09-7.07,4.79-2.34,9.22-4.48,11.58-4.48h0v0c2.32,0,6.77,2.16,11.57,4.5,7,3.38,14.67,7.11,22.1,7.11h0v0c7.47,0,15.09-3.69,22.08-7.07,4.8-2.34,9.21-4.48,11.59-4.48V342.69c-5,0-10.61,2.7-16.66,5.65-5.87,2.84-12.29,5.94-17,5.94v0h0c-4.78,0-11.18-3.1-17-5.92C436,347.2,433.68,346.09,431.47,345.17Z"/></svg>