<svg id="Layer_1" data-name="Layer 1" xmlns="http://www.w3.org/2000/svg" viewBox="0 0 720 720"><defs><style>.cls-1{fill:#9c9b9b;}.cls-1,.cls-2,.cls-3,.cls-4{fill-rule:evenodd;}.cls-2{fill:#008ad1;}.cls-3{fill:#1d1d1b;}.cls-4,.cls-5{fill:#fff;}</style></defs><path class="cls-1" d="M89,689.76V39.65A13.63,13.63,0,0,1,102.57,26H617.43A13.64,13.64,0,0,1,631,39.65V689.76a13.66,13.66,0,0,1-13.55,13.69H102.57A13.66,13.66,0,0,1,89,689.76Z"/><path class="cls-2" d="M89,682.29V32.14A13.63,13.63,0,0,1,102.57,18.5H617.43A13.63,13.63,0,0,1,631,32.14V682.29A13.66,13.66,0,0,1,617.43,696H102.57A13.65,13.65,0,0,1,89,682.29Z"/><path class="cls-3" d="M91,32.14h0V682.29H87.07V32.14Zm11.61-15.59-.8,0-.78.06-.79.11-.75.13-.76.18-.73.19-.73.26-.7.27-.69.32-.66.35-.63.37-.64.42-.61.44-.6.46-.55.48-.54.52-.51.54-.49.57-.45.59-.44.61-.4.64-.38.65-.34.66-.31.7-.27.7-.26.72-.2.76-.18.76-.13.74-.1.79-.06.79,0,.78H91v-.61l0-.59.06-.57.12-.59.12-.56.16-.55.18-.54.21-.53.23-.52.26-.5.28-.51.3-.46.33-.48.35-.43.37-.44.37-.39.4-.39.44-.38.43-.34.45-.33.47-.29.49-.3.51-.24.51-.24.52-.22.54-.18.56-.15.54-.13.58-.11.58-.09.58,0,.61,0V16.55Zm514.86,3.89H102.57V16.55H617.43v3.89Zm15.5,11.7,0-.78,0-.79-.11-.79-.13-.76-.18-.74-.21-.76L632,26.8l-.28-.7-.31-.7-.34-.66-.4-.67-.39-.62-.44-.61-.44-.59-.49-.57-.53-.54-.53-.52-.57-.48-.59-.46-.61-.44-.62-.42-.65-.37-.66-.35-.69-.32-.7-.27-.72-.26-.74-.19-.76-.18-.75-.13-.78-.11-.78-.06-.79,0v3.89l.6,0,.58,0,.57.09.58.11.55.13.56.15.52.18.54.22.51.24.51.24.47.3.49.29.45.33.44.34.43.38.39.39.38.41.37.42.35.43.33.48.31.49.27.48.26.5.23.52.21.53.18.54.16.55.14.56.11.59.06.57,0,.59v.61ZM629,682.29h0V32.14h3.89V682.29ZM617.43,697.9l.79,0,.78-.07.78-.1.75-.14.77-.17.73-.22.72-.24.7-.28.71-.33.64-.33.65-.39.62-.4.62-.43.59-.48.56-.48.53-.5.53-.55.49-.59.44-.59.44-.59.39-.63.4-.68.32-.65.33-.7.28-.72.23-.7.21-.76.18-.75.13-.76.11-.79,0-.78,0-.79H629v.61l0,.59-.06.57-.11.59-.13.57-.17.54-.18.55-.21.52-.23.53-.26.5-.27.5-.31.46-.33.48-.35.43-.37.44-.38.39-.39.4-.44.37-.44.35-.44.33-.49.3-.47.29-.52.26-.5.24-.52.19-.55.2-.56.15-.54.13-.58.11-.57.07-.58,0-.6,0v3.89ZM102.57,694H617.43v3.89H102.57V694Zm-15.5-11.72,0,.79.06.78.1.79.13.76.18.75.2.76.26.7.27.72.31.7.34.65.38.66.4.65.44.59.45.59.49.57.51.57.54.5.55.48.59.48.62.43.64.4.63.39.65.33.7.33.71.28.71.24.74.22.76.17.75.14.79.1.78.07.8,0V694l-.61,0-.58,0-.58-.07-.58-.11-.54-.13-.56-.15-.54-.2-.52-.19-.5-.24L97,692.6l-.49-.29-.47-.3-.44-.33-.44-.35-.44-.37-.4-.4-.37-.39-.37-.44-.35-.43-.33-.48-.3-.46-.28-.5-.26-.5-.23-.53-.21-.52-.18-.55-.16-.54-.12-.57-.12-.59-.06-.57,0-.59v-.61Z"/><path class="cls-4" d="M98.25,673.4V41a13.24,13.24,0,0,1,13.09-13.3H608.65A13.25,13.25,0,0,1,621.73,41V673.4a13.25,13.25,0,0,1-13.08,13.32H111.34A13.24,13.24,0,0,1,98.25,673.4Z"/><path class="cls-2" d="M107.48,664.56V49.9A12.82,12.82,0,0,1,120.1,37H599.88A12.81,12.81,0,0,1,612.51,49.9V664.56a12.84,12.84,0,0,1-12.63,12.93H120.1A12.84,12.84,0,0,1,107.48,664.56Z"/><rect class="cls-5" x="150.59" y="78.85" width="418.8" height="418.77"/><path class="cls-3" d="M180.47,351.68h359L511,397.42H210.68l-30.21-45.74Zm91.45-172.62V319.61c0,36.15,169.1,36.15,169.1,0V179.06Zm173.69,0h38.83c19.85,30.07,19.39,57.32.07,87.51h-38.9V249.35h29.91c9.88-17.47,10.19-35.64.08-53.08h-30Z"/></svg>