<svg id="Layer_1" data-name="Layer 1" xmlns="http://www.w3.org/2000/svg" viewBox="0 0 720 720"><defs><style>.cls-1{fill:#9c9b9b;}.cls-1,.cls-2,.cls-3,.cls-4{fill-rule:evenodd;}.cls-2{fill:#008ad1;}.cls-3{fill:#1d1d1b;}.cls-4,.cls-5{fill:#fff;}</style></defs><path class="cls-1" d="M89,689.77V39.64A13.66,13.66,0,0,1,102.56,26H617.44A13.66,13.66,0,0,1,631,39.64V689.77a13.66,13.66,0,0,1-13.54,13.69H102.56A13.66,13.66,0,0,1,89,689.77Z"/><path class="cls-2" d="M89,682.3V32.18a13.66,13.66,0,0,1,13.55-13.69H617.44A13.65,13.65,0,0,1,631,32.18V682.3A13.65,13.65,0,0,1,617.44,696H102.56A13.65,13.65,0,0,1,89,682.3Z"/><path class="cls-3" d="M91,32.18h0V682.3H87.07V32.18Zm11.6-15.64-.78,0-.79.07-.79.11-.75.13L98.7,17l-.73.22-.72.24-.72.29-.67.32-.67.33-.66.39-.61.4-.63.43-.58.49-.55.48-.55.52-.5.52-.5.59-.46.59-.43.61-.4.64-.37.65-.35.68-.31.68-.28.72-.24.74-.21.72L87.4,29l-.14.76-.11.81-.06.79,0,.79H91v-.62L91,31l.08-.57.1-.59.13-.59.15-.55.19-.54.21-.53.22-.52.27-.5.28-.51.29-.46.34-.48.34-.43.36-.42.4-.41.4-.39.42-.38.44-.34.44-.33.49-.31.48-.28.5-.26.53-.24.51-.2.53-.2.56-.15.55-.13.58-.11.57-.07.58,0h.6V16.54Zm514.88,3.91H102.56V16.54H617.44v3.91Zm15.49,11.73,0-.79-.07-.79-.1-.81L632.6,29l-.17-.74-.21-.72-.24-.74-.29-.72-.3-.68-.34-.68-.37-.65-.4-.64-.44-.61-.46-.59-.48-.57-.51-.54-.55-.52-.57-.48-.58-.49-.6-.43-.62-.4-.66-.39-.67-.33-.67-.32-.7-.29-.74-.24L621.3,17l-.75-.17-.77-.13-.77-.11-.79-.07-.78,0v3.91h.61l.58,0,.56.07.58.11.55.13.56.15.52.18.52.22.53.24.5.26.48.28.47.31.45.33.46.34.41.38.39.39.4.41.36.42.35.43.34.48.28.46.29.51.26.5.23.52.21.53.18.54.16.57.13.57.1.59L629,31l0,.58v.62ZM629,682.3h0V32.18h3.9V682.3Zm-11.59,15.59.78,0,.79-.07.77-.08.77-.14.75-.19.73-.2.74-.26.7-.29.67-.3.67-.35.66-.37.64-.42.58-.43.58-.46.57-.5.53-.51.53-.54.48-.57.46-.59.44-.61.4-.63.37-.66.34-.65.3-.7.29-.72.24-.72.21-.74.17-.75.14-.76.1-.79.07-.78,0-.79H629v.61l0,.59-.08.57-.1.59-.13.57-.16.54-.18.55-.21.52-.23.53-.26.5-.29.5-.28.46-.34.46-.35.45-.36.44-.39.39-.4.4-.41.37-.46.35-.45.33-.47.3-.48.28-.5.27-.53.24-.52.19-.52.18-.56.17-.55.13-.58.09-.56.09-.58,0h-.61v3.89ZM102.56,694H617.44v3.89H102.56V694ZM87.07,682.3l0,.79.06.78.11.79.14.76.16.75.21.74.24.74.28.67.31.73.35.65.37.66.4.63.44.61.45.59.49.57.52.54.54.51.55.5.58.46.62.43.62.42.66.37.67.35.67.3.72.31.72.24.73.2.75.19.75.14.79.08.79.07.78,0V694H102l-.58,0-.57-.09-.58-.09-.55-.13-.56-.17-.53-.18-.51-.19-.53-.24-.5-.27-.48-.28-.47-.3-.46-.33-.44-.35-.43-.37-.39-.4-.39-.41-.37-.42-.35-.43-.33-.48-.29-.46-.28-.5-.27-.5-.22-.53-.21-.55-.19-.52-.15-.54-.13-.57-.1-.59L91,683.5l0-.59v-.61Z"/><path class="cls-4" d="M98.25,673.41V41a13.26,13.26,0,0,1,13.1-13.32H608.64A13.24,13.24,0,0,1,621.74,41V673.41a13.24,13.24,0,0,1-13.1,13.32H111.35A13.26,13.26,0,0,1,98.25,673.41Z"/><path class="cls-2" d="M107.5,664.55V49.91A12.77,12.77,0,0,1,120.1,37H599.88A12.8,12.8,0,0,1,612.5,49.91V664.55a12.81,12.81,0,0,1-12.62,12.92H120.1A12.79,12.79,0,0,1,107.5,664.55Z"/><rect class="cls-5" x="150.6" y="78.83" width="418.8" height="418.79"/><path class="cls-3" d="M492.07,433.48H426.24V276.89c5.76,0,5.31,2.51,5.31,4.17V402.91c0,15.92,12.37,26.82,27,26.82,15,0,26.51-11.34,26.51-26.4s-21.22-58.65-21.22-72.86V214.07c0-8.78-3.54-16.33-8.41-20.11l-29.16-22.59v-18c0-7.14-6.16-13-13.69-13H307.43c-7.5,0-13.7,5.85-13.7,13V433.48H227.92V456.1H492.07Z"/><path class="cls-4" d="M458.52,417.59c-8.41,0-13.7-5.88-13.7-14.68V268.5c0-4.6-5.75-6.68-11.06-6.68h-7.52V188.53c3.55,2.51,6.2,5.43,6.2,8.77v24.3h17.67V326.28c0,26.37,22.1,62,22.1,77.05C472.21,411.3,466.9,417.59,458.52,417.59Z"/><path class="cls-4" d="M399.73,228.29H320.26c-3.54,0-7.1-2.91-7.1-6.69V163.81c0-3.75,3.56-6.7,7.1-6.7h79.47c3.55,0,7.09,2.95,7.09,6.7V221.6C406.82,225.38,403.28,228.29,399.73,228.29Z"/></svg>