<svg id="Layer_1" data-name="Layer 1" xmlns="http://www.w3.org/2000/svg" viewBox="0 0 720 720"><defs><style>.cls-1{fill:#9c9b9b;}.cls-1,.cls-2,.cls-3,.cls-4{fill-rule:evenodd;}.cls-2{fill:#008ad1;}.cls-3{fill:#1d1d1b;}.cls-4,.cls-5{fill:#fff;}</style></defs><path class="cls-1" d="M89,689.78V39.67A13.66,13.66,0,0,1,102.57,26H617.43A13.66,13.66,0,0,1,631,39.67V689.78a13.64,13.64,0,0,1-13.55,13.67H102.57A13.64,13.64,0,0,1,89,689.78Z"/><path class="cls-2" d="M89,682.29V32.16A13.64,13.64,0,0,1,102.57,18.5H617.43A13.65,13.65,0,0,1,631,32.16V682.29A13.66,13.66,0,0,1,617.43,696H102.57A13.65,13.65,0,0,1,89,682.29Z"/><path class="cls-3" d="M91,32.16h0V682.29H87.07V32.16Zm11.61-15.61-.8,0-.78.07-.79.09-.75.13-.76.19-.74.22-.72.24-.7.26-.69.33-.66.35-.63.37-.65.42-.61.44-.59.45-.55.51-.54.5-.51.55-.49.56-.45.59-.44.61-.4.66-.38.63-.34.68-.31.7-.27.69-.26.73-.2.76-.18.74-.13.77-.1.78-.06.79,0,.78H91v-.61L91,31l.06-.56.12-.59.12-.57.16-.55.18-.54.21-.55.23-.5.26-.53.28-.48.3-.48.33-.45.35-.46.37-.42.37-.39.41-.42.43-.34.44-.35.45-.33.46-.31.49-.28.51-.26.51-.24.52-.22.54-.18.56-.17.54-.11.58-.11.58-.09.58,0h.61V16.55Zm514.86,3.89H102.57V16.55H617.43v3.89Zm15.5,11.72,0-.78,0-.79-.11-.78-.13-.77-.18-.76-.21-.74-.23-.73-.28-.69-.31-.7-.34-.68-.4-.65-.39-.64-.44-.61-.44-.59-.51-.56-.5-.53-.54-.52-.57-.51-.58-.45-.6-.44-.64-.42-.65-.37-.66-.35-.69-.33-.7-.26-.72-.24-.73-.22-.77-.19-.75-.13-.78-.09-.78-.07-.79,0v3.89h.6l.58,0,.57.09.58.11.54.11.56.17.53.18.54.22.51.24.51.26.47.28.47.31.46.33.45.35.42.34.4.4.39.43.36.42.35.44.33.45.31.48.27.48.26.53.23.5.21.55.18.54.17.55.13.57.11.59L629,31l0,.59v.61ZM629,682.29h0V32.16h3.89V682.29Zm-11.61,15.63.79,0,.78,0,.78-.1.75-.14.77-.17.73-.24.72-.24.7-.26.69-.33.66-.35.66-.37.63-.42.59-.43.59-.46.57-.5.54-.53.52-.52.49-.57.44-.59.44-.61.39-.63.4-.66.32-.67.33-.68.28-.72.23-.72.21-.74.18-.77.14-.74.1-.81,0-.79,0-.78H629v.61l0,.59-.07.57-.1.59-.13.56-.17.55-.18.55-.21.52-.23.52-.26.53-.27.48-.31.48-.33.46-.35.43-.37.44-.38.42-.4.39-.42.37-.44.35-.47.3-.47.33-.47.29-.51.24-.51.24-.54.21-.53.2-.56.15-.54.14-.58.1-.57.07-.58,0h-.6v3.91ZM102.57,694H617.43v3.91H102.57V694Zm-15.5-11.72,0,.78.06.79.1.81.13.74.18.74.2.77.26.72.27.72.31.68.34.67.38.66.4.63.44.61.45.59.49.57.51.54.54.51.55.5.6.46.6.43.62.42.66.37.66.35.69.33.7.26.72.24.74.24.76.17.75.14.79.1.78,0,.8,0V694H102l-.58,0-.58-.07-.58-.1-.54-.14-.56-.15-.54-.2-.52-.21-.51-.24-.51-.24-.48-.29-.47-.33-.46-.3-.43-.35-.43-.37-.41-.42-.37-.39-.37-.44-.35-.43-.33-.46-.3-.48-.28-.48-.26-.53-.23-.52-.21-.52-.18-.55-.16-.55-.12-.56-.1-.59-.08-.57,0-.59v-.61Z"/><path class="cls-4" d="M98.25,673.42V41a13.24,13.24,0,0,1,13.09-13.3H608.65A13.25,13.25,0,0,1,621.73,41V673.42a13.23,13.23,0,0,1-13.08,13.3H111.34A13.22,13.22,0,0,1,98.25,673.42Z"/><path class="cls-2" d="M107.48,664.56V49.89A12.8,12.8,0,0,1,120.1,37H599.88a12.79,12.79,0,0,1,12.63,12.9V664.56a12.83,12.83,0,0,1-12.63,13H120.1A12.83,12.83,0,0,1,107.48,664.56Z"/><rect class="cls-5" x="150.59" y="78.85" width="418.8" height="418.79"/><path class="cls-3" d="M355.79,312.55,237.92,437.18c-15,1.31-28-11.94-26.88-26.88L336.15,292Z"/><path class="cls-3" d="M383.47,283.34l-19.05-18.12,27.22-25.68c9.81-9.37,11.48-20.11,11.71-32.68a37.33,37.33,0,0,1,15.74-29.7l52.44-37.27c3.43-2.49,7.69,2.71,4.74,5.68l-46.16,46.16c-3.32,3.56,1.76,8.64,5.32,5.32l46.16-46.15c3.07-3.43,8.53,1.87,5.2,5.21l-46.16,46.16c-3.31,3.54,1.78,8.63,5.34,5.31l46.15-46.14c3.31-3.32,8.62,2.12,5.2,5.2L451.17,212.8c-3.31,3.56,1.78,8.62,5.32,5.32L502.66,172c3.07-3.08,8.16,1.42,5.68,4.73l-37.28,52.43c-9.24,13-21.42,15.61-36,15.85a37.25,37.25,0,0,0-26.4,11.61Z"/><path class="cls-3" d="M330.62,244.22l25.3,23.16L508,411.07a25.42,25.42,0,0,1-27,27L337.36,286l-23.2-25.31c-19.63,8.41-49.65-.91-73.05-24.3-27.77-27.79-35.7-64.91-17.71-82.9s55.13-10.06,82.9,17.71C329.69,194.54,339,224.56,330.62,244.22Z"/></svg>