<svg id="Layer_1" data-name="Layer 1" xmlns="http://www.w3.org/2000/svg" viewBox="0 0 720 720"><defs><style>.cls-1{fill:#04613d;stroke:#1d1d1b;stroke-width:1.12px;}.cls-1,.cls-2,.cls-6{stroke-miterlimit:10;}.cls-2,.cls-6{fill:none;stroke:#fff;}.cls-2{stroke-width:1.29px;}.cls-3,.cls-5{font-size:71.08px;}.cls-3{fill:#fed925;font-family:Lato-Semibold, Lato;font-weight:600;}.cls-4{font-family:Athelas-Regular, Athelas;font-weight:400;}.cls-14,.cls-5,.cls-7{fill:#fff;font-weight:700;}.cls-5,.cls-7{font-family:Lato-Bold, Lato;}.cls-6{stroke-width:2.24px;}.cls-14,.cls-7{font-size:36.45px;}.cls-8{letter-spacing:-0.01em;}.cls-9{letter-spacing:0em;}.cls-10{letter-spacing:-0.01em;}.cls-11{letter-spacing:-0.02em;}.cls-12{letter-spacing:-0.01em;}.cls-13{letter-spacing:-0.01em;}.cls-14{font-family:Athelas-Bold, Athelas;}</style></defs><rect class="cls-1" x="427.64" y="247.27" width="132.5" height="225.46"/><rect class="cls-2" x="430.91" y="250.96" width="125.63" height="217.87"/><text class="cls-3" transform="translate(455.46 364.52) scale(0.98 1)">A<tspan class="cls-4" x="48.8" y="0">3</tspan></text><rect class="cls-1" x="572.35" y="247.27" width="132.5" height="225.46"/><rect class="cls-2" x="575.78" y="250.96" width="125.63" height="217.87"/><text class="cls-5" transform="translate(616.13 364.52) scale(0.98 1)">R</text><rect class="cls-1" x="15.15" y="247.27" width="388.3" height="225.46"/><rect class="cls-6" x="17.79" y="250.96" width="381.44" height="217.87"/><text class="cls-7" transform="translate(34.87 321.2) scale(0.98 1)"><tspan class="cls-8">S<tspan class="cls-9" x="19.76" y="0">agana</tspan></tspan><tspan class="cls-10"><tspan x="0" y="54.68">N</tspan><tspan class="cls-11" x="27.7" y="54.68">y</tspan><tspan class="cls-9" x="46.35" y="54.68">eri</tspan></tspan><tspan class="cls-12" x="0" y="109.36">N</tspan><tspan class="cls-9" x="27.61" y="109.36">a</tspan><tspan class="cls-13" x="46.11" y="109.36">n</tspan><tspan x="66.16" y="109.36">yuki</tspan></text><text class="cls-14" transform="translate(284.54 321.2) scale(0.98 1)">53Km<tspan x="0" y="54.68">103Km</tspan><tspan x="0" y="109.36">148Km</tspan></text></svg>