<svg id="Layer_1" data-name="Layer 1" xmlns="http://www.w3.org/2000/svg" viewBox="0 0 720 720"><defs><style>.cls-1{fill:none;stroke:#1d1d1b;stroke-miterlimit:10;stroke-width:2.82px;}.cls-2{font-size:59.49px;font-family:Lato-Bold, Lato;font-weight:700;}.cls-2,.cls-4{fill:#1d1d1b;}.cls-3{font-family:Athelas-Bold, Athelas;}.cls-4{fill-rule:evenodd;}.cls-5{letter-spacing:-0.04em;}.cls-6{letter-spacing:-0.01em;}.cls-7{letter-spacing:0em;}</style></defs><rect class="cls-1" x="16.79" y="119.73" width="686.41" height="160.56"/><rect class="cls-1" x="16.79" y="280.3" width="686.41" height="160.56"/><rect class="cls-1" x="16.79" y="439.7" width="686.41" height="160.56"/><text class="cls-2" transform="translate(470.82 187.83)">Kitale<tspan class="cls-3"><tspan x="59.28" y="58.22">C 51</tspan></tspan></text><polygon class="cls-4" points="127.88 181.76 93.91 135.41 59.3 182.62 87.7 172.45 82.72 252.13 104.62 252.13 97.36 171.67 127.88 181.76"/><text class="cls-2" transform="translate(405.56 348.38)"><tspan class="cls-5">K</tspan><tspan x="38.58" y="0">on</tspan><tspan class="cls-6" x="106.31" y="0">g</tspan><tspan class="cls-7" x="137.19" y="0">oni</tspan><tspan class="cls-3"><tspan x="82.61" y="58.22">D 342</tspan></tspan></text><polygon class="cls-4" points="123.91 320.05 77.56 354.02 124.77 388.62 114.6 360.23 258.02 365.2 258.02 343.31 113.82 350.56 123.91 320.05"/><polygon class="cls-4" points="570.35 554.27 616.71 520.3 569.49 485.7 579.66 514.09 436.24 509.11 436.24 531.01 580.44 523.76 570.35 554.27"/><text class="cls-2" transform="translate(77.54 512.26)">Kipsain<tspan class="cls-3"><tspan x="0" y="58.22">D 342</tspan></tspan></text></svg>