<svg id="Layer_1" data-name="Layer 1" xmlns="http://www.w3.org/2000/svg" viewBox="0 0 720 720"><defs><style>.cls-1{fill:#9c9b9b;}.cls-1,.cls-2,.cls-3,.cls-4{fill-rule:evenodd;}.cls-2,.cls-5{fill:#fff;}.cls-3{fill:#008ad1;}.cls-4{fill:#1d1d1b;}</style></defs><path class="cls-1" d="M708.5,261.15V467.54a18.28,18.28,0,0,1-18.23,18.22H29.72A18.28,18.28,0,0,1,11.5,467.54V261.15a18.28,18.28,0,0,1,18.22-18.22H690.27A18.28,18.28,0,0,1,708.5,261.15Z"/><path class="cls-2" d="M708.5,254.15V460.54a18.28,18.28,0,0,1-18.23,18.22H29.72A18.28,18.28,0,0,1,11.5,460.54V254.15a18.28,18.28,0,0,1,18.22-18.22H690.27A18.28,18.28,0,0,1,708.5,254.15Z"/><path class="cls-3" d="M695.81,264.66V450c0,9-7.9,16.36-17.57,16.36H41.74c-9.64,0-17.55-7.36-17.55-16.36V264.66c0-9,7.91-16.36,17.55-16.36h636.5C687.91,248.3,695.81,255.66,695.81,264.66Z"/><path class="cls-4" d="M706.81,460.54h0V254.15h3.38V460.54Zm-16.54,19.91,1,0,1-.07,1-.13,1-.18,1-.2,1-.27.92-.33.91-.36.88-.4.85-.44.84-.47.81-.53.79-.56.75-.58.7-.64.71-.64.66-.69.62-.74.59-.73.56-.78.53-.82.47-.82.45-.87.4-.88.35-.89.32-.94.26-.93.22-1,.18-1,.12-1,.08-1,0-1h-3.38l0,.87-.07.82-.1.85-.15.8-.18.77-.22.8-.27.76-.29.75-.35.74-.35.71-.41.69-.42.66-.46.65-.5.62-.52.62-.55.56-.57.55-.6.51-.64.52-.64.46-.68.42-.69.4-.71.36-.73.33-.76.31-.76.25-.78.22-.8.2-.81.13-.84.11-.83.07-.84,0v3.38ZM29.72,477.07H690.27v3.38H29.72v-3.38ZM9.81,460.54l0,1,.08,1,.12,1,.18,1,.22,1,.26.93.32.94.36.89.4.88.44.87.48.82.52.82.56.76.59.75.62.74.67.69.7.64.72.64.75.58.77.56.81.53.84.47.85.44.88.4.91.36.92.33.95.27,1,.2,1,.18,1,.13,1,.07,1,0v-3.38l-.84,0L28,477l-.83-.11-.81-.13-.79-.2-.78-.22-.76-.25-.76-.31-.73-.33-.71-.36-.69-.4-.67-.42-.65-.46-.64-.52-.6-.51-.56-.55-.56-.56-.52-.6-.5-.64-.46-.65-.42-.66-.4-.69-.36-.71L14.5,467l-.3-.75-.25-.76-.24-.8-.17-.77-.15-.8-.11-.85-.07-.82v-.87ZM13.2,254.15h0V460.54H9.81V254.15Zm16.52-19.91-1,0-1,.07-1,.13-1,.18-1,.2-.95.29-.92.31-.91.36-.88.4-.85.44-.84.47-.81.53-.77.56-.75.6-.72.62-.71.64-.66.72-.62.71-.59.75-.56.78-.52.8-.48.84-.44.87-.4.86-.36.92-.32.93-.26.93-.22,1-.18,1-.12,1-.08,1,0,1H13.2v-.85l.07-.82.11-.84.15-.8.17-.8.24-.78.25-.78.3-.73.34-.73.36-.72.4-.71.42-.66.46-.65.5-.62.52-.6.56-.58.56-.55.6-.51.64-.52.65-.44.67-.44.69-.4.71-.36.73-.33.76-.29.76-.27.78-.22.79-.18.81-.15.83-.11.84-.07h.84v-3.4Zm660.55,3.4H29.72v-3.4H690.27v3.4Zm19.92,16.51,0-1-.08-1-.12-1-.18-1-.22-1-.26-.93-.32-.93-.35-.92-.4-.86-.45-.87-.47-.84-.53-.8-.56-.78-.59-.75-.62-.71-.66-.72-.71-.64-.7-.62-.75-.6-.79-.56-.81-.53-.84-.47-.85-.44-.88-.4-.91-.36-.92-.31-1-.29-1-.2-1-.18-1-.13-1-.07-1,0v3.4h.84l.83.07.84.11.81.15.8.18.78.22.76.27.76.29.73.33.71.36.69.4.68.44.64.44.64.52.6.51.56.55.56.58.52.6.5.62.46.65.42.66.41.71.35.72.35.73.29.73.27.78.22.78.18.8.15.8.1.84.07.82,0,.85Z"/><path class="cls-5" d="M279,324.31H247.71V415H221.93v-90.7H190.65V303.86H279Z"/><path class="cls-5" d="M380.9,415h-20a8.74,8.74,0,0,1-5.42-1.56,10.09,10.09,0,0,1-3.13-4l-6.56-19.37H303.55L297,409.44a9.25,9.25,0,0,1-3,3.85A8.38,8.38,0,0,1,288.6,415H268.46l43-111.15h26.4Zm-41-42.49-10.3-30.44c-.76-1.93-1.58-4.2-2.44-6.83s-1.73-5.45-2.59-8.5c-.77,3.1-1.58,6-2.45,8.62s-1.67,4.93-2.44,6.86L309.5,372.52Z"/><path class="cls-5" d="M485,415H459.25a6.45,6.45,0,0,1-4.08-1.22,9.29,9.29,0,0,1-2.48-2.9L430.41,372a14.89,14.89,0,0,1-1.37,2.91l-20.75,36a15.92,15.92,0,0,1-2.52,2.82A5.37,5.37,0,0,1,402,415h-24.1l35.78-57.21L379.3,303.86h25.79a8.08,8.08,0,0,1,3.7.65,5.91,5.91,0,0,1,2.09,2.17L433,344.14a16.44,16.44,0,0,1,.87-1.91c.33-.61.7-1.24,1.11-1.9l19.38-33.26a8,8,0,0,1,2.25-2.45,5.34,5.34,0,0,1,2.93-.76h24.72l-34.86,52.87Z"/><path class="cls-5" d="M520.89,415H495V303.86h25.94Z"/></svg>