<svg id="Layer_1" data-name="Layer 1" xmlns="http://www.w3.org/2000/svg" viewBox="0 0 720 720"><defs><style>.cls-1{fill:#9c9b9b;}.cls-1,.cls-2,.cls-3,.cls-4{fill-rule:evenodd;}.cls-2{fill:#008ad1;}.cls-3{fill:#1d1d1b;}.cls-4,.cls-5{fill:#fff;}</style></defs><path class="cls-1" d="M89,689.76V39.65A13.64,13.64,0,0,1,102.58,26H617.43A13.63,13.63,0,0,1,631,39.65V689.76a13.66,13.66,0,0,1-13.56,13.69H102.58A13.67,13.67,0,0,1,89,689.76Z"/><path class="cls-2" d="M89,682.29V32.14A13.64,13.64,0,0,1,102.58,18.5H617.43A13.63,13.63,0,0,1,631,32.14V682.29A13.65,13.65,0,0,1,617.43,696H102.58A13.66,13.66,0,0,1,89,682.29Z"/><path class="cls-3" d="M91,32.14h0V682.29H87.07V32.14Zm11.63-15.59-.79,0-.79.06-.78.11-.75.13-.77.18-.72.19-.73.24-.71.29-.67.32-.68.35-.64.37-.63.42-.61.44-.59.46-.56.48-.54.52-.51.54-.5.57-.45.59-.43.61-.4.62-.39.67-.34.66-.31.7-.28.7-.24.74-.21.74-.18.74-.13.76-.11.79,0,.79,0,.78H91v-.61l.05-.59.07-.57.11-.59.13-.56.16-.55.18-.54.21-.53.24-.52.25-.5.27-.48.31-.49.34-.48.34-.43.37-.42.38-.41.4-.39.43-.38.44-.34.44-.33.48-.29.5-.3.5-.24.5-.24.53-.2.54-.2.56-.15.55-.13.58-.11.57-.09.58,0,.61,0V16.55Zm514.85,3.89H102.58V16.55H617.43v3.89Zm15.5,11.7,0-.78-.06-.79-.11-.79-.13-.76-.17-.74-.2-.74L632,26.8l-.28-.7-.3-.7-.35-.66-.37-.65-.41-.64-.43-.61-.46-.59-.48-.57-.53-.54-.53-.52-.57-.48-.59-.46-.59-.44-.64-.42-.65-.37-.66-.35-.69-.32-.7-.27-.73-.26-.73-.19-.76-.18-.75-.13-.79-.11-.78-.06-.79,0v3.89l.61,0,.57,0,.58.09.58.11.56.13.55.15.53.18.53.22.51.24.51.24.49.3.46.29.46.33.44.34.42.38.4.39.38.39.37.44.34.46.34.45.3.46.28.51.25.5.23.52.22.53.18.54.16.55.13.56.11.59.06.57,0,.59v.61ZM629,682.29h0V32.14h3.89V682.29ZM617.43,697.9l.79,0,.78-.07.79-.1.75-.14.77-.17.73-.22.72-.24.7-.28.7-.33.65-.33.65-.39.64-.4.6-.43.59-.48.56-.48.53-.5.53-.57.48-.57.46-.57.43-.61.41-.65.37-.66.34-.65.31-.7.28-.7.25-.74.2-.74.17-.75.13-.76.11-.79.06-.78,0-.79H629v.61l0,.59-.06.57-.11.59-.13.57-.16.54-.18.55-.22.52-.22.53-.26.5-.28.5-.3.46-.34.46-.34.45-.37.44-.38.39-.4.4-.43.37-.45.35-.44.33-.46.3-.49.29-.53.26-.49.24-.53.19-.54.2-.56.15-.54.13-.58.11-.58.07-.57,0-.61,0v3.89ZM102.58,694H617.43v3.89H102.58V694ZM87.07,682.29l0,.79,0,.78.11.79.13.76.19.75.2.74.24.72.28.72.32.7.33.65.39.68.4.63.43.59.45.59.5.59.51.55.54.5.55.48.59.48.62.43.63.4.64.39.65.33.7.33.72.28.7.24.74.22.77.17.75.14.78.1.79.07.79,0V694l-.61,0-.58,0-.57-.07-.58-.11-.55-.13-.54-.15-.57-.2-.52-.19-.49-.24-.51-.26-.5-.29-.48-.3-.43-.33-.44-.35-.44-.37-.4-.4-.38-.39-.37-.44-.34-.43-.34-.48-.31-.46-.27-.5-.26-.5-.23-.53-.21-.52-.18-.55-.17-.54-.12-.57-.11-.59-.07-.57L91,682.9v-.61Z"/><path class="cls-4" d="M98.25,673.4V41a13.25,13.25,0,0,1,13.09-13.3H608.66A13.26,13.26,0,0,1,621.75,41V673.4a13.26,13.26,0,0,1-13.09,13.32H111.34A13.25,13.25,0,0,1,98.25,673.4Z"/><path class="cls-2" d="M107.49,664.56V49.9A12.8,12.8,0,0,1,120.11,37H599.88A12.81,12.81,0,0,1,612.51,49.9V664.56a12.84,12.84,0,0,1-12.63,12.93H120.11A12.83,12.83,0,0,1,107.49,664.56Z"/><rect class="cls-5" x="150.6" y="78.85" width="418.79" height="418.77"/><path class="cls-3" d="M306.42,118.69,289,123.56l36.85,94.24,14.85-5.72c5.13-2.41,4.85-8.58,3.42-12.32L317,126.42C315.17,120.26,311.91,118.26,306.42,118.69Z"/><path class="cls-3" d="M404,355.92c-4.62,4.65-5.91,7.49-11.93,11.53-6.77,4.51-15.74,2.2-20.48-4.92l-73.8-111.15c-4.76-7.12-3.67-17.54,3.45-22.3,6-4,5.44-2.79,13.77-6.3L277.75,126.9a111.63,111.63,0,0,0-31.24,21.2c-10,9.76-20.21,24-23.78,32.51,2.79,37.32,28,99.81,65.89,156.47C325,391.57,374.53,441,407.94,457.82c9.26,0,23-4.07,35.89-9.55,13.54-5.93,26.24-13.92,32.29-19.51Z"/><path class="cls-3" d="M437.53,340.11c-2.87-2.71-8.57-5.09-12.73-1.27l-11.28,10.09,71.92,72.93,10.21-11.69c2.53-4.54,1.92-10.43-.8-13.75Z"/></svg>