<svg id="Layer_1" data-name="Layer 1" xmlns="http://www.w3.org/2000/svg" viewBox="0 0 720 720"><defs><style>.cls-1,.cls-2{fill:none;stroke:#008ad1;stroke-miterlimit:10;}.cls-1{stroke-width:2.25px;}.cls-1,.cls-2,.cls-4{fill-rule:evenodd;}.cls-2{stroke-width:6.74px;}.cls-3,.cls-4{fill:#1d1d1b;}</style></defs><polygon class="cls-1" points="503.31 470.64 17.45 470.64 17.45 249.36 503.31 249.36 702.55 356 503.31 470.64"/><polyline class="cls-2" points="487 260.34 665.74 354.74 490.09 457.35"/><path class="cls-3" d="M291.27,381.13H284a3.07,3.07,0,0,1-2-.61,3.72,3.72,0,0,1-1.15-1.51l-3.77-10.29H256.23L252.46,379a3.26,3.26,0,0,1-1.08,1.46,3,3,0,0,1-2,.66h-7.33l19.84-50.42h9.56Zm-16.56-19-6.14-16.77c-.3-.74-.61-1.62-.94-2.65s-.65-2.12-1-3.31c-.3,1.19-.61,2.3-.94,3.33s-.64,1.94-.94,2.7l-6.1,16.7Z"/><path class="cls-3" d="M305.18,334.93a5,5,0,0,1-.45,2.1,5.82,5.82,0,0,1-1.2,1.7,5.76,5.76,0,0,1-1.76,1.17,5.45,5.45,0,0,1-2.16.44,5.18,5.18,0,0,1-2.11-.44,5.5,5.5,0,0,1-1.73-1.17,5.73,5.73,0,0,1-1.17-1.7,5.13,5.13,0,0,1-.44-2.1,5.45,5.45,0,0,1,.44-2.16,5.48,5.48,0,0,1,2.9-2.91,5.18,5.18,0,0,1,2.11-.44,5.45,5.45,0,0,1,2.16.44,5.76,5.76,0,0,1,1.76,1.17,5.63,5.63,0,0,1,1.2,1.74A5.29,5.29,0,0,1,305.18,334.93ZM304,345.36v35.77h-8.65V345.36Z"/><path class="cls-3" d="M320.91,351.56a15.46,15.46,0,0,1,4-5,8.39,8.39,0,0,1,5.43-1.83,6.75,6.75,0,0,1,4,1.07l-.56,6.46a1.65,1.65,0,0,1-.5.89,1.43,1.43,0,0,1-.89.26,10,10,0,0,1-1.56-.18,12.56,12.56,0,0,0-2-.17,7.25,7.25,0,0,0-2.55.42,6.46,6.46,0,0,0-2,1.2,8.2,8.2,0,0,0-1.57,1.9,17.81,17.81,0,0,0-1.27,2.55v22h-8.61V345.36h5a2.82,2.82,0,0,1,1.85.47,2.78,2.78,0,0,1,.7,1.69Z"/><path class="cls-3" d="M347,350.24a18.51,18.51,0,0,1,5-4,13.44,13.44,0,0,1,6.56-1.53,11.78,11.78,0,0,1,5.35,1.21,12.07,12.07,0,0,1,4.18,3.55,16.84,16.84,0,0,1,2.72,5.71,28.81,28.81,0,0,1,1,7.8,24.46,24.46,0,0,1-1.08,7.42,18.23,18.23,0,0,1-3.08,5.93,14.36,14.36,0,0,1-4.85,3.92,14.15,14.15,0,0,1-6.36,1.41,12.75,12.75,0,0,1-5.13-.92,12.48,12.48,0,0,1-3.8-2.56v14.64H338.8V345.36h5.26a2.11,2.11,0,0,1,2.2,1.57Zm.45,21.62a8.58,8.58,0,0,0,3.19,2.51,9.46,9.46,0,0,0,3.75.73,8.18,8.18,0,0,0,3.52-.73,6.87,6.87,0,0,0,2.67-2.23,11.15,11.15,0,0,0,1.69-3.79,21.85,21.85,0,0,0,.59-5.38,24.33,24.33,0,0,0-.5-5.32,10.54,10.54,0,0,0-1.45-3.54,5.75,5.75,0,0,0-2.28-2,7.15,7.15,0,0,0-3.06-.62,8.62,8.62,0,0,0-4.56,1.13,13.79,13.79,0,0,0-3.56,3.19Z"/><path class="cls-3" d="M394.24,344.8a19.47,19.47,0,0,1,7.23,1.29,15.84,15.84,0,0,1,5.58,3.66,16.06,16.06,0,0,1,3.58,5.79,24.06,24.06,0,0,1,0,15.31,16.37,16.37,0,0,1-3.58,5.82,15.64,15.64,0,0,1-5.58,3.69,19.27,19.27,0,0,1-7.23,1.29,19.51,19.51,0,0,1-7.29-1.29,15.63,15.63,0,0,1-5.6-3.69,16.67,16.67,0,0,1-3.59-5.82,23.71,23.71,0,0,1,0-15.31,16.36,16.36,0,0,1,3.59-5.79,15.83,15.83,0,0,1,5.6-3.66A19.71,19.71,0,0,1,394.24,344.8Zm0,30.23q4.45,0,6.6-3t2.15-8.79q0-5.78-2.15-8.82t-6.6-3c-3,0-5.26,1-6.72,3.05s-2.18,5-2.18,8.8.73,6.76,2.18,8.77S391.21,375,394.24,375Z"/><path class="cls-3" d="M426.59,351.56a15.6,15.6,0,0,1,4-5A8.42,8.42,0,0,1,436,344.7a6.71,6.71,0,0,1,4,1.07l-.55,6.46a1.72,1.72,0,0,1-.51.89,1.43,1.43,0,0,1-.89.26,9.75,9.75,0,0,1-1.55-.18,12.68,12.68,0,0,0-2-.17,7.16,7.16,0,0,0-2.54.42,6.63,6.63,0,0,0-2,1.2,8.46,8.46,0,0,0-1.57,1.9,18.93,18.93,0,0,0-1.27,2.55v22h-8.61V345.36h5.06a2.79,2.79,0,0,1,1.84.47,2.72,2.72,0,0,1,.7,1.69Z"/><path class="cls-3" d="M456.4,381.69c-3.11,0-5.5-.87-7.16-2.63a10.17,10.17,0,0,1-2.49-7.27v-20h-3.67a1.67,1.67,0,0,1-1.18-.45,1.78,1.78,0,0,1-.49-1.37v-3.41l5.75-.94,1.82-9.77a1.88,1.88,0,0,1,.66-1.08,2,2,0,0,1,1.25-.38h4.47v11.26h9.55v6.14h-9.55V371.2a3.83,3.83,0,0,0,.82,2.61,2.8,2.8,0,0,0,2.25.94,4,4,0,0,0,1.34-.19,7.81,7.81,0,0,0,.94-.4c.27-.14.51-.28.71-.4a1.18,1.18,0,0,1,.63-.19,1,1,0,0,1,.63.19,2.71,2.71,0,0,1,.52.57l2.58,4.19a13.14,13.14,0,0,1-4.32,2.37A16.23,16.23,0,0,1,456.4,381.69Z"/><path class="cls-3" d="M517.32,373.11a3.06,3.06,0,0,1,2.21.79,2.71,2.71,0,0,1,.82,2.07v5.16H485.76v-2.86a5,5,0,0,1,.37-1.83,4.55,4.55,0,0,1,1.17-1.72l15.3-15.34c1.28-1.31,2.43-2.55,3.44-3.74a23.92,23.92,0,0,0,2.53-3.52,16.64,16.64,0,0,0,1.55-3.54,13,13,0,0,0,.54-3.78,9.16,9.16,0,0,0-.52-3.19,6.4,6.4,0,0,0-1.49-2.32,6,6,0,0,0-2.3-1.41,8.89,8.89,0,0,0-3-.47,9,9,0,0,0-2.85.43,7.85,7.85,0,0,0-4,3.05,7.82,7.82,0,0,0-1.05,2.31,3.85,3.85,0,0,1-1.53,2.12,4.33,4.33,0,0,1-2.72.25l-4.54-.8a18.78,18.78,0,0,1,2-6.37,15.3,15.3,0,0,1,3.74-4.57,15.74,15.74,0,0,1,5.17-2.75,20.71,20.71,0,0,1,6.25-.92,19.06,19.06,0,0,1,6.38,1,14.47,14.47,0,0,1,5,2.92,13,13,0,0,1,3.2,4.53,14.57,14.57,0,0,1,1.15,5.89,15.6,15.6,0,0,1-.82,5.16,21,21,0,0,1-2.19,4.53,30.48,30.48,0,0,1-3.23,4.19q-1.85,2-3.87,4.11L498,374.12a25.88,25.88,0,0,1,3.26-.74,18.79,18.79,0,0,1,3.08-.27Z"/><path class="cls-4" d="M174.55,360.74c.51-.48,1-.88,1.31-1.17l-.39-.53a34.62,34.62,0,0,1,7.95-6.34c.51-.32,1.22-.52,1.49-.15l4.11,5.5c.27.39-.13,1-.59,1.4a33.58,33.58,0,0,1-8.35,5.79l-.41-.56c-1.17.76-3.7,2.24-5.24,3l-1.06,62.57,0,1.82c0,1.16-1.38,2.25-2.26,2.93l-5,3.53-.66-3.61-10.74-51.29L145,365.47l-.1-.12-16.09,12c-4.93,3.68-15,9.45-21,12.48a5.44,5.44,0,0,0-1.54,2.79l-1.69,24.25a3,3,0,0,1-1.52,2.25l-4.67,3.49-7.76-23.12-.8.6A13.38,13.38,0,0,1,85,402.85l-1.11-1.52L81.42,398l-1.13-1.51a13.43,13.43,0,0,1,4-3.84l.8-.59L65.19,378l4.69-3.47a3,3,0,0,1,2.6-.83l23.7,5.33a5.6,5.6,0,0,0,3.12-.68c4.6-4.87,13-12.85,18-16.53l16.09-12-.09-.12-14.59-14.51-46.09-25-3.25-1.67,4.79-3.74c.9-.66,2.33-1.65,3.46-1.33l1.75.49,60.25,16.88c1.16-1.25,3.3-3.25,4.35-4.15l-.41-.57a34.44,34.44,0,0,1,7.94-6.35c.53-.31,1.23-.52,1.51-.14l4.11,5.49c.26.39-.13,1-.59,1.4a33.57,33.57,0,0,1-8.35,5.8l-.38-.52c-.39.23-.91.57-1.5.92l13.62,3.8c1.23.35,3.6.84,5.44-.52l32.55-24.27A139.82,139.82,0,0,1,215,291c6.8-3.56,15.82-6.38,18.08-3.35S230,298.5,224.66,304a139.88,139.88,0,0,1-15.23,13.28l-32.56,24.25c-1.83,1.38-2.06,3.78-2.08,5.06Z"/></svg>