<svg id="Layer_1" data-name="Layer 1" xmlns="http://www.w3.org/2000/svg" viewBox="0 0 720 720"><defs><style>.cls-1,.cls-2{fill:none;stroke:#008ad1;stroke-miterlimit:10;fill-rule:evenodd;}.cls-1{stroke-width:2.25px;}.cls-2{stroke-width:6.74px;}.cls-3{fill:#1d1d1b;}</style></defs><polygon class="cls-1" points="503.31 470.64 17.45 470.64 17.45 249.36 503.31 249.36 702.55 356 503.31 470.64"/><polyline class="cls-2" points="487 260.34 665.74 354.74 490.09 457.35"/><path class="cls-3" d="M117.94,300.57v15.31h19.94v9H117.94V347H106.41V291.59H141.7v9Z"/><path class="cls-3" d="M155.06,314.12a17.66,17.66,0,0,1,4.32-5.3,8.92,8.92,0,0,1,5.73-1.95,7.06,7.06,0,0,1,4.35,1.26l-.69,7.79a1.71,1.71,0,0,1-.59,1.05,1.85,1.85,0,0,1-1.09.29,12.2,12.2,0,0,1-1.75-.18,15.21,15.21,0,0,0-2.14-.17,7.35,7.35,0,0,0-2.58.42,6.57,6.57,0,0,0-2,1.18,8.45,8.45,0,0,0-1.59,1.88,18.48,18.48,0,0,0-1.32,2.52V347H145.17V307.63h6.23a3.2,3.2,0,0,1,2.21.58,3.59,3.59,0,0,1,.88,2Z"/><path class="cls-3" d="M181.45,328.94q.5,5.54,3.16,8.1a9.58,9.58,0,0,0,6.93,2.56,12,12,0,0,0,3.76-.52,17.37,17.37,0,0,0,2.79-1.15c.8-.41,1.52-.8,2.17-1.14a4.14,4.14,0,0,1,1.93-.52,2.25,2.25,0,0,1,1.91.92l3.05,3.82a16.44,16.44,0,0,1-3.7,3.22,19.33,19.33,0,0,1-4.2,2,22,22,0,0,1-4.39,1,33.58,33.58,0,0,1-4.28.29,21.55,21.55,0,0,1-7.69-1.36,17.43,17.43,0,0,1-6.23-4,18.74,18.74,0,0,1-4.18-6.59A25,25,0,0,1,171,326.5a21.46,21.46,0,0,1,1.32-7.56,17.76,17.76,0,0,1,9.83-10.37,19.92,19.92,0,0,1,8-1.55,19.62,19.62,0,0,1,7,1.2,15.24,15.24,0,0,1,9.09,9.13,21.28,21.28,0,0,1,1.28,7.62,14.69,14.69,0,0,1-.11,1.95,3.66,3.66,0,0,1-.38,1.22,1.44,1.44,0,0,1-.73.63,3.31,3.31,0,0,1-1.18.17ZM198,322.68a11.06,11.06,0,0,0-.44-3.13,7.27,7.27,0,0,0-1.39-2.64,6.75,6.75,0,0,0-2.41-1.81,8.22,8.22,0,0,0-3.48-.67,8,8,0,0,0-5.92,2.14,10.88,10.88,0,0,0-2.78,6.11Z"/><path class="cls-3" d="M222.39,328.94q.5,5.54,3.15,8.1a9.59,9.59,0,0,0,6.93,2.56,12,12,0,0,0,3.77-.52,17.37,17.37,0,0,0,2.79-1.15c.8-.41,1.52-.8,2.17-1.14a4.14,4.14,0,0,1,1.93-.52,2.27,2.27,0,0,1,1.91.92l3.05,3.82a16.44,16.44,0,0,1-3.7,3.22,19.33,19.33,0,0,1-4.2,2,22.18,22.18,0,0,1-4.39,1,33.58,33.58,0,0,1-4.28.29,21.55,21.55,0,0,1-7.69-1.36,17.43,17.43,0,0,1-6.23-4,18.74,18.74,0,0,1-4.18-6.59,25,25,0,0,1-1.53-9.12,21.46,21.46,0,0,1,1.32-7.56A17.76,17.76,0,0,1,223,308.57a19.92,19.92,0,0,1,8-1.55,19.62,19.62,0,0,1,7,1.2,15.24,15.24,0,0,1,9.09,9.13A21.28,21.28,0,0,1,248.4,325a13,13,0,0,1-.12,1.95,3.25,3.25,0,0,1-.38,1.22,1.38,1.38,0,0,1-.72.63,3.33,3.33,0,0,1-1.19.17ZM239,322.68a11.06,11.06,0,0,0-.44-3.13,7.29,7.29,0,0,0-1.4-2.64,6.71,6.71,0,0,0-2.4-1.81,8.22,8.22,0,0,0-3.48-.67,8,8,0,0,0-5.92,2.14,11,11,0,0,0-2.79,6.11Z"/><path class="cls-3" d="M144.14,403.11a2.16,2.16,0,0,1,1.61.68l4.54,4.86a21.67,21.67,0,0,1-8.34,6.49,29.19,29.19,0,0,1-11.86,2.21,28.12,28.12,0,0,1-11.19-2.12,24.11,24.11,0,0,1-8.44-5.9,26.22,26.22,0,0,1-5.35-9,35.06,35.06,0,0,1-1-19.19,27.49,27.49,0,0,1,2.62-6.86,26.1,26.1,0,0,1,4.14-5.65,25,25,0,0,1,5.48-4.3,26.67,26.67,0,0,1,6.66-2.71,32.1,32.1,0,0,1,13.48-.4,28.87,28.87,0,0,1,5.1,1.49,23.55,23.55,0,0,1,4.37,2.31,24.68,24.68,0,0,1,3.61,3l-3.85,5.27a3.68,3.68,0,0,1-.88.88,2.42,2.42,0,0,1-1.45.38,3.16,3.16,0,0,1-1.85-.65c-.63-.43-1.39-.91-2.3-1.45a16.43,16.43,0,0,0-3.4-1.45,17.42,17.42,0,0,0-5.17-.65,15.86,15.86,0,0,0-6.38,1.26,13.92,13.92,0,0,0-5,3.65,16.81,16.81,0,0,0-3.23,5.86A25.34,25.34,0,0,0,115,389a23.67,23.67,0,0,0,1.24,8,17.55,17.55,0,0,0,3.4,5.9,14.25,14.25,0,0,0,5,3.65,15.55,15.55,0,0,0,6.16,1.24,31.52,31.52,0,0,0,3.54-.19,15.43,15.43,0,0,0,2.94-.65,13,13,0,0,0,2.56-1.19,15.72,15.72,0,0,0,2.42-1.83,4.41,4.41,0,0,1,.88-.57A2.12,2.12,0,0,1,144.14,403.11Z"/><path class="cls-3" d="M154.42,382.83a23.41,23.41,0,0,1,7.67-4.68,26.13,26.13,0,0,1,9.09-1.54,16.35,16.35,0,0,1,6.28,1.14,13.41,13.41,0,0,1,4.7,3.19,14.12,14.12,0,0,1,3,4.87,17.85,17.85,0,0,1,1,6.18v24.75h-4.81a4.91,4.91,0,0,1-2.27-.42,3,3,0,0,1-1.28-1.76L177,412c-1,.87-2,1.63-2.89,2.29a16.43,16.43,0,0,1-2.88,1.67,15.43,15.43,0,0,1-3.19,1,19.17,19.17,0,0,1-3.8.34,15.62,15.62,0,0,1-4.73-.68,10.36,10.36,0,0,1-3.69-2.05,8.86,8.86,0,0,1-2.38-3.38,11.89,11.89,0,0,1-.84-4.66,9.48,9.48,0,0,1,1.1-4.35,10.73,10.73,0,0,1,3.8-4,23.86,23.86,0,0,1,7.18-2.94A49.88,49.88,0,0,1,175.88,394v-2c0-2.46-.52-4.28-1.57-5.44a5.73,5.73,0,0,0-4.51-1.73,11.07,11.07,0,0,0-3.62.51,16.49,16.49,0,0,0-2.54,1.11l-2,1.1a4.55,4.55,0,0,1-2.22.52,3,3,0,0,1-1.85-.55,5,5,0,0,1-1.24-1.32Zm21.46,17.45a49.5,49.5,0,0,0-6.42.67,15.66,15.66,0,0,0-4.07,1.24,5.34,5.34,0,0,0-2.13,1.74,3.82,3.82,0,0,0-.64,2.12,3.75,3.75,0,0,0,1.29,3.24,5.83,5.83,0,0,0,3.57,1,10.28,10.28,0,0,0,4.56-.94,13.63,13.63,0,0,0,3.84-2.92Z"/><path class="cls-3" d="M204.29,383.86a17.84,17.84,0,0,1,4.31-5.31,8.91,8.91,0,0,1,5.73-1.94,7.11,7.11,0,0,1,4.36,1.25l-.69,7.8a1.75,1.75,0,0,1-.59,1,1.78,1.78,0,0,1-1.09.29,13.59,13.59,0,0,1-1.76-.17,13.66,13.66,0,0,0-2.14-.17,7.25,7.25,0,0,0-2.57.42,6.31,6.31,0,0,0-2,1.18,8.59,8.59,0,0,0-1.58,1.87,17.05,17.05,0,0,0-1.32,2.53v24.09H194.4V377.37h6.22a3.29,3.29,0,0,1,2.22.57,3.7,3.7,0,0,1,.88,2Z"/><path class="cls-3" d="M259.93,361.33a32.62,32.62,0,0,1,9.84,1.33,18.83,18.83,0,0,1,6.81,3.73,14.6,14.6,0,0,1,3.95,5.67,19.57,19.57,0,0,1,1.28,7.14,20.32,20.32,0,0,1-1.33,7.49,15.42,15.42,0,0,1-4.05,5.84,19,19,0,0,1-6.84,3.8,31.12,31.12,0,0,1-9.66,1.35h-7.25v19.06H241.22V361.33Zm0,27.57q5.38,0,7.89-2.59a9.86,9.86,0,0,0,2.5-7.11,10.75,10.75,0,0,0-.63-3.76,7.54,7.54,0,0,0-1.91-2.9,8.66,8.66,0,0,0-3.23-1.86,14.77,14.77,0,0,0-4.62-.64h-7.25V388.9Z"/><path class="cls-3" d="M285.63,382.83a23.56,23.56,0,0,1,7.68-4.68,26.13,26.13,0,0,1,9.09-1.54,16.39,16.39,0,0,1,6.28,1.14,13.41,13.41,0,0,1,4.7,3.19,14.12,14.12,0,0,1,3,4.87,18.09,18.09,0,0,1,1,6.18v24.75h-4.81a4.92,4.92,0,0,1-2.28-.42,3,3,0,0,1-1.27-1.76l-.85-2.52a35.5,35.5,0,0,1-2.88,2.29A16.8,16.8,0,0,1,302.4,416a15.63,15.63,0,0,1-3.19,1,19.17,19.17,0,0,1-3.8.34,15.73,15.73,0,0,1-4.74-.68,10.4,10.4,0,0,1-3.68-2.05,9,9,0,0,1-2.39-3.38,12.07,12.07,0,0,1-.84-4.66,9.5,9.5,0,0,1,1.11-4.35,10.65,10.65,0,0,1,3.8-4,23.75,23.75,0,0,1,7.18-2.94A49.86,49.86,0,0,1,307.09,394v-2c0-2.46-.52-4.28-1.56-5.44a5.76,5.76,0,0,0-4.51-1.73,11,11,0,0,0-3.62.51,16.49,16.49,0,0,0-2.54,1.11l-2.05,1.1a4.52,4.52,0,0,1-2.22.52,3,3,0,0,1-1.85-.55,5.37,5.37,0,0,1-1.24-1.32Zm21.46,17.45a49.13,49.13,0,0,0-6.41.67,15.53,15.53,0,0,0-4.07,1.24,5.38,5.38,0,0,0-2.14,1.74,4.37,4.37,0,0,0,.65,5.36,5.85,5.85,0,0,0,3.57,1,10.3,10.3,0,0,0,4.57-.94,13.6,13.6,0,0,0,3.83-2.92Z"/><path class="cls-3" d="M335.5,383.86a17.71,17.71,0,0,1,4.32-5.31,8.91,8.91,0,0,1,5.73-1.94,7.06,7.06,0,0,1,4.35,1.25l-.69,7.8a1.65,1.65,0,0,1-.59,1,1.78,1.78,0,0,1-1.09.29,13.47,13.47,0,0,1-1.75-.17,13.85,13.85,0,0,0-2.14-.17,7.35,7.35,0,0,0-2.58.42,6.37,6.37,0,0,0-2,1.18,8.62,8.62,0,0,0-1.59,1.87,18.05,18.05,0,0,0-1.32,2.53v24.09H325.61V377.37h6.23a3.26,3.26,0,0,1,2.21.57,3.62,3.62,0,0,1,.88,2Z"/><path class="cls-3" d="M365,359.8v32.31h1.75a3.54,3.54,0,0,0,1.57-.29,3.32,3.32,0,0,0,1.14-1.05l8.71-11.61a4.81,4.81,0,0,1,1.47-1.33,4.2,4.2,0,0,1,2.09-.46h9.62L380,391.73a10.55,10.55,0,0,1-3.09,2.82,7.15,7.15,0,0,1,1.53,1.42,17.52,17.52,0,0,1,1.26,1.79l12.18,19H382.4a5,5,0,0,1-2.1-.4,3.17,3.17,0,0,1-1.45-1.43L370,400.43a2.84,2.84,0,0,0-1.11-1.18,4.19,4.19,0,0,0-1.72-.27H365v17.76H354.41V359.8Z"/></svg>