<svg id="Layer_1" data-name="Layer 1" xmlns="http://www.w3.org/2000/svg" viewBox="0 0 720 720"><defs><style>.cls-1,.cls-2{fill:none;stroke:#008ad1;stroke-miterlimit:10;fill-rule:evenodd;}.cls-1{stroke-width:2.25px;}.cls-2{stroke-width:6.74px;}.cls-3{fill:#1d1d1b;}</style></defs><polygon class="cls-1" points="503.31 470.64 17.45 470.64 17.45 249.36 503.31 249.36 702.55 356 503.31 470.64"/><polyline class="cls-2" points="487 260.34 665.74 354.74 490.09 457.35"/><path class="cls-3" d="M153.88,291.59V347H148a5.22,5.22,0,0,1-2.25-.43,5.65,5.65,0,0,1-1.8-1.51L116.3,309.92c.08.9.14,1.77.17,2.64s.06,1.67.06,2.4v32H106.41V291.59h6a11.05,11.05,0,0,1,1.24.06,2.79,2.79,0,0,1,.93.27,3.46,3.46,0,0,1,.8.55,6.57,6.57,0,0,1,.84.92l27.81,35.28c-.11-1-.18-1.9-.23-2.8s-.08-1.77-.08-2.58v-31.7Z"/><path class="cls-3" d="M162.25,313.09a23.55,23.55,0,0,1,7.67-4.67,25.9,25.9,0,0,1,9.09-1.55,16.39,16.39,0,0,1,6.28,1.14,13.55,13.55,0,0,1,4.7,3.19,14.12,14.12,0,0,1,3,4.87,18.15,18.15,0,0,1,1,6.19V347h-4.81a4.78,4.78,0,0,1-2.27-.42,3,3,0,0,1-1.28-1.75l-.85-2.52c-1,.86-2,1.63-2.88,2.29a17.42,17.42,0,0,1-2.88,1.66,14.85,14.85,0,0,1-3.19,1,19.13,19.13,0,0,1-3.8.35,15.42,15.42,0,0,1-4.74-.69,10.39,10.39,0,0,1-3.68-2,9.07,9.07,0,0,1-2.39-3.38,12.11,12.11,0,0,1-.84-4.66,9.53,9.53,0,0,1,1.11-4.36,10.65,10.65,0,0,1,3.8-3.95,24.27,24.27,0,0,1,7.18-2.94,49.88,49.88,0,0,1,11.25-1.32v-2q0-3.7-1.57-5.44a5.74,5.74,0,0,0-4.51-1.74,11,11,0,0,0-3.62.51,18.69,18.69,0,0,0-2.54,1.11l-2,1.11a4.66,4.66,0,0,1-2.22.51,3,3,0,0,1-1.85-.55,5,5,0,0,1-1.24-1.32Zm21.46,17.46a49.71,49.71,0,0,0-6.42.66,15.5,15.5,0,0,0-4.07,1.25,5.18,5.18,0,0,0-2.13,1.73,3.77,3.77,0,0,0-.64,2.12,3.81,3.81,0,0,0,1.28,3.25,5.94,5.94,0,0,0,3.57.95,10.44,10.44,0,0,0,4.57-.93,14,14,0,0,0,3.84-2.92Z"/><path class="cls-3" d="M214.33,296.44a5.87,5.87,0,0,1-.53,2.48,7.1,7.1,0,0,1-1.43,2,6.41,6.41,0,0,1-2.11,1.37,6.69,6.69,0,0,1-2.57.5,6.4,6.4,0,0,1-4.51-1.87,6.61,6.61,0,0,1-1.39-2,5.86,5.86,0,0,1-.52-2.48,6,6,0,0,1,.52-2.5,6.54,6.54,0,0,1,1.39-2,6.34,6.34,0,0,1,2-1.38,6.26,6.26,0,0,1,2.47-.49,6.68,6.68,0,0,1,2.57.49,6.43,6.43,0,0,1,2.11,1.38,7,7,0,0,1,1.43,2A6,6,0,0,1,214.33,296.44Zm-1.26,11.19V347H202.53V307.63Z"/><path class="cls-3" d="M232,314.12a17.37,17.37,0,0,1,4.31-5.3,8.92,8.92,0,0,1,5.73-1.95,7.06,7.06,0,0,1,4.35,1.26l-.68,7.79a1.81,1.81,0,0,1-.59,1.05,1.88,1.88,0,0,1-1.09.29,12.18,12.18,0,0,1-1.76-.18,15.1,15.1,0,0,0-2.14-.17,7.35,7.35,0,0,0-2.58.42,6.4,6.4,0,0,0-2,1.19,8.17,8.17,0,0,0-1.59,1.87,17.42,17.42,0,0,0-1.31,2.52V347H222.08V307.63h6.23a3.29,3.29,0,0,1,2.22.57,3.66,3.66,0,0,1,.87,2Z"/><path class="cls-3" d="M267.72,307a22.11,22.11,0,0,1,8.06,1.41A17.36,17.36,0,0,1,286,318.82a25.85,25.85,0,0,1,0,16.9,18,18,0,0,1-4,6.4,17.57,17.57,0,0,1-6.22,4,23.73,23.73,0,0,1-16.17,0,17.52,17.52,0,0,1-6.25-4,18.33,18.33,0,0,1-4-6.4,25.68,25.68,0,0,1,0-16.9,18.25,18.25,0,0,1,4-6.36,17.77,17.77,0,0,1,6.25-4A22.3,22.3,0,0,1,267.72,307Zm0,32.65c3,0,5.23-1,6.68-3.11s2.18-5.16,2.18-9.26-.72-7.15-2.18-9.22-3.67-3.12-6.68-3.12-5.35,1-6.8,3.12-2.17,5.15-2.17,9.22.72,7.19,2.17,9.26S264.64,339.67,267.72,339.67Z"/><path class="cls-3" d="M304.61,312.18a19.69,19.69,0,0,1,5.16-3.75,14,14,0,0,1,6.34-1.41,13.53,13.53,0,0,1,6.13,1.36,13.2,13.2,0,0,1,4.66,3.87,18.6,18.6,0,0,1,3,6.09,28.39,28.39,0,0,1,1.05,8,29.21,29.21,0,0,1-1.2,8.69,20.13,20.13,0,0,1-3.42,6.71,15.56,15.56,0,0,1-5.29,4.31,15.15,15.15,0,0,1-6.85,1.53,13.61,13.61,0,0,1-3.28-.36,11.85,11.85,0,0,1-4.93-2.56,16.9,16.9,0,0,1-1.95-2l-.42,2.37a2.59,2.59,0,0,1-.88,1.55,2.75,2.75,0,0,1-1.64.43h-7V290.07h10.54Zm0,24.44a8.41,8.41,0,0,0,3.23,2.4,9.69,9.69,0,0,0,3.61.69A8.43,8.43,0,0,0,315,339a6.81,6.81,0,0,0,2.73-2.25,11.3,11.3,0,0,0,1.76-4,25.22,25.22,0,0,0,.61-6,24.56,24.56,0,0,0-.5-5.33,10.33,10.33,0,0,0-1.47-3.61,5.81,5.81,0,0,0-2.39-2.06,7.8,7.8,0,0,0-3.28-.65,8.14,8.14,0,0,0-4.29,1.09,13.93,13.93,0,0,0-3.54,3.19Z"/><path class="cls-3" d="M349.79,296.44a5.87,5.87,0,0,1-.53,2.48,6.94,6.94,0,0,1-1.44,2,6.36,6.36,0,0,1-2.1,1.37,6.7,6.7,0,0,1-2.58.5,6.4,6.4,0,0,1-4.5-1.87,6.82,6.82,0,0,1-1.4-2,6,6,0,0,1-.51-2.48,6.18,6.18,0,0,1,.51-2.5,6.74,6.74,0,0,1,1.4-2,6.28,6.28,0,0,1,4.5-1.87,6.7,6.7,0,0,1,2.58.49,6.39,6.39,0,0,1,2.1,1.38,6.86,6.86,0,0,1,1.44,2A6,6,0,0,1,349.79,296.44Zm-1.26,11.19V347H338V307.63Z"/><path class="cls-3" d="M153.88,361.33v55.41H142.35V392.87H117.94v23.87H106.41V361.33h11.53v23.52h24.41V361.33Z"/><path class="cls-3" d="M180.61,376.76a22.07,22.07,0,0,1,8.06,1.41,17.34,17.34,0,0,1,10.24,10.39,26,26,0,0,1,0,16.9,18.1,18.1,0,0,1-4,6.39,17.5,17.5,0,0,1-6.23,4,22.07,22.07,0,0,1-8.06,1.41,22.34,22.34,0,0,1-8.11-1.41,17.45,17.45,0,0,1-6.24-4,18.14,18.14,0,0,1-4-6.39,25.68,25.68,0,0,1,0-16.9,17.92,17.92,0,0,1,4-6.36,17.68,17.68,0,0,1,6.24-4A22.34,22.34,0,0,1,180.61,376.76Zm0,32.65q4.51,0,6.69-3.11t2.17-9.26c0-4.08-.72-7.15-2.17-9.23s-3.68-3.11-6.69-3.11-5.34,1-6.79,3.11-2.18,5.15-2.18,9.23.73,7.18,2.18,9.26S177.53,409.41,180.61,409.41Z"/><path class="cls-3" d="M231.44,385.46a3,3,0,0,1-.86.94,2.17,2.17,0,0,1-1.2.29,3.6,3.6,0,0,1-1.57-.39l-1.79-.82a20.89,20.89,0,0,0-2.27-.82,10.53,10.53,0,0,0-3-.38,6.53,6.53,0,0,0-4,1.05,3.27,3.27,0,0,0-1.42,2.77,2.73,2.73,0,0,0,.8,2,7.34,7.34,0,0,0,2.13,1.39,27.18,27.18,0,0,0,3,1.11c1.12.34,2.28.72,3.46,1.12a33.51,33.51,0,0,1,3.46,1.42,12.31,12.31,0,0,1,3,2,9.1,9.1,0,0,1,2.12,2.9,9.54,9.54,0,0,1,.8,4.11,13.18,13.18,0,0,1-1.05,5.29,11.49,11.49,0,0,1-3.07,4.18,14.5,14.5,0,0,1-5,2.75,24,24,0,0,1-11,.63,22.56,22.56,0,0,1-3.78-1,23.54,23.54,0,0,1-3.36-1.55,14.28,14.28,0,0,1-2.71-1.91l2.44-3.93a3.16,3.16,0,0,1,1-1.07,3.13,3.13,0,0,1,1.62-.38,3.43,3.43,0,0,1,1.76.47c.53.32,1.13.67,1.8,1a15.27,15.27,0,0,0,2.34,1,10.26,10.26,0,0,0,3.38.48,8.93,8.93,0,0,0,2.64-.35,5,5,0,0,0,1.79-.93,3.74,3.74,0,0,0,1-1.34,3.79,3.79,0,0,0,.33-1.55,2.87,2.87,0,0,0-.82-2.12,7.61,7.61,0,0,0-2.14-1.43,21.07,21.07,0,0,0-3-1.11c-1.15-.33-2.32-.7-3.5-1.1a28.34,28.34,0,0,1-3.47-1.46,11.56,11.56,0,0,1-3-2.12,9.8,9.8,0,0,1-2.14-3.15,11.2,11.2,0,0,1-.82-4.54,11.6,11.6,0,0,1,.95-4.64,11.09,11.09,0,0,1,2.87-3.88,14.05,14.05,0,0,1,4.75-2.67,20,20,0,0,1,6.59-1,20.57,20.57,0,0,1,7.64,1.37,16.76,16.76,0,0,1,5.65,3.59Z"/><path class="cls-3" d="M250.69,382.52a23.53,23.53,0,0,1,2.52-2.38,16.17,16.17,0,0,1,2.86-1.87,15.2,15.2,0,0,1,3.29-1.23,15.83,15.83,0,0,1,3.82-.44A12.66,12.66,0,0,1,269,378a13,13,0,0,1,4.56,3.93,19.4,19.4,0,0,1,3,6.32,31.36,31.36,0,0,1,1.07,8.56,26.84,26.84,0,0,1-1.2,8.19,19.79,19.79,0,0,1-3.42,6.51,15.83,15.83,0,0,1-5.33,4.3,15.34,15.34,0,0,1-6.93,1.54,13.76,13.76,0,0,1-5.44-.95,13.6,13.6,0,0,1-4-2.6v15.7H240.76V377.37h6.49a2.57,2.57,0,0,1,2.64,1.83Zm.61,23.83a8.37,8.37,0,0,0,3.23,2.41,10,10,0,0,0,3.72.69,8,8,0,0,0,3.47-.73,6.87,6.87,0,0,0,2.7-2.27,11.53,11.53,0,0,0,1.74-3.95,24,24,0,0,0,.61-5.73,26.08,26.08,0,0,0-.52-5.58,11.16,11.16,0,0,0-1.45-3.7,5.64,5.64,0,0,0-2.27-2,6.92,6.92,0,0,0-3-.63,9.31,9.31,0,0,0-4.68,1.08,13,13,0,0,0-3.57,3.19Z"/><path class="cls-3" d="M296.48,366.18a5.87,5.87,0,0,1-.53,2.48,6.77,6.77,0,0,1-1.44,2,6.39,6.39,0,0,1-2.1,1.38,6.7,6.7,0,0,1-2.58.5,6.35,6.35,0,0,1-4.5-1.88,6.65,6.65,0,0,1-1.4-2,6,6,0,0,1-.51-2.48,6.18,6.18,0,0,1,.51-2.5,6.78,6.78,0,0,1,1.4-2.05,6.37,6.37,0,0,1,2-1.37,6.25,6.25,0,0,1,2.46-.5,6.7,6.7,0,0,1,2.58.5,6.53,6.53,0,0,1,2.1,1.37,6.9,6.9,0,0,1,1.44,2.05A6,6,0,0,1,296.48,366.18Zm-1.26,11.19v39.37H284.68V377.37Z"/><path class="cls-3" d="M317.83,417.35a13.31,13.31,0,0,1-4.74-.78,9.22,9.22,0,0,1-5.62-5.75,14.07,14.07,0,0,1-.72-4.66V384.93H303a1.95,1.95,0,0,1-2-2.14v-4.12l6.3-1.15,2.14-10.19a2.13,2.13,0,0,1,2.33-1.72h5.5v12h10.16v7.33H317.29v20.55a4,4,0,0,0,.78,2.59,2.72,2.72,0,0,0,2.24,1,4.46,4.46,0,0,0,1.3-.17,5.64,5.64,0,0,0,.91-.39l.71-.38a1.48,1.48,0,0,1,.67-.17,1.31,1.31,0,0,1,.76.21,2.35,2.35,0,0,1,.61.71l3.17,5a15.39,15.39,0,0,1-4.93,2.59A18.42,18.42,0,0,1,317.83,417.35Z"/><path class="cls-3" d="M332.19,382.83a23.41,23.41,0,0,1,7.67-4.68A26.13,26.13,0,0,1,349,376.6a16.39,16.39,0,0,1,6.28,1.15,13.41,13.41,0,0,1,4.7,3.19,14,14,0,0,1,3,4.87,18.09,18.09,0,0,1,1,6.18v24.75h-4.81a4.91,4.91,0,0,1-2.27-.42,3.06,3.06,0,0,1-1.28-1.75l-.85-2.53a35.5,35.5,0,0,1-2.88,2.29A16.8,16.8,0,0,1,349,416a15.43,15.43,0,0,1-3.19,1,19.17,19.17,0,0,1-3.8.34,15.62,15.62,0,0,1-4.73-.68,10.21,10.21,0,0,1-3.69-2.05,9,9,0,0,1-2.39-3.38,12.07,12.07,0,0,1-.84-4.66,9.5,9.5,0,0,1,1.11-4.35,10.65,10.65,0,0,1,3.8-4,23.75,23.75,0,0,1,7.18-2.94A49.88,49.88,0,0,1,353.65,394v-2c0-2.46-.52-4.28-1.57-5.44a5.73,5.73,0,0,0-4.51-1.73,11,11,0,0,0-3.62.51,16.49,16.49,0,0,0-2.54,1.11l-2,1.1a4.55,4.55,0,0,1-2.22.52,3,3,0,0,1-1.85-.55,5,5,0,0,1-1.24-1.32Zm21.46,17.45a49.5,49.5,0,0,0-6.42.67,15.53,15.53,0,0,0-4.07,1.24,5.27,5.27,0,0,0-2.13,1.74,4.35,4.35,0,0,0,.64,5.36,5.87,5.87,0,0,0,3.57,1,10.3,10.3,0,0,0,4.57-.94,13.63,13.63,0,0,0,3.84-2.92Z"/><path class="cls-3" d="M382.78,359.8v56.94H372.24V359.8Z"/></svg>