<svg id="Layer_1" data-name="Layer 1" xmlns="http://www.w3.org/2000/svg" viewBox="0 0 720 720"><defs><style>.cls-1,.cls-2{fill:none;stroke:#008ad1;stroke-miterlimit:10;fill-rule:evenodd;}.cls-1{stroke-width:2.25px;}.cls-2{stroke-width:6.74px;}.cls-3{fill:#1d1d1b;}</style></defs><polygon class="cls-1" points="503.31 470.64 17.45 470.64 17.45 249.36 503.31 249.36 702.55 356 503.31 470.64"/><polyline class="cls-2" points="487 260.34 665.74 354.74 490.09 457.35"/><path class="cls-3" d="M154.07,347h-7.94a3.44,3.44,0,0,1-2.18-.67,4.16,4.16,0,0,1-1.26-1.67l-4.12-11.26H115.69l-4.12,11.26a3.66,3.66,0,0,1-1.19,1.61,3.32,3.32,0,0,1-2.18.73h-8l21.73-55.22h10.46Zm-18.14-20.86-6.72-18.36c-.33-.82-.68-1.79-1-2.91s-.72-2.33-1.07-3.63c-.33,1.3-.68,2.52-1,3.65s-.7,2.12-1,3l-6.68,18.29Z"/><path class="cls-3" d="M169.31,296.41a5.42,5.42,0,0,1-.5,2.29,6.34,6.34,0,0,1-1.32,1.87,6.51,6.51,0,0,1-1.92,1.28,5.91,5.91,0,0,1-2.37.48,5.62,5.62,0,0,1-2.31-.48,6.12,6.12,0,0,1-1.89-1.28,6.22,6.22,0,0,1-1.28-1.87,5.56,5.56,0,0,1-.48-2.29,5.87,5.87,0,0,1,.48-2.37,6,6,0,0,1,3.17-3.19,5.62,5.62,0,0,1,2.31-.48,5.91,5.91,0,0,1,2.37.48,6.33,6.33,0,0,1,1.92,1.28,6,6,0,0,1,1.32,1.91A5.72,5.72,0,0,1,169.31,296.41ZM168,307.83V347h-9.47V307.83Z"/><path class="cls-3" d="M186.45,312.63a27.21,27.21,0,0,1,2.5-2.19,15.53,15.53,0,0,1,2.79-1.72,15.85,15.85,0,0,1,3.15-1.11,16.25,16.25,0,0,1,3.67-.4,14.15,14.15,0,0,1,5.69,1.09,11.2,11.2,0,0,1,4.14,3.06,13.3,13.3,0,0,1,2.52,4.69,19.81,19.81,0,0,1,.86,6V347h-9.43V322.07a8.46,8.46,0,0,0-1.64-5.56,6.17,6.17,0,0,0-5-2,9.84,9.84,0,0,0-4.59,1.11,16.81,16.81,0,0,0-4.05,3V347h-9.43V307.83h5.77a2.33,2.33,0,0,1,2.41,1.71Z"/><path class="cls-3" d="M219.79,313.29a23.24,23.24,0,0,1,16.27-6.19,15.94,15.94,0,0,1,6.15,1.12,13.11,13.11,0,0,1,4.59,3.14,13.43,13.43,0,0,1,2.84,4.79,18.38,18.38,0,0,1,1,6.11V347h-4.27a4.31,4.31,0,0,1-2.07-.41,2.74,2.74,0,0,1-1.14-1.62l-.84-2.82a33.09,33.09,0,0,1-2.9,2.34,17.17,17.17,0,0,1-2.95,1.7,15.35,15.35,0,0,1-3.26,1.05,18.27,18.27,0,0,1-3.84.37,15.22,15.22,0,0,1-4.58-.67,10,10,0,0,1-3.63-2,8.92,8.92,0,0,1-2.37-3.32,11.76,11.76,0,0,1-.84-4.62,9.24,9.24,0,0,1,.5-3,8.65,8.65,0,0,1,1.62-2.81,13.69,13.69,0,0,1,2.92-2.52,19.16,19.16,0,0,1,4.42-2.06,38.62,38.62,0,0,1,6.09-1.43,61.13,61.13,0,0,1,7.94-.67v-2.29q0-3.93-1.68-5.82a6.13,6.13,0,0,0-4.85-1.9,11.42,11.42,0,0,0-3.8.54,16.53,16.53,0,0,0-2.66,1.2l-2.07,1.21a4.22,4.22,0,0,1-2.09.53,2.75,2.75,0,0,1-1.68-.51,4.38,4.38,0,0,1-1.11-1.21Zm21.62,17a51.21,51.21,0,0,0-6.87.71,18.39,18.39,0,0,0-4.47,1.31,6,6,0,0,0-2.41,1.87,4.66,4.66,0,0,0,.75,5.89,6.38,6.38,0,0,0,3.83,1.06,11.24,11.24,0,0,0,5-1.05,14.83,14.83,0,0,0,4.14-3.18Z"/><path class="cls-3" d="M268.9,312.63a19.47,19.47,0,0,1,5.26-3.95,14.26,14.26,0,0,1,6.58-1.47,13.76,13.76,0,0,1,6.13,1.34,13.12,13.12,0,0,1,4.66,3.84,17.9,17.9,0,0,1,3,6.05,28.53,28.53,0,0,1,1,8,29.75,29.75,0,0,1-1.18,8.67,20,20,0,0,1-3.38,6.67,15.52,15.52,0,0,1-5.29,4.29,15.28,15.28,0,0,1-6.88,1.53,14.19,14.19,0,0,1-3.32-.36,12.49,12.49,0,0,1-2.75-1,11.11,11.11,0,0,1-2.31-1.58,19.77,19.77,0,0,1-2-2.08l-.42,2.63a2.29,2.29,0,0,1-.79,1.41,2.37,2.37,0,0,1-1.5.43h-6.23V290.26h9.43Zm0,24.22a9.34,9.34,0,0,0,3.5,2.75,10.19,10.19,0,0,0,4,.8,9.45,9.45,0,0,0,3.91-.78,7.47,7.47,0,0,0,3-2.45,11.94,11.94,0,0,0,1.87-4.24,25.17,25.17,0,0,0,.65-6.17q0-6.45-2.13-9.33a7.21,7.21,0,0,0-6.15-2.89,8.87,8.87,0,0,0-4.74,1.25,15.5,15.5,0,0,0-3.86,3.49Z"/><path class="cls-3" d="M312.25,290.26v32.5H314a3.83,3.83,0,0,0,1.5-.25,3.06,3.06,0,0,0,1.13-1l9.74-12a4.6,4.6,0,0,1,1.36-1.23,3.85,3.85,0,0,1,1.92-.41h8.64l-12.19,14.54a10,10,0,0,1-2.82,2.64,7.56,7.56,0,0,1,1.43,1.34,16.12,16.12,0,0,1,1.2,1.64L339,347h-8.52a4.44,4.44,0,0,1-1.9-.37,2.91,2.91,0,0,1-1.34-1.31l-10-14.86a2.78,2.78,0,0,0-1.1-1.15,4.46,4.46,0,0,0-1.72-.26h-2.14V347h-9.43V290.26Z"/><path class="cls-3" d="M359,307.21a21.39,21.39,0,0,1,7.92,1.42,17.57,17.57,0,0,1,6.12,4,17.82,17.82,0,0,1,3.91,6.34,26.16,26.16,0,0,1,0,16.77,18.17,18.17,0,0,1-3.91,6.38,17.41,17.41,0,0,1-6.12,4.05,21.39,21.39,0,0,1-7.92,1.41,21.63,21.63,0,0,1-8-1.41,17.28,17.28,0,0,1-6.13-4.05,18.36,18.36,0,0,1-3.93-6.38A25.81,25.81,0,0,1,341,319a18,18,0,0,1,3.93-6.34,17.43,17.43,0,0,1,6.13-4A21.64,21.64,0,0,1,359,307.21Zm0,33.11q4.89,0,7.24-3.28c1.56-2.19,2.35-5.4,2.35-9.62s-.79-7.45-2.35-9.67-4-3.32-7.24-3.32-5.76,1.11-7.35,3.34-2.39,5.44-2.39,9.65.8,7.4,2.39,9.6S355.68,340.32,359,340.32Z"/><path class="cls-3" d="M396.61,296.41a5.42,5.42,0,0,1-.5,2.29,6.34,6.34,0,0,1-1.32,1.87,6.44,6.44,0,0,1-1.93,1.28,5.82,5.82,0,0,1-2.36.48,5.7,5.7,0,0,1-2.32-.48,6.37,6.37,0,0,1-1.89-1.28A6.19,6.19,0,0,1,385,298.7a5.56,5.56,0,0,1-.48-2.29,6.13,6.13,0,0,1,1.75-4.28,6.19,6.19,0,0,1,1.89-1.28,5.7,5.7,0,0,1,2.32-.48,5.82,5.82,0,0,1,2.36.48,6.25,6.25,0,0,1,1.93,1.28,6,6,0,0,1,1.32,1.91A5.72,5.72,0,0,1,396.61,296.41Zm-1.3,11.42V347h-9.47V307.83Z"/><path class="cls-3" d="M119.24,386.42a5.14,5.14,0,0,0-4.81,3.17,19,19,0,0,0-1.6,8.52q0,7.63,2.79,11.15a9.4,9.4,0,0,0,7.82,3.51,15.8,15.8,0,0,0,3.63-.42,13.05,13.05,0,0,0,3.94-1.79,2.65,2.65,0,0,1,1.37-.46,1.18,1.18,0,0,1,1,.49,7.2,7.2,0,0,1,.84,1.57,23.47,23.47,0,0,1-6,3.9,22.39,22.39,0,0,1-14.9.61,14.09,14.09,0,0,1-8.82-8.22,18.84,18.84,0,0,1-1.3-7.29,17.11,17.11,0,0,1,1.57-7.37,19.72,19.72,0,0,1,4-5.73,17.53,17.53,0,0,1,5.5-3.7,15.11,15.11,0,0,1,6-1.3,20.48,20.48,0,0,1,6.26.84,14.1,14.1,0,0,1,4.24,2.1,8.68,8.68,0,0,1,2.4,2.67,5.53,5.53,0,0,1,.77,2.56c0,.41-.37.74-1.11,1a13.93,13.93,0,0,1-2.48.57,25.26,25.26,0,0,1-2.64.23l-1.64,0a1.47,1.47,0,0,1-1.11-.43,2.18,2.18,0,0,1-.57-.87c-.25-.67-.51-1.31-.76-1.95a10.25,10.25,0,0,0-.88-1.72,3.59,3.59,0,0,0-1.34-1.22A4.38,4.38,0,0,0,119.24,386.42Z"/><path class="cls-3" d="M179.12,385.43c-.05,1.83-.89,2.75-2.52,2.75h-15l-1.22,10.31a21.13,21.13,0,0,1,3.67-1,23.05,23.05,0,0,1,4-.34,15,15,0,0,1,5,.8,11.39,11.39,0,0,1,4,2.33,10.84,10.84,0,0,1,2.64,3.74,12.6,12.6,0,0,1,.95,5.05q0,7.09-6.6,12.37t-19.9,9.31a3.4,3.4,0,0,1-.53-1,3.08,3.08,0,0,1-.23-1,1.08,1.08,0,0,1,.69-.91,45.43,45.43,0,0,0,8.36-4.62,24.68,24.68,0,0,0,4.92-4.62,13.34,13.34,0,0,0,2.37-4.47,15.29,15.29,0,0,0,.61-4.16,7.79,7.79,0,0,0-1.94-5.66,7.55,7.55,0,0,0-5.62-2,20.72,20.72,0,0,0-3.17.26,30.23,30.23,0,0,0-3.7.88l1.91-22h21.61Z"/><path class="cls-3" d="M195.93,390.62a15.94,15.94,0,0,1,3.93-2.1,13,13,0,0,1,4.39-.72,16.59,16.59,0,0,1,5.12.76,10.36,10.36,0,0,1,4.12,2.48,11.79,11.79,0,0,1,2.75,4.39,18.54,18.54,0,0,1,1,6.42,15.47,15.47,0,0,1-1.07,5.54,15.9,15.9,0,0,1-3.18,5.08,16.77,16.77,0,0,1-5.11,3.74,15.87,15.87,0,0,1-6.91,1.45,18.06,18.06,0,0,1-8.1-1.57,13.44,13.44,0,0,1-5-4,14.46,14.46,0,0,1-2.53-5.61,29.56,29.56,0,0,1-.68-6.26,24.91,24.91,0,0,1,1.72-8.94,33.13,33.13,0,0,1,5.11-8.78,47.19,47.19,0,0,1,8.48-8.13,58.31,58.31,0,0,1,11.8-6.84,3.89,3.89,0,0,1,.84,2.06,1.37,1.37,0,0,1-.68,1.15,67.65,67.65,0,0,0-6.08,4.81,42.18,42.18,0,0,0-4.58,4.77,30.1,30.1,0,0,0-3.29,5A26,26,0,0,0,195.93,390.62Zm5.34,1.91a6.45,6.45,0,0,0-3.32.76,4.67,4.67,0,0,0-1.87,2.07,9.44,9.44,0,0,0-.81,3,32.82,32.82,0,0,0-.18,3.51q0,12.21,5.88,12.22a5.32,5.32,0,0,0,4.66-2.52q1.68-2.52,1.68-8.71c0-3.76-.53-6.43-1.57-8A5.07,5.07,0,0,0,201.27,392.53Z"/></svg>