<svg id="Layer_1" data-name="Layer 1" xmlns="http://www.w3.org/2000/svg" viewBox="0 0 720 720"><defs><style>.cls-1{fill:#9c9b9b;}.cls-1,.cls-2,.cls-3,.cls-4{fill-rule:evenodd;}.cls-2{fill:#008ad1;}.cls-3,.cls-6{fill:#1d1d1b;}.cls-4,.cls-5{fill:#fff;}</style></defs><path class="cls-1" d="M88.54,690.36V39.12a13.7,13.7,0,0,1,13.6-13.71H617.88a13.69,13.69,0,0,1,13.58,13.72V690.36A13.68,13.68,0,0,1,617.88,704H102.14A13.69,13.69,0,0,1,88.54,690.36Z"/><path class="cls-2" d="M88.54,682.85V31.61a13.7,13.7,0,0,1,13.6-13.71H617.88a13.69,13.69,0,0,1,13.58,13.71V682.85a13.66,13.66,0,0,1-13.58,13.68H102.14A13.68,13.68,0,0,1,88.54,682.85Z"/><path class="cls-3" d="M90.49,31.61h0V682.85H86.6V31.61ZM102.14,16l-.79,0-.8.06-.78.1-.75.13-.77.19-.74.21-.71.25-.71.28-.68.3-.68.37-.64.37-.64.41-.61.44-.58.46-.57.5-.53.51-.52.55-.49.56-.47.6-.42.6-.4.64-.38.67-.34.65-.32.69-.28.71L87.3,27l-.21.74-.18.76-.13.75-.11.79,0,.8,0,.79h3.89V31l0-.59.08-.56.11-.59.13-.57.15-.55.19-.55.21-.51.23-.54.26-.5.27-.5.31-.47.34-.48.34-.43.37-.43.39-.42.4-.38.42-.37.45-.36.46-.32.46-.3.49-.29.5-.26.51-.24.53-.21.56-.19.54-.16.56-.12.57-.11.57-.09.58,0h.62V16Zm515.74,3.89H102.14V16H617.88v3.89ZM633.4,31.61l0-.79-.06-.8-.11-.79-.13-.75-.17-.76-.2-.74-.26-.75-.27-.69-.32-.71-.34-.65-.37-.66-.4-.65-.44-.6-.46-.6-.48-.56-.51-.55-.55-.51-.57-.5-.58-.46-.6-.44-.65-.41-.64-.37-.67-.37-.69-.3-.7-.27-.72-.26-.73-.21-.77-.19-.75-.13-.79-.1-.79-.06-.78,0v3.89h.61l.57,0,.58.09.58.11.54.12.56.16.54.19.53.21.52.24.5.26.49.29.45.28.46.34.46.36.41.37.4.38.39.42.37.43.34.43.34.48.3.46.28.51.26.5.22.51.22.55.19.54.15.55.13.57.11.59.07.56,0,.59v.63Zm-3.9,651.24h0V31.61h3.9V682.85Zm-11.62,15.63h0l.78,0,.79-.07.79-.1.75-.13.76-.18.73-.2.73-.27.7-.27.69-.32.67-.35.64-.37.65-.41.59-.44.59-.45.57-.5.53-.5.53-.56.48-.56.46-.59.44-.61.4-.64.37-.65.35-.67.31-.7.27-.7.26-.74.2-.75.17-.74.13-.77.11-.78.06-.79,0-.8h-3.9v.62l0,.59-.07.57-.11.58-.13.59-.15.55-.19.54-.22.52-.23.53-.25.51-.28.47-.3.48-.34.47-.34.44-.37.45-.38.39-.41.38-.41.39-.44.34-.47.32-.46.3-.49.29-.5.26-.52.23-.53.22-.53.19-.56.15-.55.13-.58.1-.58.07-.57,0-.61,0h0v3.89Zm-515.74-3.9H617.88v3.89H102.14v-3.9ZM86.6,682.85l0,.8,0,.79.11.78.13.77.18.74.21.75.24.73.28.71.31.7.35.67.38.66.4.63.43.61.46.59.49.57.52.55.54.5.56.5.59.45.61.44.63.41.64.37.68.35.68.32.71.29.73.25.72.2.77.18.75.13.78.1.8.07.79,0v-3.91l-.62,0-.58,0-.57-.07-.57-.1-.56-.13-.56-.15-.54-.2-.53-.21-.51-.23-.5-.26-.49-.29-.48-.3-.45-.32-.44-.34-.42-.39-.41-.38-.38-.4-.37-.44-.34-.44-.34-.47-.31-.48-.27-.47-.25-.51-.24-.53-.21-.51-.19-.55-.15-.57-.13-.57-.11-.58-.08-.57,0-.59v-.62Z"/><path class="cls-4" d="M97.79,674V40.5a13.27,13.27,0,0,1,13.13-13.33H609.08A13.27,13.27,0,0,1,622.2,40.5V674a13.25,13.25,0,0,1-13.12,13.32H110.92A13.25,13.25,0,0,1,97.79,674Z"/><path class="cls-2" d="M107.06,665.08V49.37A12.83,12.83,0,0,1,119.7,36.42H600.29a12.84,12.84,0,0,1,12.65,12.95V665.08a12.84,12.84,0,0,1-12.65,13H119.7A12.83,12.83,0,0,1,107.06,665.08Z"/><rect class="cls-5" x="150.24" y="78.38" width="419.52" height="419.49"/><rect class="cls-6" x="224.28" y="522.83" width="271.45" height="135.71"/><rect class="cls-5" x="231.06" y="529.61" width="257.89" height="122.15"/><path class="cls-3" d="M271.25,607.14l10.95-1.62c.31,3.4,1.23,6,2.81,7.8a7.06,7.06,0,0,0,11.48-.48c1.57-2.13,2.38-5.09,2.38-8.84,0-3.52-.78-6.26-2.3-8.26a6.85,6.85,0,0,0-5.61-3,16.36,16.36,0,0,0-5.16,1L287,582.5a9.37,9.37,0,0,0,6.94-2.36,9.27,9.27,0,0,0,2.52-6.92,8.7,8.7,0,0,0-1.84-5.86,5.87,5.87,0,0,0-4.67-2.11,6.43,6.43,0,0,0-5,2.42c-1.39,1.62-2.21,4-2.48,7.21l-10.48-2.14c1.11-6.61,3.21-11.39,6.35-14.38a16.61,16.61,0,0,1,11.9-4.49,15.75,15.75,0,0,1,12.8,5.77,19.4,19.4,0,0,1,4.75,12.73,17.18,17.18,0,0,1-2.12,8.52,19.9,19.9,0,0,1-6.43,6.62,14.08,14.08,0,0,1,8.09,5.86,19.43,19.43,0,0,1,3.12,11.31q0,9.87-5.88,16.35a18.25,18.25,0,0,1-14,6.46A17.72,17.72,0,0,1,277.52,622q-5.37-5.47-6.27-14.9Zm71.34,19.12V554.18H354v38.24l13.21-18.36h14l-14.66,19.05,15.69,33.15H370L359.14,602.8,354,609.55v16.71ZM388,574.06h10.41v7.11a20.34,20.34,0,0,1,6.15-6.24,13.43,13.43,0,0,1,7.22-2.07,12.33,12.33,0,0,1,7.17,2.07,14.6,14.6,0,0,1,4.93,6.24,21.67,21.67,0,0,1,6.11-6.24,12.88,12.88,0,0,1,7-2.07,12.74,12.74,0,0,1,12.38,8.07c1.07,2.59,1.63,6.56,1.63,12v33.37H439.63V596.41c0-5.2-.45-8.67-1.37-10.38a4.86,4.86,0,0,0-4.62-2.6,7,7,0,0,0-6.1,3.63c-1.54,2.41-2.3,7.11-2.3,14.13v25.07H413.87V597.64c0-5.66-.32-9.31-.92-11a4.85,4.85,0,0,0-5-3.25,7.23,7.23,0,0,0-4.62,1.68A9.23,9.23,0,0,0,400.3,590c-.62,2.16-.91,5.8-.91,10.9v25.37H388Z"/><path class="cls-3" d="M492.82,433.84h-5.05a13.77,13.77,0,0,1-5.45,1.09H451.87a12.76,12.76,0,0,1-5-1.09H273.18a12.88,12.88,0,0,1-5.05,1.09H237.66a13.86,13.86,0,0,1-5.44-1.09h-7.59v-8.32a18.58,18.58,0,0,1-1.09-6.34V387.06a13,13,0,0,1,1.09-5V360.08a12.34,12.34,0,0,1-1.09-4.85V322.79a19.6,19.6,0,0,1,1.09-6.8V294.23a13.41,13.41,0,0,1-1.09-5.16V255a13,13,0,0,1,2-6.82c2.34-15.37,9.41-31.57,20.07-46.65a13.35,13.35,0,0,1,3.65-7.17l24-24a13.16,13.16,0,0,1,6.54-3.53A141.34,141.34,0,0,1,334.43,142a13.26,13.26,0,0,1,8.56-3.21h34a13.69,13.69,0,0,1,8.61,3.21,142.14,142.14,0,0,1,54.57,24.84,13,13,0,0,1,6.53,3.53l24,24a13.37,13.37,0,0,1,3.66,7.16c10.66,15.09,17.72,31.29,20.07,46.66a13,13,0,0,1,1.93,6.82v34a13.05,13.05,0,0,1-1.07,5.18V316a18.93,18.93,0,0,1,1.07,6.8v32.44a12,12,0,0,1-1.07,4.85V382a12.63,12.63,0,0,1,1.07,5v32.12a18.34,18.34,0,0,1-1.07,6.34v8.32Z"/><path class="cls-4" d="M228.56,387.06c0-4.43,3.85-8.83,8.18-8.83h32.33c4.56,0,8.16,4.95,8.16,9.77v31.8c0,6.12-3.94,10.07-10,10.07H236.74c-4,0-8.18-4.59-8.18-9.13Z"/><path class="cls-4" d="M268.46,363.73h-32c-4.43,0-7.88-4.59-7.88-9.46V320c0-4.07,5.05-7.89,9.75-7.89h28.88c6,0,10,4.11,10,10.09V354C277.23,359.21,273.61,363.73,268.46,363.73Z"/><path class="cls-4" d="M228.56,254.41c0-4.61,4.69-8.18,9.75-8.18h28.57c5.82,0,10.35,3.67,10.35,9.14v33.39c0,4.37-4.08,9.13-8.47,9.13h-32c-4.16,0-8.18-4.38-8.18-8.81Z"/><path class="cls-4" d="M277.27,173.46c3.29-3.27,9.13-2.45,12.71,1.13l20.28,20.28c4.13,4.13,4.77,9.95.9,13.82l-23.6,23.61c-3.1,3.09-9.35,3.53-12.48.42L252.36,210c-3-3-2.69-8.89.44-12Z"/><path class="cls-4" d="M342.37,143.84c-4.63,0-8.2,4.69-8.2,9.77v28.68c0,5.83,3.65,10.4,9.14,10.4h33.37c4.39,0,9.13-4.11,9.13-8.52V152c0-4.19-4.37-8.18-8.8-8.18Z"/><path class="cls-4" d="M442.72,173.46c-3.29-3.27-9.12-2.45-12.71,1.13l-20.27,20.28c-4.14,4.13-4.78,9.95-.9,13.82l23.6,23.61c3.09,3.09,9.36,3.53,12.49.42L467.64,210c3-3,2.69-8.89-.44-12Z"/><path class="cls-4" d="M491.43,254.41c0-4.61-4.68-8.18-9.74-8.18H453.12c-5.81,0-10.35,3.67-10.35,9.14v33.39c0,4.37,4.08,9.13,8.48,9.13h32c4.17,0,8.16-4.38,8.16-8.81Z"/><path class="cls-4" d="M451.55,363.73h32c4.4,0,7.84-4.59,7.84-9.46V320c0-4.07-5-7.89-9.74-7.89H452.82c-6,0-10.05,4.11-10.05,10.09V354C442.77,359.21,446.39,363.73,451.55,363.73Z"/><path class="cls-4" d="M491.43,387.06c0-4.43-3.86-8.83-8.16-8.83H450.93c-4.57,0-8.16,4.95-8.16,9.77v31.8c0,6.12,3.93,10.07,10.05,10.07h30.45c4,0,8.16-4.59,8.16-9.13Z"/><path class="cls-4" d="M383.55,349.86h40.27V308.07c0-10.69-9.05-19.45-20.14-19.45h0c-11.07,0-20.13,8.76-20.13,19.45Z"/><path class="cls-4" d="M445.09,367.1V375a12.75,12.75,0,0,1,6.46-1.79h32a11.65,11.65,0,0,1,6.68,2.38v-9.2a11.45,11.45,0,0,1-6.68,2.37H450.3A10,10,0,0,1,445.09,367.1Z"/><path class="cls-4" d="M445.09,301.11v8a14.28,14.28,0,0,1,6.78-1.76h32.66c1.88,0,4,1.19,5.74,2.5v-9.41a13.34,13.34,0,0,1-7.64,2.46H451.55A12.84,12.84,0,0,1,445.09,301.11Z"/><path class="cls-4" d="M435.91,239.42a80.66,80.66,0,0,1,4.24,8.33,15.45,15.45,0,0,1,12.34-6.55H482a14.54,14.54,0,0,1,6.19,1.4,107.88,107.88,0,0,0-14.55-33,13.09,13.09,0,0,1-2.89,4.45L448.7,236.07A13.68,13.68,0,0,1,435.91,239.42Z"/><path class="cls-4" d="M380.57,196.85a88,88,0,0,1,21.12,8.85,15.63,15.63,0,0,1,4-13.94l20.95-21a14.72,14.72,0,0,1,5.42-3.41,137.09,137.09,0,0,0-42-19.09,13,13,0,0,1,.77,4.36v31.2C390.86,189.89,386.41,195.17,380.57,196.85Z"/><path class="cls-4" d="M318.29,205.7A87.81,87.81,0,0,1,339.05,197c-5.56-1.69-9.9-7.84-9.9-14V153.28a14.63,14.63,0,0,1,.89-5,136.64,136.64,0,0,0-42.14,19.11,14.79,14.79,0,0,1,5.43,3.41l21,21A15.57,15.57,0,0,1,318.29,205.7Z"/><path class="cls-4" d="M279.85,247.75a75.21,75.21,0,0,1,4.25-8.33,13.66,13.66,0,0,1-12.79-3.35L249.23,214a13.14,13.14,0,0,1-2.88-4.47,108.12,108.12,0,0,0-14.56,33.07,14.57,14.57,0,0,1,6.21-1.4h29.51A15.49,15.49,0,0,1,279.85,247.75Z"/><path class="cls-4" d="M274.91,309.12v-8a12.83,12.83,0,0,1-6.45,1.8h-31.1a13.23,13.23,0,0,1-7.62-2.46v9.41c1.75-1.31,3.87-2.5,5.75-2.5h32.64A14.22,14.22,0,0,1,274.91,309.12Z"/><path class="cls-4" d="M274.91,375V367.1a10.1,10.1,0,0,1-5.21,1.65H236.44a11.41,11.41,0,0,1-6.7-2.36v9.19a11.61,11.61,0,0,1,6.7-2.38h32A12.69,12.69,0,0,1,274.91,375Z"/><path class="cls-4" d="M280.32,427.36H287V275.94c0-40.4,32.86-73.45,73-73.45h0c40.18,0,73,33,73,73.45V427.36h6.63a12.22,12.22,0,0,1-1.62-6v-34a14.53,14.53,0,0,1,1.9-7.16V361.79a12.41,12.41,0,0,1-1.9-6.27V320.58A12.53,12.53,0,0,1,440,314V295.87a14.49,14.49,0,0,1-1.9-7.12V256.92c-3.37-11.6-11-23.65-21.53-33.73-14.53-13.9-34.53-24-56.51-24h0c-17.55,0-33.87,6.44-47.13,16.13a95.68,95.68,0,0,0-9.17,7.64c-10.64,10.14-18.35,22.28-21.74,33.95v31.81a14.32,14.32,0,0,1-1.9,7.11V314a12.44,12.44,0,0,1,1.9,6.58v34.94a12.44,12.44,0,0,1-1.9,6.27v18.42a14.46,14.46,0,0,1,1.9,7.15v34A12.19,12.19,0,0,1,280.32,427.36Z"/></svg>