<svg id="Layer_1" data-name="Layer 1" xmlns="http://www.w3.org/2000/svg" viewBox="0 0 720 720"><defs><style>.cls-1{fill:#9c9b9b;}.cls-1,.cls-2,.cls-3,.cls-4{fill-rule:evenodd;}.cls-2{fill:#008ad1;}.cls-3{fill:#1d1d1b;}.cls-4,.cls-5{fill:#fff;}</style></defs><path class="cls-1" d="M89,689.76V39.65A13.63,13.63,0,0,1,102.57,26H617.43A13.64,13.64,0,0,1,631,39.65V689.76a13.67,13.67,0,0,1-13.56,13.69H102.57A13.66,13.66,0,0,1,89,689.76Z"/><path class="cls-2" d="M89,682.29V32.14A13.63,13.63,0,0,1,102.57,18.5H617.43A13.64,13.64,0,0,1,631,32.14V682.29A13.67,13.67,0,0,1,617.43,696H102.57A13.65,13.65,0,0,1,89,682.29Z"/><path class="cls-3" d="M91,32.14h0V682.29H87.07V32.14Zm11.61-15.59-.79,0-.78.06-.79.11-.75.13-.76.18-.73.19-.72.24-.71.29-.67.32-.68.35-.65.37-.62.42-.61.44-.6.46-.55.48-.54.52-.51.54-.5.57-.45.59-.43.61-.4.64-.39.65-.33.66-.31.7-.28.7-.24.74-.21.74-.18.74-.13.76-.11.79-.05.79,0,.78H91v-.61l0-.59.07-.57.1-.59.14-.56.16-.55.17-.54.22-.53.24-.52.25-.5.28-.51.3-.46.33-.45.35-.46.36-.44.38-.39.4-.39.44-.38.43-.34.45-.33.47-.29.49-.3.51-.24.51-.24.52-.2.54-.2.56-.15.54-.13.58-.11.58-.09.58,0,.6,0V16.55Zm514.86,3.89H102.57V16.55H617.43v3.89Zm15.5,11.7,0-.78-.06-.79-.11-.79-.13-.76-.18-.74-.2-.74L632,26.8l-.28-.7-.28-.7-.35-.66-.4-.67-.39-.62-.44-.61-.45-.59-.49-.57-.52-.54-.55-.52-.54-.48-.59-.46-.61-.44-.64-.42-.63-.37-.68-.35-.67-.32-.7-.27-.74-.26-.73-.19-.76-.18-.74-.13-.79-.11-.78-.06-.79,0v3.89l.61,0,.57,0,.57.09.59.11.54.13.55.15.54.18.53.22.5.24.5.24.51.3.48.29.43.33.44.34.44.38.39.39.39.39.37.44.33.43.33.48.33.49.26.48.26.5.24.52.2.53.17.54.18.55.13.56.11.59.06.57,0,.59,0,.61Zm-3.88,650.15h0V32.14h3.88V682.29ZM617.43,697.9l.79,0,.78-.07.79-.1.74-.14.76-.17.75-.22.7-.24.72-.28.7-.33.65-.33.63-.39.64-.4.63-.45.57-.46.54-.48.55-.5.52-.57.49-.57.45-.59.44-.59.39-.63.4-.68.32-.65.31-.7.28-.72.26-.72.2-.74.18-.75.13-.76.11-.79.06-.78,0-.79h-3.88l0,.61,0,.59-.06.57-.11.59-.13.57-.18.54-.17.55-.2.52-.24.53-.26.5-.26.5-.33.46-.33.48-.33.43-.37.44-.39.39-.39.4-.44.37-.44.35-.43.33-.48.3-.51.29-.5.26-.5.24-.53.19-.54.2-.55.15-.54.13-.59.11-.57.07-.57,0-.61,0v3.89ZM102.57,694H617.43v3.89H102.57V694Zm-15.5-11.72,0,.79.05.78.11.79.13.76.18.75.21.74.24.72.28.72.32.7.32.65.39.66.4.63.43.63.45.57.5.57.51.57.54.5.55.48.59.48.62.43.62.4.65.39.66.33.69.33.72.28.71.24.73.22.76.17.75.14.79.1.78.07.79,0V694l-.6,0-.58,0-.58-.07-.58-.11-.54-.13-.55-.15-.56-.2-.51-.19-.5-.24-.52-.26-.49-.29-.47-.3-.44-.33-.44-.35-.44-.37-.4-.4-.38-.39-.36-.44-.35-.45-.33-.44-.3-.48-.28-.5-.25-.5-.24-.53-.22-.52-.17-.55-.17-.54-.13-.57-.1-.59-.07-.57,0-.59v-.61Z"/><path class="cls-4" d="M98.27,673.4V41a13.24,13.24,0,0,1,13.08-13.3h497.3A13.24,13.24,0,0,1,621.73,41V673.4a13.23,13.23,0,0,1-13.08,13.32H111.35A13.23,13.23,0,0,1,98.27,673.4Z"/><path class="cls-2" d="M107.49,664.56V49.9A12.81,12.81,0,0,1,120.12,37H599.88A12.81,12.81,0,0,1,612.5,49.9V664.56a12.84,12.84,0,0,1-12.62,12.93H120.12A12.84,12.84,0,0,1,107.49,664.56Z"/><rect class="cls-5" x="150.61" y="78.85" width="418.78" height="418.77"/><polygon class="cls-3" points="358.56 447.71 358.56 298.82 336.04 298.82 427.28 175.57 526.38 298.82 503.94 298.82 503.94 447.71 516.51 447.71 516.51 462.23 226.68 462.23 226.68 447.71 259.32 447.71 257.53 321.07 163.67 343.38 237.37 277.01 171.01 296.84 233.47 209.78 196.86 222.71 243.8 120.48 317.41 215.85 281.61 207.67 328.24 287.93 285.93 263.76 334.26 350.06 281.61 317.25 279.19 447.71 358.56 447.71"/><rect class="cls-5" x="410.14" y="359.3" width="42.16" height="79.98"/></svg>